<?xml version="1.0" encoding="UTF-8" standalone="no"?>
<svg
   xmlns:dc="http://purl.org/dc/elements/1.1/"
   xmlns:cc="http://creativecommons.org/ns#"
   xmlns:rdf="http://www.w3.org/1999/02/22-rdf-syntax-ns#"
   xmlns:svg="http://www.w3.org/2000/svg"
   xmlns="http://www.w3.org/2000/svg"
   height="76.400002"
   width="342.29999"
   xml:space="preserve"
   viewBox="0 0 342.29999 76.400002"
   y="0px"
   x="0px"
   id="Layer_1"
   version="1.1"><metadata
   id="metadata1090"><rdf:RDF><cc:Work
       rdf:about=""><dc:format>image/svg+xml</dc:format><dc:type
         rdf:resource="http://purl.org/dc/dcmitype/StillImage" /><dc:title></dc:title></cc:Work></rdf:RDF></metadata><defs
   id="defs1088" />
<style
   id="style833"
   type="text/css">
	.st0{fill:#8CD2D1;}
	.st1{fill:#FAA61A;}
	.st2{fill:#E98EBC;}
	.st3{fill:#808285;}
</style>
<g
   transform="translate(-106.2,-43.7)"
   id="g1083"><g
   id="g1136"><g
     id="g1057">
		<path
   class="st3"
   d="M 108.2,119.9 V 110 h 4.4 c 0.9,0 1.6,0.1 2.2,0.3 0.5,0.2 1,0.5 1.3,0.9 0.3,0.4 0.5,0.9 0.5,1.3 0,0.4 -0.1,0.8 -0.4,1.2 -0.3,0.4 -0.7,0.7 -1.2,0.9 0.7,0.2 1.3,0.5 1.6,0.9 0.4,0.4 0.6,0.9 0.6,1.5 0,0.5 -0.1,0.9 -0.3,1.3 -0.2,0.4 -0.5,0.7 -0.9,0.9 -0.4,0.2 -0.8,0.4 -1.3,0.5 -0.5,0.1 -1.1,0.2 -1.9,0.2 z m 1.6,-5.8 h 2.5 c 0.7,0 1.2,0 1.5,-0.1 0.4,-0.1 0.7,-0.3 0.9,-0.5 0.2,-0.2 0.3,-0.5 0.3,-0.9 0,-0.3 -0.1,-0.6 -0.3,-0.9 -0.2,-0.3 -0.5,-0.4 -0.8,-0.5 -0.3,-0.1 -0.9,-0.1 -1.8,-0.1 h -2.4 v 3 z m 0,4.6 h 2.9 c 0.5,0 0.9,0 1.1,0 0.4,-0.1 0.7,-0.1 0.9,-0.3 0.2,-0.1 0.4,-0.3 0.6,-0.6 0.2,-0.2 0.2,-0.5 0.2,-0.8 0,-0.4 -0.1,-0.7 -0.3,-1 -0.2,-0.3 -0.5,-0.5 -0.9,-0.6 -0.4,-0.1 -1,-0.2 -1.7,-0.2 h -2.7 v 3.5 z"
   id="path995" />
		<path
   class="st3"
   d="m 127,110 h 1.6 v 5.7 c 0,1 -0.1,1.8 -0.4,2.4 -0.3,0.6 -0.8,1.1 -1.4,1.4 -0.7,0.4 -1.6,0.6 -2.8,0.6 -1.1,0 -2,-0.2 -2.7,-0.5 -0.7,-0.3 -1.2,-0.8 -1.5,-1.4 -0.3,-0.6 -0.4,-1.4 -0.4,-2.5 V 110 h 1.6 v 5.7 c 0,0.9 0.1,1.5 0.3,1.9 0.2,0.4 0.5,0.7 1,0.9 0.5,0.2 1,0.3 1.7,0.3 1.1,0 2,-0.2 2.4,-0.7 0.5,-0.4 0.7,-1.3 0.7,-2.5 V 110 Z"
   id="path997" />
		<path
   class="st3"
   d="M 131.4,119.9 V 110 h 1.6 v 9.9 z"
   id="path999" />
		<path
   class="st3"
   d="M 135.6,119.9 V 110 h 1.6 v 8.7 h 5.8 v 1.2 z"
   id="path1001" />
		<path
   class="st3"
   d="M 144.8,119.9 V 110 h 4.1 c 0.9,0 1.6,0 2.1,0.1 0.7,0.1 1.3,0.4 1.7,0.7 0.6,0.4 1.1,1 1.4,1.7 0.3,0.7 0.5,1.5 0.5,2.4 0,0.8 -0.1,1.4 -0.3,2 -0.2,0.6 -0.5,1.1 -0.8,1.4 -0.3,0.4 -0.7,0.7 -1.1,0.9 -0.4,0.2 -0.9,0.4 -1.4,0.5 -0.5,0.1 -1.2,0.2 -1.9,0.2 z m 1.6,-1.2 h 2.5 c 0.8,0 1.4,-0.1 1.8,-0.2 0.4,-0.1 0.8,-0.3 1.1,-0.5 0.4,-0.3 0.7,-0.7 0.9,-1.3 0.2,-0.5 0.3,-1.2 0.3,-1.9 0,-1 -0.2,-1.8 -0.6,-2.4 -0.4,-0.6 -0.9,-0.9 -1.5,-1.1 -0.4,-0.1 -1.1,-0.2 -2,-0.2 h -2.5 z"
   id="path1003" />
		<path
   class="st3"
   d="M 157,119.9 V 110 h 1.6 v 9.9 z"
   id="path1005" />
		<path
   class="st3"
   d="M 161.3,119.9 V 110 h 1.6 l 6.2,7.8 V 110 h 1.5 v 9.9 H 169 l -6.2,-7.8 v 7.8 z"
   id="path1007" />
		<path
   class="st3"
   d="m 178.7,116 v -1.2 h 5 v 3.7 c -0.8,0.5 -1.6,0.9 -2.4,1.2 -0.8,0.3 -1.6,0.4 -2.5,0.4 -1.2,0 -2.2,-0.2 -3.2,-0.6 -0.9,-0.4 -1.7,-1 -2.1,-1.8 -0.5,-0.8 -0.7,-1.7 -0.7,-2.6 0,-1 0.2,-1.9 0.7,-2.7 0.5,-0.8 1.2,-1.5 2.1,-1.9 0.9,-0.4 1.9,-0.6 3.1,-0.6 0.9,0 1.6,0.1 2.3,0.3 0.7,0.2 1.2,0.6 1.6,1 0.4,0.4 0.7,1 0.9,1.6 l -1.4,0.3 c -0.2,-0.5 -0.4,-0.9 -0.7,-1.2 -0.3,-0.3 -0.6,-0.5 -1.1,-0.7 -0.5,-0.2 -1,-0.3 -1.6,-0.3 -0.7,0 -1.3,0.1 -1.8,0.3 -0.5,0.2 -0.9,0.4 -1.3,0.7 -0.4,0.3 -0.6,0.6 -0.7,1 -0.3,0.6 -0.4,1.3 -0.4,2 0,0.9 0.2,1.6 0.5,2.2 0.4,0.6 0.9,1 1.6,1.3 0.7,0.3 1.4,0.4 2.2,0.4 0.7,0 1.3,-0.1 2,-0.3 0.6,-0.2 1.1,-0.5 1.5,-0.7 V 116 Z"
   id="path1009" />
		<path
   class="st3"
   d="m 188.3,119.9 4.5,-9.9 h 1.7 l 4.8,9.9 h -1.8 l -1.4,-3 h -4.9 l -1.3,3 z m 3.4,-4.1 h 4 l -1.2,-2.7 c -0.4,-0.8 -0.7,-1.5 -0.8,-2.1 -0.1,0.6 -0.4,1.3 -0.6,1.9 z"
   id="path1011" />
		<path
   class="st3"
   d="M 204.2,119.9 V 110 h 2.3 l 2.8,7 c 0.3,0.7 0.4,1.1 0.6,1.5 0.1,-0.4 0.3,-0.9 0.6,-1.6 l 2.8,-6.9 h 2.1 v 9.9 h -1.5 v -8.3 l -3.4,8.3 h -1.4 l -3.4,-8.4 v 8.4 z"
   id="path1013" />
		<path
   class="st3"
   d="M 218,119.9 V 110 h 8.5 v 1.2 h -7 v 3 h 6.5 v 1.2 h -6.5 v 3.4 h 7.2 V 120 H 218 Z"
   id="path1015" />
		<path
   class="st3"
   d="M 228.9,119.9 V 110 h 1.6 l 6.2,7.8 V 110 h 1.5 v 9.9 h -1.6 l -6.2,-7.8 v 7.8 z"
   id="path1017" />
		<path
   class="st3"
   d="m 243.8,119.9 v -8.7 h -3.9 V 110 h 9.3 v 1.2 h -3.9 v 8.7 z"
   id="path1019" />
		<path
   class="st3"
   d="m 248.3,119.9 4.5,-9.9 h 1.7 l 4.8,9.9 h -1.8 l -1.4,-3 h -4.9 l -1.3,3 z m 3.4,-4.1 h 4 l -1.2,-2.7 c -0.4,-0.8 -0.7,-1.5 -0.8,-2.1 -0.1,0.6 -0.4,1.3 -0.6,1.9 z"
   id="path1021" />
		<path
   class="st3"
   d="M 260.5,119.9 V 110 h 1.6 v 8.7 h 5.8 v 1.2 z"
   id="path1023" />
		<path
   class="st3"
   d="m 275.8,119.9 -3.1,-9.9 h 1.6 l 1.8,6.5 c 0.2,0.7 0.4,1.4 0.5,2 0.3,-1.1 0.5,-1.7 0.5,-1.8 l 2.2,-6.7 h 1.9 l 1.7,5 c 0.4,1.2 0.7,2.4 0.9,3.5 0.2,-0.6 0.3,-1.3 0.6,-2.2 l 1.8,-6.4 h 1.6 l -3.2,9.9 H 283 l -2.5,-7.6 c -0.2,-0.6 -0.3,-1 -0.4,-1.2 -0.1,0.5 -0.2,0.8 -0.3,1.2 l -2.5,7.6 h -1.5 z"
   id="path1025" />
		<path
   class="st3"
   d="M 289.3,119.9 V 110 h 8.5 v 1.2 h -7 v 3 h 6.5 v 1.2 h -6.5 v 3.4 h 7.2 v 1.2 h -8.7 z"
   id="path1027" />
		<path
   class="st3"
   d="M 300.1,119.9 V 110 h 1.6 v 8.7 h 5.8 v 1.2 z"
   id="path1029" />
		<path
   class="st3"
   d="M 309.3,119.9 V 110 h 1.6 v 8.7 h 5.8 v 1.2 z"
   id="path1031" />
		<path
   class="st3"
   d="M 318.4,119.9 V 110 h 4.4 c 0.9,0 1.6,0.1 2.2,0.3 0.5,0.2 1,0.5 1.3,0.9 0.3,0.4 0.5,0.9 0.5,1.3 0,0.4 -0.1,0.8 -0.4,1.2 -0.3,0.4 -0.7,0.7 -1.2,0.9 0.7,0.2 1.3,0.5 1.6,0.9 0.4,0.4 0.6,0.9 0.6,1.5 0,0.5 -0.1,0.9 -0.3,1.3 -0.2,0.4 -0.5,0.7 -0.9,0.9 -0.4,0.2 -0.8,0.4 -1.3,0.5 -0.5,0.1 -1.2,0.2 -1.9,0.2 z m 1.6,-5.8 h 2.5 c 0.7,0 1.2,0 1.5,-0.1 0.4,-0.1 0.7,-0.3 0.9,-0.5 0.2,-0.2 0.3,-0.5 0.3,-0.9 0,-0.3 -0.1,-0.6 -0.3,-0.9 -0.2,-0.3 -0.5,-0.4 -0.8,-0.5 -0.3,-0.1 -0.9,-0.1 -1.8,-0.1 H 320 Z m 0,4.6 h 2.9 c 0.5,0 0.9,0 1.1,0 0.4,-0.1 0.7,-0.1 0.9,-0.3 0.2,-0.1 0.4,-0.3 0.6,-0.6 0.2,-0.2 0.2,-0.5 0.2,-0.8 0,-0.4 -0.1,-0.7 -0.3,-1 -0.2,-0.3 -0.5,-0.5 -0.9,-0.6 -0.4,-0.1 -1,-0.2 -1.7,-0.2 H 320 Z"
   id="path1033" />
		<path
   class="st3"
   d="M 329.5,119.9 V 110 h 8.5 v 1.2 h -7 v 3 h 6.5 v 1.2 H 331 v 3.4 h 7.2 v 1.2 h -8.7 z"
   id="path1035" />
		<path
   class="st3"
   d="M 340.7,119.9 V 110 h 1.6 v 9.9 z"
   id="path1037" />
		<path
   class="st3"
   d="M 345,119.9 V 110 h 1.6 l 6.2,7.8 V 110 h 1.5 v 9.9 h -1.6 l -6.2,-7.8 v 7.8 z"
   id="path1039" />
		<path
   class="st3"
   d="m 362.4,116 v -1.2 h 5 v 3.7 c -0.8,0.5 -1.6,0.9 -2.4,1.2 -0.8,0.3 -1.6,0.4 -2.5,0.4 -1.2,0 -2.2,-0.2 -3.2,-0.6 -0.9,-0.4 -1.7,-1 -2.1,-1.8 -0.5,-0.8 -0.7,-1.7 -0.7,-2.6 0,-1 0.2,-1.9 0.7,-2.7 0.5,-0.8 1.2,-1.5 2.1,-1.9 0.9,-0.4 1.9,-0.6 3.1,-0.6 0.9,0 1.6,0.1 2.3,0.3 0.7,0.2 1.2,0.6 1.6,1 0.4,0.4 0.7,1 0.9,1.6 l -1.4,0.3 c -0.2,-0.5 -0.4,-0.9 -0.7,-1.2 -0.3,-0.3 -0.6,-0.5 -1.1,-0.7 -0.5,-0.2 -1,-0.3 -1.6,-0.3 -0.7,0 -1.3,0.1 -1.8,0.3 -0.5,0.2 -0.9,0.4 -1.3,0.7 -0.3,0.3 -0.6,0.6 -0.7,1 -0.3,0.6 -0.5,1.3 -0.5,2 0,0.9 0.2,1.6 0.5,2.2 0.4,0.6 0.9,1 1.6,1.3 0.7,0.3 1.4,0.4 2.2,0.4 0.7,0 1.3,-0.1 2,-0.3 0.6,-0.2 1.1,-0.5 1.5,-0.7 V 116 Z"
   id="path1041" />
		<path
   class="st3"
   d="m 382.7,116.4 1.6,0.3 c -0.3,1.1 -0.9,1.9 -1.8,2.5 -0.8,0.6 -1.9,0.8 -3.1,0.8 -1.3,0 -2.3,-0.2 -3.1,-0.7 -0.8,-0.4 -1.4,-1.1 -1.8,-1.9 -0.4,-0.8 -0.6,-1.7 -0.6,-2.7 0,-1 0.2,-1.9 0.7,-2.7 0.5,-0.8 1.1,-1.4 2,-1.8 0.9,-0.4 1.8,-0.6 2.9,-0.6 1.2,0 2.2,0.3 3,0.8 0.8,0.5 1.4,1.2 1.7,2.1 l -1.5,0.3 c -0.3,-0.7 -0.7,-1.2 -1.2,-1.6 -0.5,-0.3 -1.2,-0.5 -2,-0.5 -0.9,0 -1.7,0.2 -2.3,0.5 -0.6,0.4 -1,0.9 -1.3,1.5 -0.2,0.6 -0.4,1.3 -0.4,1.9 0,0.8 0.1,1.6 0.4,2.2 0.3,0.6 0.7,1.1 1.4,1.4 0.6,0.3 1.3,0.5 2,0.5 0.9,0 1.6,-0.2 2.2,-0.6 0.5,-0.2 0.9,-0.8 1.2,-1.7 z"
   id="path1043" />
		<path
   class="st3"
   d="m 393.9,110 h 1.6 v 5.7 c 0,1 -0.1,1.8 -0.4,2.4 -0.3,0.6 -0.8,1.1 -1.5,1.4 -0.7,0.4 -1.6,0.6 -2.8,0.6 -1.1,0 -2,-0.2 -2.7,-0.5 -0.7,-0.3 -1.2,-0.8 -1.5,-1.4 -0.3,-0.6 -0.4,-1.4 -0.4,-2.5 V 110 h 1.6 v 5.7 c 0,0.9 0.1,1.5 0.3,1.9 0.2,0.4 0.5,0.7 1,0.9 0.5,0.2 1,0.3 1.7,0.3 1.1,0 2,-0.2 2.5,-0.7 0.5,-0.4 0.7,-1.3 0.7,-2.5 V 110 Z"
   id="path1045" />
		<path
   class="st3"
   d="M 397.9,119.9 V 110 h 1.6 v 8.7 h 5.8 v 1.2 z"
   id="path1047" />
		<path
   class="st3"
   d="m 408.9,119.9 v -8.7 H 405 V 110 h 9.3 v 1.2 h -3.9 v 8.7 z"
   id="path1049" />
		<path
   class="st3"
   d="m 423.7,110 h 1.6 v 5.7 c 0,1 -0.1,1.8 -0.4,2.4 -0.3,0.6 -0.8,1.1 -1.5,1.4 -0.7,0.4 -1.6,0.6 -2.8,0.6 -1.1,0 -2,-0.2 -2.7,-0.5 -0.7,-0.3 -1.2,-0.8 -1.5,-1.4 -0.3,-0.6 -0.4,-1.4 -0.4,-2.5 V 110 h 1.6 v 5.7 c 0,0.9 0.1,1.5 0.3,1.9 0.2,0.4 0.5,0.7 1,0.9 0.5,0.2 1,0.3 1.7,0.3 1.1,0 2,-0.2 2.5,-0.7 0.5,-0.4 0.7,-1.3 0.7,-2.5 V 110 Z"
   id="path1051" />
		<path
   class="st3"
   d="M 427.9,119.9 V 110 h 5.2 c 1,0 1.8,0.1 2.4,0.3 0.5,0.2 1,0.5 1.3,0.9 0.3,0.5 0.5,0.9 0.5,1.5 0,0.7 -0.3,1.3 -0.8,1.8 -0.5,0.5 -1.4,0.8 -2.5,0.9 0.4,0.2 0.7,0.3 0.9,0.5 0.5,0.4 0.9,0.8 1.3,1.3 l 2,2.7 h -2 l -1.6,-2.1 c -0.5,-0.6 -0.8,-1.1 -1.1,-1.4 -0.3,-0.3 -0.6,-0.5 -0.8,-0.7 -0.2,-0.1 -0.5,-0.2 -0.7,-0.3 -0.2,0 -0.5,0 -0.9,0 h -1.8 v 4.4 h -1.4 z m 1.5,-5.5 h 3.3 c 0.7,0 1.3,-0.1 1.7,-0.2 0.4,-0.1 0.7,-0.3 0.9,-0.6 0.2,-0.3 0.3,-0.6 0.3,-0.9 0,-0.5 -0.2,-0.9 -0.6,-1.2 -0.4,-0.3 -1,-0.5 -1.9,-0.5 h -3.7 z"
   id="path1053" />
		<path
   class="st3"
   d="M 439.8,119.9 V 110 h 8.5 v 1.2 h -7 v 3 h 6.5 v 1.2 h -6.5 v 3.4 h 7.2 v 1.2 h -8.7 z"
   id="path1055" />
	</g><g
     id="g1081">
		<path
   class="st3"
   d="m 106.2,48.3 h 15.1 c 10,0 17.3,3.1 17.3,12.4 v 2.2 c 0,5 -2.4,8.9 -6.1,10.7 4.1,1.9 6.9,6 6.9,11 v 2.2 c 0,8.8 -7.3,12.7 -18,12.7 h -9 c 0,0 -6.1,-0.1 -6.1,-3.7 V 48.3 Z m 6.2,5 V 71 h 9.5 c 7.8,0 10.5,-3.2 10.5,-9.3 0,-6.2 -3.6,-8.4 -11.1,-8.4 z m 0,22.7 v 18.3 h 8.9 c 8.3,0 11.8,-2.6 11.8,-8.8 0,-6 -3.4,-9.6 -11.3,-9.6 h -9.4 z"
   id="path1059" />
		<path
   class="st3"
   d="m 149,68.4 v 31.5 c 0,0 -5.8,0 -5.8,-3.7 V 62.4 c 1.7,0.9 3.1,1.2 4.5,1.2 3.1,0 5.6,-1.5 9.6,-1.5 5.1,0 8.6,2 8.6,5.9 0,1.8 -0.7,3.3 -2,5.2 0,-4 -3.5,-5.9 -7.7,-5.9 -4,-0.1 -7.2,1.1 -7.2,1.1 z"
   id="path1061" />
		<path
   class="st3"
   d="m 172.4,50.4 c 1.7,-1.7 3.2,-3.4 3.2,-5 0,-0.6 -0.1,-1.1 -0.4,-1.7 3.1,1 8.3,4.5 2.1,9.6 l -5.8,4.8 c 0,0 -6,-1 -3.2,-3.6 z m -4.1,12.5 c 0.4,0 5.8,0.1 5.8,3.7 v 33.6 c 0,0 -5.8,0 -5.8,-3.7 z"
   id="path1063" />
		<path
   class="st3"
   d="m 178.8,73.6 c 0,-7.2 5.9,-11.5 12.8,-11.5 8.8,0 11.4,4 11.4,4 0,0 -0.7,-1.7 -0.7,-6.7 V 44.8 c 0.5,0 5.8,-0.1 5.8,4.4 v 50.7 c -1.6,-0.7 -3.7,-1 -5,-1 -2.9,0 -6.1,1.3 -9.7,1.3 -9.3,0 -14.6,-4.2 -14.6,-11.6 z m 23.4,0.3 c 0,-4.2 -4.9,-7.2 -9.7,-7.2 -4.5,0 -7.9,2.4 -7.9,7.9 v 12.9 c 0,5.3 2.1,8 9.6,8 5.5,0 8,-1.8 8,-1.8 z"
   id="path1065" />
		<path
   class="st3"
   d="m 262.1,84.1 c 0,10.2 -6.4,16.2 -20.2,16.2 -13.8,0 -20.2,-6.1 -20.2,-16.2 V 63.6 c 0,-10.2 6.4,-16.2 20.2,-16.2 13.7,0 20.2,6.1 20.2,16.2 z m -6.2,-19.5 c 0,-7.6 -2.3,-12.1 -14.1,-12.1 -11.7,0 -14,4.5 -14,12.1 v 18.6 c 0,7.6 2.3,12.1 14,12.1 11.8,0 14.1,-4.5 14.1,-12.1 z"
   id="path1067" />
		<path
   class="st3"
   d="m 268.7,48.3 h 3.6 c 0.7,0 1.3,0.7 1.3,1.4 v 4.6 c 0,4.5 -0.9,9.1 -4.8,9.1 -1,0 -2.2,-0.2 -3.3,-1 2.9,-0.6 3,-5 2.6,-7.5 L 267,48.2 h 1.7 z"
   id="path1069" />
		<path
   class="st3"
   d="m 318.7,62.6 c 0,-3.1 0.5,-6.6 0.5,-6.6 L 303,89.2 c 0,0 -3.4,0 -5.7,-3.7 L 283.5,56 c 0,0 0.5,3.5 0.5,6.6 v 37.6 c 0,0 -6.1,0 -6.1,-3.7 V 48.3 h 4.5 c 0.3,0 3.6,-0.1 5.3,3.7 L 301.3,81.2 317,48.3 c 1.8,0 7.9,0 7.9,3.7 v 48.2 c 0,0 -6.1,0 -6.1,-3.7 V 62.6 Z"
   id="path1071" />
		<path
   class="st3"
   d="m 359.4,92.6 c 0,5.1 -6.9,7.7 -14,7.7 -9.3,0 -15.1,-4.4 -15.1,-11.8 V 73.8 c 0,-7.4 5.5,-11.8 14.8,-11.8 9.3,0 13.9,4.4 13.9,11 0,5.9 -4,10.8 -14.8,10.8 -2.5,0 -6.3,-0.5 -8,-1.8 v 5.3 c 0,5.1 2.9,7.7 9.6,7.7 6.4,0 11.7,-2.6 11.7,-7.7 1.3,2 1.9,3.7 1.9,5.3 z M 336.1,77.4 c 0.1,0.1 4.5,1.3 7.6,1.3 6.9,0 9.4,-2.1 9.4,-5.7 0,-3.7 -2,-6.3 -8,-6.3 -6.5,0 -8.9,3 -8.9,8.1 v 2.6 z"
   id="path1073" />
		<path
   class="st3"
   d="m 383.8,73.5 c 0,-3.7 -1.7,-6.4 -8.5,-6.4 -6.8,0 -11.4,2.6 -11.4,7.7 -1.4,-2 -2,-3.8 -2,-5.3 0,-5 6.3,-7.5 13.4,-7.5 9.3,0 14.3,4.4 14.3,11.8 V 100 c -1.8,-0.7 -3.3,-1 -4.8,-1 -3.4,0 -6.4,1.3 -10.5,1.3 -6.7,0 -13.5,-2.9 -13.5,-10.7 0,-14.1 20.4,-9.1 23,-16.1 z m 0.2,5.8 c -1.4,4.9 -17.3,1.7 -17.3,10.4 0,3.2 2.4,6 8.7,6 5.3,0 8.6,-2 8.6,-2 z"
   id="path1075" />
		<path
   class="st3"
   d="m 398.8,68.4 v 31.5 c 0,0 -5.8,0 -5.8,-3.7 V 62.4 c 1.7,0.9 3.1,1.2 4.5,1.2 3.1,0 5.6,-1.5 9.6,-1.5 5.1,0 8.6,2 8.6,5.9 0,1.8 -0.7,3.3 -2,5.2 0,-4 -3.5,-5.9 -7.7,-5.9 -4.1,-0.1 -7.2,1.1 -7.2,1.1 z"
   id="path1077" />
		<path
   class="st3"
   d="m 438.8,73.5 c 0,-3.7 -1.7,-6.4 -8.5,-6.4 -6.8,0 -11.4,2.6 -11.4,7.7 -1.4,-2 -2,-3.8 -2,-5.3 0,-5 6.3,-7.5 13.4,-7.5 9.3,0 14.3,4.4 14.3,11.8 V 100 c -1.8,-0.7 -3.3,-1 -4.8,-1 -3.4,0 -6.4,1.3 -10.5,1.3 -6.7,0 -13.5,-2.9 -13.5,-10.7 0,-14.1 20.4,-9.1 23,-16.1 z m 0.2,5.8 c -1.4,4.9 -17.3,1.7 -17.3,10.4 0,3.2 2.4,6 8.7,6 5.3,0 8.6,-2 8.6,-2 z"
   id="path1079" />
	</g></g>
	
	
	
	<g
   id="g993">
		
		
		
		<g
   id="g991">
			
			
			
			
			
			
			
			
			
			
			
			
			
			
			
			
			
			
			
			
			
			
			
			
		</g>
	</g>
	
	
</g>
</svg>
