<?xml version="1.0" encoding="UTF-8" standalone="no"?>
<svg
   xmlns:dc="http://purl.org/dc/elements/1.1/"
   xmlns:cc="http://creativecommons.org/ns#"
   xmlns:rdf="http://www.w3.org/1999/02/22-rdf-syntax-ns#"
   xmlns:svg="http://www.w3.org/2000/svg"
   xmlns="http://www.w3.org/2000/svg"
   xmlns:sodipodi="http://sodipodi.sourceforge.net/DTD/sodipodi-0.dtd"
   xmlns:inkscape="http://www.inkscape.org/namespaces/inkscape"
   inkscape:version="1.0 (4035a4f, 2020-05-01)"
   height="473.69998"
   width="487.70001"
   sodipodi:docname="BridOMeara_Symbol_Watermark.svg"
   xml:space="preserve"
   viewBox="0 0 487.69999 473.69999"
   y="0px"
   x="0px"
   id="Layer_1"
   version="1.1"><metadata
   id="metadata177"><rdf:RDF><cc:Work
       rdf:about=""><dc:format>image/svg+xml</dc:format><dc:type
         rdf:resource="http://purl.org/dc/dcmitype/StillImage" /><dc:title></dc:title></cc:Work></rdf:RDF></metadata><defs
   id="defs175" /><sodipodi:namedview
   inkscape:current-layer="Layer_1"
   inkscape:window-maximized="1"
   inkscape:window-y="23"
   inkscape:window-x="0"
   inkscape:cy="233.35"
   inkscape:cx="246.45"
   inkscape:zoom="1.420839"
   fit-margin-bottom="0"
   fit-margin-right="0"
   fit-margin-left="0"
   fit-margin-top="0"
   showgrid="false"
   id="namedview173"
   inkscape:window-height="1005"
   inkscape:window-width="1680"
   inkscape:pageshadow="2"
   inkscape:pageopacity="0"
   guidetolerance="10"
   gridtolerance="10"
   objecttolerance="10"
   borderopacity="1"
   bordercolor="#666666"
   pagecolor="#ffffff" />
<style
   id="style10"
   type="text/css">
	.st0{opacity:0.29;fill:#8CD2D1;}
	.st1{opacity:0.29;fill:#FAA61A;}
	.st2{opacity:0.29;fill:#E98EBC;}
	.st3{opacity:0.29;}
	.st4{fill:#808285;}
</style>
<circle
   id="circle12"
   r="105.7"
   cy="105.7"
   cx="206"
   class="st0" />
<circle
   id="circle14"
   r="105.7"
   cy="368"
   cx="114.8"
   class="st1" />
<circle
   id="circle16"
   r="105.7"
   cy="311.59998"
   cx="382"
   class="st2" />
<g
   transform="translate(-20,-25.300003)"
   id="g170"
   class="st3">
	<path
   id="path18"
   d="M 382.2,471.7 C 318.3,473 265.3,424.5 262.6,362.9 c -0.1,-1.3 -0.1,-2.7 -0.2,-4 -0.2,-7.7 0.4,-15.5 1.8,-23.1 1.4,-7.6 3.6,-15.1 6.4,-22.3 2.9,-7.2 6.5,-14.1 10.8,-20.5 8.5,-12.9 19.8,-24.1 32.7,-32.7 v 0 c 0,0 0,0 0,0 7.4,-4.4 14.3,-9.7 20.6,-15.5 6.3,-5.9 12,-12.4 17,-19.5 4.9,-7.1 9.2,-14.6 12.5,-22.6 3.4,-8 5.9,-16.3 7.5,-24.8 1.6,-8.5 2.3,-17.2 2.1,-25.8 -0.5,-17.3 -4.7,-34.5 -12.5,-50 -1.9,-3.9 -4.1,-7.6 -6.4,-11.3 C 352.6,87.2 350,83.6 347.3,80.3 341.8,73.6 335.6,67.5 328.8,62.1 322,56.7 314.5,52.2 306.7,48.5 298.8,44.8 290.5,42 282,40.2 c -5.9,-1.3 -11.8,-2 -17.8,-2.4 55.1,8.4 97.7,54.1 98.8,110 0.4,19.3 -4.2,37.5 -12.6,53.6 -2.6,5.7 -5.8,11.2 -9.4,16.3 -4.4,6.3 -9.5,12.2 -15.1,17.5 -5.6,5.3 -11.8,10 -18.4,14 -6.6,4 -13.6,7.4 -20.9,10 -7.3,2.6 -14.8,4.5 -22.5,5.5 -7.7,1.1 -15.4,1.4 -23.2,0.9 -15.5,-0.9 -30.8,-5.1 -44.6,-12 v 0 c 0,0 0,0 0,0 -1.4,-0.8 -2.9,-1.5 -4.3,-2.3 -0.3,-0.1 -0.6,-0.3 -0.9,-0.5 -6,-2.9 -12.2,-5.4 -18.5,-7.3 -8.2,-2.5 -16.7,-4.2 -25.3,-4.9 -8.6,-0.7 -17.3,-0.6 -25.8,0.5 -8.6,1.1 -17,3 -25.2,5.9 -8.2,2.8 -16,6.6 -23.4,11.1 -14.9,9.1 -27.6,21.4 -37.2,35.9 -2.4,3.6 -4.6,7.4 -6.6,11.2 -2,3.9 -3.8,7.8 -5.3,11.9 -1.5,3.9 -2.8,7.9 -3.8,12 15.7,-43.7 58.1,-75.6 108.7,-76.6 10.6,-0.2 20.9,1 30.7,3.3 3.1,0.7 6.3,1.4 9.3,2.4 7.4,2.2 14.5,5.2 21.3,8.9 6.8,3.7 13.2,8.1 19.1,13.1 5.9,5 11.3,10.6 16.1,16.7 4.8,6.1 8.9,12.7 12.4,19.6 6.9,13.9 11,29.2 12,44.6 v 0 c 0,0 0,0 0,0 0.2,8.6 1.2,17.2 3.2,25.6 1.9,8.4 4.7,16.6 8.4,24.4 3.7,7.8 8.1,15.2 13.3,22.2 5.2,6.9 11.1,13.2 17.7,18.9 6.5,5.7 13.7,10.6 21.3,14.7 15.2,8.3 32.2,13.2 49.6,14.2 4.3,0.3 8.7,0.3 13,0.1 4.3,-0.2 8.7,-0.7 12.9,-1.4 8.6,-1.4 17,-3.7 25,-7 8.1,-3.2 15.7,-7.4 22.9,-12.4 2.1,-1.5 4.1,-3 6.1,-4.6 -17.6,11 -38.4,17.5 -60.8,17.9 z"
   class="st4" />
	<g
   id="g68">
		<path
   id="path20"
   d="m 201.7,442.3 c 0.7,1.2 0.6,2.8 -0.5,3.8 -17.2,16.1 -38.7,25.6 -62.1,27.5 -1.6,0.1 -3.1,-1.1 -3.2,-2.7 -0.1,-1.6 1.1,-3.1 2.7,-3.2 22.1,-1.8 42.3,-10.7 58.5,-25.9 1.2,-1.1 3.1,-1.1 4.2,0.1 0.2,0 0.3,0.2 0.4,0.4 z"
   class="st4" />
		<path
   id="path22"
   d="m 125.6,469 c 0.3,0.5 0.5,1.1 0.4,1.8 -0.1,1.6 -1.6,2.9 -3.2,2.8 C 97.1,471.6 73.2,460.1 55.6,441.3 40,424.6 30.5,403.7 28.3,381 c -0.2,-1.6 1,-3.1 2.7,-3.3 1.6,-0.2 3.1,1 3.3,2.7 2.1,21.4 11,41.1 25.7,56.8 16.6,17.8 39.1,28.6 63.3,30.4 1,0 1.9,0.6 2.3,1.4 z"
   class="st4" />
		<path
   id="path24"
   d="m 65.1,296.2 c 0.7,1.2 0.6,2.8 -0.5,3.8 -18.3,17.1 -29.1,40.2 -30.6,65.1 -0.1,1.6 -1.5,2.9 -3.2,2.8 -1.6,-0.1 -2.9,-1.5 -2.8,-3.2 1.6,-26.5 13.1,-51 32.5,-69.2 1.2,-1.1 3.1,-1.1 4.2,0.1 0.2,0.3 0.3,0.5 0.4,0.6 z"
   class="st4" />
		<path
   id="path26"
   d="m 82.6,283.1 c 0,0 0,0 0,0 0.9,1.5 0.4,3.3 -1,4.1 -6.1,3.6 -11.8,7.9 -17,12.7 -1.2,1.1 -3.1,1.1 -4.2,-0.1 -1.1,-1.2 -1.1,-3.1 0.1,-4.2 5.5,-5.2 11.6,-9.7 18,-13.5 1.4,-0.9 3.2,-0.4 4.1,1 z"
   class="st4" />
		<path
   id="path28"
   d="m 204.8,439.2 c 0.7,1.1 0.6,2.7 -0.4,3.7 -1,1.1 -2.1,2.1 -3.2,3.1 -1.2,1.1 -3.1,1.1 -4.2,-0.1 -1.1,-1.2 -1.1,-3.1 0.1,-4.2 1,-1 2.1,-2 3,-3 1.2,-1.2 3.1,-1.2 4.2,0 0.3,0.1 0.4,0.3 0.5,0.5 z"
   class="st4" />
		<path
   id="path30"
   d="m 229.2,340.4 c 0.4,0.6 0.5,1.3 0.4,2.1 -0.3,1.6 -1.8,2.7 -3.4,2.4 -34.1,-5.8 -68.1,4.5 -93.3,28 -1.2,1.1 -3.1,1.1 -4.2,-0.1 -1.1,-1.2 -1.1,-3.1 0.1,-4.2 26.6,-24.9 62.4,-35.6 98.4,-29.6 0.9,0.2 1.6,0.7 2,1.4 z"
   class="st4" />
		<path
   id="path32"
   d="m 232.3,353.8 c 0.4,0.6 0.6,1.4 0.4,2.2 -0.4,1.6 -2,2.6 -3.6,2.3 -12.8,-2.9 -25.9,-3.1 -38.8,-0.7 -1.6,0.3 -3.2,-0.8 -3.5,-2.4 -0.3,-1.6 0.8,-3.2 2.4,-3.5 13.7,-2.5 27.6,-2.2 41.2,0.8 0.8,0.1 1.5,0.6 1.9,1.3 z"
   class="st4" />
		<path
   id="path34"
   d="m 224.2,327.1 c 0.3,0.5 0.5,1.2 0.4,1.9 -0.2,1.6 -1.7,2.8 -3.3,2.6 -35.5,-3.9 -70.9,7.8 -96.9,32.2 l -0.6,0.6 c -3.3,3.7 -3.2,9.3 0.2,12.9 3.3,3.5 8.7,4 12.5,1.3 l 1,-0.9 c 10.4,-9.7 22.5,-17.1 35.8,-21.8 1.6,-0.6 3.3,0.3 3.8,1.8 0.6,1.6 -0.3,3.3 -1.8,3.8 -11.7,4.2 -22.3,10.4 -31.6,18.6 v 0 l -2.1,2 c -6.3,5.9 -16.1,5.5 -22,-0.7 -5.9,-6.3 -5.5,-16.1 0.7,-22 l 2,-1.8 h 0.1 c 27.2,-24.4 63.3,-36 99.7,-32 0.8,0.2 1.6,0.8 2.1,1.5 z"
   class="st4" />
		<path
   id="path36"
   d="m 233.4,366.9 c 0.4,0.7 0.6,1.5 0.3,2.4 -0.4,1.6 -2.1,2.5 -3.7,2.1 -26.5,-7.2 -54.8,-1.1 -76,16.2 -1.3,1 -3.2,0.9 -4.2,-0.4 -1,-1.3 -0.9,-3.2 0.4,-4.2 22.6,-18.6 53,-25.1 81.3,-17.4 0.9,0.2 1.5,0.7 1.9,1.3 z"
   class="st4" />
		<path
   id="path38"
   d="m 137.8,334.5 c 0.9,1.4 0.4,3.2 -1,4.1 -7.5,4.6 -14.5,10.1 -21,16.1 l -0.9,0.8 c -3.8,3.9 -6,9.1 -6.2,14.6 -0.2,5.9 1.9,11.5 5.9,15.8 6,6.5 15.3,8.7 23.6,5.7 1.6,-0.6 3.3,0.2 3.8,1.8 0.6,1.6 -0.2,3.3 -1.8,3.8 -10.6,3.8 -22.4,1 -30,-7.2 -5.1,-5.5 -7.8,-12.6 -7.5,-20.1 0.3,-7.5 3.4,-14.4 8.9,-19.6 l 1.9,-1.8 v 0 c 6.2,-5.6 13,-10.7 20.1,-15.1 1.5,-0.8 3.4,-0.3 4.2,1.1 0,0 0,0 0,0 z"
   class="st4" />
		<path
   id="path40"
   d="m 216.8,314 c 0.3,0.5 0.5,1.1 0.4,1.7 -0.1,1.6 -1.5,2.9 -3.1,2.8 -21.9,-1 -43.9,3.3 -63.6,12.6 -1.5,0.7 -3.3,0.1 -4,-1.4 -0.7,-1.5 -0.1,-3.3 1.4,-4 20.6,-9.7 43.6,-14.2 66.5,-13.2 1.1,0.1 1.9,0.7 2.4,1.5 z"
   class="st4" />
		<path
   id="path42"
   d="m 232.9,379.8 c 0.4,0.7 0.6,1.6 0.3,2.5 -0.5,1.6 -2.2,2.5 -3.7,2 -24.2,-7.6 -50.7,-1.9 -69.5,14.9 l -1.4,1.3 c -16.3,15.3 -42,14.4 -57.3,-1.9 -2.6,-2.8 -4.7,-5.8 -6.5,-9.2 -0.8,-1.5 -0.2,-3.3 1.3,-4 1.5,-0.8 3.3,-0.2 4,1.3 1.5,2.8 3.3,5.5 5.5,7.8 12.7,13.5 33.8,14.6 47.7,2.6 l 1.1,-1.1 c 20.5,-19.2 50,-25.9 76.8,-17.5 0.8,0.2 1.3,0.7 1.7,1.3 z"
   class="st4" />
		<path
   id="path44"
   d="m 206.9,301.4 c 0.3,0.4 0.4,0.9 0.4,1.5 0,1.7 -1.3,3 -2.9,3.1 -36.2,0.8 -70.7,14.9 -97.2,39.7 l -0.8,0.8 c -6.9,6.9 -10.5,16.3 -10.1,26 0.1,1.6 -1.2,3 -2.9,3.1 -1.7,0.1 -3,-1.2 -3.1,-2.9 -0.5,-11.9 4.1,-23.3 12.8,-31.4 l 1.8,-1.6 v 0 c 27.3,-24.7 62.5,-38.8 99.3,-39.6 1.2,-0.2 2.2,0.4 2.7,1.3 z"
   class="st4" />
		<path
   id="path46"
   d="m 230.8,392.3 c 0.5,0.7 0.6,1.7 0.3,2.5 -0.5,1.6 -2.2,2.4 -3.8,1.9 -9.7,-3.3 -20.2,-4.1 -30.4,-2.2 -1.6,0.3 -3.2,-0.8 -3.5,-2.4 -0.3,-1.6 0.8,-3.2 2.4,-3.5 11.1,-2.1 22.7,-1.2 33.4,2.5 0.7,0.1 1.2,0.6 1.6,1.2 z"
   class="st4" />
		<path
   id="path48"
   d="m 148.5,301 c 0.1,0.1 0.2,0.3 0.2,0.4 0.6,1.5 -0.1,3.3 -1.6,3.9 -17.8,7.3 -34.1,17.8 -48.3,31.1 l -0.7,0.6 c -18.3,17.9 -19.1,47.3 -1.6,66 17.4,18.5 46.3,19.9 65.3,3.3 l 1.2,-1.1 c 4.9,-4.6 10.5,-8.4 16.5,-11.3 1.5,-0.7 3.3,-0.1 4,1.4 0.7,1.5 0.1,3.3 -1.4,4 -5,2.4 -9.6,5.4 -13.7,9.1 l -1.2,1.2 c -21.4,20 -55,18.9 -75,-2.5 -20,-21.3 -18.8,-55 2.5,-75 l 1.4,-1.3 v 0 c 14.4,-13.2 30.8,-23.6 48.8,-31 1.3,-0.5 2.8,0 3.6,1.2 z"
   class="st4" />
		<path
   id="path50"
   d="m 194.1,289.7 c 0.2,0.4 0.4,0.8 0.4,1.3 0.2,1.6 -1,3.1 -2.7,3.3 -10.2,1 -20.2,3 -30,5.9 -1.6,0.5 -3.3,-0.4 -3.7,-2 -0.5,-1.6 0.4,-3.2 2,-3.7 10.1,-3 20.6,-5.1 31.1,-6.2 1.2,-0.2 2.3,0.4 2.9,1.4 z"
   class="st4" />
		<path
   id="path52"
   d="m 177.5,279.4 c 0.2,0.3 0.3,0.6 0.4,1 0.3,1.6 -0.8,3.2 -2.4,3.5 -31.7,6 -61.1,20.9 -84.9,43 l -0.5,0.4 c -6.3,5.9 -11.2,13 -14.4,20.9 -0.6,1.5 -2.4,2.3 -3.9,1.6 -1.5,-0.6 -2.3,-2.4 -1.6,-3.9 3.4,-8.4 8.5,-15.9 15.1,-22.3 v 0 l 0.8,-0.7 c 24.7,-23.1 55.2,-38.6 88.3,-44.9 1.3,-0.2 2.5,0.4 3.1,1.4 z"
   class="st4" />
		<path
   id="path54"
   d="m 71.4,360.9 c 0.3,0.6 0.5,1.3 0.4,2 -2.4,17.8 3.3,35.5 15.5,48.6 3.2,3.4 6.7,6.4 10.5,8.9 1.4,0.9 1.7,2.8 0.8,4.1 -0.9,1.4 -2.8,1.7 -4.1,0.8 C 90.3,422.5 86.4,419.2 83,415.5 69.5,401.1 63.3,381.6 65.9,362 c 0.2,-1.6 1.7,-2.8 3.4,-2.6 0.9,0.3 1.7,0.8 2.1,1.5 z"
   class="st4" />
		<path
   id="path56"
   d="m 227.1,404.2 c 0.5,0.7 0.6,1.7 0.3,2.6 -0.6,1.6 -2.3,2.4 -3.8,1.8 -16.2,-5.7 -34,-2.3 -46.8,9 l -1.1,1.1 c -17.9,16.7 -43.3,22.1 -66.4,14 -1.6,-0.5 -2.4,-2.2 -1.8,-3.8 0.5,-1.6 2.2,-2.4 3.8,-1.8 20.5,7.1 43,2.7 59.1,-11.6 l 1.2,-1.1 c 14.5,-13.6 35.3,-17.9 54.1,-11.3 0.6,0.1 1.1,0.6 1.4,1.1 z"
   class="st4" />
		<path
   id="path58"
   d="m 222,415.7 c 0.4,0.7 0.6,1.6 0.3,2.5 -0.5,1.6 -2.2,2.4 -3.8,1.9 -11.6,-3.8 -24.3,-1.2 -33.4,6.8 l -0.9,0.9 c -3,2.8 -6.3,5.4 -9.7,7.7 -1.4,0.9 -3.2,0.6 -4.2,-0.8 -0.9,-1.4 -0.6,-3.2 0.8,-4.2 2.7,-1.8 5.3,-3.9 7.8,-6 l 1.2,-1.1 c 10.8,-10.1 26.3,-13.5 40.3,-9 0.7,0.3 1.2,0.7 1.6,1.3 z"
   class="st4" />
		<path
   id="path60"
   d="m 89.5,307.9 c 0.8,1.2 0.5,2.9 -0.6,3.9 -2.1,1.8 -4.2,3.6 -6.2,5.5 l -1,1 c -29,27.1 -30.6,72.8 -3.4,101.8 10.1,10.8 23.1,18.1 37.5,21.2 14.1,3 28.6,1.8 41.9,-3.6 1.5,-0.6 3.3,0.1 3.9,1.7 0.6,1.5 -0.1,3.3 -1.7,3.9 -14.4,5.8 -30.1,7.1 -45.4,3.9 C 98.9,443.9 84.8,435.9 73.9,424.2 45,393.3 46.1,345 76,315.4 v 0 l 1.6,-1.6 c 2.4,-2.3 5,-4.5 7.5,-6.7 1.3,-1.1 3.1,-0.9 4.2,0.4 0.1,0.2 0.2,0.3 0.2,0.4 z"
   class="st4" />
		<path
   id="path62"
   d="m 156.1,271.8 c 0.1,0.2 0.2,0.5 0.3,0.7 0.5,1.6 -0.4,3.2 -2,3.7 -19,5.7 -36.9,14.5 -53.2,26 -1.3,1 -3.2,0.6 -4.2,-0.7 -0.9,-1.4 -0.6,-3.2 0.7,-4.2 16.8,-11.9 35.2,-20.9 54.9,-26.8 1.4,-0.4 2.8,0.2 3.5,1.3 z"
   class="st4" />
		<path
   id="path64"
   d="m 215.2,426.8 c 0.4,0.6 0.5,1.4 0.4,2.1 -0.3,1.6 -1.9,2.7 -3.5,2.4 -6.7,-1.3 -13.6,0.5 -18.7,4.9 l -0.7,0.7 c -17.7,16.5 -40.7,25.2 -64.9,24.4 -24.2,-0.8 -46.6,-11 -63.1,-28.6 -6.9,-7.4 -12.5,-15.8 -16.6,-25 -0.7,-1.5 0,-3.3 1.5,-3.9 1.5,-0.7 3.3,0 3.9,1.5 3.8,8.6 9,16.4 15.5,23.4 15.4,16.5 36.3,26 58.9,26.7 22,0.7 43.1,-7 59.4,-21.7 l 1.1,-1.1 c 6.6,-6.1 15.8,-8.8 24.6,-7 1.1,0 1.8,0.6 2.2,1.2 z"
   class="st4" />
		<path
   id="path66"
   d="m 127.1,269.4 c 0.1,0.1 0.1,0.2 0.2,0.3 0.7,1.5 0,3.3 -1.5,4 -18.8,8.6 -36,20.1 -51.4,34.1 l -1.3,1.2 c -22.4,20.9 -31.7,52.4 -24.3,82.1 0.4,1.6 -0.6,3.2 -2.2,3.6 -1.6,0.4 -3.2,-0.6 -3.6,-2.2 -7.7,-31 1.6,-63.8 24.2,-86.1 v 0 l 1.9,-1.8 c 16.1,-15.1 34.4,-27.3 54.2,-36.4 1.4,-0.5 3,0 3.8,1.2 z"
   class="st4" />
	</g>
	<g
   id="g118">
		<path
   id="path70"
   d="m 254.5,253.5 c 0.4,1.3 1.7,2.2 3.1,2.1 23.5,-2.2 44.8,-12 61.7,-28.3 1.2,-1.1 1.2,-3 0.1,-4.2 -1.1,-1.2 -3,-1.2 -4.2,-0.1 -15.9,15.4 -36,24.6 -58.1,26.7 -1.6,0.2 -2.9,1.6 -2.7,3.3 0,0.1 0.1,0.3 0.1,0.5 z"
   class="st4" />
		<path
   id="path72"
   d="m 324.9,214.2 c 0.2,0.6 0.5,1.1 1.1,1.5 1.3,1 3.2,0.7 4.2,-0.6 15.6,-20.6 22.8,-46.1 20.3,-71.8 -2.2,-22.8 -11.5,-43.7 -27.1,-60.4 -1.1,-1.2 -3,-1.3 -4.2,-0.1 -1.2,1.1 -1.3,3 -0.2,4.2 14.7,15.7 23.5,35.4 25.5,56.9 2.3,24.2 -4.5,48.2 -19.2,67.6 -0.5,0.8 -0.6,1.8 -0.4,2.7 z"
   class="st4" />
		<path
   id="path74"
   d="m 235.7,54.4 c 0.4,1.3 1.7,2.2 3.1,2.1 24.9,-2.4 49.4,4.8 69.1,20.2 1.3,1 3.2,0.8 4.2,-0.5 1,-1.3 0.8,-3.2 -0.5,-4.2 -20.9,-16.4 -46.9,-24 -73.3,-21.5 -1.6,0.2 -2.9,1.6 -2.7,3.3 0,0.2 0,0.4 0.1,0.6 z"
   class="st4" />
		<path
   id="path76"
   d="m 214.2,58.8 c 0,0 0,0 0,0 0.5,1.6 2.2,2.5 3.8,2 6.7,-2.2 13.7,-3.6 20.8,-4.3 1.6,-0.2 2.9,-1.6 2.7,-3.3 -0.2,-1.6 -1.6,-2.8 -3.3,-2.7 -7.5,0.7 -14.9,2.2 -22.1,4.6 -1.5,0.5 -2.4,2.1 -1.9,3.7 z"
   class="st4" />
		<path
   id="path78"
   d="m 250.2,253.8 c 0.4,1.3 1.6,2.2 3,2.1 1.5,-0.1 3,-0.2 4.5,-0.3 1.6,-0.2 2.9,-1.6 2.7,-3.3 -0.2,-1.6 -1.6,-2.8 -3.3,-2.7 -1.4,0.1 -2.8,0.2 -4.2,0.3 -1.6,0.1 -2.9,1.5 -2.8,3.1 -0.1,0.3 0,0.5 0.1,0.8 z"
   class="st4" />
		<path
   id="path80"
   d="m 160,206.6 c 0.2,0.7 0.6,1.3 1.3,1.7 1.4,0.9 3.2,0.4 4.1,-1 18.3,-29.3 48.4,-48 82.8,-51.3 1.6,-0.2 2.9,-1.6 2.7,-3.3 -0.2,-1.6 -1.6,-2.8 -3.3,-2.7 -36.2,3.4 -68.1,23.2 -87.3,54.1 -0.4,0.8 -0.5,1.7 -0.3,2.5 z"
   class="st4" />
		<path
   id="path82"
   d="m 168,217.7 c 0.2,0.7 0.7,1.4 1.4,1.8 1.4,0.8 3.3,0.3 4.1,-1.2 6.4,-11.5 14.8,-21.5 25.2,-29.6 1.3,-1 1.5,-2.9 0.5,-4.2 -1,-1.3 -2.9,-1.5 -4.2,-0.5 -11,8.6 -20,19.2 -26.7,31.4 -0.5,0.7 -0.5,1.6 -0.3,2.3 z"
   class="st4" />
		<path
   id="path84"
   d="m 153.4,194 c 0.2,0.6 0.6,1.2 1.1,1.6 1.4,1 3.2,0.6 4.2,-0.7 20.6,-29.2 52.8,-47.9 88.3,-51.3 l 0.9,-0.1 c 4.9,0 9.1,3.7 9.6,8.7 0.5,4.8 -2.8,9.1 -7.3,10.2 l -1.3,0.1 c -14.2,1.3 -27.7,5.5 -40.1,12.3 -1.4,0.8 -2,2.6 -1.2,4.1 0.8,1.4 2.6,2 4.1,1.2 10.8,-6 22.6,-9.8 34.9,-11.3 v 0 l 2.9,-0.3 c 8.5,-0.8 14.8,-8.4 14,-17 -0.8,-8.5 -8.4,-14.8 -17,-14 l -2.7,0.3 v 0.1 c -36.2,4.2 -68.9,23.6 -90,53.5 -0.5,0.8 -0.7,1.8 -0.4,2.6 z"
   class="st4" />
		<path
   id="path86"
   d="m 177.1,227.3 c 0.2,0.8 0.8,1.4 1.5,1.8 1.5,0.7 3.3,0.1 4,-1.4 12.1,-24.6 35.5,-41.8 62.5,-46.2 1.6,-0.3 2.7,-1.8 2.5,-3.4 -0.3,-1.6 -1.8,-2.7 -3.4,-2.5 -28.9,4.6 -53.9,23.1 -66.9,49.4 -0.4,0.8 -0.4,1.6 -0.2,2.3 z"
   class="st4" />
		<path
   id="path88"
   d="m 216.1,134.2 c 0.5,1.6 2.1,2.5 3.7,2 8.4,-2.5 17.2,-4.2 26,-5.1 L 247,131 c 5.5,-0.2 10.7,1.5 15,5 4.5,3.8 7.4,9.1 7.9,14.9 0.8,8.8 -3.6,17.2 -11.4,21.5 -1.5,0.8 -2,2.6 -1.2,4.1 0.8,1.4 2.6,2 4.1,1.2 9.9,-5.4 15.6,-16.1 14.5,-27.3 -0.7,-7.5 -4.3,-14.2 -10.1,-19 -5.8,-4.8 -13.1,-7 -20.5,-6.3 l -2.6,0.2 v 0.1 c -8.4,0.9 -16.6,2.6 -24.6,5 -1.5,0.5 -2.4,2.2 -2,3.8 0,0 0,0 0,0 z"
   class="st4" />
		<path
   id="path90"
   d="m 148.4,179.8 c 0.2,0.6 0.5,1.1 1,1.5 1.3,1 3.2,0.8 4.2,-0.5 13.7,-17.1 31.6,-30.7 51.6,-39.3 1.5,-0.7 2.2,-2.4 1.6,-3.9 -0.7,-1.5 -2.4,-2.2 -3.9,-1.6 -20.9,9 -39.6,23.2 -53.9,41.1 -0.7,0.8 -0.8,1.8 -0.6,2.7 z"
   class="st4" />
		<path
   id="path92"
   d="m 187.1,235.4 c 0.2,0.8 0.8,1.5 1.6,1.9 1.5,0.7 3.3,0 4,-1.5 10.3,-23.1 32.1,-39.2 57.2,-42.2 l 1.9,-0.1 c 22.3,-2.1 38.7,-21.9 36.5,-44.2 -0.4,-3.8 -1.2,-7.4 -2.6,-10.9 -0.6,-1.5 -2.3,-2.3 -3.9,-1.7 -1.5,0.6 -2.3,2.3 -1.7,3.9 1.2,3 1.9,6.1 2.2,9.3 1.7,18.5 -11.4,35 -29.6,37.5 l -1.5,0.1 c -28,2.7 -52.5,20.3 -64,45.9 -0.3,0.6 -0.3,1.4 -0.1,2 z"
   class="st4" />
		<path
   id="path94"
   d="m 145.6,164 c 0.1,0.5 0.4,1 0.8,1.3 1.2,1.1 3.1,1 4.2,-0.2 24.6,-26.6 58,-43.1 94.1,-46.5 l 1.1,-0.1 c 9.7,-0.6 19.2,2.9 26.2,9.7 1.2,1.1 3.1,1.1 4.2,-0.1 1.1,-1.2 1.1,-3.1 -0.1,-4.2 -8.5,-8.3 -20.2,-12.3 -32,-11.2 l -2.4,0.2 v 0 c -36.6,4.1 -70.4,21.1 -95.5,48.2 -0.7,0.8 -0.9,2 -0.6,2.9 z"
   class="st4" />
		<path
   id="path96"
   d="m 197.8,242.1 c 0.3,0.8 0.9,1.5 1.7,1.9 1.5,0.6 3.3,-0.1 3.9,-1.6 3.9,-9.5 10.3,-17.9 18.4,-24.2 1.3,-1 1.5,-2.9 0.5,-4.2 -1,-1.3 -2.9,-1.5 -4.2,-0.5 -8.9,7 -15.9,16.2 -20.3,26.6 -0.1,0.7 -0.1,1.4 0,2 z"
   class="st4" />
		<path
   id="path98"
   d="m 184,120 c 0,0.2 0.1,0.3 0.2,0.5 0.7,1.5 2.5,2.1 4,1.4 17.3,-8.5 35.9,-13.8 55.3,-15.6 l 0.9,-0.1 c 25.5,-1.9 48,16.9 50.4,42.5 2.4,25.3 -15.8,47.9 -40.8,51.1 l -1.6,0.1 c -6.7,0.6 -13.2,2.3 -19.4,4.9 -1.5,0.6 -2.2,2.4 -1.6,3.9 0.6,1.5 2.4,2.2 3.9,1.6 5.1,-2.1 10.4,-3.6 15.9,-4.2 l 1.7,-0.1 c 29.1,-2.8 50.6,-28.7 47.8,-57.8 -2.8,-29.1 -28.7,-50.5 -57.8,-47.8 l -1.9,0.2 v 0 c -19.4,2.1 -38.1,7.4 -55.5,16 -1.3,0.5 -1.9,2.1 -1.5,3.4 z"
   class="st4" />
		<path
   id="path100"
   d="m 145.3,146.6 c 0.1,0.4 0.3,0.8 0.7,1.2 1.1,1.2 3,1.3 4.2,0.2 7.5,-6.9 15.7,-13.2 24.3,-18.5 1.4,-0.9 1.8,-2.7 1,-4.1 -0.9,-1.4 -2.7,-1.8 -4.1,-1 -9,5.6 -17.5,12 -25.2,19.2 -0.9,0.8 -1.2,2 -0.9,3 z"
   class="st4" />
		<path
   id="path102"
   d="m 148.6,127.5 c 0.1,0.3 0.3,0.7 0.5,1 1,1.3 2.9,1.5 4.2,0.5 25.6,-19.8 56.1,-31.9 88.4,-35.1 l 0.6,-0.1 c 8.6,-0.8 17.1,0.2 25.2,3 1.6,0.5 3.3,-0.3 3.8,-1.8 0.5,-1.6 -0.3,-3.3 -1.8,-3.8 -8.6,-3 -17.6,-4.2 -26.7,-3.4 v 0 l -1.1,0.1 c -33.7,3.2 -65.5,15.8 -92.1,36.4 -1,0.7 -1.3,2 -1,3.2 z"
   class="st4" />
		<path
   id="path104"
   d="m 279.9,102 c 0.2,0.6 0.6,1.2 1.2,1.6 14.9,10 24.4,26 26.1,43.8 0.4,4.6 0.3,9.2 -0.3,13.8 -0.2,1.6 0.9,3.1 2.6,3.4 1.6,0.2 3.1,-0.9 3.4,-2.6 0.7,-5 0.8,-10.1 0.3,-15.1 -1.9,-19.6 -12.3,-37.2 -28.8,-48.2 -1.4,-0.9 -3.2,-0.6 -4.2,0.8 -0.4,0.7 -0.5,1.7 -0.3,2.5 z"
   class="st4" />
		<path
   id="path106"
   d="m 209.2,247.3 c 0.3,0.8 0.9,1.6 1.7,1.9 1.5,0.6 3.3,-0.1 3.9,-1.7 6.4,-15.9 20.8,-27 37.7,-29.2 l 1.5,-0.1 c 24.3,-2.3 45.2,-17.8 54.5,-40.5 0.6,-1.5 -0.1,-3.3 -1.6,-3.9 -1.5,-0.6 -3.3,0.1 -3.9,1.6 -8.2,20.1 -26.5,34 -47.9,36.6 l -1.6,0.1 c -19.8,1.9 -36.8,14.5 -44.2,33 -0.2,0.9 -0.3,1.6 -0.1,2.2 z"
   class="st4" />
		<path
   id="path108"
   d="m 221.2,251.1 c 0.2,0.8 0.8,1.5 1.7,1.9 1.5,0.7 3.3,0 3.9,-1.6 4.9,-11.2 15.2,-19 27.2,-20.6 l 1.3,-0.1 c 4.1,-0.4 8.2,-1.1 12.2,-2.1 1.6,-0.4 2.6,-2 2.1,-3.6 -0.4,-1.6 -2,-2.6 -3.6,-2.1 -3.2,0.8 -6.4,1.4 -9.7,1.8 l -1.6,0.1 c -14.7,1.4 -27.5,10.7 -33.4,24.3 -0.3,0.6 -0.3,1.3 -0.1,2 z"
   class="st4" />
		<path
   id="path110"
   d="m 228.2,80.4 c 0.4,1.4 1.8,2.3 3.3,2.1 2.7,-0.4 5.5,-0.7 8.3,-1 l 1.4,-0.1 c 39.6,-3.8 74.8,25.3 78.5,64.9 1.4,14.7 -1.7,29.3 -8.9,42.1 -7.1,12.6 -17.6,22.6 -30.4,29 -1.5,0.7 -2.1,2.5 -1.3,4 0.7,1.5 2.5,2.1 4,1.3 13.9,-7 25.3,-17.9 33,-31.4 7.9,-13.9 11.2,-29.7 9.7,-45.7 -4,-42.1 -40.9,-73.2 -82.8,-70.4 v 0 l -2.3,0.2 c -3.3,0.3 -6.7,0.7 -9.9,1.2 -1.6,0.2 -2.8,1.8 -2.5,3.4 -0.2,0.2 -0.1,0.3 -0.1,0.4 z"
   class="st4" />
		<path
   id="path112"
   d="m 157.1,106.4 c 0.1,0.2 0.2,0.5 0.3,0.7 0.9,1.4 2.7,1.8 4.1,1 16.9,-10.5 35.3,-18.1 54.7,-22.6 1.6,-0.4 2.6,-2 2.2,-3.6 -0.4,-1.6 -2,-2.6 -3.6,-2.2 -20,4.7 -39,12.6 -56.5,23.4 -1.1,0.6 -1.6,2 -1.2,3.3 z"
   class="st4" />
		<path
   id="path114"
   d="m 234.1,253.3 c 0.2,0.7 0.7,1.3 1.4,1.7 1.4,0.8 3.3,0.4 4.1,-1.1 3.4,-5.9 9.4,-9.8 16.1,-10.7 l 0.9,-0.1 c 24.1,-2.3 45.8,-13.8 61.2,-32.4 15.4,-18.6 22.6,-42.1 20.4,-66.2 -1,-10.1 -3.6,-19.9 -7.7,-29 -0.7,-1.5 -2.5,-2.2 -4,-1.5 -1.5,0.7 -2.2,2.5 -1.5,4 3.9,8.5 6.3,17.7 7.2,27.1 2.1,22.5 -4.6,44.4 -19,61.8 -14.1,17 -33.8,27.7 -55.6,30.1 l -1.6,0.1 c -9,0.9 -17,6 -21.6,13.8 -0.5,0.8 -0.6,1.7 -0.3,2.4 z"
   class="st4" />
		<path
   id="path116"
   d="m 174.5,83.1 c 0,0.1 0.1,0.2 0.1,0.4 0.7,1.5 2.4,2.2 3.9,1.5 18.9,-8.4 38.9,-13.7 59.6,-15.8 l 1.8,-0.2 c 30.5,-2.9 60.2,11 77.6,36.2 0.9,1.4 2.8,1.7 4.2,0.8 1.4,-0.9 1.7,-2.8 0.8,-4.2 C 304.4,75.5 273.7,60.7 242,62.8 v 0 l -2.6,0.2 c -21.9,2.1 -43.2,7.6 -63.2,16.5 -1.4,0.6 -2.1,2.1 -1.7,3.6 z"
   class="st4" />
	</g>
	<g
   id="g168">
		<path
   id="path120"
   d="m 425.7,263.6 c 0.9,-1.1 2.4,-1.5 3.7,-0.9 21.1,10.4 37.6,27.2 47.6,48.4 0.7,1.5 0.1,3.3 -1.4,4 -1.5,0.7 -3.3,0.1 -4,-1.4 -9.4,-20 -25,-35.8 -44.9,-45.6 -1.5,-0.7 -2.1,-2.5 -1.4,-4 0.2,-0.2 0.3,-0.3 0.4,-0.5 z"
   class="st4" />
		<path
   id="path122"
   d="m 477.6,325.4 c 0.4,-0.5 0.9,-0.9 1.5,-1 1.6,-0.5 3.2,0.5 3.7,2 7.2,24.8 4.9,51.2 -6.5,74.3 -10.1,20.5 -26.3,36.7 -46.8,46.8 -1.5,0.7 -3.3,0.1 -4,-1.4 -0.7,-1.5 -0.1,-3.3 1.4,-4 19.3,-9.5 34.6,-24.7 44.1,-44.1 10.7,-21.8 12.9,-46.7 6.1,-70 -0.3,-0.9 -0.1,-1.9 0.5,-2.6 z"
   class="st4" />
		<path
   id="path124"
   d="m 337.3,443 c 0.9,-1.1 2.4,-1.5 3.7,-0.9 22.4,11.1 47.9,13.1 71.7,5.6 1.6,-0.5 3.3,0.4 3.7,2 0.5,1.6 -0.4,3.3 -2,3.7 -25.3,7.9 -52.4,5.7 -76.2,-6 -1.5,-0.7 -2.1,-2.5 -1.4,-4 0.3,-0.1 0.4,-0.3 0.5,-0.4 z"
   class="st4" />
		<path
   id="path126"
   d="m 318.8,431.3 c 0,0 0,0 0,0 1.1,-1.3 3,-1.5 4.2,-0.5 5.5,4.4 11.5,8.3 17.9,11.4 1.5,0.7 2.1,2.5 1.4,4 -0.7,1.5 -2.5,2.1 -4,1.4 -6.8,-3.3 -13.2,-7.4 -19,-12.1 -1.3,-1.1 -1.5,-2.9 -0.5,-4.2 z"
   class="st4" />
		<path
   id="path128"
   d="m 421.7,261.8 c 0.8,-1.1 2.3,-1.5 3.6,-0.9 1.4,0.6 2.7,1.2 4.1,1.9 1.5,0.7 2.1,2.5 1.4,4 -0.7,1.5 -2.5,2.1 -4,1.4 -1.3,-0.6 -2.6,-1.2 -3.8,-1.8 -1.5,-0.7 -2.2,-2.4 -1.5,-3.9 0,-0.3 0.1,-0.5 0.2,-0.7 z"
   class="st4" />
		<path
   id="path130"
   d="m 320.7,273.8 c 0.4,-0.6 1.1,-1 1.8,-1.1 1.6,-0.3 3.2,0.7 3.5,2.4 6.6,33.9 28.2,62.1 59.2,77.4 1.5,0.7 2.1,2.5 1.4,4 -0.7,1.5 -2.5,2.1 -4,1.4 -32.6,-16.1 -55.4,-45.8 -62.4,-81.6 -0.2,-1 0,-1.8 0.5,-2.5 z"
   class="st4" />
		<path
   id="path132"
   d="m 332.1,266.3 c 0.5,-0.6 1.1,-1 1.9,-1.1 1.6,-0.2 3.1,0.9 3.4,2.5 1.9,13 6.2,25.3 13,36.6 0.9,1.4 0.4,3.3 -1,4.1 -1.4,0.9 -3.3,0.4 -4.1,-1 -7.2,-12 -11.8,-25 -13.8,-38.9 -0.1,-0.8 0.2,-1.6 0.6,-2.2 z"
   class="st4" />
		<path
   id="path134"
   d="m 310.1,283.3 c 0.4,-0.5 1,-0.9 1.6,-1.1 1.6,-0.4 3.2,0.6 3.6,2.2 8.9,34.6 32.3,63.5 64.3,79.3 l 0.8,0.4 c 4.6,1.8 9.8,-0.2 12,-4.7 2.1,-4.3 0.7,-9.5 -3.2,-12.2 l -1.2,-0.6 c -12.8,-6.3 -23.9,-15 -33.1,-25.8 -1.1,-1.3 -0.9,-3.1 0.3,-4.2 1.3,-1.1 3.1,-0.9 4.2,0.4 8,9.4 17.6,17.2 28.6,23 v 0 l 2.6,1.3 c 7.7,3.8 10.9,13.1 7.1,20.8 -3.8,7.7 -13.1,10.9 -20.8,7.1 l -2.4,-1.2 v -0.1 c -32.4,-16.8 -56,-46.6 -65.1,-82 -0.1,-1 0.1,-1.9 0.7,-2.6 z"
   class="st4" />
		<path
   id="path136"
   d="m 344.1,260.6 c 0.5,-0.6 1.2,-1.1 2.1,-1.1 1.6,-0.2 3.1,1 3.3,2.7 2.6,27.3 18.3,51.7 42,65.3 1.4,0.8 1.9,2.7 1.1,4.1 -0.8,1.4 -2.7,1.9 -4.1,1.1 -25.4,-14.6 -42.2,-40.8 -44.9,-70 -0.2,-0.8 0,-1.6 0.5,-2.1 z"
   class="st4" />
		<path
   id="path138"
   d="m 347.4,361.5 c 1,-1.3 2.9,-1.5 4.2,-0.5 7,5.4 14.6,10.1 22.5,14 l 1,0.5 c 5,2.2 10.6,2.4 15.8,0.6 5.6,-1.9 10.1,-5.8 12.7,-11.1 3.9,-7.9 2.7,-17.4 -3,-24.1 -1.1,-1.3 -0.9,-3.1 0.3,-4.2 1.3,-1.1 3.1,-0.9 4.2,0.3 7.3,8.5 8.8,20.6 3.9,30.7 -3.3,6.7 -9,11.7 -16.1,14.2 -7.1,2.4 -14.7,1.9 -21.4,-1.4 l -2.3,-1.1 v -0.1 c -7.5,-3.9 -14.6,-8.4 -21.2,-13.4 -1.3,-1.2 -1.6,-3.1 -0.6,-4.4 0,0 0,0 0,0 z"
   class="st4" />
		<path
   id="path140"
   d="m 300.4,294.8 c 0.4,-0.5 0.8,-0.8 1.4,-1 1.6,-0.5 3.3,0.4 3.8,1.9 6.8,20.9 18.6,39.9 34.3,55.1 1.2,1.2 1.2,3 0.1,4.2 -1.2,1.2 -3,1.2 -4.2,0.1 -16.3,-15.9 -28.7,-35.8 -35.8,-57.5 -0.4,-1.1 -0.2,-2.1 0.4,-2.8 z"
   class="st4" />
		<path
   id="path142"
   d="m 356.3,256.5 c 0.5,-0.7 1.3,-1.1 2.2,-1.2 1.6,-0.1 3.1,1.2 3.2,2.8 1.4,25.3 16.1,48.1 38.5,59.8 l 1.7,0.8 c 20.1,9.9 28.3,34.2 18.5,54.3 -1.7,3.4 -3.8,6.5 -6.3,9.3 -1.1,1.2 -3,1.3 -4.2,0.2 -1.2,-1.1 -1.3,-3 -0.2,-4.2 2.1,-2.4 3.9,-5 5.4,-7.9 8.2,-16.6 1.7,-36.7 -14.4,-45.6 l -1.4,-0.6 c -25.2,-12.4 -41.9,-37.6 -43.5,-65.7 -0.2,-0.7 0.1,-1.4 0.5,-2 z"
   class="st4" />
		<path
   id="path144"
   d="m 292.1,308.5 c 0.3,-0.4 0.7,-0.7 1.2,-0.9 1.5,-0.6 3.3,0.1 3.9,1.7 13.5,33.6 38.9,60.9 71.4,76.9 l 1,0.5 c 8.8,4 18.9,4.1 27.9,0.3 1.5,-0.7 3.3,0.1 3.9,1.6 0.7,1.5 -0.1,3.3 -1.6,3.9 -10.9,4.7 -23.3,4.4 -33.9,-0.9 l -2.2,-1.1 v 0 c -32.8,-16.8 -58.3,-44.8 -72.1,-79 -0.3,-1.1 -0.1,-2.2 0.5,-3 z"
   class="st4" />
		<path
   id="path146"
   d="m 368.7,254.1 c 0.5,-0.7 1.3,-1.1 2.3,-1.2 1.7,0 3,1.3 3.1,2.9 0.3,10.3 3.3,20.4 8.6,29.2 0.9,1.4 0.4,3.2 -1,4.1 -1.4,0.9 -3.3,0.4 -4.1,-1 -5.9,-9.7 -9.1,-20.8 -9.5,-32.1 0,-0.7 0.2,-1.4 0.6,-1.9 z"
   class="st4" />
		<path
   id="path148"
   d="m 312.4,363.3 c 0.1,-0.1 0.2,-0.2 0.3,-0.4 1.2,-1.1 3.1,-1.1 4.2,0.1 13.2,14.1 28.7,25.6 46.2,34.2 l 0.8,0.4 c 23.1,10.9 50.9,1.2 62.2,-21.8 11.2,-22.8 2.3,-50.4 -20,-62.3 l -1.5,-0.7 c -6,-3 -11.5,-6.8 -16.4,-11.4 -1.2,-1.1 -1.2,-3 -0.1,-4.2 1.1,-1.2 3,-1.2 4.2,-0.1 4,3.8 8.4,7 13.3,9.6 l 1.6,0.7 c 26.2,12.9 37.1,44.8 24.1,71 -12.9,26.2 -44.8,37 -71,24.1 l -1.7,-0.8 v 0 c -17.4,-8.8 -33,-20.5 -46.2,-34.7 -0.8,-0.9 -0.9,-2.6 0,-3.7 z"
   class="st4" />
		<path
   id="path150"
   d="m 285.7,324.7 c 0.3,-0.3 0.6,-0.6 1,-0.8 1.5,-0.7 3.3,-0.1 4,1.4 4.5,9.1 10,17.9 16.1,26 1,1.3 0.8,3.2 -0.6,4.2 -1.3,1 -3.2,0.7 -4.2,-0.6 -6.4,-8.4 -12,-17.5 -16.7,-26.9 -0.5,-1.2 -0.3,-2.5 0.4,-3.3 z"
   class="st4" />
		<path
   id="path152"
   d="m 281.9,343.8 c 0.2,-0.3 0.5,-0.5 0.8,-0.7 1.4,-0.9 3.2,-0.4 4.1,1 16.9,27.6 41.1,49.8 70.1,64.2 l 0.6,0.3 c 7.8,3.8 16.1,5.9 24.7,6.1 1.7,0 3,1.4 2.9,3.1 0,1.7 -1.4,3 -3.1,2.9 -9.1,-0.3 -17.9,-2.4 -26.2,-6.3 v 0 l -1,-0.5 c -30.3,-15 -55.6,-38 -73.2,-66.8 -0.5,-1.1 -0.4,-2.4 0.3,-3.3 z"
   class="st4" />
		<path
   id="path154"
   d="m 395.6,414.2 c 0.4,-0.5 1,-0.9 1.7,-1.1 17.5,-4 32.1,-15.6 40,-31.7 2,-4.1 3.6,-8.5 4.6,-13 0.4,-1.6 2,-2.6 3.6,-2.2 1.6,0.4 2.6,2 2.2,3.6 -1.1,4.9 -2.8,9.7 -5.1,14.3 -8.7,17.7 -24.8,30.4 -44,34.9 -1.6,0.4 -3.2,-0.6 -3.6,-2.2 -0.1,-1 0.1,-1.9 0.6,-2.6 z"
   class="st4" />
		<path
   id="path156"
   d="m 381.2,253.3 c 0.5,-0.7 1.4,-1.1 2.3,-1.2 1.7,0 3,1.3 3,2.9 0.3,17.2 9.8,32.6 24.9,40.7 l 1.4,0.7 c 21.9,10.8 35.9,32.7 36.6,57.2 0,1.7 -1.3,3 -2.9,3.1 -1.7,0 -3,-1.3 -3.1,-2.9 -0.5,-21.7 -12.7,-41.2 -31.8,-51.2 l -1.5,-0.7 c -17.9,-8.8 -29.2,-26.7 -29.6,-46.6 0.1,-0.8 0.3,-1.5 0.7,-2 z"
   class="st4" />
		<path
   id="path158"
   d="m 393.7,254 c 0.5,-0.7 1.3,-1.1 2.2,-1.2 1.6,-0.1 3,1.2 3.1,2.9 0.6,12.2 7.5,23.1 18.1,28.9 l 1.1,0.5 c 3.7,1.8 7.3,4 10.7,6.4 1.3,1 1.7,2.8 0.7,4.2 -0.9,1.4 -2.8,1.7 -4.2,0.7 -2.7,-1.9 -5.5,-3.6 -8.4,-5.1 l -1.5,-0.7 c -13.3,-6.5 -21.9,-19.8 -22.6,-34.6 0.2,-0.7 0.4,-1.4 0.8,-2 z"
   class="st4" />
		<path
   id="path160"
   d="m 339.6,416 c 0.9,-1.2 2.5,-1.5 3.8,-0.8 2.4,1.3 4.9,2.7 7.4,3.9 l 1.2,0.6 c 35.6,17.6 78.9,2.9 96.5,-32.7 6.5,-13.3 8.8,-28 6.6,-42.6 -2.2,-14.3 -8.4,-27.4 -18.1,-38 -1.1,-1.2 -1,-3.1 0.2,-4.2 1.2,-1.1 3.1,-1 4.2,0.2 10.5,11.5 17.3,25.7 19.6,41.1 2.4,15.8 -0.1,31.7 -7.2,46.1 -18.7,37.9 -64.2,53.9 -102.4,36.4 v 0 l -2,-1 c -3,-1.5 -6,-3 -8.9,-4.7 -1.4,-0.8 -2,-2.6 -1.2,-4.1 0.2,0 0.2,-0.1 0.3,-0.2 z"
   class="st4" />
		<path
   id="path162"
   d="m 282.4,366.5 c 0.2,-0.2 0.3,-0.4 0.6,-0.5 1.3,-1 3.2,-0.8 4.2,0.6 12.1,15.8 26.6,29.4 43.1,40.6 1.4,0.9 1.7,2.8 0.8,4.2 -0.9,1.4 -2.8,1.7 -4.2,0.8 -17,-11.5 -32,-25.6 -44.5,-41.9 -0.9,-1.3 -0.8,-2.8 0,-3.8 z"
   class="st4" />
		<path
   id="path164"
   d="m 406.5,256.5 c 0.4,-0.6 1.1,-1 1.9,-1.1 1.6,-0.3 3.2,0.8 3.4,2.5 1.1,6.7 5.3,12.5 11.2,15.8 l 0.9,0.4 c 21.7,10.7 37.9,29.2 45.7,52.1 7.8,22.9 6.2,47.4 -4.5,69.1 -4.5,9.1 -10.4,17.3 -17.5,24.4 -1.2,1.2 -3.1,1.1 -4.2,0 -1.2,-1.2 -1.2,-3.1 0,-4.2 6.7,-6.6 12.2,-14.3 16.4,-22.8 10,-20.2 11.5,-43.2 4.2,-64.6 -7.1,-20.9 -21.7,-37.8 -41.3,-47.9 l -1.4,-0.7 c -8.1,-4 -13.8,-11.7 -15.3,-20.6 -0.2,-1 0.1,-1.8 0.5,-2.4 z"
   class="st4" />
		<path
   id="path166"
   d="m 290.4,394.5 c 0.1,-0.1 0.2,-0.2 0.2,-0.3 1.2,-1.2 3.1,-1.2 4.2,0 14.7,14.5 31.5,26.6 50.1,36 l 1.6,0.8 c 27.5,13.5 60.2,11.2 85.4,-6.2 1.4,-0.9 3.2,-0.6 4.2,0.8 0.9,1.4 0.6,3.2 -0.8,4.2 -26.3,18.1 -60.2,21 -89.1,7.8 v 0 l -2.3,-1.1 c -19.8,-9.8 -37.7,-22.5 -53.2,-37.9 -1.1,-1.3 -1.2,-3 -0.3,-4.1 z"
   class="st4" />
	</g>
</g>
</svg>
