<?xml version="1.0" encoding="UTF-8" standalone="no"?>
<svg
   xmlns:dc="http://purl.org/dc/elements/1.1/"
   xmlns:cc="http://creativecommons.org/ns#"
   xmlns:rdf="http://www.w3.org/1999/02/22-rdf-syntax-ns#"
   xmlns:svg="http://www.w3.org/2000/svg"
   xmlns="http://www.w3.org/2000/svg"
   xmlns:sodipodi="http://sodipodi.sourceforge.net/DTD/sodipodi-0.dtd"
   xmlns:inkscape="http://www.inkscape.org/namespaces/inkscape"
   inkscape:version="1.0 (4035a4f, 2020-05-01)"
   height="302.10001"
   width="591.70001"
   sodipodi:docname="BridOMeara_Portrait_Final_Logo.svg"
   xml:space="preserve"
   viewBox="0 0 591.69999 302.10002"
   y="0px"
   x="0px"
   id="Layer_1"
   version="1.1"><metadata
   id="metadata269"><rdf:RDF><cc:Work
       rdf:about=""><dc:format>image/svg+xml</dc:format><dc:type
         rdf:resource="http://purl.org/dc/dcmitype/StillImage" /><dc:title></dc:title></cc:Work></rdf:RDF></metadata><defs
   id="defs267" /><sodipodi:namedview
   inkscape:current-layer="Layer_1"
   inkscape:window-maximized="1"
   inkscape:window-y="23"
   inkscape:window-x="0"
   inkscape:cy="151.65"
   inkscape:cx="298.05"
   inkscape:zoom="1.6957799"
   fit-margin-bottom="0"
   fit-margin-right="0"
   fit-margin-left="0"
   fit-margin-top="0"
   showgrid="false"
   id="namedview265"
   inkscape:window-height="1005"
   inkscape:window-width="1680"
   inkscape:pageshadow="2"
   inkscape:pageopacity="0"
   guidetolerance="10"
   gridtolerance="10"
   objecttolerance="10"
   borderopacity="1"
   bordercolor="#666666"
   pagecolor="#ffffff" />
<style
   id="style10"
   type="text/css">
	.st0{fill:#8CD2D1;}
	.st1{fill:#FAA61A;}
	.st2{fill:#E98EBC;}
	.st3{fill:#808285;}
</style>
<g
   transform="translate(-25.4,-18)"
   id="g262">
	<g
   id="g172">
		<circle
   id="circle12"
   r="36.400002"
   cy="54.400002"
   cx="308.20001"
   class="st0" />
		<circle
   id="circle14"
   r="36.400002"
   cy="144.7"
   cx="276.79999"
   class="st1" />
		<circle
   id="circle16"
   r="36.400002"
   cy="125.2"
   cx="368.79999"
   class="st2" />
		<g
   id="g170">
			<path
   id="path18"
   d="m 362,171.7 c -22,0.4 -40.3,-16.3 -41.2,-37.5 0,-0.5 -0.1,-0.9 -0.1,-1.4 -0.1,-2.7 0.1,-5.3 0.6,-7.9 0.5,-2.6 1.2,-5.2 2.2,-7.7 1,-2.5 2.2,-4.8 3.7,-7.1 2.9,-4.4 6.8,-8.3 11.3,-11.3 v 0 c 0,0 0,0 0,0 2.5,-1.5 4.9,-3.3 7.1,-5.4 2.2,-2 4.1,-4.3 5.8,-6.7 1.7,-2.4 3.2,-5 4.3,-7.8 1.2,-2.7 2,-5.6 2.6,-8.5 0.6,-2.9 0.8,-5.9 0.7,-8.9 -0.2,-6 -1.6,-11.9 -4.3,-17.2 -0.7,-1.3 -1.4,-2.6 -2.2,-3.9 -0.8,-1.3 -1.7,-2.5 -2.6,-3.6 -1.9,-2.3 -4,-4.4 -6.4,-6.3 -2.4,-1.8 -4.9,-3.4 -7.6,-4.7 -2.7,-1.3 -5.6,-2.2 -8.5,-2.9 -2,-0.4 -4.1,-0.7 -6.1,-0.8 19,2.9 33.6,18.6 34,37.9 0.1,6.6 -1.5,12.9 -4.4,18.5 -0.9,2 -2,3.8 -3.2,5.6 -1.5,2.2 -3.3,4.2 -5.2,6 -1.9,1.8 -4.1,3.4 -6.3,4.8 -2.3,1.4 -4.7,2.5 -7.2,3.4 -2.5,0.9 -5.1,1.5 -7.7,1.9 -2.6,0.4 -5.3,0.5 -8,0.3 -5.3,-0.3 -10.6,-1.7 -15.4,-4.1 v 0 c 0,0 0,0 0,0 -0.5,-0.3 -1,-0.5 -1.5,-0.8 -0.1,-0.1 -0.2,-0.1 -0.3,-0.2 -2.1,-1 -4.2,-1.9 -6.4,-2.5 -2.8,-0.9 -5.8,-1.4 -8.7,-1.7 -3,-0.3 -5.9,-0.2 -8.9,0.2 -3,0.4 -5.9,1 -8.7,2 -2.8,1 -5.5,2.3 -8.1,3.8 -5.1,3.1 -9.5,7.3 -12.8,12.3 -0.8,1.2 -1.6,2.5 -2.3,3.9 -0.7,1.3 -1.3,2.7 -1.8,4.1 -0.5,1.4 -1,2.7 -1.3,4.1 5.4,-15.1 20,-26 37.4,-26.4 3.6,-0.1 7.2,0.3 10.6,1.1 1.1,0.2 2.2,0.5 3.2,0.8 2.5,0.8 5,1.8 7.3,3.1 2.3,1.3 4.5,2.8 6.6,4.5 2,1.7 3.9,3.7 5.5,5.8 1.6,2.1 3.1,4.4 4.3,6.8 2.4,4.8 3.8,10 4.1,15.4 v 0 c 0,0 0,0 0,0 0.1,3 0.4,5.9 1.1,8.8 0.7,2.9 1.6,5.7 2.9,8.4 1.3,2.7 2.8,5.2 4.6,7.6 1.8,2.4 3.8,4.6 6.1,6.5 2.3,1.9 4.7,3.6 7.3,5.1 5.2,2.8 11.1,4.5 17.1,4.9 1.5,0.1 3,0.1 4.5,0 1.5,-0.1 3,-0.2 4.5,-0.5 3,-0.5 5.8,-1.3 8.6,-2.4 2.8,-1.1 5.4,-2.5 7.9,-4.3 0.7,-0.5 1.4,-1 2.1,-1.6 -5.9,4.1 -13.1,6.3 -20.8,6.5 z"
   class="st3" />
			<g
   id="g68">
				<path
   id="path20"
   d="m 299.9,161.5 c 0.3,0.4 0.2,1 -0.2,1.3 -5.9,5.5 -13.3,8.8 -21.4,9.5 -0.6,0 -1.1,-0.4 -1.1,-0.9 0,-0.6 0.4,-1.1 0.9,-1.1 7.6,-0.6 14.6,-3.7 20.1,-8.9 0.4,-0.4 1.1,-0.4 1.5,0 0.1,0 0.1,0.1 0.2,0.1 z"
   class="st3" />
				<path
   id="path22"
   d="m 273.7,170.7 c 0.1,0.2 0.2,0.4 0.1,0.6 0,0.6 -0.5,1 -1.1,0.9 -8.9,-0.7 -17.1,-4.6 -23.1,-11.1 -5.4,-5.8 -8.6,-12.9 -9.4,-20.8 -0.1,-0.6 0.4,-1.1 0.9,-1.1 0.6,-0.1 1.1,0.4 1.1,0.9 0.7,7.4 3.8,14.1 8.8,19.6 5.7,6.1 13.5,9.8 21.8,10.5 0.4,0.1 0.7,0.3 0.9,0.5 z"
   class="st3" />
				<path
   id="path24"
   d="m 252.8,111.3 c 0.3,0.4 0.2,1 -0.2,1.3 -6.3,5.9 -10,13.8 -10.5,22.4 0,0.6 -0.5,1 -1.1,1 -0.6,0 -1,-0.5 -1,-1.1 0.5,-9.1 4.5,-17.6 11.2,-23.8 0.4,-0.4 1.1,-0.4 1.5,0 0.1,0 0.1,0.1 0.1,0.2 z"
   class="st3" />
				<path
   id="path26"
   d="m 258.8,106.7 c 0,0 0.1,0 0,0 0.3,0.5 0.1,1.1 -0.4,1.4 -2.1,1.2 -4.1,2.7 -5.8,4.4 -0.4,0.4 -1.1,0.4 -1.5,0 -0.4,-0.4 -0.4,-1.1 0,-1.5 1.9,-1.8 4,-3.3 6.2,-4.7 0.6,-0.2 1.3,0 1.5,0.4 z"
   class="st3" />
				<path
   id="path28"
   d="m 300.9,160.5 c 0.2,0.4 0.2,0.9 -0.1,1.3 -0.4,0.4 -0.7,0.7 -1.1,1.1 -0.4,0.4 -1.1,0.4 -1.5,0 -0.4,-0.4 -0.4,-1.1 0,-1.5 0.4,-0.3 0.7,-0.7 1,-1 0.4,-0.4 1.1,-0.4 1.5,0 0.1,-0.1 0.2,0 0.2,0.1 z"
   class="st3" />
				<path
   id="path30"
   d="m 309.3,126.5 c 0.1,0.2 0.2,0.5 0.1,0.7 -0.1,0.6 -0.6,0.9 -1.2,0.8 -11.7,-2 -23.4,1.5 -32.1,9.6 -0.4,0.4 -1.1,0.4 -1.5,0 -0.4,-0.4 -0.4,-1.1 0,-1.5 9.2,-8.6 21.5,-12.3 33.9,-10.2 0.4,0.2 0.7,0.3 0.8,0.6 z"
   class="st3" />
				<path
   id="path32"
   d="m 310.4,131.1 c 0.1,0.2 0.2,0.5 0.1,0.8 -0.1,0.6 -0.7,0.9 -1.2,0.8 -4.4,-1 -8.9,-1.1 -13.4,-0.3 -0.6,0.1 -1.1,-0.3 -1.2,-0.8 -0.1,-0.6 0.3,-1.1 0.8,-1.2 4.7,-0.9 9.5,-0.8 14.2,0.3 0.3,0 0.5,0.1 0.7,0.4 z"
   class="st3" />
				<path
   id="path34"
   d="m 307.6,121.9 c 0.1,0.2 0.2,0.4 0.1,0.7 -0.1,0.6 -0.6,1 -1.1,0.9 -12.2,-1.4 -24.4,2.7 -33.4,11.1 l -0.2,0.2 c -1.1,1.3 -1.1,3.2 0.1,4.4 1.1,1.2 3,1.4 4.3,0.4 l 0.3,-0.3 c 3.6,-3.4 7.7,-5.9 12.3,-7.5 0.5,-0.2 1.1,0.1 1.3,0.6 0.2,0.5 -0.1,1.1 -0.6,1.3 -4,1.4 -7.7,3.6 -10.9,6.4 v 0 l -0.7,0.7 c -2.2,2 -5.6,1.9 -7.6,-0.2 -2,-2.2 -1.9,-5.6 0.3,-7.6 l 0.7,-0.6 v 0 c 9.3,-8.4 21.8,-12.4 34.3,-11 0.4,0 0.6,0.2 0.8,0.5 z"
   class="st3" />
				<path
   id="path36"
   d="m 310.8,135.6 c 0.1,0.2 0.2,0.5 0.1,0.8 -0.1,0.5 -0.7,0.9 -1.3,0.7 -9.1,-2.5 -18.9,-0.4 -26.1,5.6 -0.4,0.4 -1.1,0.3 -1.4,-0.1 -0.4,-0.4 -0.3,-1.1 0.1,-1.4 7.8,-6.4 18.2,-8.6 28,-6 0.2,0 0.4,0.2 0.6,0.4 z"
   class="st3" />
				<path
   id="path38"
   d="m 277.9,124.4 c 0.3,0.5 0.1,1.1 -0.3,1.4 -2.6,1.6 -5,3.5 -7.2,5.6 l -0.3,0.3 c -1.3,1.4 -2.1,3.1 -2.1,5 -0.1,2 0.7,4 2,5.4 2.1,2.2 5.3,3 8.1,2 0.5,-0.2 1.1,0.1 1.3,0.6 0.2,0.5 -0.1,1.1 -0.6,1.3 -3.6,1.3 -7.7,0.3 -10.3,-2.5 -1.8,-1.9 -2.7,-4.3 -2.6,-6.9 0.1,-2.6 1.2,-5 3.1,-6.7 l 0.6,-0.6 v 0 c 2.1,-1.9 4.5,-3.7 6.9,-5.2 0.4,-0.3 1.1,-0.2 1.4,0.3 0,0 0,0 0,0 z"
   class="st3" />
				<path
   id="path40"
   d="m 305.1,117.4 c 0.1,0.2 0.2,0.4 0.2,0.6 0,0.6 -0.5,1 -1.1,1 -7.5,-0.4 -15.1,1.1 -21.9,4.3 -0.5,0.2 -1.1,0 -1.4,-0.5 -0.2,-0.5 0,-1.1 0.5,-1.4 7.1,-3.3 15,-4.9 22.9,-4.5 0.3,0 0.6,0.2 0.8,0.5 z"
   class="st3" />
				<path
   id="path42"
   d="m 310.6,140 c 0.2,0.2 0.2,0.6 0.1,0.8 -0.2,0.5 -0.7,0.8 -1.3,0.7 -8.3,-2.6 -17.4,-0.6 -23.9,5.1 l -0.5,0.5 c -5.6,5.3 -14.5,5 -19.7,-0.7 -0.9,-0.9 -1.6,-2 -2.2,-3.2 -0.3,-0.5 -0.1,-1.1 0.4,-1.4 0.5,-0.3 1.1,-0.1 1.4,0.4 0.5,1 1.1,1.9 1.9,2.7 4.4,4.7 11.6,5 16.4,0.9 l 0.4,-0.4 c 7.1,-6.6 17.2,-8.9 26.4,-6 0.3,0.3 0.5,0.4 0.6,0.6 z"
   class="st3" />
				<path
   id="path44"
   d="m 301.7,113 c 0.1,0.2 0.1,0.3 0.2,0.5 0,0.6 -0.4,1 -1,1.1 -12.5,0.3 -24.3,5.1 -33.4,13.7 l -0.3,0.3 c -2.4,2.4 -3.6,5.6 -3.5,9 0,0.6 -0.4,1 -1,1.1 -0.6,0 -1,-0.4 -1.1,-1 -0.2,-4.1 1.4,-8 4.4,-10.8 l 0.6,-0.6 v 0 c 9.4,-8.5 21.5,-13.4 34.2,-13.6 0.3,-0.2 0.7,0 0.9,0.3 z"
   class="st3" />
				<path
   id="path46"
   d="m 309.9,144.3 c 0.2,0.3 0.2,0.6 0.1,0.9 -0.2,0.5 -0.8,0.8 -1.3,0.6 -3.3,-1.2 -7,-1.4 -10.5,-0.8 -0.6,0.1 -1.1,-0.3 -1.2,-0.8 -0.1,-0.6 0.3,-1.1 0.8,-1.2 3.8,-0.7 7.8,-0.4 11.5,0.9 0.3,0.1 0.4,0.2 0.6,0.4 z"
   class="st3" />
				<path
   id="path48"
   d="m 281.5,112.9 c 0,0 0.1,0.1 0.1,0.2 0.2,0.5 0,1.1 -0.6,1.3 -6.1,2.5 -11.7,6.1 -16.6,10.7 l -0.2,0.2 c -6.3,6.1 -6.6,16.2 -0.5,22.7 6,6.4 15.9,6.8 22.5,1.1 l 0.4,-0.4 c 1.7,-1.6 3.6,-2.9 5.7,-3.9 0.5,-0.2 1.1,0 1.4,0.5 0.2,0.5 0,1.1 -0.5,1.4 -1.7,0.8 -3.3,1.9 -4.7,3.1 l -0.4,0.4 c -7.4,6.9 -18.9,6.5 -25.8,-0.9 -6.9,-7.3 -6.5,-18.9 0.9,-25.8 l 0.5,-0.4 v 0 c 5,-4.5 10.6,-8.1 16.8,-10.7 0.2,-0.1 0.8,0.1 1,0.5 z"
   class="st3" />
				<path
   id="path50"
   d="m 297.2,109 c 0.1,0.1 0.1,0.3 0.1,0.4 0.1,0.6 -0.4,1.1 -0.9,1.1 -3.5,0.4 -7,1 -10.3,2 -0.5,0.2 -1.1,-0.1 -1.3,-0.7 -0.2,-0.5 0.1,-1.1 0.7,-1.3 3.5,-1 7.1,-1.8 10.7,-2.1 0.4,0.1 0.8,0.3 1,0.6 z"
   class="st3" />
				<path
   id="path52"
   d="m 291.5,105.5 c 0.1,0.1 0.1,0.2 0.1,0.3 0.1,0.6 -0.3,1.1 -0.8,1.2 -10.9,2.1 -21,7.2 -29.2,14.8 l -0.2,0.2 c -2.2,2 -3.9,4.5 -5,7.2 -0.2,0.5 -0.8,0.8 -1.3,0.6 -0.5,-0.2 -0.8,-0.8 -0.6,-1.3 1.2,-2.9 2.9,-5.5 5.2,-7.7 v 0 l 0.3,-0.3 c 8.5,-7.9 19,-13.3 30.4,-15.5 0.5,-0.1 0.9,0.1 1.1,0.5 z"
   class="st3" />
				<path
   id="path54"
   d="m 255,133.5 c 0.1,0.2 0.2,0.4 0.1,0.7 -0.8,6.1 1.1,12.2 5.3,16.7 1.1,1.2 2.3,2.2 3.6,3.1 0.5,0.3 0.6,1 0.3,1.4 -0.3,0.5 -1,0.6 -1.4,0.3 -1.4,-1 -2.8,-2.1 -4,-3.4 -4.6,-5 -6.8,-11.7 -5.9,-18.4 0.1,-0.6 0.6,-1 1.2,-0.9 0.4,0.1 0.7,0.3 0.8,0.5 z"
   class="st3" />
				<path
   id="path56"
   d="m 308.6,148.4 c 0.2,0.3 0.2,0.6 0.1,0.9 -0.2,0.5 -0.8,0.8 -1.3,0.6 -5.6,-2 -11.7,-0.8 -16.1,3.1 l -0.4,0.4 c -6.1,5.8 -14.9,7.6 -22.9,4.8 -0.5,-0.2 -0.8,-0.8 -0.6,-1.3 0.2,-0.5 0.8,-0.8 1.3,-0.6 7.1,2.5 14.8,0.9 20.4,-4 l 0.4,-0.4 c 5,-4.7 12.1,-6.2 18.6,-3.9 0.2,0.1 0.4,0.3 0.5,0.4 z"
   class="st3" />
				<path
   id="path58"
   d="m 306.8,152.4 c 0.2,0.2 0.2,0.6 0.1,0.9 -0.2,0.5 -0.8,0.8 -1.3,0.7 -4,-1.3 -8.4,-0.4 -11.5,2.3 l -0.3,0.3 c -1,1 -2.2,1.9 -3.3,2.7 -0.5,0.3 -1.1,0.2 -1.4,-0.3 -0.3,-0.5 -0.2,-1.1 0.3,-1.4 0.9,-0.6 1.8,-1.3 2.7,-2.1 l 0.4,-0.4 c 3.7,-3.5 9,-4.7 13.9,-3.1 0.1,0 0.3,0.2 0.4,0.4 z"
   class="st3" />
				<path
   id="path60"
   d="m 261.2,115.3 c 0.3,0.4 0.2,1 -0.2,1.3 -0.7,0.6 -1.4,1.2 -2.2,1.9 l -0.3,0.3 c -10,9.3 -10.5,25.1 -1.2,35.1 3.5,3.7 7.9,6.2 12.9,7.3 4.9,1 9.8,0.6 14.4,-1.2 0.5,-0.2 1.1,0 1.3,0.6 0.2,0.5 0,1.1 -0.6,1.3 -5,2 -10.4,2.5 -15.6,1.3 -5.4,-1.1 -10.2,-3.9 -14,-7.9 -9.9,-10.6 -9.6,-27.2 0.7,-37.4 v 0 l 0.6,-0.5 c 0.8,-0.8 1.7,-1.6 2.6,-2.3 0.4,-0.4 1.1,-0.3 1.5,0.1 0.1,0 0.1,0 0.1,0.1 z"
   class="st3" />
				<path
   id="path62"
   d="m 284.2,102.9 c 0,0.1 0.1,0.2 0.1,0.2 0.2,0.5 -0.1,1.1 -0.7,1.3 -6.6,2 -12.7,5 -18.3,8.9 -0.5,0.3 -1.1,0.2 -1.4,-0.2 -0.3,-0.5 -0.2,-1.1 0.2,-1.4 5.8,-4.1 12.1,-7.2 18.9,-9.2 0.4,-0.2 0.9,0 1.2,0.4 z"
   class="st3" />
				<path
   id="path64"
   d="m 304.5,156.2 c 0.1,0.2 0.2,0.5 0.1,0.7 -0.1,0.6 -0.7,0.9 -1.2,0.8 -2.3,-0.5 -4.7,0.2 -6.4,1.7 l -0.2,0.2 c -6.1,5.7 -14,8.7 -22.3,8.4 -8.3,-0.3 -16,-3.8 -21.7,-9.9 -2.4,-2.6 -4.3,-5.4 -5.7,-8.6 -0.2,-0.5 0,-1.1 0.5,-1.4 0.5,-0.2 1.1,0 1.4,0.5 1.3,3 3.1,5.7 5.3,8 5.3,5.7 12.5,8.9 20.3,9.2 7.6,0.3 14.8,-2.4 20.5,-7.5 l 0.4,-0.4 c 2.3,-2.1 5.4,-3 8.5,-2.4 0.1,0.3 0.4,0.5 0.5,0.7 z"
   class="st3" />
				<path
   id="path66"
   d="m 274.2,102 c 0,0 0,0.1 0.1,0.1 0.2,0.5 0,1.1 -0.5,1.4 -6.5,3 -12.4,6.9 -17.7,11.8 l -0.4,0.4 c -7.7,7.2 -10.9,18 -8.4,28.3 0.1,0.6 -0.2,1.1 -0.8,1.2 -0.6,0.1 -1.1,-0.2 -1.2,-0.8 -2.6,-10.7 0.5,-21.9 8.3,-29.7 v 0 l 0.6,-0.6 c 5.5,-5.2 11.8,-9.4 18.7,-12.5 0.4,-0.2 1,0 1.3,0.4 z"
   class="st3" />
			</g>
			<g
   id="g118">
				<path
   id="path70"
   d="m 318,96.5 c 0.1,0.5 0.6,0.8 1.1,0.7 8.1,-0.8 15.4,-4.1 21.2,-9.8 0.4,-0.4 0.4,-1 0,-1.5 -0.4,-0.4 -1,-0.4 -1.5,0 -5.5,5.3 -12.4,8.5 -20,9.2 -0.6,0.1 -1,0.6 -0.9,1.1 0.1,0.2 0.1,0.3 0.1,0.3 z"
   class="st3" />
				<path
   id="path72"
   d="m 342.3,83 c 0.1,0.2 0.2,0.4 0.4,0.5 0.5,0.3 1.1,0.3 1.4,-0.2 5.4,-7.1 7.8,-15.9 7,-24.7 -0.7,-7.8 -4,-15 -9.3,-20.8 -0.4,-0.4 -1,-0.4 -1.5,-0.1 -0.4,0.4 -0.4,1 -0.1,1.5 5.1,5.4 8.1,12.2 8.8,19.6 0.8,8.3 -1.6,16.6 -6.6,23.3 -0.2,0.3 -0.2,0.6 -0.1,0.9 z"
   class="st3" />
				<path
   id="path74"
   d="m 311.5,28 c 0.1,0.5 0.6,0.8 1.1,0.7 8.6,-0.8 17,1.7 23.8,7 0.4,0.4 1.1,0.3 1.4,-0.2 0.4,-0.4 0.3,-1.1 -0.2,-1.4 -7.2,-5.6 -16.1,-8.3 -25.2,-7.4 -0.6,0.1 -1,0.6 -0.9,1.1 0,0.1 0,0.1 0,0.2 z"
   class="st3" />
				<path
   id="path76"
   d="m 304.2,29.5 c 0,0 0,0 0,0 0.2,0.6 0.8,0.9 1.3,0.7 2.3,-0.7 4.7,-1.2 7.2,-1.5 0.6,-0.1 1,-0.6 0.9,-1.1 -0.1,-0.6 -0.6,-1 -1.1,-0.9 -2.6,0.2 -5.1,0.8 -7.6,1.6 -0.6,0.1 -0.9,0.7 -0.7,1.2 z"
   class="st3" />
				<path
   id="path78"
   d="m 316.5,96.6 c 0.1,0.4 0.6,0.8 1,0.7 0.5,0 1,-0.1 1.5,-0.1 0.6,-0.1 1,-0.6 0.9,-1.1 -0.1,-0.6 -0.6,-1 -1.1,-0.9 -0.5,0 -1,0.1 -1.5,0.1 -0.6,0 -1,0.5 -1,1.1 0.2,0.1 0.2,0.2 0.2,0.2 z"
   class="st3" />
				<path
   id="path80"
   d="m 285.5,80.4 c 0.1,0.2 0.2,0.4 0.4,0.6 0.5,0.3 1.1,0.2 1.4,-0.3 6.3,-10.1 16.7,-16.5 28.5,-17.7 0.6,-0.1 1,-0.6 0.9,-1.1 -0.1,-0.6 -0.6,-1 -1.1,-0.9 -12.5,1.2 -23.4,8 -30.1,18.6 0,0.2 -0.1,0.5 0,0.8 z"
   class="st3" />
				<path
   id="path82"
   d="m 288.3,84.2 c 0.1,0.2 0.2,0.5 0.5,0.6 0.5,0.3 1.1,0.1 1.4,-0.4 2.2,-4 5.1,-7.4 8.7,-10.2 0.4,-0.4 0.5,-1 0.2,-1.4 -0.4,-0.4 -1,-0.5 -1.4,-0.2 -3.8,3 -6.9,6.6 -9.2,10.8 -0.3,0.3 -0.3,0.6 -0.2,0.8 z"
   class="st3" />
				<path
   id="path84"
   d="m 283.2,76.1 c 0.1,0.2 0.2,0.4 0.4,0.5 0.5,0.3 1.1,0.2 1.4,-0.2 7.1,-10.1 18.2,-16.5 30.4,-17.7 h 0.3 c 1.7,0 3.1,1.3 3.3,3 0.2,1.7 -0.9,3.1 -2.5,3.5 H 316 c -4.9,0.5 -9.5,1.9 -13.8,4.3 -0.5,0.3 -0.7,0.9 -0.4,1.4 0.3,0.5 0.9,0.7 1.4,0.4 3.7,-2.1 7.8,-3.4 12,-3.9 v 0 l 1,-0.1 c 2.9,-0.3 5.1,-2.9 4.8,-5.8 -0.3,-2.9 -2.9,-5.1 -5.8,-4.8 l -0.9,0.1 v 0 c -12.5,1.4 -23.7,8.1 -31,18.4 -0.1,0.2 -0.2,0.6 -0.1,0.9 z"
   class="st3" />
				<path
   id="path86"
   d="m 291.4,87.5 c 0.1,0.3 0.3,0.5 0.5,0.6 0.5,0.3 1.1,0 1.4,-0.5 4.2,-8.5 12.2,-14.4 21.5,-15.9 0.6,-0.1 0.9,-0.6 0.9,-1.2 -0.1,-0.6 -0.6,-0.9 -1.2,-0.9 -9.9,1.6 -18.6,8 -23,17 -0.2,0.4 -0.2,0.7 -0.1,0.9 z"
   class="st3" />
				<path
   id="path88"
   d="m 304.8,55.5 c 0.2,0.5 0.7,0.9 1.3,0.7 2.9,-0.9 5.9,-1.5 9,-1.7 h 0.4 c 1.9,-0.1 3.7,0.5 5.2,1.7 1.6,1.3 2.5,3.1 2.7,5.1 0.3,3 -1.3,5.9 -3.9,7.4 -0.5,0.3 -0.7,0.9 -0.4,1.4 0.3,0.5 0.9,0.7 1.4,0.4 3.4,-1.9 5.4,-5.5 5,-9.4 -0.2,-2.6 -1.5,-4.9 -3.5,-6.5 -2,-1.6 -4.5,-2.4 -7.1,-2.2 l -0.9,0.1 v 0 c -2.9,0.3 -5.7,0.9 -8.5,1.7 -0.5,0.2 -0.8,0.7 -0.7,1.3 0,0 0,0 0,0 z"
   class="st3" />
				<path
   id="path90"
   d="m 281.5,71.2 c 0.1,0.2 0.2,0.4 0.3,0.5 0.4,0.4 1.1,0.3 1.4,-0.2 4.8,-5.9 11,-10.5 17.9,-13.5 0.5,-0.2 0.8,-0.8 0.5,-1.4 -0.2,-0.5 -0.8,-0.8 -1.4,-0.5 -7.2,3.1 -13.6,8 -18.6,14.1 -0.1,0.3 -0.2,0.7 -0.1,1 z"
   class="st3" />
				<path
   id="path92"
   d="m 294.8,90.3 c 0.1,0.3 0.3,0.5 0.6,0.6 0.5,0.2 1.1,0 1.4,-0.5 3.6,-8 11.1,-13.5 19.7,-14.5 h 0.6 c 7.7,-0.7 13.3,-7.6 12.6,-15.2 -0.1,-1.3 -0.4,-2.6 -0.9,-3.8 -0.2,-0.5 -0.8,-0.8 -1.3,-0.6 -0.5,0.2 -0.8,0.8 -0.6,1.3 0.4,1 0.7,2.1 0.8,3.2 0.6,6.4 -3.9,12 -10.2,12.9 H 317 c -9.6,0.9 -18.1,7 -22,15.8 -0.2,0.3 -0.2,0.6 -0.2,0.8 z"
   class="st3" />
				<path
   id="path94"
   d="m 280.5,65.8 c 0.1,0.2 0.1,0.3 0.3,0.5 0.4,0.4 1.1,0.4 1.5,-0.1 8.5,-9.1 20,-14.8 32.4,-16 h 0.4 c 3.3,-0.2 6.6,1 9,3.3 0.4,0.4 1.1,0.4 1.5,0 0.4,-0.4 0.4,-1.1 0,-1.5 -2.9,-2.8 -7,-4.2 -11,-3.9 l -0.8,0.1 v 0 c -12.6,1.4 -24.3,7.3 -32.9,16.6 -0.4,0.2 -0.5,0.6 -0.4,1 z"
   class="st3" />
				<path
   id="path96"
   d="m 298.5,92.6 c 0.1,0.3 0.3,0.5 0.6,0.7 0.5,0.2 1.1,0 1.3,-0.6 1.4,-3.3 3.5,-6.2 6.3,-8.3 0.4,-0.4 0.5,-1 0.2,-1.4 -0.4,-0.4 -1,-0.5 -1.4,-0.2 -3.1,2.4 -5.5,5.6 -7,9.2 0,0.2 0,0.4 0,0.6 z"
   class="st3" />
				<path
   id="path98"
   d="m 293.8,50.6 c 0,0.1 0,0.1 0.1,0.2 0.3,0.5 0.9,0.7 1.4,0.5 6,-2.9 12.4,-4.7 19,-5.4 h 0.3 c 8.8,-0.7 16.5,5.8 17.4,14.6 0.8,8.7 -5.4,16.5 -14.1,17.6 h -0.6 c -2.3,0.2 -4.6,0.8 -6.7,1.7 -0.5,0.2 -0.8,0.8 -0.5,1.3 0.2,0.5 0.8,0.8 1.3,0.5 1.7,-0.7 3.6,-1.2 5.5,-1.5 h 0.6 c 10,-1 17.4,-9.9 16.5,-19.9 -1,-10 -9.9,-17.4 -19.9,-16.4 l -0.6,0.1 v 0 c -6.7,0.7 -13.1,2.6 -19.1,5.5 -0.6,0.2 -0.8,0.7 -0.6,1.2 z"
   class="st3" />
				<path
   id="path100"
   d="m 280.4,59.8 c 0,0.1 0.1,0.3 0.2,0.4 0.4,0.4 1,0.4 1.5,0.1 2.6,-2.4 5.4,-4.5 8.4,-6.4 0.5,-0.3 0.6,-0.9 0.3,-1.4 -0.3,-0.5 -0.9,-0.6 -1.4,-0.3 -3.1,1.9 -6,4.1 -8.7,6.6 -0.3,0.2 -0.4,0.6 -0.3,1 z"
   class="st3" />
				<path
   id="path102"
   d="m 281.6,53.2 c 0,0.1 0.1,0.2 0.2,0.3 0.3,0.4 1,0.5 1.4,0.2 8.8,-6.8 19.3,-11 30.4,-12.1 h 0.2 c 3,-0.3 5.9,0.1 8.7,1 0.5,0.2 1.1,-0.1 1.3,-0.6 0.2,-0.5 -0.1,-1.1 -0.6,-1.3 -3,-1 -6,-1.4 -9.2,-1.2 v 0 h -0.4 C 302,40.6 291,44.9 281.9,52 c -0.3,0.3 -0.4,0.8 -0.3,1.2 z"
   class="st3" />
				<path
   id="path104"
   d="m 326.8,44.4 c 0.1,0.2 0.2,0.4 0.4,0.6 5.1,3.4 8.4,8.9 9,15.1 0.2,1.6 0.1,3.2 -0.1,4.7 -0.1,0.6 0.3,1.1 0.9,1.2 0.6,0.1 1.1,-0.3 1.2,-0.9 0.2,-1.7 0.3,-3.5 0.1,-5.2 -0.6,-6.8 -4.2,-12.8 -9.9,-16.6 -0.5,-0.3 -1.1,-0.2 -1.4,0.3 -0.3,0.2 -0.3,0.5 -0.2,0.8 z"
   class="st3" />
				<path
   id="path106"
   d="m 302.4,94.4 c 0.1,0.3 0.3,0.5 0.6,0.7 0.5,0.2 1.1,0 1.3,-0.6 2.2,-5.5 7.2,-9.3 13,-10 h 0.5 c 8.4,-0.8 15.6,-6.1 18.8,-13.9 0.2,-0.5 0,-1.1 -0.6,-1.3 -0.5,-0.2 -1.1,0 -1.3,0.6 -2.8,6.9 -9.1,11.7 -16.5,12.6 h -0.6 c -6.8,0.6 -12.7,5 -15.2,11.4 0,0.1 0,0.3 0,0.5 z"
   class="st3" />
				<path
   id="path108"
   d="m 306.6,95.7 c 0.1,0.3 0.3,0.5 0.6,0.6 0.5,0.2 1.1,0 1.4,-0.5 1.7,-3.9 5.2,-6.5 9.4,-7.1 h 0.4 c 1.4,-0.1 2.8,-0.4 4.2,-0.7 0.6,-0.1 0.9,-0.7 0.7,-1.3 -0.1,-0.6 -0.7,-0.9 -1.3,-0.7 -1.1,0.3 -2.2,0.5 -3.3,0.6 h -0.6 c -5.1,0.5 -9.5,3.7 -11.5,8.4 -0.1,0.2 -0.1,0.5 0,0.7 z"
   class="st3" />
				<path
   id="path110"
   d="m 309,37 c 0.1,0.5 0.6,0.8 1.1,0.7 0.9,-0.1 1.9,-0.3 2.8,-0.4 h 0.5 c 13.6,-1.3 25.7,8.7 27,22.3 0.5,5.1 -0.6,10.1 -3.1,14.5 -2.4,4.3 -6.1,7.8 -10.5,10 -0.5,0.3 -0.7,0.9 -0.5,1.4 0.3,0.5 0.9,0.7 1.4,0.5 4.8,-2.4 8.7,-6.1 11.4,-10.8 C 341.8,70.4 343,65 342.4,59.5 341.1,45 328.4,34.2 314,35.2 v 0 l -0.8,0.1 c -1.1,0.1 -2.3,0.2 -3.4,0.4 -0.6,0.1 -1,0.6 -0.9,1.2 0.1,0 0.1,0 0.1,0.1 z"
   class="st3" />
				<path
   id="path112"
   d="m 284.5,45.9 c 0,0.1 0.1,0.2 0.1,0.2 0.3,0.5 0.9,0.6 1.4,0.3 5.8,-3.6 12.2,-6.2 18.8,-7.8 0.6,-0.1 0.9,-0.7 0.8,-1.2 -0.1,-0.6 -0.7,-0.9 -1.2,-0.8 -6.9,1.6 -13.4,4.3 -19.4,8 -0.5,0.4 -0.6,0.9 -0.5,1.3 z"
   class="st3" />
				<path
   id="path114"
   d="m 311,96.5 c 0.1,0.2 0.2,0.5 0.5,0.6 0.5,0.3 1.1,0.1 1.4,-0.4 1.2,-2 3.2,-3.4 5.5,-3.7 h 0.3 c 8.3,-0.8 15.8,-4.8 21.1,-11.2 5.3,-6.4 7.8,-14.5 7,-22.8 -0.3,-3.5 -1.2,-6.8 -2.7,-10 -0.2,-0.5 -0.8,-0.7 -1.4,-0.5 -0.5,0.2 -0.7,0.8 -0.5,1.4 1.3,2.9 2.2,6.1 2.5,9.3 0.7,7.7 -1.6,15.3 -6.5,21.3 -4.8,5.9 -11.6,9.5 -19.1,10.4 h -0.5 c -3.1,0.3 -5.9,2.1 -7.4,4.7 -0.3,0.3 -0.3,0.6 -0.2,0.9 z"
   class="st3" />
				<path
   id="path116"
   d="m 290.5,37.9 c 0,0 0,0.1 0,0.1 0.2,0.5 0.8,0.8 1.4,0.5 6.5,-2.9 13.4,-4.7 20.5,-5.5 h 0.6 c 10.5,-1 20.7,3.8 26.7,12.5 0.3,0.5 1,0.6 1.4,0.3 0.5,-0.3 0.6,-1 0.3,-1.4 -6.2,-9 -16.8,-14.1 -27.7,-13.4 v 0 l -0.9,0.1 c -7.6,0.7 -14.9,2.6 -21.8,5.7 -0.4,0 -0.6,0.6 -0.5,1.1 z"
   class="st3" />
			</g>
			<g
   id="g168">
				<path
   id="path120"
   d="m 377,100 c 0.3,-0.4 0.8,-0.5 1.3,-0.3 7.3,3.6 12.9,9.4 16.4,16.7 0.2,0.5 0,1.1 -0.5,1.4 -0.5,0.2 -1.1,0 -1.4,-0.5 -3.3,-6.9 -8.6,-12.3 -15.4,-15.7 -0.5,-0.3 -0.7,-0.9 -0.5,-1.4 0,-0.1 0,-0.1 0.1,-0.2 z"
   class="st3" />
				<path
   id="path122"
   d="m 394.8,121.3 c 0.1,-0.2 0.3,-0.3 0.5,-0.4 0.5,-0.2 1.1,0.2 1.3,0.7 2.5,8.5 1.7,17.6 -2.2,25.6 -3.5,7.1 -9.1,12.6 -16.1,16.1 -0.5,0.3 -1.1,0 -1.4,-0.5 -0.3,-0.5 0,-1.1 0.5,-1.4 6.6,-3.3 11.9,-8.5 15.2,-15.2 3.7,-7.5 4.4,-16.1 2.1,-24.1 -0.1,-0.2 -0.1,-0.5 0.1,-0.8 z"
   class="st3" />
				<path
   id="path124"
   d="m 346.5,161.8 c 0.3,-0.4 0.8,-0.5 1.3,-0.3 7.7,3.8 16.5,4.5 24.7,1.9 0.5,-0.2 1.1,0.1 1.3,0.7 0.2,0.5 -0.1,1.1 -0.7,1.3 -8.7,2.7 -18,2 -26.2,-2.1 -0.5,-0.3 -0.7,-0.9 -0.5,-1.4 0.1,0 0.1,-0.1 0.1,-0.1 z"
   class="st3" />
				<path
   id="path126"
   d="m 340.2,157.8 c 0,-0.1 0,-0.1 0,0 0.4,-0.5 1,-0.5 1.5,-0.2 1.9,1.5 4,2.8 6.2,3.9 0.5,0.3 0.7,0.9 0.5,1.4 -0.3,0.5 -0.9,0.7 -1.4,0.5 -2.3,-1.2 -4.5,-2.6 -6.5,-4.2 -0.6,-0.4 -0.7,-1 -0.3,-1.4 z"
   class="st3" />
				<path
   id="path128"
   d="m 375.6,99.4 c 0.3,-0.4 0.8,-0.5 1.2,-0.3 0.5,0.2 0.9,0.4 1.4,0.7 0.5,0.3 0.7,0.9 0.5,1.4 -0.3,0.5 -0.9,0.7 -1.4,0.5 -0.4,-0.2 -0.9,-0.4 -1.3,-0.6 -0.5,-0.2 -0.8,-0.8 -0.5,-1.4 0,-0.2 0.1,-0.2 0.1,-0.3 z"
   class="st3" />
				<path
   id="path130"
   d="m 340.8,103.5 c 0.1,-0.2 0.4,-0.3 0.6,-0.4 0.6,-0.1 1.1,0.3 1.2,0.8 2.3,11.7 9.7,21.4 20.4,26.6 0.5,0.3 0.7,0.9 0.5,1.4 -0.2,0.5 -0.9,0.7 -1.4,0.5 -11.2,-5.5 -19.1,-15.8 -21.5,-28.1 0,-0.2 0.1,-0.5 0.2,-0.8 z"
   class="st3" />
				<path
   id="path132"
   d="m 344.8,101 c 0.2,-0.2 0.4,-0.4 0.7,-0.4 0.6,-0.1 1.1,0.3 1.2,0.9 0.6,4.5 2.1,8.7 4.5,12.6 0.3,0.5 0.1,1.1 -0.4,1.4 -0.5,0.3 -1.1,0.1 -1.4,-0.4 -2.5,-4.1 -4.1,-8.6 -4.8,-13.4 -0.1,-0.3 0,-0.5 0.2,-0.7 z"
   class="st3" />
				<path
   id="path134"
   d="m 337.2,106.8 c 0.1,-0.2 0.3,-0.3 0.6,-0.4 0.6,-0.1 1.1,0.2 1.3,0.7 3.1,11.9 11.1,21.9 22.2,27.3 l 0.3,0.1 c 1.6,0.6 3.4,-0.1 4.1,-1.6 0.7,-1.5 0.2,-3.3 -1.1,-4.2 l -0.4,-0.2 c -4.4,-2.2 -8.2,-5.2 -11.4,-8.9 -0.4,-0.4 -0.3,-1.1 0.1,-1.5 0.4,-0.4 1.1,-0.3 1.5,0.1 2.8,3.3 6.1,5.9 9.8,7.9 v 0 l 0.9,0.4 c 2.6,1.3 3.7,4.5 2.4,7.2 -1.3,2.6 -4.5,3.7 -7.2,2.4 l -0.8,-0.4 v 0 c -11.1,-5.8 -19.3,-16 -22.4,-28.2 -0.2,-0.1 -0.1,-0.5 0.1,-0.7 z"
   class="st3" />
				<path
   id="path136"
   d="m 348.9,99 c 0.2,-0.2 0.4,-0.4 0.7,-0.4 0.6,-0.1 1.1,0.4 1.1,0.9 0.9,9.4 6.3,17.8 14.5,22.5 0.5,0.3 0.7,0.9 0.4,1.4 -0.3,0.5 -0.9,0.7 -1.4,0.4 -8.7,-5 -14.5,-14 -15.5,-24.1 -0.1,-0.3 0,-0.5 0.2,-0.7 z"
   class="st3" />
				<path
   id="path138"
   d="m 350,133.7 c 0.3,-0.4 1,-0.5 1.4,-0.2 2.4,1.8 5,3.5 7.8,4.8 l 0.4,0.2 c 1.7,0.7 3.6,0.8 5.4,0.2 1.9,-0.7 3.5,-2 4.4,-3.8 1.3,-2.7 0.9,-6 -1,-8.3 -0.4,-0.4 -0.3,-1.1 0.1,-1.5 0.4,-0.4 1.1,-0.3 1.5,0.1 2.5,2.9 3,7.1 1.3,10.6 -1.1,2.3 -3.1,4 -5.6,4.9 -2.4,0.8 -5.1,0.7 -7.4,-0.5 l -0.8,-0.4 v 0 c -2.6,-1.3 -5,-2.9 -7.3,-4.6 -0.4,-0.4 -0.5,-1 -0.2,-1.5 0,0 0,0 0,0 z"
   class="st3" />
				<path
   id="path140"
   d="m 333.8,110.8 c 0.1,-0.2 0.3,-0.3 0.5,-0.3 0.5,-0.2 1.1,0.1 1.3,0.7 2.3,7.2 6.4,13.7 11.8,19 0.4,0.4 0.4,1 0,1.5 -0.4,0.4 -1,0.4 -1.5,0 -5.6,-5.5 -9.9,-12.3 -12.3,-19.8 0,-0.5 0,-0.9 0.2,-1.1 z"
   class="st3" />
				<path
   id="path142"
   d="m 353.1,97.6 c 0.2,-0.2 0.4,-0.4 0.8,-0.4 0.6,0 1.1,0.4 1.1,1 0.5,8.7 5.5,16.5 13.2,20.6 l 0.6,0.3 c 6.9,3.4 9.8,11.8 6.4,18.7 -0.6,1.2 -1.3,2.2 -2.2,3.2 -0.4,0.4 -1,0.5 -1.5,0.1 -0.4,-0.4 -0.5,-1 -0.1,-1.5 0.7,-0.8 1.4,-1.7 1.8,-2.7 2.8,-5.7 0.6,-12.6 -4.9,-15.7 l -0.5,-0.2 c -8.7,-4.3 -14.4,-12.9 -15,-22.6 0,-0.4 0.1,-0.6 0.3,-0.8 z"
   class="st3" />
				<path
   id="path144"
   d="m 331,115.5 c 0.1,-0.1 0.3,-0.3 0.4,-0.3 0.5,-0.2 1.1,0 1.3,0.6 4.7,11.6 13.4,21 24.6,26.5 l 0.4,0.2 c 3,1.4 6.5,1.4 9.6,0.1 0.5,-0.2 1.1,0 1.4,0.5 0.2,0.5 0,1.1 -0.5,1.4 -3.8,1.6 -8,1.5 -11.7,-0.3 l -0.7,-0.4 v 0 C 344.5,138 335.7,128.4 331,116.6 c -0.3,-0.5 -0.2,-0.8 0,-1.1 z"
   class="st3" />
				<path
   id="path146"
   d="m 357.3,96.8 c 0.2,-0.2 0.5,-0.4 0.8,-0.4 0.6,0 1,0.4 1.1,1 0.1,3.5 1.1,7 3,10.1 0.3,0.5 0.1,1.1 -0.3,1.4 -0.5,0.3 -1.1,0.1 -1.4,-0.3 -2,-3.3 -3.1,-7.2 -3.3,-11.1 -0.1,-0.3 0,-0.6 0.1,-0.7 z"
   class="st3" />
				<path
   id="path148"
   d="m 338,134.3 c 0,0 0.1,-0.1 0.1,-0.1 0.4,-0.4 1.1,-0.4 1.5,0.1 4.5,4.9 9.9,8.8 15.9,11.8 l 0.3,0.1 c 8,3.7 17.5,0.4 21.4,-7.5 3.9,-7.8 0.8,-17.3 -6.9,-21.4 l -0.5,-0.2 c -2.1,-1 -4,-2.4 -5.6,-3.9 -0.4,-0.4 -0.4,-1 0,-1.5 0.4,-0.4 1,-0.4 1.5,0 1.4,1.3 2.9,2.4 4.6,3.3 l 0.5,0.3 c 9,4.5 12.8,15.4 8.3,24.5 -4.4,9 -15.4,12.7 -24.5,8.3 l -0.6,-0.3 v 0 c -6,-3 -11.3,-7.1 -15.9,-11.9 -0.4,-0.6 -0.4,-1.2 -0.1,-1.6 z"
   class="st3" />
				<path
   id="path150"
   d="m 328.8,121 c 0.1,-0.1 0.2,-0.2 0.4,-0.3 0.5,-0.3 1.1,0 1.4,0.5 1.6,3.1 3.4,6.2 5.6,8.9 0.3,0.5 0.3,1.1 -0.2,1.4 -0.5,0.3 -1.1,0.3 -1.4,-0.2 -2.2,-2.9 -4.1,-6 -5.8,-9.3 -0.3,-0.2 -0.3,-0.7 0,-1 z"
   class="st3" />
				<path
   id="path152"
   d="m 327.5,127.6 c 0.1,-0.1 0.2,-0.2 0.3,-0.2 0.5,-0.3 1.1,-0.1 1.4,0.3 5.8,9.5 14.1,17.1 24.1,22.1 l 0.2,0.1 c 2.7,1.3 5.5,2 8.5,2.1 0.6,0 1,0.5 1,1.1 0,0.6 -0.5,1 -1.1,1 -3.1,-0.1 -6.2,-0.8 -9,-2.2 v 0 l -0.3,-0.2 c -10.4,-5.1 -19.1,-13.1 -25.2,-23 -0.2,-0.3 -0.2,-0.8 0.1,-1.1 z"
   class="st3" />
				<path
   id="path154"
   d="m 366.6,151.9 c 0.1,-0.2 0.3,-0.3 0.6,-0.4 6,-1.4 11,-5.4 13.8,-10.9 0.7,-1.4 1.2,-2.9 1.6,-4.5 0.1,-0.6 0.7,-0.9 1.2,-0.8 0.6,0.1 0.9,0.7 0.8,1.2 -0.4,1.7 -1,3.3 -1.8,4.9 -3,6.1 -8.5,10.5 -15.2,12 -0.6,0.1 -1.1,-0.2 -1.2,-0.8 -0.1,-0.2 0,-0.5 0.2,-0.7 z"
   class="st3" />
				<path
   id="path156"
   d="m 361.6,96.5 c 0.2,-0.2 0.5,-0.4 0.8,-0.4 0.6,0 1,0.4 1,1 0.1,5.9 3.4,11.2 8.6,14 l 0.5,0.2 c 7.6,3.7 12.4,11.3 12.6,19.7 0,0.6 -0.4,1 -1,1.1 -0.6,0 -1,-0.4 -1.1,-1 -0.2,-7.5 -4.4,-14.2 -10.9,-17.6 l -0.5,-0.2 c -6.2,-3 -10.1,-9.2 -10.2,-16 0,-0.4 0.1,-0.6 0.2,-0.8 z"
   class="st3" />
				<path
   id="path158"
   d="m 366,96.7 c 0.2,-0.2 0.5,-0.4 0.8,-0.4 0.6,0 1,0.4 1.1,1 0.2,4.2 2.6,8 6.2,9.9 l 0.4,0.2 c 1.3,0.6 2.5,1.4 3.7,2.2 0.5,0.3 0.6,1 0.2,1.4 -0.3,0.5 -1,0.6 -1.4,0.2 -0.9,-0.6 -1.9,-1.2 -2.9,-1.8 l -0.5,-0.2 c -4.6,-2.3 -7.5,-6.8 -7.8,-11.9 -0.1,-0.1 0,-0.4 0.2,-0.6 z"
   class="st3" />
				<path
   id="path160"
   d="m 347.3,152.5 c 0.3,-0.4 0.9,-0.5 1.3,-0.3 0.8,0.5 1.7,0.9 2.5,1.3 l 0.4,0.2 c 12.3,6.1 27.2,1 33.2,-11.3 2.3,-4.6 3,-9.6 2.3,-14.7 -0.7,-4.9 -2.9,-9.4 -6.2,-13.1 -0.4,-0.4 -0.4,-1.1 0.1,-1.5 0.4,-0.4 1.1,-0.4 1.5,0.1 3.6,3.9 6,8.8 6.8,14.2 0.8,5.4 0,10.9 -2.5,15.9 -6.4,13 -22.1,18.6 -35.3,12.5 v 0 l -0.7,-0.3 c -1,-0.5 -2.1,-1 -3.1,-1.6 -0.5,-0.3 -0.7,-0.9 -0.4,-1.4 0.1,0.1 0.1,0 0.1,0 z"
   class="st3" />
				<path
   id="path162"
   d="m 327.6,135.4 c 0.1,-0.1 0.1,-0.1 0.2,-0.2 0.5,-0.3 1.1,-0.3 1.4,0.2 4.2,5.4 9.1,10.1 14.8,14 0.5,0.3 0.6,1 0.3,1.4 -0.3,0.5 -1,0.6 -1.4,0.3 -5.9,-4 -11,-8.8 -15.3,-14.4 -0.3,-0.4 -0.3,-0.9 0,-1.3 z"
   class="st3" />
				<path
   id="path164"
   d="m 370.4,97.6 c 0.2,-0.2 0.4,-0.3 0.6,-0.4 0.6,-0.1 1.1,0.3 1.2,0.8 0.4,2.3 1.8,4.3 3.9,5.4 l 0.3,0.1 c 7.5,3.7 13.1,10.1 15.7,17.9 2.7,7.9 2.1,16.3 -1.6,23.8 -1.5,3.1 -3.6,6 -6,8.4 -0.4,0.4 -1.1,0.4 -1.5,0 -0.4,-0.4 -0.4,-1.1 0,-1.5 2.3,-2.3 4.2,-4.9 5.6,-7.8 3.4,-7 4,-14.9 1.4,-22.2 -2.4,-7.2 -7.5,-13 -14.2,-16.5 l -0.5,-0.2 c -2.8,-1.4 -4.7,-4 -5.3,-7.1 0.1,-0.2 0.2,-0.5 0.4,-0.7 z"
   class="st3" />
				<path
   id="path166"
   d="m 330.4,145.1 c 0,-0.1 0,-0.1 0,0 0.5,-0.5 1.1,-0.5 1.5,-0.1 5,5 10.8,9.2 17.2,12.4 l 0.6,0.3 c 9.5,4.7 20.7,3.8 29.4,-2.1 0.5,-0.3 1.1,-0.2 1.4,0.3 0.3,0.5 0.2,1.1 -0.3,1.4 -9.1,6.2 -20.7,7.2 -30.7,2.7 v 0 l -0.8,-0.4 c -6.8,-3.4 -13,-7.7 -18.3,-13 -0.3,-0.5 -0.3,-1.1 0,-1.5 z"
   class="st3" />
			</g>
		</g>
	</g>
	<g
   id="g236">
		<path
   id="path174"
   d="m 25.4,319.8 v -17.2 h 7.7 c 1.6,0 2.8,0.2 3.8,0.5 0.9,0.3 1.7,0.9 2.2,1.6 0.5,0.7 0.8,1.5 0.8,2.3 0,0.7 -0.2,1.4 -0.7,2.1 -0.5,0.7 -1.2,1.2 -2.2,1.6 1.2,0.3 2.2,0.8 2.9,1.6 0.7,0.7 1,1.6 1,2.6 0,0.8 -0.2,1.6 -0.6,2.3 -0.4,0.7 -0.9,1.2 -1.5,1.6 -0.6,0.4 -1.3,0.7 -2.2,0.9 -0.9,0.2 -2,0.3 -3.3,0.3 h -7.9 z m 2.7,-10 h 4.4 c 1.2,0 2.1,-0.1 2.6,-0.2 0.7,-0.2 1.2,-0.5 1.6,-0.9 0.3,-0.4 0.5,-0.9 0.5,-1.5 0,-0.6 -0.2,-1.1 -0.5,-1.5 -0.3,-0.4 -0.8,-0.7 -1.4,-0.9 -0.6,-0.2 -1.6,-0.2 -3.1,-0.2 h -4.1 z m 0,7.9 h 5.1 c 0.9,0 1.5,0 1.8,-0.1 0.6,-0.1 1.1,-0.3 1.6,-0.5 0.5,-0.2 0.8,-0.5 1,-1 0.3,-0.4 0.4,-0.9 0.4,-1.5 0,-0.6 -0.2,-1.2 -0.6,-1.7 -0.4,-0.5 -0.9,-0.8 -1.6,-1 -0.7,-0.2 -1.7,-0.3 -3,-0.3 h -4.7 z"
   class="st3" />
		<path
   id="path176"
   d="m 58,302.5 h 2.7 v 10 c 0,1.7 -0.2,3.1 -0.7,4.1 -0.5,1 -1.3,1.8 -2.5,2.5 -1.2,0.6 -2.8,1 -4.8,1 -1.9,0 -3.5,-0.3 -4.7,-0.8 -1.2,-0.6 -2.1,-1.4 -2.6,-2.4 -0.5,-1.1 -0.8,-2.5 -0.8,-4.3 v -10 h 2.7 v 9.9 c 0,1.5 0.2,2.6 0.5,3.3 0.3,0.7 0.9,1.3 1.7,1.6 0.8,0.4 1.8,0.6 3,0.6 2,0 3.4,-0.4 4.3,-1.1 0.8,-0.8 1.3,-2.2 1.3,-4.4 v -10 z"
   class="st3" />
		<path
   id="path178"
   d="m 65.7,319.8 v -17.2 h 2.7 v 17.2 z"
   class="st3" />
		<path
   id="path180"
   d="m 73,319.8 v -17.2 h 2.7 v 15.2 h 10.1 v 2 z"
   class="st3" />
		<path
   id="path182"
   d="m 89.1,319.8 v -17.2 h 7.1 c 1.6,0 2.8,0.1 3.6,0.2 1.2,0.2 2.2,0.6 3,1.2 1.1,0.8 1.9,1.8 2.4,2.9 0.5,1.2 0.8,2.6 0.8,4.1 0,1.3 -0.2,2.5 -0.5,3.5 -0.4,1 -0.8,1.8 -1.4,2.5 -0.6,0.7 -1.2,1.2 -1.9,1.6 -0.7,0.4 -1.5,0.7 -2.4,0.9 -1,0.2 -2.1,0.3 -3.3,0.3 z m 2.7,-2.1 h 4.4 c 1.3,0 2.4,-0.1 3.2,-0.3 0.8,-0.2 1.4,-0.5 1.8,-0.9 0.6,-0.5 1.1,-1.3 1.5,-2.2 0.4,-0.9 0.5,-2 0.5,-3.3 0,-1.8 -0.4,-3.2 -1.1,-4.2 -0.7,-1 -1.6,-1.6 -2.6,-1.9 -0.7,-0.2 -1.9,-0.4 -3.5,-0.4 h -4.3 v 13.2 z"
   class="st3" />
		<path
   id="path184"
   d="m 110.2,319.8 v -17.2 h 2.7 v 17.2 z"
   class="st3" />
		<path
   id="path186"
   d="m 117.6,319.8 v -17.2 h 2.8 l 10.8,13.5 v -13.5 h 2.6 v 17.2 H 131 l -10.8,-13.5 v 13.5 z"
   class="st3" />
		<path
   id="path188"
   d="m 147.9,313 v -2 h 8.7 v 6.4 c -1.3,0.9 -2.7,1.6 -4.1,2 -1.4,0.5 -2.9,0.7 -4.4,0.7 -2,0 -3.8,-0.4 -5.5,-1.1 -1.6,-0.7 -2.9,-1.8 -3.7,-3.1 -0.8,-1.4 -1.3,-2.9 -1.3,-4.6 0,-1.7 0.4,-3.2 1.2,-4.7 0.8,-1.5 2,-2.5 3.6,-3.2 1.6,-0.7 3.4,-1.1 5.4,-1.1 1.5,0 2.8,0.2 4,0.6 1.2,0.4 2.1,1 2.8,1.7 0.7,0.7 1.2,1.7 1.5,2.8 l -2.4,0.6 c -0.3,-0.9 -0.7,-1.6 -1.1,-2.1 -0.5,-0.5 -1.1,-0.9 -2,-1.2 -0.8,-0.3 -1.8,-0.5 -2.8,-0.5 -1.2,0 -2.3,0.2 -3.2,0.5 -0.9,0.3 -1.6,0.7 -2.2,1.3 -0.6,0.6 -1,1.1 -1.3,1.7 -0.5,1.1 -0.8,2.2 -0.8,3.5 0,1.5 0.3,2.8 0.9,3.9 0.6,1 1.5,1.8 2.7,2.3 1.2,0.5 2.5,0.8 3.8,0.8 1.2,0 2.3,-0.2 3.4,-0.6 1.1,-0.4 2,-0.8 2.5,-1.2 V 313 Z"
   class="st3" />
		<path
   id="path190"
   d="m 164.7,319.8 7.9,-17.2 h 2.9 l 8.4,17.2 h -3.1 l -2.4,-5.2 h -8.6 l -2.2,5.2 z m 5.9,-7.1 h 6.9 l -2.1,-4.8 c -0.7,-1.5 -1.1,-2.6 -1.5,-3.6 -0.3,1.1 -0.6,2.2 -1.1,3.3 z"
   class="st3" />
		<path
   id="path192"
   d="m 192.3,319.8 v -17.2 h 4.1 l 4.8,12.2 c 0.4,1.1 0.8,2 1,2.6 0.2,-0.6 0.6,-1.5 1.1,-2.8 l 4.9,-12 h 3.6 v 17.2 h -2.6 v -14.4 l -5.9,14.4 h -2.4 L 195,305.1 v 14.7 z"
   class="st3" />
		<path
   id="path194"
   d="M 216.2,319.8 V 302.6 H 231 v 2 h -12.1 v 5.3 h 11.3 v 2 h -11.3 v 5.9 h 12.6 v 2 z"
   class="st3" />
		<path
   id="path196"
   d="m 235.2,319.8 v -17.2 h 2.8 l 10.8,13.5 v -13.5 h 2.6 v 17.2 h -2.8 l -10.8,-13.5 v 13.5 z"
   class="st3" />
		<path
   id="path198"
   d="m 261.1,319.8 v -15.2 h -6.7 v -2 h 16.2 v 2 h -6.8 v 15.2 z"
   class="st3" />
		<path
   id="path200"
   d="m 269,319.8 7.9,-17.2 h 2.9 l 8.4,17.2 h -3.1 l -2.4,-5.2 h -8.6 l -2.2,5.2 z m 5.9,-7.1 h 6.9 l -2.1,-4.8 c -0.7,-1.5 -1.1,-2.6 -1.5,-3.6 -0.3,1.1 -0.6,2.2 -1.1,3.3 z"
   class="st3" />
		<path
   id="path202"
   d="m 290.2,319.8 v -17.2 h 2.7 v 15.2 H 303 v 2 z"
   class="st3" />
		<path
   id="path204"
   d="m 316.7,319.8 -5.4,-17.2 h 2.8 l 3.1,11.3 c 0.3,1.2 0.6,2.4 0.9,3.5 0.5,-1.8 0.8,-2.9 0.9,-3.2 l 3.9,-11.6 h 3.3 l 2.9,8.7 c 0.7,2.2 1.3,4.2 1.6,6.1 0.3,-1.1 0.6,-2.3 1,-3.8 l 3.2,-11.1 h 2.7 l -5.6,17.2 h -2.6 l -4.3,-13.1 c -0.4,-1.1 -0.6,-1.8 -0.6,-2 -0.2,0.8 -0.4,1.5 -0.6,2 l -4.3,13.1 h -2.9 z"
   class="st3" />
		<path
   id="path206"
   d="M 340.2,319.8 V 302.6 H 355 v 2 h -12.1 v 5.3 h 11.3 v 2 h -11.3 v 5.9 h 12.6 v 2 z"
   class="st3" />
		<path
   id="path208"
   d="m 359.1,319.8 v -17.2 h 2.7 v 15.2 h 10.1 v 2 z"
   class="st3" />
		<path
   id="path210"
   d="m 375,319.8 v -17.2 h 2.7 v 15.2 h 10.1 v 2 z"
   class="st3" />
		<path
   id="path212"
   d="m 390.9,319.8 v -17.2 h 7.7 c 1.6,0 2.8,0.2 3.8,0.5 0.9,0.3 1.7,0.9 2.2,1.6 0.5,0.7 0.8,1.5 0.8,2.3 0,0.7 -0.2,1.4 -0.7,2.1 -0.5,0.7 -1.2,1.2 -2.2,1.6 1.2,0.3 2.2,0.8 2.9,1.6 0.7,0.7 1,1.6 1,2.6 0,0.8 -0.2,1.6 -0.6,2.3 -0.4,0.7 -0.9,1.2 -1.5,1.6 -0.6,0.4 -1.3,0.7 -2.2,0.9 -0.9,0.2 -2,0.3 -3.3,0.3 h -7.9 z m 2.7,-10 h 4.4 c 1.2,0 2.1,-0.1 2.6,-0.2 0.7,-0.2 1.2,-0.5 1.6,-0.9 0.3,-0.4 0.5,-0.9 0.5,-1.5 0,-0.6 -0.2,-1.1 -0.5,-1.5 -0.3,-0.4 -0.8,-0.7 -1.4,-0.9 -0.6,-0.2 -1.6,-0.2 -3.1,-0.2 h -4.1 z m 0,7.9 h 5.1 c 0.9,0 1.5,0 1.8,-0.1 0.6,-0.1 1.1,-0.3 1.6,-0.5 0.4,-0.2 0.8,-0.5 1,-1 0.3,-0.4 0.4,-0.9 0.4,-1.5 0,-0.6 -0.2,-1.2 -0.6,-1.7 -0.4,-0.5 -0.9,-0.8 -1.6,-1 -0.7,-0.2 -1.7,-0.3 -3,-0.3 h -4.7 z"
   class="st3" />
		<path
   id="path214"
   d="m 410.1,319.8 v -17.2 h 14.8 v 2 h -12.1 v 5.3 h 11.3 v 2 h -11.3 v 5.9 h 12.6 v 2 z"
   class="st3" />
		<path
   id="path216"
   d="m 429.6,319.8 v -17.2 h 2.7 v 17.2 z"
   class="st3" />
		<path
   id="path218"
   d="m 437,319.8 v -17.2 h 2.8 l 10.8,13.5 v -13.5 h 2.6 v 17.2 h -2.8 l -10.8,-13.5 v 13.5 z"
   class="st3" />
		<path
   id="path220"
   d="m 467.3,313 v -2 h 8.7 v 6.4 c -1.3,0.9 -2.7,1.6 -4.1,2 -1.4,0.5 -2.9,0.7 -4.4,0.7 -2,0 -3.8,-0.4 -5.5,-1.1 -1.6,-0.7 -2.9,-1.8 -3.7,-3.1 -0.8,-1.4 -1.3,-2.9 -1.3,-4.6 0,-1.7 0.4,-3.2 1.2,-4.7 0.8,-1.5 2,-2.5 3.6,-3.2 1.6,-0.7 3.4,-1.1 5.4,-1.1 1.5,0 2.8,0.2 4,0.6 1.2,0.4 2.1,1 2.8,1.7 0.7,0.7 1.2,1.7 1.5,2.8 l -2.4,0.6 c -0.3,-0.9 -0.7,-1.6 -1.1,-2.1 -0.4,-0.5 -1.1,-0.9 -2,-1.2 -0.8,-0.3 -1.8,-0.5 -2.8,-0.5 -1.2,0 -2.3,0.2 -3.2,0.5 -0.9,0.3 -1.6,0.7 -2.2,1.3 -0.6,0.5 -1,1.1 -1.3,1.7 -0.5,1.1 -0.8,2.2 -0.8,3.5 0,1.5 0.3,2.8 0.9,3.9 0.6,1 1.5,1.8 2.7,2.3 1.2,0.5 2.5,0.8 3.8,0.8 1.2,0 2.3,-0.2 3.4,-0.6 1.1,-0.4 2,-0.8 2.5,-1.2 V 313 Z"
   class="st3" />
		<path
   id="path222"
   d="m 502.5,313.7 2.7,0.6 c -0.6,1.9 -1.6,3.3 -3.1,4.3 -1.5,1 -3.3,1.5 -5.4,1.5 -2.2,0 -4,-0.4 -5.4,-1.1 -1.4,-0.8 -2.4,-1.9 -3.2,-3.3 -0.7,-1.4 -1.1,-3 -1.1,-4.6 0,-1.8 0.4,-3.4 1.2,-4.7 0.8,-1.3 2,-2.4 3.5,-3 1.5,-0.7 3.2,-1 5,-1 2,0 3.8,0.4 5.2,1.3 1.4,0.9 2.4,2.1 2.9,3.7 l -2.7,0.5 c -0.5,-1.3 -1.2,-2.2 -2.1,-2.7 -0.9,-0.5 -2,-0.9 -3.4,-0.9 -1.6,0 -2.9,0.3 -3.9,1 -1.1,0.6 -1.8,1.5 -2.2,2.6 -0.4,1.1 -0.6,2.2 -0.6,3.3 0,1.5 0.3,2.7 0.8,3.8 0.5,1.1 1.3,1.9 2.4,2.5 1.1,0.6 2.2,0.8 3.5,0.8 1.5,0 2.8,-0.4 3.9,-1.1 0.9,-0.9 1.6,-2 2,-3.5 z"
   class="st3" />
		<path
   id="path224"
   d="m 522,302.5 h 2.7 v 10 c 0,1.7 -0.2,3.1 -0.7,4.1 -0.5,1 -1.3,1.8 -2.5,2.5 -1.2,0.6 -2.8,1 -4.8,1 -1.9,0 -3.5,-0.3 -4.7,-0.8 -1.2,-0.5 -2.1,-1.4 -2.6,-2.4 -0.5,-1.1 -0.8,-2.5 -0.8,-4.3 v -10 h 2.7 v 9.9 c 0,1.5 0.2,2.6 0.5,3.3 0.3,0.7 0.9,1.3 1.7,1.6 0.8,0.4 1.8,0.6 3,0.6 2,0 3.4,-0.4 4.3,-1.1 0.8,-0.8 1.3,-2.2 1.3,-4.4 v -10 z"
   class="st3" />
		<path
   id="path226"
   d="m 529.1,319.8 v -17.2 h 2.7 v 15.2 h 10.1 v 2 z"
   class="st3" />
		<path
   id="path228"
   d="m 548.2,319.8 v -15.2 h -6.7 v -2 h 16.2 v 2 h -6.8 v 15.2 z"
   class="st3" />
		<path
   id="path230"
   d="m 573.9,302.5 h 2.7 v 10 c 0,1.7 -0.2,3.1 -0.7,4.1 -0.5,1 -1.3,1.8 -2.5,2.5 -1.2,0.6 -2.8,1 -4.8,1 -1.9,0 -3.5,-0.3 -4.7,-0.8 -1.2,-0.5 -2.1,-1.4 -2.6,-2.4 -0.5,-1.1 -0.8,-2.5 -0.8,-4.3 v -10 h 2.7 v 9.9 c 0,1.5 0.2,2.6 0.5,3.3 0.3,0.7 0.9,1.3 1.7,1.6 0.8,0.4 1.8,0.6 3,0.6 2,0 3.4,-0.4 4.3,-1.1 0.8,-0.8 1.3,-2.2 1.3,-4.4 v -10 z"
   class="st3" />
		<path
   id="path232"
   d="m 581.2,319.8 v -17.2 h 9.1 c 1.8,0 3.2,0.2 4.2,0.5 0.9,0.3 1.7,0.9 2.3,1.6 0.6,0.8 0.9,1.7 0.9,2.6 0,1.2 -0.5,2.3 -1.4,3.1 -0.9,0.8 -2.4,1.4 -4.4,1.6 0.7,0.3 1.3,0.6 1.6,0.9 0.8,0.6 1.5,1.4 2.2,2.3 l 3.6,4.7 h -3.4 l -2.7,-3.6 c -0.8,-1 -1.4,-1.8 -2,-2.4 -0.5,-0.5 -1,-0.9 -1.4,-1.2 -0.4,-0.2 -0.8,-0.4 -1.2,-0.5 -0.3,-0.1 -0.8,-0.1 -1.5,-0.1 H 584 v 7.7 z m 2.7,-9.6 h 5.8 c 1.2,0 2.2,-0.1 2.9,-0.3 0.7,-0.2 1.2,-0.6 1.6,-1 0.4,-0.5 0.5,-1 0.5,-1.5 0,-0.8 -0.4,-1.5 -1.1,-2 -0.7,-0.5 -1.8,-0.8 -3.3,-0.8 h -6.5 v 5.6 z"
   class="st3" />
		<path
   id="path234"
   d="m 601.8,319.8 v -17.2 h 14.8 v 2 h -12.1 v 5.3 h 11.3 v 2 h -11.3 v 5.9 h 12.6 v 2 z"
   class="st3" />
	</g>
	<g
   id="g260">
		<path
   id="path238"
   d="m 27.1,195.3 h 26.2 c 17.4,0 30,5.5 30,21.5 v 3.8 c 0,8.6 -4.2,15.5 -10.7,18.6 7.1,3.3 11.9,10.4 11.9,19.2 v 3.8 c 0,15.4 -12.7,22.1 -31.3,22.1 H 37.6 c 0,0 -10.5,-0.1 -10.5,-6.4 z m 10.7,8.7 v 30.8 h 16.5 c 13.6,0 18.3,-5.6 18.3,-16.1 0,-10.8 -6.2,-14.6 -19.3,-14.6 H 37.8 Z m 0,39.6 v 31.9 h 15.5 c 14.4,0 20.6,-4.4 20.6,-15.2 0,-10.4 -6,-16.6 -19.6,-16.6 H 37.8 Z"
   class="st3" />
		<path
   id="path240"
   d="m 101.5,230.3 v 54.8 c 0,0 -10.2,0 -10.2,-6.4 v -59 c 2.9,1.5 5.5,2 7.8,2 5.3,0 9.7,-2.7 16.6,-2.7 8.9,0 15,3.4 15,10.3 0,3 -1.1,5.7 -3.6,9 0,-7 -6.1,-10.3 -13.5,-10.3 -6.7,0.2 -12.1,2.3 -12.1,2.3 z"
   class="st3" />
		<path
   id="path242"
   d="m 142.1,198.9 c 2.9,-2.9 5.6,-6 5.6,-8.8 0,-1 -0.3,-1.9 -0.8,-2.9 5.3,1.8 14.4,7.9 3.7,16.6 l -10.2,8.3 c 0,0 -10.4,-1.7 -5.6,-6.2 z m -7.2,21.8 c 0.6,0 10.2,0.1 10.2,6.4 v 58.5 c 0,0 -10.2,0 -10.2,-6.4 z"
   class="st3" />
		<path
   id="path244"
   d="m 153.2,239.2 c 0,-12.6 10.3,-20.1 22.2,-20.1 15.4,0 19.8,7 19.8,7 0,0 -1.3,-2.9 -1.3,-11.6 v -25.3 c 0.9,0 10.2,-0.1 10.2,7.6 V 285 c -2.8,-1.3 -6.5,-1.7 -8.6,-1.7 -5.1,0 -10.7,2.3 -16.9,2.3 -16.1,0 -25.4,-7.4 -25.4,-20.2 z m 40.8,0.7 c 0,-7.4 -8.5,-12.5 -16.9,-12.5 -7.9,0 -13.7,4.2 -13.7,13.7 v 22.5 c 0,9.3 3.7,13.9 16.8,13.9 9.5,0 13.9,-3.2 13.9,-3.2 v -34.4 z"
   class="st3" />
		<path
   id="path246"
   d="m 298,257.5 c 0,17.7 -11.2,28.2 -35.1,28.2 -24,0 -35.1,-10.5 -35.1,-28.2 v -35.6 c 0,-17.7 11.1,-28.2 35.1,-28.2 23.9,0 35.1,10.5 35.1,28.2 z m -10.7,-33.9 c 0,-13.2 -3.9,-21.1 -24.5,-21.1 -20.3,0 -24.3,7.9 -24.3,21.1 v 32.3 c 0,13.2 3.9,21.1 24.3,21.1 20.6,0 24.5,-7.9 24.5,-21.1 z"
   class="st3" />
		<path
   id="path248"
   d="m 309.6,195.3 h 6.2 c 1.1,0 2.3,1.1 2.3,2.4 v 8 c 0,7.8 -1.7,15.8 -8.4,15.8 -1.7,0 -3.8,-0.4 -5.7,-1.7 5.1,-1 5.2,-8.8 4.6,-13 l -1.9,-11.6 h 2.9 z"
   class="st3" />
		<path
   id="path250"
   d="m 396.5,220.2 c 0,-5.3 0.9,-11.4 0.9,-11.4 l -28.2,57.7 c 0,0 -6,0 -9.9,-6.4 l -24,-51.3 c 0,0 0.9,6.1 0.9,11.4 v 65.3 c 0,0 -10.7,0 -10.7,-6.4 v -83.9 h 7.8 c 0.5,0 6.2,-0.1 9.3,6.4 l 23.6,50.7 27.3,-57.1 c 3.1,0 13.7,0 13.7,6.4 v 83.9 c 0,0 -10.7,0 -10.7,-6.4 z"
   class="st3" />
		<path
   id="path252"
   d="m 467.2,272.3 c 0,8.9 -11.9,13.5 -24.4,13.5 -16.1,0 -26.2,-7.6 -26.2,-20.5 v -25.7 c 0,-12.8 9.5,-20.5 25.7,-20.5 16.1,0 24.1,7.6 24.1,19.2 0,10.3 -7,18.8 -25.7,18.8 -4.3,0 -10.9,-0.9 -14,-3.1 v 9.3 c 0,8.9 5,13.5 16.8,13.5 11.1,0 20.3,-4.6 20.3,-13.5 2.3,3.4 3.4,6.3 3.4,9 z M 426.7,246 c 0.1,0.3 7.8,2.3 13.2,2.3 12.1,0 16.3,-3.7 16.3,-9.9 0,-6.5 -3.6,-10.9 -14,-10.9 -11.3,0 -15.5,5.2 -15.5,14.1 z"
   class="st3" />
		<path
   id="path254"
   d="m 509.6,239.1 c 0,-6.5 -2.9,-11.1 -14.7,-11.1 -11.8,0 -19.8,4.6 -19.8,13.5 -2.4,-3.4 -3.4,-6.6 -3.4,-9.3 0,-8.6 10.9,-13.1 23.3,-13.1 16.1,0 24.9,7.6 24.9,20.5 v 45.5 c -3.1,-1.3 -5.7,-1.7 -8.4,-1.7 -5.8,0 -11.2,2.3 -18.2,2.3 -11.6,0 -23.5,-5 -23.5,-18.7 -0.1,-24.5 35.4,-15.7 39.8,-27.9 z m 0.4,10 c -2.4,8.5 -30.1,2.9 -30.1,18 0,5.6 4.2,10.4 15.1,10.4 9.3,0 15,-3.4 15,-3.4 z"
   class="st3" />
		<path
   id="path256"
   d="m 535.7,230.3 v 54.8 c 0,0 -10.2,0 -10.2,-6.4 v -59 c 2.9,1.5 5.5,2 7.8,2 5.3,0 9.7,-2.7 16.6,-2.7 8.9,0 15,3.4 15,10.3 0,3 -1.1,5.7 -3.6,9 0,-7 -6.1,-10.3 -13.5,-10.3 -6.7,0.2 -12.1,2.3 -12.1,2.3 z"
   class="st3" />
		<path
   id="path258"
   d="m 605.2,239.1 c 0,-6.5 -2.9,-11.1 -14.7,-11.1 -11.8,0 -19.8,4.6 -19.8,13.5 -2.4,-3.4 -3.4,-6.6 -3.4,-9.3 0,-8.6 10.9,-13.1 23.3,-13.1 16.1,0 24.9,7.6 24.9,20.5 v 45.5 c -3.1,-1.3 -5.7,-1.7 -8.4,-1.7 -5.8,0 -11.2,2.3 -18.2,2.3 -11.6,0 -23.5,-5 -23.5,-18.7 -0.1,-24.5 35.4,-15.7 39.8,-27.9 z m 0.4,10 c -2.4,8.5 -30.1,2.9 -30.1,18 0,5.6 4.2,10.4 15.1,10.4 9.3,0 15,-3.4 15,-3.4 z"
   class="st3" />
	</g>
</g>
</svg>
