<?xml version="1.0" encoding="utf-8"?>
<!-- Generator: Adobe Illustrator 24.3.0, SVG Export Plug-In . SVG Version: 6.00 Build 0)  -->
<svg version="1.1" id="Layer_1" xmlns="http://www.w3.org/2000/svg" xmlns:xlink="http://www.w3.org/1999/xlink" x="0px" y="0px"
	 viewBox="0 0 532.9 517.3" style="enable-background:new 0 0 532.9 517.3;" xml:space="preserve">
<style type="text/css">
	.st0{fill:#8CD2D1;}
	.st1{fill:#FAA61A;}
	.st2{fill:#E98EBC;}
	.st3{fill:#808285;}
</style>
<circle class="st0" cx="226" cy="131" r="105.7"/>
<circle class="st1" cx="134.8" cy="393.3" r="105.7"/>
<circle class="st2" cx="402" cy="336.9" r="105.7"/>
<g>
	<path class="st3" d="M382.2,471.7c-63.9,1.3-116.9-47.2-119.6-108.8c-0.1-1.3-0.1-2.7-0.2-4c-0.2-7.7,0.4-15.5,1.8-23.1
		c1.4-7.6,3.6-15.1,6.4-22.3c2.9-7.2,6.5-14.1,10.8-20.5c8.5-12.9,19.8-24.1,32.7-32.7l0,0c0,0,0,0,0,0c7.4-4.4,14.3-9.7,20.6-15.5
		c6.3-5.9,12-12.4,17-19.5c4.9-7.1,9.2-14.6,12.5-22.6c3.4-8,5.9-16.3,7.5-24.8c1.6-8.5,2.3-17.2,2.1-25.8
		c-0.5-17.3-4.7-34.5-12.5-50c-1.9-3.9-4.1-7.6-6.4-11.3c-2.3-3.6-4.9-7.2-7.6-10.5c-5.5-6.7-11.7-12.8-18.5-18.2
		c-6.8-5.4-14.3-9.9-22.1-13.6c-7.9-3.7-16.2-6.5-24.7-8.3c-5.9-1.3-11.8-2-17.8-2.4c55.1,8.4,97.7,54.1,98.8,110
		c0.4,19.3-4.2,37.5-12.6,53.6c-2.6,5.7-5.8,11.2-9.4,16.3c-4.4,6.3-9.5,12.2-15.1,17.5c-5.6,5.3-11.8,10-18.4,14
		c-6.6,4-13.6,7.4-20.9,10c-7.3,2.6-14.8,4.5-22.5,5.5c-7.7,1.1-15.4,1.4-23.2,0.9c-15.5-0.9-30.8-5.1-44.6-12l0,0c0,0,0,0,0,0
		c-1.4-0.8-2.9-1.5-4.3-2.3c-0.3-0.1-0.6-0.3-0.9-0.5c-6-2.9-12.2-5.4-18.5-7.3c-8.2-2.5-16.7-4.2-25.3-4.9
		c-8.6-0.7-17.3-0.6-25.8,0.5c-8.6,1.1-17,3-25.2,5.9c-8.2,2.8-16,6.6-23.4,11.1C58,265.2,45.3,277.5,35.7,292
		c-2.4,3.6-4.6,7.4-6.6,11.2c-2,3.9-3.8,7.8-5.3,11.9c-1.5,3.9-2.8,7.9-3.8,12c15.7-43.7,58.1-75.6,108.7-76.6
		c10.6-0.2,20.9,1,30.7,3.3c3.1,0.7,6.3,1.4,9.3,2.4c7.4,2.2,14.5,5.2,21.3,8.9c6.8,3.7,13.2,8.1,19.1,13.1
		c5.9,5,11.3,10.6,16.1,16.7c4.8,6.1,8.9,12.7,12.4,19.6c6.9,13.9,11,29.2,12,44.6l0,0c0,0,0,0,0,0c0.2,8.6,1.2,17.2,3.2,25.6
		c1.9,8.4,4.7,16.6,8.4,24.4c3.7,7.8,8.1,15.2,13.3,22.2c5.2,6.9,11.1,13.2,17.7,18.9c6.5,5.7,13.7,10.6,21.3,14.7
		c15.2,8.3,32.2,13.2,49.6,14.2c4.3,0.3,8.7,0.3,13,0.1c4.3-0.2,8.7-0.7,12.9-1.4c8.6-1.4,17-3.7,25-7c8.1-3.2,15.7-7.4,22.9-12.4
		c2.1-1.5,4.1-3,6.1-4.6C425.4,464.8,404.6,471.3,382.2,471.7z"/>
	<g>
		<path class="st3" d="M201.7,442.3c0.7,1.2,0.6,2.8-0.5,3.8c-17.2,16.1-38.7,25.6-62.1,27.5c-1.6,0.1-3.1-1.1-3.2-2.7
			c-0.1-1.6,1.1-3.1,2.7-3.2c22.1-1.8,42.3-10.7,58.5-25.9c1.2-1.1,3.1-1.1,4.2,0.1C201.5,441.9,201.6,442.1,201.7,442.3z"/>
		<path class="st3" d="M125.6,469c0.3,0.5,0.5,1.1,0.4,1.8c-0.1,1.6-1.6,2.9-3.2,2.8c-25.7-2-49.6-13.5-67.2-32.3
			c-15.6-16.7-25.1-37.6-27.3-60.3c-0.2-1.6,1-3.1,2.7-3.3c1.6-0.2,3.1,1,3.3,2.7c2.1,21.4,11,41.1,25.7,56.8
			c16.6,17.8,39.1,28.6,63.3,30.4C124.3,467.6,125.2,468.2,125.6,469z"/>
		<path class="st3" d="M65.1,296.2c0.7,1.2,0.6,2.8-0.5,3.8c-18.3,17.1-29.1,40.2-30.6,65.1c-0.1,1.6-1.5,2.9-3.2,2.8
			c-1.6-0.1-2.9-1.5-2.8-3.2c1.6-26.5,13.1-51,32.5-69.2c1.2-1.1,3.1-1.1,4.2,0.1C64.9,295.9,65,296.1,65.1,296.2z"/>
		<path class="st3" d="M82.6,283.1C82.6,283.1,82.6,283.1,82.6,283.1c0.9,1.5,0.4,3.3-1,4.1c-6.1,3.6-11.8,7.9-17,12.7
			c-1.2,1.1-3.1,1.1-4.2-0.1c-1.1-1.2-1.1-3.1,0.1-4.2c5.5-5.2,11.6-9.7,18-13.5C79.9,281.2,81.7,281.7,82.6,283.1z"/>
		<path class="st3" d="M204.8,439.2c0.7,1.1,0.6,2.7-0.4,3.7c-1,1.1-2.1,2.1-3.2,3.1c-1.2,1.1-3.1,1.1-4.2-0.1
			c-1.1-1.2-1.1-3.1,0.1-4.2c1-1,2.1-2,3-3c1.2-1.2,3.1-1.2,4.2,0C204.6,438.8,204.7,439,204.8,439.2z"/>
		<path class="st3" d="M229.2,340.4c0.4,0.6,0.5,1.3,0.4,2.1c-0.3,1.6-1.8,2.7-3.4,2.4c-34.1-5.8-68.1,4.5-93.3,28
			c-1.2,1.1-3.1,1.1-4.2-0.1c-1.1-1.2-1.1-3.1,0.1-4.2c26.6-24.9,62.4-35.6,98.4-29.6C228.1,339.2,228.8,339.7,229.2,340.4z"/>
		<path class="st3" d="M232.3,353.8c0.4,0.6,0.6,1.4,0.4,2.2c-0.4,1.6-2,2.6-3.6,2.3c-12.8-2.9-25.9-3.1-38.8-0.7
			c-1.6,0.3-3.2-0.8-3.5-2.4c-0.3-1.6,0.8-3.2,2.4-3.5c13.7-2.5,27.6-2.2,41.2,0.8C231.2,352.6,231.9,353.1,232.3,353.8z"/>
		<path class="st3" d="M224.2,327.1c0.3,0.5,0.5,1.2,0.4,1.9c-0.2,1.6-1.7,2.8-3.3,2.6c-35.5-3.9-70.9,7.8-96.9,32.2l-0.6,0.6
			c-3.3,3.7-3.2,9.3,0.2,12.9c3.3,3.5,8.7,4,12.5,1.3l1-0.9c10.4-9.7,22.5-17.1,35.8-21.8c1.6-0.6,3.3,0.3,3.8,1.8
			c0.6,1.6-0.3,3.3-1.8,3.8c-11.7,4.2-22.3,10.4-31.6,18.6l0,0l-2.1,2c-6.3,5.9-16.1,5.5-22-0.7c-5.9-6.3-5.5-16.1,0.7-22l2-1.8
			l0.1,0c27.2-24.4,63.3-36,99.7-32C222.9,325.8,223.7,326.4,224.2,327.1z"/>
		<path class="st3" d="M233.4,366.9c0.4,0.7,0.6,1.5,0.3,2.4c-0.4,1.6-2.1,2.5-3.7,2.1c-26.5-7.2-54.8-1.1-76,16.2
			c-1.3,1-3.2,0.9-4.2-0.4c-1-1.3-0.9-3.2,0.4-4.2c22.6-18.6,53-25.1,81.3-17.4C232.4,365.8,233,366.3,233.4,366.9z"/>
		<path class="st3" d="M137.8,334.5c0.9,1.4,0.4,3.2-1,4.1c-7.5,4.6-14.5,10.1-21,16.1l-0.9,0.8c-3.8,3.9-6,9.1-6.2,14.6
			c-0.2,5.9,1.9,11.5,5.9,15.8c6,6.5,15.3,8.7,23.6,5.7c1.6-0.6,3.3,0.2,3.8,1.8c0.6,1.6-0.2,3.3-1.8,3.8c-10.6,3.8-22.4,1-30-7.2
			c-5.1-5.5-7.8-12.6-7.5-20.1c0.3-7.5,3.4-14.4,8.9-19.6l1.9-1.8l0,0c6.2-5.6,13-10.7,20.1-15.1C135.1,332.6,137,333.1,137.8,334.5
			C137.8,334.5,137.8,334.5,137.8,334.5z"/>
		<path class="st3" d="M216.8,314c0.3,0.5,0.5,1.1,0.4,1.7c-0.1,1.6-1.5,2.9-3.1,2.8c-21.9-1-43.9,3.3-63.6,12.6
			c-1.5,0.7-3.3,0.1-4-1.4c-0.7-1.5-0.1-3.3,1.4-4c20.6-9.7,43.6-14.2,66.5-13.2C215.5,312.6,216.3,313.2,216.8,314z"/>
		<path class="st3" d="M232.9,379.8c0.4,0.7,0.6,1.6,0.3,2.5c-0.5,1.6-2.2,2.5-3.7,2c-24.2-7.6-50.7-1.9-69.5,14.9l-1.4,1.3
			c-16.3,15.3-42,14.4-57.3-1.9c-2.6-2.8-4.7-5.8-6.5-9.2c-0.8-1.5-0.2-3.3,1.3-4c1.5-0.8,3.3-0.2,4,1.3c1.5,2.8,3.3,5.5,5.5,7.8
			c12.7,13.5,33.8,14.6,47.7,2.6l1.1-1.1c20.5-19.2,50-25.9,76.8-17.5C232,378.7,232.5,379.2,232.9,379.8z"/>
		<path class="st3" d="M206.9,301.4c0.3,0.4,0.4,0.9,0.4,1.5c0,1.7-1.3,3-2.9,3.1c-36.2,0.8-70.7,14.9-97.2,39.7l-0.8,0.8
			c-6.9,6.9-10.5,16.3-10.1,26c0.1,1.6-1.2,3-2.9,3.1c-1.7,0.1-3-1.2-3.1-2.9c-0.5-11.9,4.1-23.3,12.8-31.4l1.8-1.6l0,0
			c27.3-24.7,62.5-38.8,99.3-39.6C205.4,299.9,206.4,300.5,206.9,301.4z"/>
		<path class="st3" d="M230.8,392.3c0.5,0.7,0.6,1.7,0.3,2.5c-0.5,1.6-2.2,2.4-3.8,1.9c-9.7-3.3-20.2-4.1-30.4-2.2
			c-1.6,0.3-3.2-0.8-3.5-2.4c-0.3-1.6,0.8-3.2,2.4-3.5c11.1-2.1,22.7-1.2,33.4,2.5C229.9,391.2,230.4,391.7,230.8,392.3z"/>
		<path class="st3" d="M148.5,301c0.1,0.1,0.2,0.3,0.2,0.4c0.6,1.5-0.1,3.3-1.6,3.9c-17.8,7.3-34.1,17.8-48.3,31.1l-0.7,0.6
			C79.8,354.9,79,384.3,96.5,403c17.4,18.5,46.3,19.9,65.3,3.3l1.2-1.1c4.9-4.6,10.5-8.4,16.5-11.3c1.5-0.7,3.3-0.1,4,1.4
			c0.7,1.5,0.1,3.3-1.4,4c-5,2.4-9.6,5.4-13.7,9.1l-1.2,1.2c-21.4,20-55,18.9-75-2.5c-20-21.3-18.8-55,2.5-75l1.4-1.3l0,0
			c14.4-13.2,30.8-23.6,48.8-31C146.2,299.3,147.7,299.8,148.5,301z"/>
		<path class="st3" d="M194.1,289.7c0.2,0.4,0.4,0.8,0.4,1.3c0.2,1.6-1,3.1-2.7,3.3c-10.2,1-20.2,3-30,5.9c-1.6,0.5-3.3-0.4-3.7-2
			c-0.5-1.6,0.4-3.2,2-3.7c10.1-3,20.6-5.1,31.1-6.2C192.4,288.1,193.5,288.7,194.1,289.7z"/>
		<path class="st3" d="M177.5,279.4c0.2,0.3,0.3,0.6,0.4,1c0.3,1.6-0.8,3.2-2.4,3.5c-31.7,6-61.1,20.9-84.9,43l-0.5,0.4
			c-6.3,5.9-11.2,13-14.4,20.9c-0.6,1.5-2.4,2.3-3.9,1.6c-1.5-0.6-2.3-2.4-1.6-3.9c3.4-8.4,8.5-15.9,15.1-22.3l0,0l0.8-0.7
			c24.7-23.1,55.2-38.6,88.3-44.9C175.7,277.8,176.9,278.4,177.5,279.4z"/>
		<path class="st3" d="M71.4,360.9c0.3,0.6,0.5,1.3,0.4,2c-2.4,17.8,3.3,35.5,15.5,48.6c3.2,3.4,6.7,6.4,10.5,8.9
			c1.4,0.9,1.7,2.8,0.8,4.1c-0.9,1.4-2.8,1.7-4.1,0.8c-4.2-2.8-8.1-6.1-11.5-9.8c-13.5-14.4-19.7-33.9-17.1-53.5
			c0.2-1.6,1.7-2.8,3.4-2.6C70.2,359.7,71,360.2,71.4,360.9z"/>
		<path class="st3" d="M227.1,404.2c0.5,0.7,0.6,1.7,0.3,2.6c-0.6,1.6-2.3,2.4-3.8,1.8c-16.2-5.7-34-2.3-46.8,9l-1.1,1.1
			c-17.9,16.7-43.3,22.1-66.4,14c-1.6-0.5-2.4-2.2-1.8-3.8c0.5-1.6,2.2-2.4,3.8-1.8c20.5,7.1,43,2.7,59.1-11.6l1.2-1.1
			c14.5-13.6,35.3-17.9,54.1-11.3C226.3,403.2,226.8,403.7,227.1,404.2z"/>
		<path class="st3" d="M222,415.7c0.4,0.7,0.6,1.6,0.3,2.5c-0.5,1.6-2.2,2.4-3.8,1.9c-11.6-3.8-24.3-1.2-33.4,6.8l-0.9,0.9
			c-3,2.8-6.3,5.4-9.7,7.7c-1.4,0.9-3.2,0.6-4.2-0.8c-0.9-1.4-0.6-3.2,0.8-4.2c2.7-1.8,5.3-3.9,7.8-6l1.2-1.1
			c10.8-10.1,26.3-13.5,40.3-9C221.1,414.7,221.6,415.1,222,415.7z"/>
		<path class="st3" d="M89.5,307.9c0.8,1.2,0.5,2.9-0.6,3.9c-2.1,1.8-4.2,3.6-6.2,5.5l-1,1c-29,27.1-30.6,72.8-3.4,101.8
			c10.1,10.8,23.1,18.1,37.5,21.2c14.1,3,28.6,1.8,41.9-3.6c1.5-0.6,3.3,0.1,3.9,1.7c0.6,1.5-0.1,3.3-1.7,3.9
			c-14.4,5.8-30.1,7.1-45.4,3.9c-15.6-3.3-29.7-11.3-40.6-23C45,393.3,46.1,345,76,315.4l0,0l1.6-1.6c2.4-2.3,5-4.5,7.5-6.7
			c1.3-1.1,3.1-0.9,4.2,0.4C89.4,307.7,89.5,307.8,89.5,307.9z"/>
		<path class="st3" d="M156.1,271.8c0.1,0.2,0.2,0.5,0.3,0.7c0.5,1.6-0.4,3.2-2,3.7c-19,5.7-36.9,14.5-53.2,26
			c-1.3,1-3.2,0.6-4.2-0.7c-0.9-1.4-0.6-3.2,0.7-4.2c16.8-11.9,35.2-20.9,54.9-26.8C154,270.1,155.4,270.7,156.1,271.8z"/>
		<path class="st3" d="M215.2,426.8c0.4,0.6,0.5,1.4,0.4,2.1c-0.3,1.6-1.9,2.7-3.5,2.4c-6.7-1.3-13.6,0.5-18.7,4.9l-0.7,0.7
			c-17.7,16.5-40.7,25.2-64.9,24.4c-24.2-0.8-46.6-11-63.1-28.6c-6.9-7.4-12.5-15.8-16.6-25c-0.7-1.5,0-3.3,1.5-3.9
			c1.5-0.7,3.3,0,3.9,1.5c3.8,8.6,9,16.4,15.5,23.4c15.4,16.5,36.3,26,58.9,26.7c22,0.7,43.1-7,59.4-21.7l1.1-1.1
			c6.6-6.1,15.8-8.8,24.6-7C214.1,425.6,214.8,426.2,215.2,426.8z"/>
		<path class="st3" d="M127.1,269.4c0.1,0.1,0.1,0.2,0.2,0.3c0.7,1.5,0,3.3-1.5,4c-18.8,8.6-36,20.1-51.4,34.1l-1.3,1.2
			c-22.4,20.9-31.7,52.4-24.3,82.1c0.4,1.6-0.6,3.2-2.2,3.6c-1.6,0.4-3.2-0.6-3.6-2.2c-7.7-31,1.6-63.8,24.2-86.1l0,0l1.9-1.8
			c16.1-15.1,34.4-27.3,54.2-36.4C124.7,267.7,126.3,268.2,127.1,269.4z"/>
	</g>
	<g>
		<path class="st3" d="M254.5,253.5c0.4,1.3,1.7,2.2,3.1,2.1c23.5-2.2,44.8-12,61.7-28.3c1.2-1.1,1.2-3,0.1-4.2
			c-1.1-1.2-3-1.2-4.2-0.1c-15.9,15.4-36,24.6-58.1,26.7c-1.6,0.2-2.9,1.6-2.7,3.3C254.4,253.1,254.5,253.3,254.5,253.5z"/>
		<path class="st3" d="M324.9,214.2c0.2,0.6,0.5,1.1,1.1,1.5c1.3,1,3.2,0.7,4.2-0.6c15.6-20.6,22.8-46.1,20.3-71.8
			c-2.2-22.8-11.5-43.7-27.1-60.4c-1.1-1.2-3-1.3-4.2-0.1c-1.2,1.1-1.3,3-0.2,4.2c14.7,15.7,23.5,35.4,25.5,56.9
			c2.3,24.2-4.5,48.2-19.2,67.6C324.8,212.3,324.7,213.3,324.9,214.2z"/>
		<path class="st3" d="M235.7,54.4c0.4,1.3,1.7,2.2,3.1,2.1c24.9-2.4,49.4,4.8,69.1,20.2c1.3,1,3.2,0.8,4.2-0.5
			c1-1.3,0.8-3.2-0.5-4.2c-20.9-16.4-46.9-24-73.3-21.5c-1.6,0.2-2.9,1.6-2.7,3.3C235.6,54,235.6,54.2,235.7,54.4z"/>
		<path class="st3" d="M214.2,58.8C214.2,58.8,214.2,58.8,214.2,58.8c0.5,1.6,2.2,2.5,3.8,2c6.7-2.2,13.7-3.6,20.8-4.3
			c1.6-0.2,2.9-1.6,2.7-3.3c-0.2-1.6-1.6-2.8-3.3-2.7c-7.5,0.7-14.9,2.2-22.1,4.6C214.6,55.6,213.7,57.2,214.2,58.8z"/>
		<path class="st3" d="M250.2,253.8c0.4,1.3,1.6,2.2,3,2.1c1.5-0.1,3-0.2,4.5-0.3c1.6-0.2,2.9-1.6,2.7-3.3c-0.2-1.6-1.6-2.8-3.3-2.7
			c-1.4,0.1-2.8,0.2-4.2,0.3c-1.6,0.1-2.9,1.5-2.8,3.1C250,253.3,250.1,253.5,250.2,253.8z"/>
		<path class="st3" d="M160,206.6c0.2,0.7,0.6,1.3,1.3,1.7c1.4,0.9,3.2,0.4,4.1-1c18.3-29.3,48.4-48,82.8-51.3
			c1.6-0.2,2.9-1.6,2.7-3.3c-0.2-1.6-1.6-2.8-3.3-2.7c-36.2,3.4-68.1,23.2-87.3,54.1C159.9,204.9,159.8,205.8,160,206.6z"/>
		<path class="st3" d="M168,217.7c0.2,0.7,0.7,1.4,1.4,1.8c1.4,0.8,3.3,0.3,4.1-1.2c6.4-11.5,14.8-21.5,25.2-29.6
			c1.3-1,1.5-2.9,0.5-4.2c-1-1.3-2.9-1.5-4.2-0.5c-11,8.6-20,19.2-26.7,31.4C167.8,216.1,167.8,217,168,217.7z"/>
		<path class="st3" d="M153.4,194c0.2,0.6,0.6,1.2,1.1,1.6c1.4,1,3.2,0.6,4.2-0.7c20.6-29.2,52.8-47.9,88.3-51.3l0.9-0.1
			c4.9,0,9.1,3.7,9.6,8.7c0.5,4.8-2.8,9.1-7.3,10.2l-1.3,0.1c-14.2,1.3-27.7,5.5-40.1,12.3c-1.4,0.8-2,2.6-1.2,4.1
			c0.8,1.4,2.6,2,4.1,1.2c10.8-6,22.6-9.8,34.9-11.3l0,0l2.9-0.3c8.5-0.8,14.8-8.4,14-17c-0.8-8.5-8.4-14.8-17-14l-2.7,0.3l0,0.1
			c-36.2,4.2-68.9,23.6-90,53.5C153.3,192.2,153.1,193.2,153.4,194z"/>
		<path class="st3" d="M177.1,227.3c0.2,0.8,0.8,1.4,1.5,1.8c1.5,0.7,3.3,0.1,4-1.4c12.1-24.6,35.5-41.8,62.5-46.2
			c1.6-0.3,2.7-1.8,2.5-3.4c-0.3-1.6-1.8-2.7-3.4-2.5c-28.9,4.6-53.9,23.1-66.9,49.4C176.9,225.8,176.9,226.6,177.1,227.3z"/>
		<path class="st3" d="M216.1,134.2c0.5,1.6,2.1,2.5,3.7,2c8.4-2.5,17.2-4.2,26-5.1l1.2-0.1c5.5-0.2,10.7,1.5,15,5
			c4.5,3.8,7.4,9.1,7.9,14.9c0.8,8.8-3.6,17.2-11.4,21.5c-1.5,0.8-2,2.6-1.2,4.1c0.8,1.4,2.6,2,4.1,1.2c9.9-5.4,15.6-16.1,14.5-27.3
			c-0.7-7.5-4.3-14.2-10.1-19c-5.8-4.8-13.1-7-20.5-6.3l-2.6,0.2l0,0.1c-8.4,0.9-16.6,2.6-24.6,5
			C216.6,130.9,215.7,132.6,216.1,134.2C216.1,134.2,216.1,134.2,216.1,134.2z"/>
		<path class="st3" d="M148.4,179.8c0.2,0.6,0.5,1.1,1,1.5c1.3,1,3.2,0.8,4.2-0.5c13.7-17.1,31.6-30.7,51.6-39.3
			c1.5-0.7,2.2-2.4,1.6-3.9c-0.7-1.5-2.4-2.2-3.9-1.6c-20.9,9-39.6,23.2-53.9,41.1C148.3,177.9,148.2,178.9,148.4,179.8z"/>
		<path class="st3" d="M187.1,235.4c0.2,0.8,0.8,1.5,1.6,1.9c1.5,0.7,3.3,0,4-1.5c10.3-23.1,32.1-39.2,57.2-42.2l1.9-0.1
			c22.3-2.1,38.7-21.9,36.5-44.2c-0.4-3.8-1.2-7.4-2.6-10.9c-0.6-1.5-2.3-2.3-3.9-1.7c-1.5,0.6-2.3,2.3-1.7,3.9
			c1.2,3,1.9,6.1,2.2,9.3c1.7,18.5-11.4,35-29.6,37.5l-1.5,0.1c-28,2.7-52.5,20.3-64,45.9C186.9,234,186.9,234.8,187.1,235.4z"/>
		<path class="st3" d="M145.6,164c0.1,0.5,0.4,1,0.8,1.3c1.2,1.1,3.1,1,4.2-0.2c24.6-26.6,58-43.1,94.1-46.5l1.1-0.1
			c9.7-0.6,19.2,2.9,26.2,9.7c1.2,1.1,3.1,1.1,4.2-0.1c1.1-1.2,1.1-3.1-0.1-4.2c-8.5-8.3-20.2-12.3-32-11.2l-2.4,0.2l0,0
			c-36.6,4.1-70.4,21.1-95.5,48.2C145.5,161.9,145.3,163.1,145.6,164z"/>
		<path class="st3" d="M197.8,242.1c0.3,0.8,0.9,1.5,1.7,1.9c1.5,0.6,3.3-0.1,3.9-1.6c3.9-9.5,10.3-17.9,18.4-24.2
			c1.3-1,1.5-2.9,0.5-4.2c-1-1.3-2.9-1.5-4.2-0.5c-8.9,7-15.9,16.2-20.3,26.6C197.7,240.8,197.7,241.5,197.8,242.1z"/>
		<path class="st3" d="M184,120c0,0.2,0.1,0.3,0.2,0.5c0.7,1.5,2.5,2.1,4,1.4c17.3-8.5,35.9-13.8,55.3-15.6l0.9-0.1
			c25.5-1.9,48,16.9,50.4,42.5c2.4,25.3-15.8,47.9-40.8,51.1l-1.6,0.1c-6.7,0.6-13.2,2.3-19.4,4.9c-1.5,0.6-2.2,2.4-1.6,3.9
			c0.6,1.5,2.4,2.2,3.9,1.6c5.1-2.1,10.4-3.6,15.9-4.2l1.7-0.1c29.1-2.8,50.6-28.7,47.8-57.8c-2.8-29.1-28.7-50.5-57.8-47.8
			l-1.9,0.2l0,0c-19.4,2.1-38.1,7.4-55.5,16C184.2,117.1,183.6,118.7,184,120z"/>
		<path class="st3" d="M145.3,146.6c0.1,0.4,0.3,0.8,0.7,1.2c1.1,1.2,3,1.3,4.2,0.2c7.5-6.9,15.7-13.2,24.3-18.5
			c1.4-0.9,1.8-2.7,1-4.1c-0.9-1.4-2.7-1.8-4.1-1c-9,5.6-17.5,12-25.2,19.2C145.3,144.4,145,145.6,145.3,146.6z"/>
		<path class="st3" d="M148.6,127.5c0.1,0.3,0.3,0.7,0.5,1c1,1.3,2.9,1.5,4.2,0.5c25.6-19.8,56.1-31.9,88.4-35.1l0.6-0.1
			c8.6-0.8,17.1,0.2,25.2,3c1.6,0.5,3.3-0.3,3.8-1.8c0.5-1.6-0.3-3.3-1.8-3.8c-8.6-3-17.6-4.2-26.7-3.4l0,0l-1.1,0.1
			c-33.7,3.2-65.5,15.8-92.1,36.4C148.6,125,148.3,126.3,148.6,127.5z"/>
		<path class="st3" d="M279.9,102c0.2,0.6,0.6,1.2,1.2,1.6c14.9,10,24.4,26,26.1,43.8c0.4,4.6,0.3,9.2-0.3,13.8
			c-0.2,1.6,0.9,3.1,2.6,3.4c1.6,0.2,3.1-0.9,3.4-2.6c0.7-5,0.8-10.1,0.3-15.1c-1.9-19.6-12.3-37.2-28.8-48.2
			c-1.4-0.9-3.2-0.6-4.2,0.8C279.8,100.2,279.7,101.2,279.9,102z"/>
		<path class="st3" d="M209.2,247.3c0.3,0.8,0.9,1.6,1.7,1.9c1.5,0.6,3.3-0.1,3.9-1.7c6.4-15.9,20.8-27,37.7-29.2l1.5-0.1
			c24.3-2.3,45.2-17.8,54.5-40.5c0.6-1.5-0.1-3.3-1.6-3.9c-1.5-0.6-3.3,0.1-3.9,1.6c-8.2,20.1-26.5,34-47.9,36.6l-1.6,0.1
			c-19.8,1.9-36.8,14.5-44.2,33C209.1,246,209,246.7,209.2,247.3z"/>
		<path class="st3" d="M221.2,251.1c0.2,0.8,0.8,1.5,1.7,1.9c1.5,0.7,3.3,0,3.9-1.6c4.9-11.2,15.2-19,27.2-20.6l1.3-0.1
			c4.1-0.4,8.2-1.1,12.2-2.1c1.6-0.4,2.6-2,2.1-3.6c-0.4-1.6-2-2.6-3.6-2.1c-3.2,0.8-6.4,1.4-9.7,1.8l-1.6,0.1
			c-14.7,1.4-27.5,10.7-33.4,24.3C221,249.7,221,250.4,221.2,251.1z"/>
		<path class="st3" d="M228.2,80.4c0.4,1.4,1.8,2.3,3.3,2.1c2.7-0.4,5.5-0.7,8.3-1l1.4-0.1c39.6-3.8,74.8,25.3,78.5,64.9
			c1.4,14.7-1.7,29.3-8.9,42.1c-7.1,12.6-17.6,22.6-30.4,29c-1.5,0.7-2.1,2.5-1.3,4c0.7,1.5,2.5,2.1,4,1.3c13.9-7,25.3-17.9,33-31.4
			c7.9-13.9,11.2-29.7,9.7-45.7c-4-42.1-40.9-73.2-82.8-70.4l0,0l-2.3,0.2c-3.3,0.3-6.7,0.7-9.9,1.2c-1.6,0.2-2.8,1.8-2.5,3.4
			C228.1,80.2,228.2,80.3,228.2,80.4z"/>
		<path class="st3" d="M157.1,106.4c0.1,0.2,0.2,0.5,0.3,0.7c0.9,1.4,2.7,1.8,4.1,1c16.9-10.5,35.3-18.1,54.7-22.6
			c1.6-0.4,2.6-2,2.2-3.6c-0.4-1.6-2-2.6-3.6-2.2c-20,4.7-39,12.6-56.5,23.4C157.2,103.7,156.7,105.1,157.1,106.4z"/>
		<path class="st3" d="M234.1,253.3c0.2,0.7,0.7,1.3,1.4,1.7c1.4,0.8,3.3,0.4,4.1-1.1c3.4-5.9,9.4-9.8,16.1-10.7l0.9-0.1
			c24.1-2.3,45.8-13.8,61.2-32.4c15.4-18.6,22.6-42.1,20.4-66.2c-1-10.1-3.6-19.9-7.7-29c-0.7-1.5-2.5-2.2-4-1.5
			c-1.5,0.7-2.2,2.5-1.5,4c3.9,8.5,6.3,17.7,7.2,27.1c2.1,22.5-4.6,44.4-19,61.8c-14.1,17-33.8,27.7-55.6,30.1l-1.6,0.1
			c-9,0.9-17,6-21.6,13.8C233.9,251.7,233.8,252.6,234.1,253.3z"/>
		<path class="st3" d="M174.5,83.1c0,0.1,0.1,0.2,0.1,0.4c0.7,1.5,2.4,2.2,3.9,1.5c18.9-8.4,38.9-13.7,59.6-15.8l1.8-0.2
			c30.5-2.9,60.2,11,77.6,36.2c0.9,1.4,2.8,1.7,4.2,0.8c1.4-0.9,1.7-2.8,0.8-4.2c-18.1-26.3-48.8-41.1-80.5-39l0,0l-2.6,0.2
			c-21.9,2.1-43.2,7.6-63.2,16.5C174.8,80.1,174.1,81.6,174.5,83.1z"/>
	</g>
	<g>
		<path class="st3" d="M425.7,263.6c0.9-1.1,2.4-1.5,3.7-0.9c21.1,10.4,37.6,27.2,47.6,48.4c0.7,1.5,0.1,3.3-1.4,4
			c-1.5,0.7-3.3,0.1-4-1.4c-9.4-20-25-35.8-44.9-45.6c-1.5-0.7-2.1-2.5-1.4-4C425.5,263.9,425.6,263.8,425.7,263.6z"/>
		<path class="st3" d="M477.6,325.4c0.4-0.5,0.9-0.9,1.5-1c1.6-0.5,3.2,0.5,3.7,2c7.2,24.8,4.9,51.2-6.5,74.3
			c-10.1,20.5-26.3,36.7-46.8,46.8c-1.5,0.7-3.3,0.1-4-1.4c-0.7-1.5-0.1-3.3,1.4-4c19.3-9.5,34.6-24.7,44.1-44.1
			c10.7-21.8,12.9-46.7,6.1-70C476.8,327.1,477,326.1,477.6,325.4z"/>
		<path class="st3" d="M337.3,443c0.9-1.1,2.4-1.5,3.7-0.9c22.4,11.1,47.9,13.1,71.7,5.6c1.6-0.5,3.3,0.4,3.7,2
			c0.5,1.6-0.4,3.3-2,3.7c-25.3,7.9-52.4,5.7-76.2-6c-1.5-0.7-2.1-2.5-1.4-4C337.1,443.3,337.2,443.1,337.3,443z"/>
		<path class="st3" d="M318.8,431.3C318.8,431.3,318.8,431.3,318.8,431.3c1.1-1.3,3-1.5,4.2-0.5c5.5,4.4,11.5,8.3,17.9,11.4
			c1.5,0.7,2.1,2.5,1.4,4c-0.7,1.5-2.5,2.1-4,1.4c-6.8-3.3-13.2-7.4-19-12.1C318,434.4,317.8,432.6,318.8,431.3z"/>
		<path class="st3" d="M421.7,261.8c0.8-1.1,2.3-1.5,3.6-0.9c1.4,0.6,2.7,1.2,4.1,1.9c1.5,0.7,2.1,2.5,1.4,4c-0.7,1.5-2.5,2.1-4,1.4
			c-1.3-0.6-2.6-1.2-3.8-1.8c-1.5-0.7-2.2-2.4-1.5-3.9C421.5,262.2,421.6,262,421.7,261.8z"/>
		<path class="st3" d="M320.7,273.8c0.4-0.6,1.1-1,1.8-1.1c1.6-0.3,3.2,0.7,3.5,2.4c6.6,33.9,28.2,62.1,59.2,77.4
			c1.5,0.7,2.1,2.5,1.4,4c-0.7,1.5-2.5,2.1-4,1.4c-32.6-16.1-55.4-45.8-62.4-81.6C320,275.3,320.2,274.5,320.7,273.8z"/>
		<path class="st3" d="M332.1,266.3c0.5-0.6,1.1-1,1.9-1.1c1.6-0.2,3.1,0.9,3.4,2.5c1.9,13,6.2,25.3,13,36.6c0.9,1.4,0.4,3.3-1,4.1
			c-1.4,0.9-3.3,0.4-4.1-1c-7.2-12-11.8-25-13.8-38.9C331.4,267.7,331.7,266.9,332.1,266.3z"/>
		<path class="st3" d="M310.1,283.3c0.4-0.5,1-0.9,1.6-1.1c1.6-0.4,3.2,0.6,3.6,2.2c8.9,34.6,32.3,63.5,64.3,79.3l0.8,0.4
			c4.6,1.8,9.8-0.2,12-4.7c2.1-4.3,0.7-9.5-3.2-12.2l-1.2-0.6c-12.8-6.3-23.9-15-33.1-25.8c-1.1-1.3-0.9-3.1,0.3-4.2
			c1.3-1.1,3.1-0.9,4.2,0.4c8,9.4,17.6,17.2,28.6,23l0,0l2.6,1.3c7.7,3.8,10.9,13.1,7.1,20.8c-3.8,7.7-13.1,10.9-20.8,7.1l-2.4-1.2
			l0-0.1c-32.4-16.8-56-46.6-65.1-82C309.3,284.9,309.5,284,310.1,283.3z"/>
		<path class="st3" d="M344.1,260.6c0.5-0.6,1.2-1.1,2.1-1.1c1.6-0.2,3.1,1,3.3,2.7c2.6,27.3,18.3,51.7,42,65.3
			c1.4,0.8,1.9,2.7,1.1,4.1c-0.8,1.4-2.7,1.9-4.1,1.1c-25.4-14.6-42.2-40.8-44.9-70C343.4,261.9,343.6,261.1,344.1,260.6z"/>
		<path class="st3" d="M347.4,361.5c1-1.3,2.9-1.5,4.2-0.5c7,5.4,14.6,10.1,22.5,14l1,0.5c5,2.2,10.6,2.4,15.8,0.6
			c5.6-1.9,10.1-5.8,12.7-11.1c3.9-7.9,2.7-17.4-3-24.1c-1.1-1.3-0.9-3.1,0.3-4.2c1.3-1.1,3.1-0.9,4.2,0.3
			c7.3,8.5,8.8,20.6,3.9,30.7c-3.3,6.7-9,11.7-16.1,14.2c-7.1,2.4-14.7,1.9-21.4-1.4l-2.3-1.1l0-0.1c-7.5-3.9-14.6-8.4-21.2-13.4
			C346.7,364.7,346.4,362.8,347.4,361.5C347.4,361.5,347.4,361.5,347.4,361.5z"/>
		<path class="st3" d="M300.4,294.8c0.4-0.5,0.8-0.8,1.4-1c1.6-0.5,3.3,0.4,3.8,1.9c6.8,20.9,18.6,39.9,34.3,55.1
			c1.2,1.2,1.2,3,0.1,4.2c-1.2,1.2-3,1.2-4.2,0.1c-16.3-15.9-28.7-35.8-35.8-57.5C299.6,296.5,299.8,295.5,300.4,294.8z"/>
		<path class="st3" d="M356.3,256.5c0.5-0.7,1.3-1.1,2.2-1.2c1.6-0.1,3.1,1.2,3.2,2.8c1.4,25.3,16.1,48.1,38.5,59.8l1.7,0.8
			c20.1,9.9,28.3,34.2,18.5,54.3c-1.7,3.4-3.8,6.5-6.3,9.3c-1.1,1.2-3,1.3-4.2,0.2c-1.2-1.1-1.3-3-0.2-4.2c2.1-2.4,3.9-5,5.4-7.9
			c8.2-16.6,1.7-36.7-14.4-45.6l-1.4-0.6c-25.2-12.4-41.9-37.6-43.5-65.7C355.6,257.8,355.9,257.1,356.3,256.5z"/>
		<path class="st3" d="M292.1,308.5c0.3-0.4,0.7-0.7,1.2-0.9c1.5-0.6,3.3,0.1,3.9,1.7c13.5,33.6,38.9,60.9,71.4,76.9l1,0.5
			c8.8,4,18.9,4.1,27.9,0.3c1.5-0.7,3.3,0.1,3.9,1.6c0.7,1.5-0.1,3.3-1.6,3.9c-10.9,4.7-23.3,4.4-33.9-0.9l-2.2-1.1l0,0
			c-32.8-16.8-58.3-44.8-72.1-79C291.3,310.4,291.5,309.3,292.1,308.5z"/>
		<path class="st3" d="M368.7,254.1c0.5-0.7,1.3-1.1,2.3-1.2c1.7,0,3,1.3,3.1,2.9c0.3,10.3,3.3,20.4,8.6,29.2c0.9,1.4,0.4,3.2-1,4.1
			c-1.4,0.9-3.3,0.4-4.1-1c-5.9-9.7-9.1-20.8-9.5-32.1C368.1,255.3,368.3,254.6,368.7,254.1z"/>
		<path class="st3" d="M312.4,363.3c0.1-0.1,0.2-0.2,0.3-0.4c1.2-1.1,3.1-1.1,4.2,0.1c13.2,14.1,28.7,25.6,46.2,34.2l0.8,0.4
			c23.1,10.9,50.9,1.2,62.2-21.8c11.2-22.8,2.3-50.4-20-62.3l-1.5-0.7c-6-3-11.5-6.8-16.4-11.4c-1.2-1.1-1.2-3-0.1-4.2
			c1.1-1.2,3-1.2,4.2-0.1c4,3.8,8.4,7,13.3,9.6l1.6,0.7c26.2,12.9,37.1,44.8,24.1,71c-12.9,26.2-44.8,37-71,24.1l-1.7-0.8l0,0
			c-17.4-8.8-33-20.5-46.2-34.7C311.6,366.1,311.5,364.4,312.4,363.3z"/>
		<path class="st3" d="M285.7,324.7c0.3-0.3,0.6-0.6,1-0.8c1.5-0.7,3.3-0.1,4,1.4c4.5,9.1,10,17.9,16.1,26c1,1.3,0.8,3.2-0.6,4.2
			c-1.3,1-3.2,0.7-4.2-0.6c-6.4-8.4-12-17.5-16.7-26.9C284.8,326.8,285,325.5,285.7,324.7z"/>
		<path class="st3" d="M281.9,343.8c0.2-0.3,0.5-0.5,0.8-0.7c1.4-0.9,3.2-0.4,4.1,1c16.9,27.6,41.1,49.8,70.1,64.2l0.6,0.3
			c7.8,3.8,16.1,5.9,24.7,6.1c1.7,0,3,1.4,2.9,3.1c0,1.7-1.4,3-3.1,2.9c-9.1-0.3-17.9-2.4-26.2-6.3l0,0l-1-0.5
			c-30.3-15-55.6-38-73.2-66.8C281.1,346,281.2,344.7,281.9,343.8z"/>
		<path class="st3" d="M395.6,414.2c0.4-0.5,1-0.9,1.7-1.1c17.5-4,32.1-15.6,40-31.7c2-4.1,3.6-8.5,4.6-13c0.4-1.6,2-2.6,3.6-2.2
			c1.6,0.4,2.6,2,2.2,3.6c-1.1,4.9-2.8,9.7-5.1,14.3c-8.7,17.7-24.8,30.4-44,34.9c-1.6,0.4-3.2-0.6-3.6-2.2
			C394.9,415.8,395.1,414.9,395.6,414.2z"/>
		<path class="st3" d="M381.2,253.3c0.5-0.7,1.4-1.1,2.3-1.2c1.7,0,3,1.3,3,2.9c0.3,17.2,9.8,32.6,24.9,40.7l1.4,0.7
			c21.9,10.8,35.9,32.7,36.6,57.2c0,1.7-1.3,3-2.9,3.1c-1.7,0-3-1.3-3.1-2.9c-0.5-21.7-12.7-41.2-31.8-51.2l-1.5-0.7
			c-17.9-8.8-29.2-26.7-29.6-46.6C380.6,254.5,380.8,253.8,381.2,253.3z"/>
		<path class="st3" d="M393.7,254c0.5-0.7,1.3-1.1,2.2-1.2c1.6-0.1,3,1.2,3.1,2.9c0.6,12.2,7.5,23.1,18.1,28.9l1.1,0.5
			c3.7,1.8,7.3,4,10.7,6.4c1.3,1,1.7,2.8,0.7,4.2c-0.9,1.4-2.8,1.7-4.2,0.7c-2.7-1.9-5.5-3.6-8.4-5.1l-1.5-0.7
			c-13.3-6.5-21.9-19.8-22.6-34.6C393.1,255.3,393.3,254.6,393.7,254z"/>
		<path class="st3" d="M339.6,416c0.9-1.2,2.5-1.5,3.8-0.8c2.4,1.3,4.9,2.7,7.4,3.9l1.2,0.6c35.6,17.6,78.9,2.9,96.5-32.7
			c6.5-13.3,8.8-28,6.6-42.6c-2.2-14.3-8.4-27.4-18.1-38c-1.1-1.2-1-3.1,0.2-4.2c1.2-1.1,3.1-1,4.2,0.2
			c10.5,11.5,17.3,25.7,19.6,41.1c2.4,15.8-0.1,31.7-7.2,46.1c-18.7,37.9-64.2,53.9-102.4,36.4l0,0l-2-1c-3-1.5-6-3-8.9-4.7
			c-1.4-0.8-2-2.6-1.2-4.1C339.5,416.2,339.5,416.1,339.6,416z"/>
		<path class="st3" d="M282.4,366.5c0.2-0.2,0.3-0.4,0.6-0.5c1.3-1,3.2-0.8,4.2,0.6c12.1,15.8,26.6,29.4,43.1,40.6
			c1.4,0.9,1.7,2.8,0.8,4.2c-0.9,1.4-2.8,1.7-4.2,0.8c-17-11.5-32-25.6-44.5-41.9C281.5,369,281.6,367.5,282.4,366.5z"/>
		<path class="st3" d="M406.5,256.5c0.4-0.6,1.1-1,1.9-1.1c1.6-0.3,3.2,0.8,3.4,2.5c1.1,6.7,5.3,12.5,11.2,15.8l0.9,0.4
			c21.7,10.7,37.9,29.2,45.7,52.1c7.8,22.9,6.2,47.4-4.5,69.1c-4.5,9.1-10.4,17.3-17.5,24.4c-1.2,1.2-3.1,1.1-4.2,0
			c-1.2-1.2-1.2-3.1,0-4.2c6.7-6.6,12.2-14.3,16.4-22.8c10-20.2,11.5-43.2,4.2-64.6c-7.1-20.9-21.7-37.8-41.3-47.9l-1.4-0.7
			c-8.1-4-13.8-11.7-15.3-20.6C405.8,257.9,406.1,257.1,406.5,256.5z"/>
		<path class="st3" d="M290.4,394.5c0.1-0.1,0.2-0.2,0.2-0.3c1.2-1.2,3.1-1.2,4.2,0c14.7,14.5,31.5,26.6,50.1,36l1.6,0.8
			c27.5,13.5,60.2,11.2,85.4-6.2c1.4-0.9,3.2-0.6,4.2,0.8c0.9,1.4,0.6,3.2-0.8,4.2c-26.3,18.1-60.2,21-89.1,7.8l0,0l-2.3-1.1
			c-19.8-9.8-37.7-22.5-53.2-37.9C289.6,397.3,289.5,395.6,290.4,394.5z"/>
	</g>
</g>
</svg>
