<?xml version="1.0" encoding="utf-8"?>
<!-- Generator: Adobe Illustrator 24.3.0, SVG Export Plug-In . SVG Version: 6.00 Build 0)  -->
<svg version="1.1" id="Layer_1" xmlns="http://www.w3.org/2000/svg" xmlns:xlink="http://www.w3.org/1999/xlink" x="0px" y="0px"
	 viewBox="0 0 450 160" style="enable-background:new 0 0 450 160;" xml:space="preserve">
<style type="text/css">
	.st0{fill:#8CD2D1;}
	.st1{fill:#FAA61A;}
	.st2{fill:#E98EBC;}
	.st3{fill:#808285;}
</style>
<g>
	<g>
		<circle class="st0" cx="218" cy="26.9" r="16.6"/>
		<circle class="st1" cx="203.7" cy="68.1" r="16.6"/>
		<circle class="st2" cx="245.6" cy="59.2" r="16.6"/>
		<g>
			<path class="st3" d="M242.5,80.4c-10,0.2-18.3-7.4-18.8-17.1c0-0.2,0-0.4,0-0.6c0-1.2,0.1-2.4,0.3-3.6c0.2-1.2,0.6-2.4,1-3.5
				c0.5-1.1,1-2.2,1.7-3.2c1.3-2,3.1-3.8,5.1-5.1l0,0c0,0,0,0,0,0c1.2-0.7,2.2-1.5,3.2-2.4c1-0.9,1.9-1.9,2.7-3.1
				c0.8-1.1,1.4-2.3,2-3.5c0.5-1.2,0.9-2.6,1.2-3.9c0.3-1.3,0.4-2.7,0.3-4c-0.1-2.7-0.7-5.4-2-7.8c-0.3-0.6-0.6-1.2-1-1.8
				c-0.4-0.6-0.8-1.1-1.2-1.7c-0.9-1.1-1.8-2-2.9-2.9c-1.1-0.8-2.2-1.6-3.5-2.1c-1.2-0.6-2.5-1-3.9-1.3c-0.9-0.2-1.9-0.3-2.8-0.4
				c8.6,1.3,15.3,8.5,15.5,17.3c0.1,3-0.7,5.9-2,8.4c-0.4,0.9-0.9,1.8-1.5,2.6c-0.7,1-1.5,1.9-2.4,2.7c-0.9,0.8-1.8,1.6-2.9,2.2
				c-1,0.6-2.1,1.2-3.3,1.6c-1.1,0.4-2.3,0.7-3.5,0.9c-1.2,0.2-2.4,0.2-3.6,0.1c-2.4-0.1-4.8-0.8-7-1.9l0,0c0,0,0,0,0,0
				c-0.2-0.1-0.5-0.2-0.7-0.4c0,0-0.1,0-0.1-0.1c-0.9-0.5-1.9-0.8-2.9-1.1c-1.3-0.4-2.6-0.7-4-0.8c-1.3-0.1-2.7-0.1-4.1,0.1
				c-1.3,0.2-2.7,0.5-4,0.9c-1.3,0.4-2.5,1-3.7,1.7c-2.3,1.4-4.3,3.3-5.8,5.6c-0.4,0.6-0.7,1.2-1,1.8c-0.3,0.6-0.6,1.2-0.8,1.9
				c-0.2,0.6-0.4,1.2-0.6,1.9c2.5-6.9,9.1-11.9,17.1-12c1.7,0,3.3,0.1,4.8,0.5c0.5,0.1,1,0.2,1.5,0.4c1.2,0.3,2.3,0.8,3.3,1.4
				c1.1,0.6,2.1,1.3,3,2.1c0.9,0.8,1.8,1.7,2.5,2.6c0.7,1,1.4,2,1.9,3.1c1.1,2.2,1.7,4.6,1.9,7v0c0,0,0,0,0,0c0,1.3,0.2,2.7,0.5,4
				c0.3,1.3,0.7,2.6,1.3,3.8c0.6,1.2,1.3,2.4,2.1,3.5c0.8,1.1,1.7,2.1,2.8,3c1,0.9,2.2,1.7,3.3,2.3c2.4,1.3,5.1,2.1,7.8,2.2
				c0.7,0,1.4,0,2,0c0.7,0,1.4-0.1,2-0.2c1.3-0.2,2.7-0.6,3.9-1.1c1.3-0.5,2.5-1.2,3.6-1.9c0.3-0.2,0.6-0.5,1-0.7
				C249.3,79.3,246,80.3,242.5,80.4z"/>
			<g>
				<path class="st3" d="M214.2,75.8c0.1,0.2,0.1,0.4-0.1,0.6c-2.7,2.5-6.1,4-9.7,4.3c-0.3,0-0.5-0.2-0.5-0.4c0-0.3,0.2-0.5,0.4-0.5
					c3.5-0.3,6.6-1.7,9.2-4.1C213.7,75.5,214,75.5,214.2,75.8C214.2,75.7,214.2,75.8,214.2,75.8z"/>
				<path class="st3" d="M202.3,80c0.1,0.1,0.1,0.2,0.1,0.3c0,0.3-0.2,0.5-0.5,0.4c-4-0.3-7.8-2.1-10.6-5.1
					c-2.5-2.6-3.9-5.9-4.3-9.5c0-0.3,0.2-0.5,0.4-0.5c0.3,0,0.5,0.2,0.5,0.4c0.3,3.4,1.7,6.4,4,8.9c2.6,2.8,6.1,4.5,9.9,4.8
					C202.1,79.8,202.2,79.8,202.3,80z"/>
				<path class="st3" d="M192.8,52.9c0.1,0.2,0.1,0.4-0.1,0.6c-2.9,2.7-4.6,6.3-4.8,10.2c0,0.3-0.2,0.5-0.5,0.4
					c-0.3,0-0.5-0.2-0.4-0.5c0.2-4.2,2.1-8,5.1-10.9C192.2,52.6,192.5,52.6,192.8,52.9C192.7,52.8,192.8,52.8,192.8,52.9z"/>
				<path class="st3" d="M195.5,50.8C195.5,50.8,195.5,50.8,195.5,50.8c0.1,0.2,0.1,0.5-0.2,0.7c-1,0.6-1.9,1.2-2.7,2
					c-0.2,0.2-0.5,0.2-0.7,0c-0.2-0.2-0.2-0.5,0-0.7c0.9-0.8,1.8-1.5,2.8-2.1C195.1,50.5,195.4,50.6,195.5,50.8z"/>
				<path class="st3" d="M214.7,75.3c0.1,0.2,0.1,0.4-0.1,0.6c-0.2,0.2-0.3,0.3-0.5,0.5c-0.2,0.2-0.5,0.2-0.7,0
					c-0.2-0.2-0.2-0.5,0-0.7c0.2-0.2,0.3-0.3,0.5-0.5C214.1,75,214.4,75,214.7,75.3C214.6,75.2,214.7,75.3,214.7,75.3z"/>
				<path class="st3" d="M218.5,59.8c0.1,0.1,0.1,0.2,0.1,0.3c0,0.3-0.3,0.4-0.5,0.4c-5.3-0.9-10.7,0.7-14.6,4.4
					c-0.2,0.2-0.5,0.2-0.7,0c-0.2-0.2-0.2-0.5,0-0.7c4.2-3.9,9.8-5.6,15.4-4.6C218.3,59.6,218.5,59.7,218.5,59.8z"/>
				<path class="st3" d="M219,61.9c0.1,0.1,0.1,0.2,0.1,0.3c-0.1,0.3-0.3,0.4-0.6,0.4c-2-0.4-4.1-0.5-6.1-0.1
					c-0.3,0-0.5-0.1-0.5-0.4c0-0.3,0.1-0.5,0.4-0.5c2.2-0.4,4.3-0.4,6.5,0.1C218.8,61.7,218.9,61.8,219,61.9z"/>
				<path class="st3" d="M217.7,57.7c0.1,0.1,0.1,0.2,0.1,0.3c0,0.3-0.3,0.4-0.5,0.4c-5.6-0.6-11.1,1.2-15.2,5.1l-0.1,0.1
					c-0.5,0.6-0.5,1.5,0,2c0.5,0.6,1.4,0.6,2,0.2l0.2-0.1c1.6-1.5,3.5-2.7,5.6-3.4c0.2-0.1,0.5,0,0.6,0.3c0.1,0.2,0,0.5-0.3,0.6
					c-1.8,0.7-3.5,1.6-5,2.9l0,0l-0.3,0.3c-1,0.9-2.5,0.9-3.5-0.1c-0.9-1-0.9-2.5,0.1-3.5l0.3-0.3l0,0c4.3-3.8,9.9-5.6,15.6-5
					C217.5,57.5,217.7,57.6,217.7,57.7z"/>
				<path class="st3" d="M219.2,64c0.1,0.1,0.1,0.2,0.1,0.4c-0.1,0.2-0.3,0.4-0.6,0.3c-4.2-1.1-8.6-0.2-11.9,2.5
					c-0.2,0.2-0.5,0.1-0.7-0.1c-0.2-0.2-0.1-0.5,0.1-0.7c3.5-2.9,8.3-3.9,12.8-2.7C219,63.8,219.1,63.9,219.2,64z"/>
				<path class="st3" d="M204.2,58.9c0.1,0.2,0.1,0.5-0.2,0.6c-1.2,0.7-2.3,1.6-3.3,2.5l-0.1,0.1c-0.6,0.6-0.9,1.4-1,2.3
					c0,0.9,0.3,1.8,0.9,2.5c0.9,1,2.4,1.4,3.7,0.9c0.2-0.1,0.5,0,0.6,0.3c0.1,0.2,0,0.5-0.3,0.6c-1.7,0.6-3.5,0.2-4.7-1.1
					c-0.8-0.9-1.2-2-1.2-3.2c0-1.2,0.5-2.3,1.4-3.1l0.3-0.3l0,0c1-0.9,2-1.7,3.1-2.4C203.8,58.6,204,58.6,204.2,58.9
					C204.2,58.9,204.2,58.9,204.2,58.9z"/>
				<path class="st3" d="M216.6,55.7c0,0.1,0.1,0.2,0.1,0.3c0,0.3-0.2,0.5-0.5,0.4c-3.4-0.2-6.9,0.5-10,2c-0.2,0.1-0.5,0-0.6-0.2
					c-0.1-0.2,0-0.5,0.2-0.6c3.2-1.5,6.8-2.2,10.4-2.1C216.4,55.4,216.5,55.5,216.6,55.7z"/>
				<path class="st3" d="M219.1,66c0.1,0.1,0.1,0.3,0,0.4c-0.1,0.2-0.3,0.4-0.6,0.3c-3.8-1.2-7.9-0.3-10.9,2.3l-0.2,0.2
					c-2.6,2.4-6.6,2.3-9-0.3c-0.4-0.4-0.7-0.9-1-1.4c-0.1-0.2,0-0.5,0.2-0.6c0.2-0.1,0.5,0,0.6,0.2c0.2,0.4,0.5,0.9,0.9,1.2
					c2,2.1,5.3,2.3,7.5,0.4l0.2-0.2c3.2-3,7.8-4.1,12.1-2.7C218.9,65.8,219,65.9,219.1,66z"/>
				<path class="st3" d="M215,53.7c0,0.1,0.1,0.1,0.1,0.2c0,0.3-0.2,0.5-0.5,0.5c-5.7,0.1-11.1,2.3-15.2,6.2l-0.1,0.1
					c-1.1,1.1-1.7,2.6-1.6,4.1c0,0.3-0.2,0.5-0.4,0.5c-0.3,0-0.5-0.2-0.5-0.4c-0.1-1.9,0.7-3.7,2-4.9l0.3-0.3l0,0
					c4.3-3.9,9.8-6.1,15.6-6.2C214.8,53.4,214.9,53.5,215,53.7z"/>
				<path class="st3" d="M218.8,67.9c0.1,0.1,0.1,0.3,0,0.4c-0.1,0.2-0.4,0.4-0.6,0.3c-1.5-0.5-3.2-0.6-4.8-0.4
					c-0.3,0-0.5-0.1-0.5-0.4c0-0.3,0.1-0.5,0.4-0.5c1.7-0.3,3.6-0.2,5.2,0.4C218.6,67.8,218.7,67.8,218.8,67.9z"/>
				<path class="st3" d="M205.8,53.6C205.9,53.6,205.9,53.7,205.8,53.6c0.1,0.3,0,0.6-0.2,0.7c-2.8,1.2-5.4,2.8-7.6,4.9l-0.1,0.1
					c-2.9,2.8-3,7.4-0.3,10.3c2.7,2.9,7.3,3.1,10.2,0.5l0.2-0.2c0.8-0.7,1.6-1.3,2.6-1.8c0.2-0.1,0.5,0,0.6,0.2
					c0.1,0.2,0,0.5-0.2,0.6c-0.8,0.4-1.5,0.9-2.1,1.4l-0.2,0.2c-3.4,3.1-8.6,3-11.8-0.4c-3.1-3.3-3-8.6,0.4-11.8l0.2-0.2l0,0
					c2.3-2.1,4.8-3.7,7.6-4.9C205.5,53.3,205.7,53.4,205.8,53.6z"/>
				<path class="st3" d="M213,51.8c0,0.1,0.1,0.1,0.1,0.2c0,0.3-0.2,0.5-0.4,0.5c-1.6,0.2-3.2,0.5-4.7,0.9c-0.2,0.1-0.5-0.1-0.6-0.3
					c-0.1-0.2,0.1-0.5,0.3-0.6c1.6-0.5,3.2-0.8,4.9-1C212.7,51.6,212.9,51.7,213,51.8z"/>
				<path class="st3" d="M210.4,50.2c0,0,0.1,0.1,0.1,0.2c0,0.3-0.1,0.5-0.4,0.5c-5,0.9-9.6,3.3-13.3,6.7l-0.1,0.1
					c-1,0.9-1.8,2-2.3,3.3c-0.1,0.2-0.4,0.4-0.6,0.3c-0.2-0.1-0.4-0.4-0.3-0.6c0.5-1.3,1.3-2.5,2.4-3.5l0,0l0.1-0.1
					c3.9-3.6,8.7-6.1,13.9-7C210.1,50,210.3,50.1,210.4,50.2z"/>
				<path class="st3" d="M193.8,63c0.1,0.1,0.1,0.2,0.1,0.3c-0.4,2.8,0.5,5.6,2.4,7.6c0.5,0.5,1,1,1.6,1.4c0.2,0.1,0.3,0.4,0.1,0.7
					c-0.1,0.2-0.4,0.3-0.7,0.1c-0.7-0.4-1.3-1-1.8-1.5c-2.1-2.3-3.1-5.3-2.7-8.4c0-0.3,0.3-0.4,0.5-0.4
					C193.6,62.8,193.7,62.9,193.8,63z"/>
				<path class="st3" d="M218.2,69.8c0.1,0.1,0.1,0.3,0,0.4c-0.1,0.2-0.4,0.4-0.6,0.3c-2.5-0.9-5.3-0.4-7.4,1.4l-0.2,0.2
					c-2.8,2.6-6.8,3.5-10.4,2.2c-0.2-0.1-0.4-0.4-0.3-0.6c0.1-0.2,0.4-0.4,0.6-0.3c3.2,1.1,6.7,0.4,9.3-1.8l0.2-0.2
					c2.3-2.1,5.5-2.8,8.5-1.8C218.1,69.7,218.1,69.7,218.2,69.8z"/>
				<path class="st3" d="M217.4,71.6c0.1,0.1,0.1,0.3,0,0.4c-0.1,0.2-0.3,0.4-0.6,0.3c-1.8-0.6-3.8-0.2-5.2,1.1l-0.1,0.1
					c-0.5,0.4-1,0.9-1.5,1.2c-0.2,0.1-0.5,0.1-0.7-0.1c-0.1-0.2-0.1-0.5,0.1-0.7c0.4-0.3,0.8-0.6,1.2-0.9l0.2-0.2
					c1.7-1.6,4.1-2.1,6.3-1.4C217.2,71.4,217.3,71.5,217.4,71.6z"/>
				<path class="st3" d="M196.6,54.7c0.1,0.2,0.1,0.5-0.1,0.6c-0.3,0.3-0.7,0.6-1,0.9l-0.2,0.1c-4.6,4.3-4.8,11.4-0.5,16
					c1.6,1.7,3.6,2.8,5.9,3.3c2.2,0.5,4.5,0.3,6.6-0.6c0.2-0.1,0.5,0,0.6,0.3c0.1,0.2,0,0.5-0.3,0.6c-2.3,0.9-4.7,1.1-7.1,0.6
					c-2.5-0.5-4.7-1.8-6.4-3.6c-4.5-4.8-4.4-12.4,0.3-17.1l0,0l0.3-0.2c0.4-0.4,0.8-0.7,1.2-1C196.1,54.4,196.4,54.4,196.6,54.7
					C196.6,54.7,196.6,54.7,196.6,54.7z"/>
				<path class="st3" d="M207,49c0,0,0,0.1,0.1,0.1c0.1,0.2-0.1,0.5-0.3,0.6c-3,0.9-5.8,2.3-8.3,4.1c-0.2,0.1-0.5,0.1-0.7-0.1
					c-0.1-0.2-0.1-0.5,0.1-0.7c2.6-1.9,5.5-3.3,8.6-4.2C206.7,48.8,206.9,48.9,207,49z"/>
				<path class="st3" d="M216.3,73.4c0.1,0.1,0.1,0.2,0.1,0.3c-0.1,0.3-0.3,0.4-0.6,0.4c-1-0.2-2.1,0.1-2.9,0.8l-0.1,0.1
					c-2.8,2.6-6.4,4-10.2,3.8c-3.8-0.1-7.3-1.7-9.9-4.5c-1.1-1.2-2-2.5-2.6-3.9c-0.1-0.2,0-0.5,0.2-0.6c0.2-0.1,0.5,0,0.6,0.2
					c0.6,1.3,1.4,2.6,2.4,3.7c2.4,2.6,5.7,4.1,9.2,4.2c3.5,0.1,6.8-1.1,9.3-3.4l0.2-0.2c1-1,2.5-1.4,3.9-1.1
					C216.1,73.2,216.3,73.3,216.3,73.4z"/>
				<path class="st3" d="M202.5,48.7C202.5,48.7,202.5,48.7,202.5,48.7c0.1,0.3,0,0.6-0.2,0.7c-2.9,1.3-5.7,3.2-8.1,5.4l-0.2,0.2
					c-3.5,3.3-5,8.2-3.8,12.9c0.1,0.3-0.1,0.5-0.3,0.6c-0.3,0.1-0.5-0.1-0.6-0.3c-1.2-4.9,0.2-10,3.8-13.5l0,0l0.3-0.3
					c2.5-2.4,5.4-4.3,8.5-5.7C202.1,48.4,202.4,48.5,202.5,48.7z"/>
			</g>
			<g>
				<path class="st3" d="M222.5,46.2c0.1,0.2,0.3,0.4,0.5,0.3c3.7-0.3,7-1.9,9.7-4.4c0.2-0.2,0.2-0.5,0-0.7c-0.2-0.2-0.5-0.2-0.7,0
					c-2.5,2.4-5.7,3.9-9.1,4.2C222.6,45.6,222.4,45.8,222.5,46.2C222.5,46.1,222.5,46.1,222.5,46.2z"/>
				<path class="st3" d="M233.5,40c0,0.1,0.1,0.2,0.2,0.2c0.2,0.2,0.5,0.1,0.7-0.1c2.4-3.2,3.6-7.2,3.2-11.3
					c-0.3-3.6-1.8-6.9-4.3-9.5c-0.2-0.2-0.5-0.2-0.7,0c-0.2,0.2-0.2,0.5,0,0.7c2.3,2.5,3.7,5.6,4,8.9c0.4,3.8-0.7,7.6-3,10.6
					C233.5,39.7,233.5,39.9,233.5,40z"/>
				<path class="st3" d="M219.5,14.9c0.1,0.2,0.3,0.4,0.5,0.3c3.9-0.4,7.8,0.8,10.8,3.2c0.2,0.2,0.5,0.1,0.7-0.1
					c0.2-0.2,0.1-0.5-0.1-0.7c-3.3-2.6-7.4-3.8-11.5-3.4C219.7,14.3,219.5,14.6,219.5,14.9C219.5,14.9,219.5,14.9,219.5,14.9z"/>
				<path class="st3" d="M216.2,15.6C216.2,15.6,216.2,15.6,216.2,15.6c0.1,0.3,0.3,0.4,0.6,0.3c1.1-0.3,2.2-0.6,3.3-0.7
					c0.3,0,0.4-0.3,0.4-0.5c0-0.3-0.3-0.4-0.5-0.4c-1.2,0.1-2.3,0.4-3.5,0.7C216.2,15.1,216.1,15.4,216.2,15.6z"/>
				<path class="st3" d="M221.8,46.2c0.1,0.2,0.3,0.3,0.5,0.3c0.2,0,0.5,0,0.7-0.1c0.3,0,0.4-0.3,0.4-0.5c0-0.3-0.3-0.4-0.5-0.4
					c-0.2,0-0.4,0-0.7,0c-0.3,0-0.5,0.2-0.4,0.5C221.8,46.1,221.8,46.2,221.8,46.2z"/>
				<path class="st3" d="M207.7,38.8c0,0.1,0.1,0.2,0.2,0.3c0.2,0.1,0.5,0.1,0.6-0.2c2.9-4.6,7.6-7.5,13-8.1c0.3,0,0.4-0.3,0.4-0.5
					c0-0.3-0.3-0.4-0.5-0.4c-5.7,0.5-10.7,3.6-13.7,8.5C207.6,38.5,207.6,38.7,207.7,38.8z"/>
				<path class="st3" d="M208.9,40.5c0,0.1,0.1,0.2,0.2,0.3c0.2,0.1,0.5,0,0.6-0.2c1-1.8,2.3-3.4,4-4.6c0.2-0.2,0.2-0.5,0.1-0.7
					c-0.2-0.2-0.5-0.2-0.7-0.1c-1.7,1.4-3.1,3-4.2,4.9C208.9,40.3,208.9,40.4,208.9,40.5z"/>
				<path class="st3" d="M206.6,36.8c0,0.1,0.1,0.2,0.2,0.2c0.2,0.1,0.5,0.1,0.7-0.1c3.2-4.6,8.3-7.5,13.9-8l0.1,0
					c0.8,0,1.4,0.6,1.5,1.4c0.1,0.8-0.4,1.4-1.2,1.6l-0.2,0c-2.2,0.2-4.3,0.9-6.3,1.9c-0.2,0.1-0.3,0.4-0.2,0.6
					c0.1,0.2,0.4,0.3,0.6,0.2c1.7-0.9,3.5-1.5,5.5-1.8l0,0l0.5,0c1.3-0.1,2.3-1.3,2.2-2.7c-0.1-1.3-1.3-2.3-2.7-2.2l-0.4,0l0,0
					c-5.7,0.7-10.8,3.7-14.1,8.4C206.6,36.5,206.6,36.7,206.6,36.8z"/>
				<path class="st3" d="M210.3,42.1c0,0.1,0.1,0.2,0.2,0.3c0.2,0.1,0.5,0,0.6-0.2c1.9-3.9,5.6-6.6,9.8-7.2c0.3,0,0.4-0.3,0.4-0.5
					c0-0.3-0.3-0.4-0.5-0.4c-4.5,0.7-8.5,3.6-10.5,7.8C210.3,41.8,210.3,41.9,210.3,42.1z"/>
				<path class="st3" d="M216.5,27.4c0.1,0.2,0.3,0.4,0.6,0.3c1.3-0.4,2.7-0.7,4.1-0.8l0.2,0c0.9,0,1.7,0.2,2.4,0.8
					c0.7,0.6,1.2,1.4,1.2,2.3c0.1,1.4-0.6,2.7-1.8,3.4c-0.2,0.1-0.3,0.4-0.2,0.6c0.1,0.2,0.4,0.3,0.6,0.2c1.5-0.8,2.4-2.5,2.3-4.3
					c-0.1-1.2-0.7-2.2-1.6-3c-0.9-0.7-2.1-1.1-3.2-1l-0.4,0l0,0c-1.3,0.1-2.6,0.4-3.9,0.8C216.5,26.9,216.4,27.2,216.5,27.4
					C216.5,27.4,216.5,27.4,216.5,27.4z"/>
				<path class="st3" d="M205.8,34.6c0,0.1,0.1,0.2,0.2,0.2c0.2,0.2,0.5,0.1,0.7-0.1c2.2-2.7,5-4.8,8.1-6.2c0.2-0.1,0.3-0.4,0.2-0.6
					c-0.1-0.2-0.4-0.3-0.6-0.2c-3.3,1.4-6.2,3.6-8.5,6.4C205.8,34.3,205.8,34.5,205.8,34.6z"/>
				<path class="st3" d="M211.9,43.3c0,0.1,0.1,0.2,0.3,0.3c0.2,0.1,0.5,0,0.6-0.2c1.6-3.6,5-6.1,9-6.6l0.3,0
					c3.5-0.3,6.1-3.4,5.7-6.9c-0.1-0.6-0.2-1.2-0.4-1.7c-0.1-0.2-0.4-0.4-0.6-0.3c-0.2,0.1-0.4,0.4-0.3,0.6c0.2,0.5,0.3,1,0.3,1.5
					c0.3,2.9-1.8,5.5-4.6,5.9l-0.2,0c-4.4,0.4-8.2,3.2-10,7.2C211.9,43.1,211.9,43.2,211.9,43.3z"/>
				<path class="st3" d="M205.4,32.1c0,0.1,0.1,0.1,0.1,0.2c0.2,0.2,0.5,0.2,0.7,0c3.9-4.2,9.1-6.8,14.8-7.3l0.2,0
					c1.5-0.1,3,0.5,4.1,1.5c0.2,0.2,0.5,0.2,0.7,0c0.2-0.2,0.2-0.5,0-0.7c-1.3-1.3-3.2-1.9-5-1.8l-0.4,0l0,0
					c-5.7,0.6-11.1,3.3-15,7.6C205.4,31.8,205.3,32,205.4,32.1z"/>
				<path class="st3" d="M213.6,44.4c0,0.1,0.1,0.2,0.3,0.3c0.2,0.1,0.5,0,0.6-0.3c0.6-1.5,1.6-2.8,2.9-3.8c0.2-0.2,0.2-0.5,0.1-0.7
					c-0.2-0.2-0.5-0.2-0.7-0.1c-1.4,1.1-2.5,2.5-3.2,4.2C213.6,44.2,213.6,44.3,213.6,44.4z"/>
				<path class="st3" d="M211.4,25.2C211.4,25.2,211.4,25.3,211.4,25.2c0.1,0.3,0.4,0.4,0.7,0.3c2.7-1.3,5.6-2.2,8.7-2.4l0.1,0
					c4-0.3,7.5,2.7,7.9,6.7c0.4,4-2.5,7.5-6.4,8l-0.3,0c-1.1,0.1-2.1,0.4-3,0.8c-0.2,0.1-0.4,0.4-0.2,0.6c0.1,0.2,0.4,0.4,0.6,0.2
					c0.8-0.3,1.6-0.6,2.5-0.7l0.3,0c4.6-0.4,7.9-4.5,7.5-9.1c-0.4-4.6-4.5-7.9-9.1-7.5l-0.3,0l0,0c-3,0.3-6,1.2-8.7,2.5
					C211.5,24.8,211.4,25,211.4,25.2z"/>
				<path class="st3" d="M205.4,29.4c0,0.1,0.1,0.1,0.1,0.2c0.2,0.2,0.5,0.2,0.7,0c1.2-1.1,2.5-2.1,3.8-2.9c0.2-0.1,0.3-0.4,0.2-0.6
					c-0.1-0.2-0.4-0.3-0.6-0.2c-1.4,0.9-2.7,1.9-4,3C205.3,29,205.3,29.2,205.4,29.4z"/>
				<path class="st3" d="M205.9,26.4c0,0.1,0,0.1,0.1,0.2c0.2,0.2,0.5,0.2,0.7,0.1c4-3.1,8.8-5,13.9-5.5l0.1,0c1.4-0.1,2.7,0,4,0.5
					c0.2,0.1,0.5,0,0.6-0.3c0.1-0.2,0-0.5-0.3-0.6c-1.3-0.5-2.8-0.7-4.2-0.5l0,0l-0.2,0c-5.3,0.5-10.3,2.5-14.5,5.7
					C205.9,26,205.8,26.2,205.9,26.4z"/>
				<path class="st3" d="M226.5,22.4c0,0.1,0.1,0.2,0.2,0.3c2.3,1.6,3.8,4.1,4.1,6.9c0.1,0.7,0.1,1.4,0,2.2c0,0.3,0.1,0.5,0.4,0.5
					c0.3,0,0.5-0.1,0.5-0.4c0.1-0.8,0.1-1.6,0-2.4c-0.3-3.1-1.9-5.8-4.5-7.6c-0.2-0.1-0.5-0.1-0.7,0.1
					C226.5,22.1,226.4,22.3,226.5,22.4z"/>
				<path class="st3" d="M215.4,45.2c0,0.1,0.1,0.2,0.3,0.3c0.2,0.1,0.5,0,0.6-0.3c1-2.5,3.3-4.2,5.9-4.6l0.2,0
					c3.8-0.4,7.1-2.8,8.6-6.3c0.1-0.2,0-0.5-0.3-0.6c-0.2-0.1-0.5,0-0.6,0.3c-1.3,3.1-4.2,5.3-7.5,5.7l-0.3,0
					c-3.1,0.3-5.8,2.3-6.9,5.2C215.4,45,215.4,45.1,215.4,45.2z"/>
				<path class="st3" d="M217.3,45.8c0,0.1,0.1,0.2,0.3,0.3c0.2,0.1,0.5,0,0.6-0.2c0.8-1.8,2.4-3,4.3-3.2l0.2,0
					c0.6-0.1,1.3-0.2,1.9-0.3c0.3-0.1,0.4-0.3,0.3-0.6c-0.1-0.3-0.3-0.4-0.6-0.3c-0.5,0.1-1,0.2-1.5,0.3l-0.3,0
					c-2.3,0.2-4.3,1.7-5.2,3.8C217.2,45.6,217.2,45.7,217.3,45.8z"/>
				<path class="st3" d="M218.4,19c0.1,0.2,0.3,0.4,0.5,0.3c0.4-0.1,0.9-0.1,1.3-0.2l0.2,0c6.2-0.6,11.7,4,12.3,10.2
					c0.2,2.3-0.3,4.6-1.4,6.6c-1.1,2-2.8,3.5-4.8,4.6c-0.2,0.1-0.3,0.4-0.2,0.6c0.1,0.2,0.4,0.3,0.6,0.2c2.2-1.1,4-2.8,5.2-4.9
					c1.2-2.2,1.8-4.7,1.5-7.2c-0.6-6.6-6.4-11.5-13-11.1l0,0l-0.4,0c-0.5,0-1,0.1-1.6,0.2C218.5,18.4,218.3,18.7,218.4,19
					C218.3,19,218.4,19,218.4,19z"/>
				<path class="st3" d="M207.2,23.1c0,0,0,0.1,0.1,0.1c0.1,0.2,0.4,0.3,0.6,0.2c2.7-1.6,5.5-2.8,8.6-3.5c0.3-0.1,0.4-0.3,0.3-0.6
					c-0.1-0.3-0.3-0.4-0.6-0.3c-3.1,0.7-6.1,2-8.9,3.7C207.2,22.7,207.1,22.9,207.2,23.1z"/>
				<path class="st3" d="M219.3,46.1c0,0.1,0.1,0.2,0.2,0.3c0.2,0.1,0.5,0.1,0.6-0.2c0.5-0.9,1.5-1.5,2.5-1.7l0.1,0
					c3.8-0.4,7.2-2.2,9.6-5.1c2.4-2.9,3.6-6.6,3.2-10.4c-0.2-1.6-0.6-3.1-1.2-4.6c-0.1-0.2-0.4-0.3-0.6-0.2
					c-0.2,0.1-0.3,0.4-0.2,0.6c0.6,1.3,1,2.8,1.1,4.3c0.3,3.5-0.7,7-3,9.7c-2.2,2.7-5.3,4.3-8.7,4.7l-0.2,0
					c-1.4,0.1-2.7,0.9-3.4,2.2C219.3,45.9,219.2,46,219.3,46.1z"/>
				<path class="st3" d="M209.9,19.4C209.9,19.4,209.9,19.5,209.9,19.4c0.1,0.3,0.4,0.4,0.6,0.3c3-1.3,6.1-2.1,9.4-2.5l0.3,0
					c4.8-0.5,9.5,1.7,12.2,5.7c0.1,0.2,0.4,0.3,0.7,0.1c0.2-0.1,0.3-0.4,0.1-0.7c-2.8-4.1-7.7-6.4-12.6-6.1l0,0l-0.4,0
					c-3.4,0.3-6.8,1.2-9.9,2.6C210,19,209.9,19.2,209.9,19.4z"/>
			</g>
			<g>
				<path class="st3" d="M249.4,47.7c0.1-0.2,0.4-0.2,0.6-0.1c3.3,1.6,5.9,4.3,7.5,7.6c0.1,0.2,0,0.5-0.2,0.6
					c-0.2,0.1-0.5,0-0.6-0.2c-1.5-3.1-3.9-5.6-7-7.2C249.3,48.3,249.2,48.1,249.4,47.7C249.3,47.8,249.3,47.8,249.4,47.7z"/>
				<path class="st3" d="M257.5,57.4c0.1-0.1,0.1-0.1,0.2-0.2c0.2-0.1,0.5,0.1,0.6,0.3c1.1,3.9,0.8,8-1,11.7
					c-1.6,3.2-4.1,5.8-7.3,7.3c-0.2,0.1-0.5,0-0.6-0.2c-0.1-0.2,0-0.5,0.2-0.6c3-1.5,5.4-3.9,6.9-6.9c1.7-3.4,2-7.3,1-11
					C257.4,57.7,257.4,57.6,257.5,57.4z"/>
				<path class="st3" d="M235.5,75.9c0.1-0.2,0.4-0.2,0.6-0.1c3.5,1.7,7.5,2,11.3,0.9c0.2-0.1,0.5,0.1,0.6,0.3
					c0.1,0.2-0.1,0.5-0.3,0.6c-4,1.2-8.2,0.9-12-0.9C235.4,76.5,235.3,76.2,235.5,75.9C235.4,75.9,235.5,75.9,235.5,75.9z"/>
				<path class="st3" d="M232.6,74.1C232.6,74.1,232.6,74.1,232.6,74.1c0.2-0.2,0.5-0.2,0.7-0.1c0.9,0.7,1.8,1.3,2.8,1.8
					c0.2,0.1,0.3,0.4,0.2,0.6c-0.1,0.2-0.4,0.3-0.6,0.2c-1.1-0.5-2.1-1.2-3-1.9C232.5,74.6,232.4,74.3,232.6,74.1z"/>
				<path class="st3" d="M248.7,47.5c0.1-0.2,0.4-0.2,0.6-0.1c0.2,0.1,0.4,0.2,0.6,0.3c0.2,0.1,0.3,0.4,0.2,0.6
					c-0.1,0.2-0.4,0.3-0.6,0.2c-0.2-0.1-0.4-0.2-0.6-0.3C248.7,48.1,248.6,47.8,248.7,47.5C248.7,47.5,248.7,47.5,248.7,47.5z"/>
				<path class="st3" d="M232.9,49.4c0.1-0.1,0.2-0.2,0.3-0.2c0.3,0,0.5,0.1,0.6,0.4c1,5.3,4.4,9.7,9.3,12.1
					c0.2,0.1,0.3,0.4,0.2,0.6c-0.1,0.2-0.4,0.3-0.6,0.2c-5.1-2.5-8.7-7.2-9.8-12.8C232.8,49.6,232.8,49.5,232.9,49.4z"/>
				<path class="st3" d="M234.7,48.2c0.1-0.1,0.2-0.2,0.3-0.2c0.3,0,0.5,0.1,0.5,0.4c0.3,2,1,4,2,5.7c0.1,0.2,0.1,0.5-0.2,0.6
					c-0.2,0.1-0.5,0.1-0.6-0.2c-1.1-1.9-1.9-3.9-2.2-6.1C234.6,48.4,234.6,48.3,234.7,48.2z"/>
				<path class="st3" d="M231.2,50.8c0.1-0.1,0.1-0.1,0.3-0.2c0.3-0.1,0.5,0.1,0.6,0.3c1.4,5.4,5.1,10,10.1,12.4l0.1,0.1
					c0.7,0.3,1.5,0,1.9-0.7c0.3-0.7,0.1-1.5-0.5-1.9l-0.2-0.1c-2-1-3.8-2.4-5.2-4c-0.2-0.2-0.1-0.5,0.1-0.7c0.2-0.2,0.5-0.1,0.7,0.1
					c1.3,1.5,2.8,2.7,4.5,3.6l0,0l0.4,0.2c1.2,0.6,1.7,2.1,1.1,3.3c-0.6,1.2-2.1,1.7-3.3,1.1l-0.4-0.2l0,0
					c-5.1-2.6-8.8-7.3-10.2-12.9C231.1,51.1,231.1,50.9,231.2,50.8z"/>
				<path class="st3" d="M236.5,47.3c0.1-0.1,0.2-0.2,0.3-0.2c0.3,0,0.5,0.2,0.5,0.4c0.4,4.3,2.9,8.1,6.6,10.3
					c0.2,0.1,0.3,0.4,0.2,0.6c-0.1,0.2-0.4,0.3-0.6,0.2c-4-2.3-6.6-6.4-7.1-11C236.4,47.5,236.5,47.4,236.5,47.3z"/>
				<path class="st3" d="M237.1,63.1c0.2-0.2,0.5-0.2,0.7-0.1c1.1,0.8,2.3,1.6,3.5,2.2l0.2,0.1c0.8,0.3,1.7,0.4,2.5,0.1
					c0.9-0.3,1.6-0.9,2-1.7c0.6-1.2,0.4-2.7-0.5-3.8c-0.2-0.2-0.1-0.5,0.1-0.7c0.2-0.2,0.5-0.1,0.7,0.1c1.1,1.3,1.4,3.2,0.6,4.8
					c-0.5,1.1-1.4,1.8-2.5,2.2c-1.1,0.4-2.3,0.3-3.4-0.2l-0.4-0.2l0,0c-1.2-0.6-2.3-1.3-3.3-2.1C236.9,63.6,236.9,63.3,237.1,63.1
					C237.1,63.1,237.1,63.1,237.1,63.1z"/>
				<path class="st3" d="M229.7,52.6c0.1-0.1,0.1-0.1,0.2-0.2c0.2-0.1,0.5,0.1,0.6,0.3c1.1,3.3,2.9,6.3,5.4,8.6
					c0.2,0.2,0.2,0.5,0,0.7c-0.2,0.2-0.5,0.2-0.7,0c-2.6-2.5-4.5-5.6-5.6-9C229.6,52.9,229.6,52.8,229.7,52.6z"/>
				<path class="st3" d="M238.5,46.6c0.1-0.1,0.2-0.2,0.3-0.2c0.3,0,0.5,0.2,0.5,0.4c0.2,4,2.5,7.5,6,9.4l0.3,0.1
					c3.1,1.6,4.4,5.4,2.9,8.5c-0.3,0.5-0.6,1-1,1.5c-0.2,0.2-0.5,0.2-0.7,0c-0.2-0.2-0.2-0.5,0-0.7c0.3-0.4,0.6-0.8,0.8-1.2
					c1.3-2.6,0.3-5.8-2.3-7.2l-0.2-0.1c-4-2-6.6-5.9-6.8-10.3C238.4,46.8,238.4,46.7,238.5,46.6z"/>
				<path class="st3" d="M228.4,54.8c0-0.1,0.1-0.1,0.2-0.1c0.2-0.1,0.5,0,0.6,0.3c2.1,5.3,6.1,9.6,11.2,12.1l0.2,0.1
					c1.4,0.6,3,0.6,4.4,0c0.2-0.1,0.5,0,0.6,0.2c0.1,0.2,0,0.5-0.2,0.6c-1.7,0.7-3.7,0.7-5.3-0.1l-0.3-0.2l0,0
					c-5.1-2.6-9.2-7-11.3-12.4C228.3,55.1,228.3,54.9,228.4,54.8z"/>
				<path class="st3" d="M240.4,46.3c0.1-0.1,0.2-0.2,0.4-0.2c0.3,0,0.5,0.2,0.5,0.5c0,1.6,0.5,3.2,1.4,4.6c0.1,0.2,0.1,0.5-0.2,0.6
					c-0.2,0.1-0.5,0.1-0.6-0.2c-0.9-1.5-1.4-3.3-1.5-5C240.3,46.4,240.3,46.3,240.4,46.3z"/>
				<path class="st3" d="M231.6,63.4C231.6,63.4,231.6,63.3,231.6,63.4c0.2-0.2,0.5-0.2,0.7,0c2.1,2.2,4.5,4,7.2,5.4l0.1,0.1
					c3.6,1.7,8,0.2,9.8-3.4c1.8-3.6,0.4-7.9-3.1-9.8l-0.2-0.1c-0.9-0.5-1.8-1.1-2.6-1.8c-0.2-0.2-0.2-0.5,0-0.7
					c0.2-0.2,0.5-0.2,0.7,0c0.6,0.6,1.3,1.1,2.1,1.5l0.2,0.1c4.1,2,5.8,7,3.8,11.1c-2,4.1-7,5.8-11.1,3.8l-0.3-0.1l0,0
					c-2.7-1.4-5.2-3.2-7.2-5.4C231.4,63.8,231.4,63.6,231.6,63.4z"/>
				<path class="st3" d="M227.4,57.3c0-0.1,0.1-0.1,0.2-0.1c0.2-0.1,0.5,0,0.6,0.2c0.7,1.4,1.6,2.8,2.5,4.1c0.2,0.2,0.1,0.5-0.1,0.7
					c-0.2,0.2-0.5,0.1-0.7-0.1c-1-1.3-1.9-2.7-2.6-4.2C227.2,57.7,227.3,57.5,227.4,57.3z"/>
				<path class="st3" d="M226.8,60.3c0,0,0.1-0.1,0.1-0.1c0.2-0.1,0.5-0.1,0.6,0.2c2.6,4.3,6.4,7.8,11,10.1l0.1,0
					c1.2,0.6,2.5,0.9,3.9,1c0.3,0,0.5,0.2,0.5,0.5c0,0.3-0.2,0.5-0.5,0.5c-1.4,0-2.8-0.4-4.1-1l0,0l-0.2-0.1
					c-4.8-2.3-8.7-6-11.5-10.5C226.7,60.7,226.7,60.5,226.8,60.3z"/>
				<path class="st3" d="M244.6,71.4c0.1-0.1,0.2-0.1,0.3-0.2c2.7-0.6,5-2.4,6.3-5c0.3-0.7,0.6-1.3,0.7-2c0.1-0.3,0.3-0.4,0.6-0.4
					c0.3,0.1,0.4,0.3,0.4,0.6c-0.2,0.8-0.4,1.5-0.8,2.2c-1.4,2.8-3.9,4.8-6.9,5.5c-0.3,0.1-0.5-0.1-0.6-0.4
					C244.5,71.6,244.5,71.5,244.6,71.4z"/>
				<path class="st3" d="M242.4,46.1c0.1-0.1,0.2-0.2,0.4-0.2c0.3,0,0.5,0.2,0.5,0.5c0.1,2.7,1.5,5.1,3.9,6.4l0.2,0.1
					c3.4,1.7,5.6,5.1,5.7,9c0,0.3-0.2,0.5-0.5,0.5c-0.3,0-0.5-0.2-0.5-0.5c-0.1-3.4-2-6.5-5-8l-0.2-0.1c-2.8-1.4-4.6-4.2-4.6-7.3
					C242.3,46.3,242.3,46.2,242.4,46.1z"/>
				<path class="st3" d="M244.3,46.2c0.1-0.1,0.2-0.2,0.4-0.2c0.3,0,0.5,0.2,0.5,0.4c0.1,1.9,1.2,3.6,2.8,4.5l0.2,0.1
					c0.6,0.3,1.1,0.6,1.7,1c0.2,0.1,0.3,0.4,0.1,0.7c-0.1,0.2-0.4,0.3-0.7,0.1c-0.4-0.3-0.9-0.6-1.3-0.8l-0.2-0.1
					c-2.1-1-3.4-3.1-3.5-5.4C244.2,46.4,244.3,46.3,244.3,46.2z"/>
				<path class="st3" d="M235.8,71.7c0.1-0.2,0.4-0.2,0.6-0.1c0.4,0.2,0.8,0.4,1.2,0.6l0.2,0.1c5.6,2.8,12.4,0.5,15.1-5.1
					c1-2.1,1.4-4.4,1-6.7c-0.3-2.2-1.3-4.3-2.8-6c-0.2-0.2-0.2-0.5,0-0.7c0.2-0.2,0.5-0.2,0.7,0c1.6,1.8,2.7,4,3.1,6.5
					c0.4,2.5,0,5-1.1,7.2c-2.9,5.9-10.1,8.5-16.1,5.7l0,0l-0.3-0.2c-0.5-0.2-0.9-0.5-1.4-0.7C235.8,72.2,235.7,71.9,235.8,71.7
					C235.8,71.7,235.8,71.7,235.8,71.7z"/>
				<path class="st3" d="M226.9,63.9C226.9,63.9,226.9,63.8,226.9,63.9c0.3-0.2,0.6-0.2,0.7,0c1.9,2.5,4.2,4.6,6.8,6.4
					c0.2,0.1,0.3,0.4,0.1,0.7c-0.1,0.2-0.4,0.3-0.7,0.1c-2.7-1.8-5-4-7-6.6C226.7,64.3,226.7,64.1,226.9,63.9z"/>
				<path class="st3" d="M246.3,46.6c0.1-0.1,0.2-0.2,0.3-0.2c0.3,0,0.5,0.1,0.5,0.4c0.2,1,0.8,2,1.8,2.5l0.1,0.1
					c3.4,1.7,6,4.6,7.2,8.2c1.2,3.6,1,7.4-0.7,10.8c-0.7,1.4-1.6,2.7-2.8,3.8c-0.2,0.2-0.5,0.2-0.7,0c-0.2-0.2-0.2-0.5,0-0.7
					c1-1,1.9-2.2,2.6-3.6c1.6-3.2,1.8-6.8,0.7-10.1c-1.1-3.3-3.4-5.9-6.5-7.5l-0.2-0.1c-1.3-0.6-2.2-1.8-2.4-3.2
					C246.2,46.9,246.3,46.7,246.3,46.6z"/>
				<path class="st3" d="M228.1,68.3C228.1,68.3,228.1,68.3,228.1,68.3c0.2-0.2,0.5-0.2,0.7,0c2.3,2.3,4.9,4.2,7.9,5.6l0.3,0.1
					c4.3,2.1,9.4,1.8,13.4-1c0.2-0.1,0.5-0.1,0.7,0.1c0.1,0.2,0.1,0.5-0.1,0.7c-4.1,2.8-9.4,3.3-14,1.2l0,0l-0.4-0.2
					c-3.1-1.5-5.9-3.5-8.4-5.9C228,68.7,228,68.5,228.1,68.3z"/>
			</g>
		</g>
	</g>
	<g>
		<path class="st3" d="M89.1,147.9V140h3.5c0.7,0,1.3,0.1,1.7,0.2c0.4,0.2,0.8,0.4,1,0.7c0.2,0.3,0.4,0.7,0.4,1
			c0,0.3-0.1,0.7-0.3,0.9c-0.2,0.3-0.5,0.5-1,0.7c0.6,0.1,1,0.4,1.3,0.7c0.3,0.3,0.5,0.7,0.5,1.2c0,0.4-0.1,0.7-0.3,1
			c-0.2,0.3-0.4,0.6-0.7,0.7s-0.6,0.3-1,0.4c-0.4,0.1-0.9,0.1-1.5,0.1H89.1z M90.3,143.3h2c0.5,0,0.9,0,1.2-0.1
			c0.3-0.1,0.6-0.2,0.7-0.4c0.2-0.2,0.2-0.4,0.2-0.7c0-0.3-0.1-0.5-0.2-0.7c-0.1-0.2-0.4-0.3-0.6-0.4c-0.3-0.1-0.7-0.1-1.4-0.1h-1.9
			V143.3z M90.3,147h2.3c0.4,0,0.7,0,0.8,0c0.3,0,0.5-0.1,0.7-0.2s0.3-0.2,0.5-0.4c0.1-0.2,0.2-0.4,0.2-0.7c0-0.3-0.1-0.5-0.3-0.8
			c-0.2-0.2-0.4-0.4-0.7-0.5c-0.3-0.1-0.8-0.1-1.4-0.1h-2.2V147z"/>
		<path class="st3" d="M104,140h1.2v4.5c0,0.8-0.1,1.4-0.3,1.9c-0.2,0.5-0.6,0.8-1.1,1.1c-0.6,0.3-1.3,0.4-2.2,0.4
			c-0.9,0-1.6-0.1-2.1-0.4c-0.6-0.3-1-0.6-1.2-1.1c-0.2-0.5-0.4-1.1-0.4-2V140h1.2v4.5c0,0.7,0.1,1.2,0.2,1.5
			c0.2,0.3,0.4,0.6,0.8,0.7c0.4,0.2,0.8,0.3,1.3,0.3c0.9,0,1.6-0.2,1.9-0.5c0.4-0.3,0.6-1,0.6-2V140z"/>
		<path class="st3" d="M107.5,147.9V140h1.2v7.9H107.5z"/>
		<path class="st3" d="M110.8,147.9V140h1.2v6.9h4.6v0.9H110.8z"/>
		<path class="st3" d="M118.1,147.9V140h3.2c0.7,0,1.3,0,1.7,0.1c0.5,0.1,1,0.3,1.4,0.6c0.5,0.4,0.9,0.8,1.1,1.3
			c0.2,0.5,0.4,1.2,0.4,1.9c0,0.6-0.1,1.1-0.2,1.6c-0.2,0.5-0.4,0.8-0.6,1.1c-0.3,0.3-0.5,0.5-0.8,0.7c-0.3,0.2-0.7,0.3-1.1,0.4
			c-0.4,0.1-0.9,0.1-1.5,0.1H118.1z M119.4,147h2c0.6,0,1.1,0,1.4-0.1c0.4-0.1,0.6-0.2,0.8-0.4c0.3-0.2,0.5-0.6,0.7-1
			c0.2-0.4,0.2-0.9,0.2-1.5c0-0.8-0.2-1.5-0.5-1.9c-0.3-0.4-0.7-0.7-1.2-0.9c-0.3-0.1-0.9-0.2-1.6-0.2h-2V147z"/>
		<path class="st3" d="M127.8,147.9V140h1.2v7.9H127.8z"/>
		<path class="st3" d="M131.1,147.9V140h1.3l4.9,6.2V140h1.2v7.9h-1.3l-4.9-6.2v6.2H131.1z"/>
		<path class="st3" d="M144.9,144.8v-0.9l4,0v2.9c-0.6,0.4-1.2,0.7-1.9,0.9c-0.6,0.2-1.3,0.3-2,0.3c-0.9,0-1.7-0.2-2.5-0.5
			c-0.7-0.3-1.3-0.8-1.7-1.4c-0.4-0.6-0.6-1.3-0.6-2.1c0-0.8,0.2-1.5,0.6-2.1c0.4-0.7,0.9-1.2,1.6-1.5c0.7-0.3,1.5-0.5,2.5-0.5
			c0.7,0,1.3,0.1,1.8,0.3c0.5,0.2,1,0.4,1.3,0.8c0.3,0.3,0.5,0.8,0.7,1.3l-1.1,0.3c-0.1-0.4-0.3-0.7-0.5-0.9
			c-0.2-0.2-0.5-0.4-0.9-0.5c-0.4-0.1-0.8-0.2-1.3-0.2c-0.6,0-1.1,0.1-1.5,0.2c-0.4,0.1-0.7,0.3-1,0.6c-0.3,0.2-0.4,0.5-0.6,0.8
			c-0.2,0.5-0.4,1-0.4,1.6c0,0.7,0.1,1.3,0.4,1.8s0.7,0.8,1.3,1.1c0.5,0.2,1.1,0.3,1.7,0.3c0.5,0,1.1-0.1,1.6-0.3
			c0.5-0.2,0.9-0.4,1.2-0.6v-1.5H144.9z"/>
		<path class="st3" d="M152.6,147.9l3.6-7.9h1.3l3.8,7.9h-1.4l-1.1-2.4h-3.9l-1,2.4H152.6z M155.3,144.7h3.2l-1-2.2
			c-0.3-0.7-0.5-1.2-0.7-1.6c-0.1,0.5-0.3,1-0.5,1.5L155.3,144.7z"/>
		<path class="st3" d="M165.2,147.9V140h1.9l2.2,5.6c0.2,0.5,0.4,0.9,0.4,1.2c0.1-0.3,0.3-0.7,0.5-1.3l2.2-5.5h1.7v7.9h-1.2v-6.6
			l-2.7,6.6h-1.1l-2.7-6.7v6.7H165.2z"/>
		<path class="st3" d="M176.1,147.9V140h6.7v0.9h-5.5v2.4h5.2v0.9h-5.2v2.7h5.7v0.9H176.1z"/>
		<path class="st3" d="M184.7,147.9V140h1.3l4.9,6.2V140h1.2v7.9h-1.3l-4.9-6.2v6.2H184.7z"/>
		<path class="st3" d="M196.5,147.9V141h-3.1V140h7.4v0.9h-3.1v6.9H196.5z"/>
		<path class="st3" d="M200.1,147.9l3.6-7.9h1.3l3.8,7.9h-1.4l-1.1-2.4h-3.9l-1,2.4H200.1z M202.8,144.7h3.2l-1-2.2
			c-0.3-0.7-0.5-1.2-0.7-1.6c-0.1,0.5-0.3,1-0.5,1.5L202.8,144.7z"/>
		<path class="st3" d="M209.8,147.9V140h1.2v6.9h4.6v0.9H209.8z"/>
		<path class="st3" d="M221.9,147.9l-2.5-7.9h1.3l1.4,5.2c0.2,0.5,0.3,1.1,0.4,1.6c0.2-0.8,0.4-1.3,0.4-1.5l1.8-5.3h1.5l1.3,4
			c0.3,1,0.6,1.9,0.7,2.8c0.1-0.5,0.3-1.1,0.5-1.7l1.5-5h1.2l-2.6,7.9h-1.2l-2-6c-0.2-0.5-0.3-0.8-0.3-0.9c-0.1,0.4-0.2,0.7-0.3,0.9
			l-2,6H221.9z"/>
		<path class="st3" d="M232.6,147.9V140h6.7v0.9h-5.5v2.4h5.2v0.9h-5.2v2.7h5.7v0.9H232.6z"/>
		<path class="st3" d="M241.2,147.9V140h1.2v6.9h4.6v0.9H241.2z"/>
		<path class="st3" d="M248.4,147.9V140h1.2v6.9h4.6v0.9H248.4z"/>
		<path class="st3" d="M255.7,147.9V140h3.5c0.7,0,1.3,0.1,1.7,0.2c0.4,0.2,0.8,0.4,1,0.7c0.2,0.3,0.4,0.7,0.4,1
			c0,0.3-0.1,0.7-0.3,0.9c-0.2,0.3-0.5,0.5-1,0.7c0.6,0.1,1,0.4,1.3,0.7c0.3,0.3,0.5,0.7,0.5,1.2c0,0.4-0.1,0.7-0.3,1
			c-0.2,0.3-0.4,0.6-0.7,0.7c-0.3,0.2-0.6,0.3-1,0.4c-0.4,0.1-0.9,0.1-1.5,0.1H255.7z M256.9,143.3h2c0.5,0,0.9,0,1.2-0.1
			c0.3-0.1,0.6-0.2,0.7-0.4c0.2-0.2,0.2-0.4,0.2-0.7c0-0.3-0.1-0.5-0.2-0.7c-0.1-0.2-0.4-0.3-0.6-0.4c-0.3-0.1-0.7-0.1-1.4-0.1h-1.9
			V143.3z M256.9,147h2.3c0.4,0,0.7,0,0.8,0c0.3,0,0.5-0.1,0.7-0.2c0.2-0.1,0.3-0.2,0.5-0.4c0.1-0.2,0.2-0.4,0.2-0.7
			c0-0.3-0.1-0.5-0.3-0.8c-0.2-0.2-0.4-0.4-0.7-0.5c-0.3-0.1-0.8-0.1-1.4-0.1h-2.2V147z"/>
		<path class="st3" d="M264.5,147.9V140h6.7v0.9h-5.5v2.4h5.2v0.9h-5.2v2.7h5.7v0.9H264.5z"/>
		<path class="st3" d="M273.3,147.9V140h1.2v7.9H273.3z"/>
		<path class="st3" d="M276.7,147.9V140h1.3l4.9,6.2V140h1.2v7.9h-1.3l-4.9-6.2v6.2H276.7z"/>
		<path class="st3" d="M290.5,144.8v-0.9l4,0v2.9c-0.6,0.4-1.2,0.7-1.9,0.9c-0.6,0.2-1.3,0.3-2,0.3c-0.9,0-1.7-0.2-2.5-0.5
			c-0.7-0.3-1.3-0.8-1.7-1.4c-0.4-0.6-0.6-1.3-0.6-2.1c0-0.8,0.2-1.5,0.6-2.1c0.4-0.7,0.9-1.2,1.6-1.5s1.5-0.5,2.5-0.5
			c0.7,0,1.3,0.1,1.8,0.3c0.5,0.2,1,0.4,1.3,0.8c0.3,0.3,0.5,0.8,0.7,1.3l-1.1,0.3c-0.1-0.4-0.3-0.7-0.5-0.9
			c-0.2-0.2-0.5-0.4-0.9-0.5c-0.4-0.1-0.8-0.2-1.3-0.2c-0.6,0-1.1,0.1-1.5,0.2c-0.4,0.1-0.7,0.3-1,0.6c-0.3,0.2-0.4,0.5-0.6,0.8
			c-0.2,0.5-0.4,1-0.4,1.6c0,0.7,0.1,1.3,0.4,1.8c0.3,0.5,0.7,0.8,1.3,1.1c0.5,0.2,1.1,0.3,1.7,0.3c0.5,0,1.1-0.1,1.6-0.3
			c0.5-0.2,0.9-0.4,1.2-0.6v-1.5H290.5z"/>
		<path class="st3" d="M306.6,145.2l1.2,0.3c-0.3,0.9-0.7,1.5-1.4,2c-0.7,0.4-1.5,0.7-2.5,0.7c-1,0-1.8-0.2-2.5-0.5
			c-0.6-0.3-1.1-0.8-1.4-1.5c-0.3-0.7-0.5-1.4-0.5-2.1c0-0.8,0.2-1.5,0.6-2.1c0.4-0.6,0.9-1.1,1.6-1.4c0.7-0.3,1.4-0.5,2.3-0.5
			c0.9,0,1.7,0.2,2.4,0.6c0.6,0.4,1.1,1,1.3,1.7l-1.2,0.2c-0.2-0.6-0.5-1-0.9-1.2c-0.4-0.3-0.9-0.4-1.6-0.4c-0.7,0-1.3,0.1-1.8,0.4
			c-0.5,0.3-0.8,0.7-1,1.2c-0.2,0.5-0.3,1-0.3,1.5c0,0.7,0.1,1.3,0.3,1.7c0.2,0.5,0.6,0.9,1.1,1.1c0.5,0.2,1,0.4,1.6,0.4
			c0.7,0,1.3-0.2,1.8-0.5C306.1,146.3,306.4,145.8,306.6,145.2z"/>
		<path class="st3" d="M315.4,140h1.2v4.5c0,0.8-0.1,1.4-0.3,1.9c-0.2,0.5-0.6,0.8-1.1,1.1c-0.6,0.3-1.3,0.4-2.2,0.4
			c-0.9,0-1.6-0.1-2.1-0.4c-0.6-0.3-1-0.6-1.2-1.1c-0.2-0.5-0.4-1.1-0.4-2V140h1.2v4.5c0,0.7,0.1,1.2,0.2,1.5
			c0.2,0.3,0.4,0.6,0.8,0.7c0.4,0.2,0.8,0.3,1.3,0.3c0.9,0,1.6-0.2,1.9-0.5c0.4-0.3,0.6-1,0.6-2V140z"/>
		<path class="st3" d="M318.7,147.9V140h1.2v6.9h4.6v0.9H318.7z"/>
		<path class="st3" d="M327.4,147.9V141h-3.1V140h7.4v0.9h-3.1v6.9H327.4z"/>
		<path class="st3" d="M339.1,140h1.2v4.5c0,0.8-0.1,1.4-0.3,1.9c-0.2,0.5-0.6,0.8-1.1,1.1c-0.6,0.3-1.3,0.4-2.2,0.4
			c-0.9,0-1.6-0.1-2.1-0.4c-0.6-0.3-1-0.6-1.2-1.1c-0.2-0.5-0.4-1.1-0.4-2V140h1.2v4.5c0,0.7,0.1,1.2,0.2,1.5
			c0.2,0.3,0.4,0.6,0.8,0.7c0.4,0.2,0.8,0.3,1.3,0.3c0.9,0,1.6-0.2,1.9-0.5c0.4-0.3,0.6-1,0.6-2V140z"/>
		<path class="st3" d="M342.4,147.9V140h4.1c0.8,0,1.5,0.1,1.9,0.2c0.4,0.1,0.8,0.4,1,0.7c0.3,0.4,0.4,0.8,0.4,1.2
			c0,0.6-0.2,1-0.6,1.4c-0.4,0.4-1.1,0.6-2,0.7c0.3,0.1,0.6,0.3,0.7,0.4c0.4,0.3,0.7,0.6,1,1l1.6,2.1h-1.6l-1.2-1.6
			c-0.4-0.5-0.7-0.8-0.9-1.1c-0.2-0.2-0.4-0.4-0.6-0.5c-0.2-0.1-0.4-0.2-0.6-0.2c-0.1,0-0.4,0-0.7,0h-1.4v3.5H342.4z M343.6,143.5
			h2.7c0.6,0,1,0,1.3-0.1c0.3-0.1,0.6-0.3,0.7-0.5c0.2-0.2,0.2-0.5,0.2-0.7c0-0.4-0.2-0.7-0.5-0.9c-0.3-0.2-0.8-0.4-1.5-0.4h-3
			V143.5z"/>
		<path class="st3" d="M351.8,147.9V140h6.7v0.9h-5.5v2.4h5.2v0.9h-5.2v2.7h5.7v0.9H351.8z"/>
	</g>
	<g>
		<path class="st3" d="M89.9,91.2h11.9c7.9,0,13.7,2.5,13.7,9.8v1.7c0,3.9-1.9,7.1-4.9,8.5c3.2,1.5,5.4,4.7,5.4,8.7v1.7
			c0,7-5.8,10.1-14.2,10.1h-7.1c0,0-4.8-0.1-4.8-2.9V91.2z M94.7,95.1v14h7.5c6.2,0,8.3-2.5,8.3-7.4c0-4.9-2.8-6.7-8.8-6.7H94.7z
			 M94.7,113.2v14.5h7.1c6.5,0,9.4-2,9.4-7c0-4.7-2.7-7.6-8.9-7.6H94.7z"/>
		<path class="st3" d="M123.8,107.1v25c0,0-4.6,0-4.6-2.9v-26.9c1.3,0.7,2.5,0.9,3.5,0.9c2.4,0,4.4-1.2,7.6-1.2
			c4.1,0,6.8,1.6,6.8,4.7c0,1.4-0.5,2.6-1.6,4.1c0-3.2-2.8-4.7-6.1-4.7C126.3,106.2,123.8,107.1,123.8,107.1z"/>
		<path class="st3" d="M142.3,92.8c1.3-1.3,2.5-2.7,2.5-4c0-0.5-0.1-0.9-0.3-1.3c2.4,0.8,6.5,3.6,1.7,7.6l-4.6,3.8
			c0,0-4.7-0.8-2.5-2.8L142.3,92.8z M139,102.7c0.3,0,4.6,0.1,4.6,2.9v26.6c0,0-4.6,0-4.6-2.9V102.7z"/>
		<path class="st3" d="M147.3,111.2c0-5.7,4.7-9.2,10.1-9.2c7,0,9,3.2,9,3.2s-0.6-1.3-0.6-5.3V88.4c0.4,0,4.6-0.1,4.6,3.5v40.2
			c-1.3-0.6-3-0.8-3.9-0.8c-2.3,0-4.9,1-7.7,1c-7.4,0-11.6-3.4-11.6-9.2V111.2z M165.9,111.5c0-3.4-3.9-5.7-7.7-5.7
			c-3.6,0-6.3,1.9-6.3,6.3v10.3c0,4.2,1.7,6.3,7.6,6.3c4.3,0,6.3-1.4,6.3-1.4V111.5z"/>
		<path class="st3" d="M213.4,119.5c0,8.1-5.1,12.9-16,12.9c-10.9,0-16-4.8-16-12.9v-16.2c0-8.1,5-12.9,16-12.9
			c10.9,0,16,4.8,16,12.9V119.5z M208.5,104.1c0-6-1.8-9.6-11.2-9.6c-9.3,0-11.1,3.6-11.1,9.6v14.7c0,6,1.8,9.6,11.1,9.6
			c9.4,0,11.2-3.6,11.2-9.6V104.1z"/>
		<path class="st3" d="M218.6,91.2h2.8c0.5,0,1,0.5,1,1.1v3.6c0,3.5-0.8,7.2-3.8,7.2c-0.8,0-1.7-0.2-2.6-0.8c2.3-0.5,2.4-4,2.1-5.9
			l-0.9-5.3H218.6z"/>
		<path class="st3" d="M258.3,102.5c0-2.4,0.4-5.2,0.4-5.2l-12.9,26.3c0,0-2.7,0-4.5-2.9l-10.9-23.4c0,0,0.4,2.8,0.4,5.2v29.8
			c0,0-4.9,0-4.9-2.9V91.2h3.5c0.2,0,2.8-0.1,4.2,2.9l10.8,23.1l12.5-26c1.4,0,6.3,0,6.3,2.9v38.2c0,0-4.9,0-4.9-2.9V102.5z"/>
		<path class="st3" d="M290.5,126.3c0,4.1-5.4,6.1-11.1,6.1c-7.4,0-11.9-3.5-11.9-9.3v-11.7c0-5.9,4.3-9.3,11.7-9.3
			c7.4,0,11,3.5,11,8.7c0,4.7-3.2,8.6-11.7,8.6c-2,0-5-0.4-6.4-1.4v4.2c0,4.1,2.3,6.1,7.6,6.1c5,0,9.3-2.1,9.3-6.1
			C290,123.7,290.5,125,290.5,126.3z M272,114.3c0.1,0.1,3.5,1,6,1c5.5,0,7.4-1.7,7.4-4.5c0-3-1.6-5-6.4-5c-5.2,0-7.1,2.4-7.1,6.4
			V114.3z"/>
		<path class="st3" d="M309.8,111.1c0-3-1.3-5-6.7-5c-5.4,0-9,2.1-9,6.1c-1.1-1.6-1.6-3-1.6-4.2c0-3.9,5-6,10.6-6
			c7.4,0,11.4,3.5,11.4,9.3v20.7c-1.4-0.6-2.6-0.8-3.8-0.8c-2.7,0-5.1,1-8.3,1c-5.3,0-10.7-2.3-10.7-8.5
			C291.6,112.7,307.8,116.7,309.8,111.1z M310,115.7c-1.1,3.9-13.7,1.3-13.7,8.2c0,2.5,1.9,4.7,6.9,4.7c4.2,0,6.8-1.6,6.8-1.6V115.7
			z"/>
		<path class="st3" d="M321.7,107.1v25c0,0-4.6,0-4.6-2.9v-26.9c1.3,0.7,2.5,0.9,3.5,0.9c2.4,0,4.4-1.2,7.6-1.2
			c4.1,0,6.8,1.6,6.8,4.7c0,1.4-0.5,2.6-1.6,4.1c0-3.2-2.8-4.7-6.1-4.7C324.2,106.2,321.7,107.1,321.7,107.1z"/>
		<path class="st3" d="M353.4,111.1c0-3-1.3-5-6.7-5c-5.4,0-9,2.1-9,6.1c-1.1-1.6-1.6-3-1.6-4.2c0-3.9,5-6,10.6-6
			c7.4,0,11.4,3.5,11.4,9.3v20.7c-1.4-0.6-2.6-0.8-3.8-0.8c-2.7,0-5.1,1-8.3,1c-5.3,0-10.7-2.3-10.7-8.5
			C335.2,112.7,351.4,116.7,353.4,111.1z M353.6,115.7c-1.1,3.9-13.7,1.3-13.7,8.2c0,2.5,1.9,4.7,6.9,4.7c4.2,0,6.8-1.6,6.8-1.6
			V115.7z"/>
	</g>
</g>
</svg>
