<?xml version="1.0" encoding="utf-8"?>
<!-- Generator: Adobe Illustrator 24.3.0, SVG Export Plug-In . SVG Version: 6.00 Build 0)  -->
<svg version="1.1" id="Layer_1" xmlns="http://www.w3.org/2000/svg" xmlns:xlink="http://www.w3.org/1999/xlink" x="0px" y="0px"
	 viewBox="0 0 646.9 339.3" style="enable-background:new 0 0 646.9 339.3;" xml:space="preserve">
<style type="text/css">
	.st0{fill:#8CD2D1;}
	.st1{fill:#FAA61A;}
	.st2{fill:#E98EBC;}
	.st3{fill:#808285;}
</style>
<g>
	<g>
		<circle class="st0" cx="308.2" cy="54.4" r="36.4"/>
		<circle class="st1" cx="276.8" cy="144.7" r="36.4"/>
		<circle class="st2" cx="368.8" cy="125.2" r="36.4"/>
		<g>
			<path class="st3" d="M362,171.7c-22,0.4-40.3-16.3-41.2-37.5c0-0.5-0.1-0.9-0.1-1.4c-0.1-2.7,0.1-5.3,0.6-7.9
				c0.5-2.6,1.2-5.2,2.2-7.7c1-2.5,2.2-4.8,3.7-7.1c2.9-4.4,6.8-8.3,11.3-11.3l0,0c0,0,0,0,0,0c2.5-1.5,4.9-3.3,7.1-5.4
				c2.2-2,4.1-4.3,5.8-6.7c1.7-2.4,3.2-5,4.3-7.8c1.2-2.7,2-5.6,2.6-8.5c0.6-2.9,0.8-5.9,0.7-8.9c-0.2-6-1.6-11.9-4.3-17.2
				c-0.7-1.3-1.4-2.6-2.2-3.9c-0.8-1.3-1.7-2.5-2.6-3.6c-1.9-2.3-4-4.4-6.4-6.3c-2.4-1.8-4.9-3.4-7.6-4.7c-2.7-1.3-5.6-2.2-8.5-2.9
				c-2-0.4-4.1-0.7-6.1-0.8c19,2.9,33.6,18.6,34,37.9c0.1,6.6-1.5,12.9-4.4,18.5c-0.9,2-2,3.8-3.2,5.6c-1.5,2.2-3.3,4.2-5.2,6
				c-1.9,1.8-4.1,3.4-6.3,4.8c-2.3,1.4-4.7,2.5-7.2,3.4c-2.5,0.9-5.1,1.5-7.7,1.9c-2.6,0.4-5.3,0.5-8,0.3
				c-5.3-0.3-10.6-1.7-15.4-4.1l0,0c0,0,0,0,0,0c-0.5-0.3-1-0.5-1.5-0.8c-0.1-0.1-0.2-0.1-0.3-0.2c-2.1-1-4.2-1.9-6.4-2.5
				c-2.8-0.9-5.8-1.4-8.7-1.7c-3-0.3-5.9-0.2-8.9,0.2c-3,0.4-5.9,1-8.7,2c-2.8,1-5.5,2.3-8.1,3.8c-5.1,3.1-9.5,7.3-12.8,12.3
				c-0.8,1.2-1.6,2.5-2.3,3.9c-0.7,1.3-1.3,2.7-1.8,4.1c-0.5,1.4-1,2.7-1.3,4.1c5.4-15.1,20-26,37.4-26.4c3.6-0.1,7.2,0.3,10.6,1.1
				c1.1,0.2,2.2,0.5,3.2,0.8c2.5,0.8,5,1.8,7.3,3.1c2.3,1.3,4.5,2.8,6.6,4.5c2,1.7,3.9,3.7,5.5,5.8c1.6,2.1,3.1,4.4,4.3,6.8
				c2.4,4.8,3.8,10,4.1,15.4v0c0,0,0,0,0,0c0.1,3,0.4,5.9,1.1,8.8c0.7,2.9,1.6,5.7,2.9,8.4c1.3,2.7,2.8,5.2,4.6,7.6
				c1.8,2.4,3.8,4.6,6.1,6.5c2.3,1.9,4.7,3.6,7.3,5.1c5.2,2.8,11.1,4.5,17.1,4.9c1.5,0.1,3,0.1,4.5,0c1.5-0.1,3-0.2,4.5-0.5
				c3-0.5,5.8-1.3,8.6-2.4c2.8-1.1,5.4-2.5,7.9-4.3c0.7-0.5,1.4-1,2.1-1.6C376.9,169.3,369.7,171.5,362,171.7z"/>
			<g>
				<path class="st3" d="M299.9,161.5c0.3,0.4,0.2,1-0.2,1.3c-5.9,5.5-13.3,8.8-21.4,9.5c-0.6,0-1.1-0.4-1.1-0.9
					c0-0.6,0.4-1.1,0.9-1.1c7.6-0.6,14.6-3.7,20.1-8.9c0.4-0.4,1.1-0.4,1.5,0C299.8,161.4,299.8,161.5,299.9,161.5z"/>
				<path class="st3" d="M273.7,170.7c0.1,0.2,0.2,0.4,0.1,0.6c0,0.6-0.5,1-1.1,0.9c-8.9-0.7-17.1-4.6-23.1-11.1
					c-5.4-5.8-8.6-12.9-9.4-20.8c-0.1-0.6,0.4-1.1,0.9-1.1c0.6-0.1,1.1,0.4,1.1,0.9c0.7,7.4,3.8,14.1,8.8,19.6
					c5.7,6.1,13.5,9.8,21.8,10.5C273.2,170.3,273.5,170.5,273.7,170.7z"/>
				<path class="st3" d="M252.8,111.3c0.3,0.4,0.2,1-0.2,1.3c-6.3,5.9-10,13.8-10.5,22.4c0,0.6-0.5,1-1.1,1c-0.6,0-1-0.5-1-1.1
					c0.5-9.1,4.5-17.6,11.2-23.8c0.4-0.4,1.1-0.4,1.5,0C252.8,111.1,252.8,111.2,252.8,111.3z"/>
				<path class="st3" d="M258.8,106.7C258.8,106.7,258.9,106.7,258.8,106.7c0.3,0.5,0.1,1.1-0.4,1.4c-2.1,1.2-4.1,2.7-5.8,4.4
					c-0.4,0.4-1.1,0.4-1.5,0c-0.4-0.4-0.4-1.1,0-1.5c1.9-1.8,4-3.3,6.2-4.7C257.9,106.1,258.6,106.3,258.8,106.7z"/>
				<path class="st3" d="M300.9,160.5c0.2,0.4,0.2,0.9-0.1,1.3c-0.4,0.4-0.7,0.7-1.1,1.1c-0.4,0.4-1.1,0.4-1.5,0
					c-0.4-0.4-0.4-1.1,0-1.5c0.4-0.3,0.7-0.7,1-1c0.4-0.4,1.1-0.4,1.5,0C300.8,160.3,300.9,160.4,300.9,160.5z"/>
				<path class="st3" d="M309.3,126.5c0.1,0.2,0.2,0.5,0.1,0.7c-0.1,0.6-0.6,0.9-1.2,0.8c-11.7-2-23.4,1.5-32.1,9.6
					c-0.4,0.4-1.1,0.4-1.5,0c-0.4-0.4-0.4-1.1,0-1.5c9.2-8.6,21.5-12.3,33.9-10.2C308.9,126.1,309.2,126.2,309.3,126.5z"/>
				<path class="st3" d="M310.4,131.1c0.1,0.2,0.2,0.5,0.1,0.8c-0.1,0.6-0.7,0.9-1.2,0.8c-4.4-1-8.9-1.1-13.4-0.3
					c-0.6,0.1-1.1-0.3-1.2-0.8c-0.1-0.6,0.3-1.1,0.8-1.2c4.7-0.9,9.5-0.8,14.2,0.3C310,130.7,310.2,130.8,310.4,131.1z"/>
				<path class="st3" d="M307.6,121.9c0.1,0.2,0.2,0.4,0.1,0.7c-0.1,0.6-0.6,1-1.1,0.9c-12.2-1.4-24.4,2.7-33.4,11.1l-0.2,0.2
					c-1.1,1.3-1.1,3.2,0.1,4.4c1.1,1.2,3,1.4,4.3,0.4l0.3-0.3c3.6-3.4,7.7-5.9,12.3-7.5c0.5-0.2,1.1,0.1,1.3,0.6
					c0.2,0.5-0.1,1.1-0.6,1.3c-4,1.4-7.7,3.6-10.9,6.4l0,0l-0.7,0.7c-2.2,2-5.6,1.9-7.6-0.2c-2-2.2-1.9-5.6,0.3-7.6l0.7-0.6l0,0
					c9.3-8.4,21.8-12.4,34.3-11C307.2,121.4,307.4,121.6,307.6,121.9z"/>
				<path class="st3" d="M310.8,135.6c0.1,0.2,0.2,0.5,0.1,0.8c-0.1,0.5-0.7,0.9-1.3,0.7c-9.1-2.5-18.9-0.4-26.1,5.6
					c-0.4,0.4-1.1,0.3-1.4-0.1c-0.4-0.4-0.3-1.1,0.1-1.4c7.8-6.4,18.2-8.6,28-6C310.4,135.2,310.6,135.4,310.8,135.6z"/>
				<path class="st3" d="M277.9,124.4c0.3,0.5,0.1,1.1-0.3,1.4c-2.6,1.6-5,3.5-7.2,5.6l-0.3,0.3c-1.3,1.4-2.1,3.1-2.1,5
					c-0.1,2,0.7,4,2,5.4c2.1,2.2,5.3,3,8.1,2c0.5-0.2,1.1,0.1,1.3,0.6c0.2,0.5-0.1,1.1-0.6,1.3c-3.6,1.3-7.7,0.3-10.3-2.5
					c-1.8-1.9-2.7-4.3-2.6-6.9c0.1-2.6,1.2-5,3.1-6.7l0.6-0.6l0,0c2.1-1.9,4.5-3.7,6.9-5.2C276.9,123.8,277.6,123.9,277.9,124.4
					C277.9,124.4,277.9,124.4,277.9,124.4z"/>
				<path class="st3" d="M305.1,117.4c0.1,0.2,0.2,0.4,0.2,0.6c0,0.6-0.5,1-1.1,1c-7.5-0.4-15.1,1.1-21.9,4.3
					c-0.5,0.2-1.1,0-1.4-0.5c-0.2-0.5,0-1.1,0.5-1.4c7.1-3.3,15-4.9,22.9-4.5C304.6,116.9,304.9,117.1,305.1,117.4z"/>
				<path class="st3" d="M310.6,140c0.2,0.2,0.2,0.6,0.1,0.8c-0.2,0.5-0.7,0.8-1.3,0.7c-8.3-2.6-17.4-0.6-23.9,5.1l-0.5,0.5
					c-5.6,5.3-14.5,5-19.7-0.7c-0.9-0.9-1.6-2-2.2-3.2c-0.3-0.5-0.1-1.1,0.4-1.4c0.5-0.3,1.1-0.1,1.4,0.4c0.5,1,1.1,1.9,1.9,2.7
					c4.4,4.7,11.6,5,16.4,0.9l0.4-0.4c7.1-6.6,17.2-8.9,26.4-6C310.3,139.7,310.5,139.8,310.6,140z"/>
				<path class="st3" d="M301.7,113c0.1,0.2,0.1,0.3,0.2,0.5c0,0.6-0.4,1-1,1.1c-12.5,0.3-24.3,5.1-33.4,13.7l-0.3,0.3
					c-2.4,2.4-3.6,5.6-3.5,9c0,0.6-0.4,1-1,1.1c-0.6,0-1-0.4-1.1-1c-0.2-4.1,1.4-8,4.4-10.8l0.6-0.6l0,0
					c9.4-8.5,21.5-13.4,34.2-13.6C301.1,112.5,301.5,112.7,301.7,113z"/>
				<path class="st3" d="M309.9,144.3c0.2,0.3,0.2,0.6,0.1,0.9c-0.2,0.5-0.8,0.8-1.3,0.6c-3.3-1.2-7-1.4-10.5-0.8
					c-0.6,0.1-1.1-0.3-1.2-0.8c-0.1-0.6,0.3-1.1,0.8-1.2c3.8-0.7,7.8-0.4,11.5,0.9C309.6,144,309.7,144.1,309.9,144.3z"/>
				<path class="st3" d="M281.5,112.9c0,0,0.1,0.1,0.1,0.2c0.2,0.5,0,1.1-0.6,1.3c-6.1,2.5-11.7,6.1-16.6,10.7l-0.2,0.2
					c-6.3,6.1-6.6,16.2-0.5,22.7c6,6.4,15.9,6.8,22.5,1.1l0.4-0.4c1.7-1.6,3.6-2.9,5.7-3.9c0.5-0.2,1.1,0,1.4,0.5
					c0.2,0.5,0,1.1-0.5,1.4c-1.7,0.8-3.3,1.9-4.7,3.1l-0.4,0.4c-7.4,6.9-18.9,6.5-25.8-0.9c-6.9-7.3-6.5-18.9,0.9-25.8l0.5-0.4l0,0
					c5-4.5,10.6-8.1,16.8-10.7C280.7,112.3,281.3,112.5,281.5,112.9z"/>
				<path class="st3" d="M297.2,109c0.1,0.1,0.1,0.3,0.1,0.4c0.1,0.6-0.4,1.1-0.9,1.1c-3.5,0.4-7,1-10.3,2c-0.5,0.2-1.1-0.1-1.3-0.7
					c-0.2-0.5,0.1-1.1,0.7-1.3c3.5-1,7.1-1.8,10.7-2.1C296.6,108.5,297,108.7,297.2,109z"/>
				<path class="st3" d="M291.5,105.5c0.1,0.1,0.1,0.2,0.1,0.3c0.1,0.6-0.3,1.1-0.8,1.2c-10.9,2.1-21,7.2-29.2,14.8l-0.2,0.2
					c-2.2,2-3.9,4.5-5,7.2c-0.2,0.5-0.8,0.8-1.3,0.6c-0.5-0.2-0.8-0.8-0.6-1.3c1.2-2.9,2.9-5.5,5.2-7.7l0,0l0.3-0.3
					c8.5-7.9,19-13.3,30.4-15.5C290.9,104.9,291.3,105.1,291.5,105.5z"/>
				<path class="st3" d="M255,133.5c0.1,0.2,0.2,0.4,0.1,0.7c-0.8,6.1,1.1,12.2,5.3,16.7c1.1,1.2,2.3,2.2,3.6,3.1
					c0.5,0.3,0.6,1,0.3,1.4c-0.3,0.5-1,0.6-1.4,0.3c-1.4-1-2.8-2.1-4-3.4c-4.6-5-6.8-11.7-5.9-18.4c0.1-0.6,0.6-1,1.2-0.9
					C254.6,133.1,254.9,133.3,255,133.5z"/>
				<path class="st3" d="M308.6,148.4c0.2,0.3,0.2,0.6,0.1,0.9c-0.2,0.5-0.8,0.8-1.3,0.6c-5.6-2-11.7-0.8-16.1,3.1l-0.4,0.4
					c-6.1,5.8-14.9,7.6-22.9,4.8c-0.5-0.2-0.8-0.8-0.6-1.3c0.2-0.5,0.8-0.8,1.3-0.6c7.1,2.5,14.8,0.9,20.4-4l0.4-0.4
					c5-4.7,12.1-6.2,18.6-3.9C308.3,148.1,308.5,148.3,308.6,148.4z"/>
				<path class="st3" d="M306.8,152.4c0.2,0.2,0.2,0.6,0.1,0.9c-0.2,0.5-0.8,0.8-1.3,0.7c-4-1.3-8.4-0.4-11.5,2.3l-0.3,0.3
					c-1,1-2.2,1.9-3.3,2.7c-0.5,0.3-1.1,0.2-1.4-0.3c-0.3-0.5-0.2-1.1,0.3-1.4c0.9-0.6,1.8-1.3,2.7-2.1l0.4-0.4
					c3.7-3.5,9-4.7,13.9-3.1C306.5,152,306.7,152.2,306.8,152.4z"/>
				<path class="st3" d="M261.2,115.3c0.3,0.4,0.2,1-0.2,1.3c-0.7,0.6-1.4,1.2-2.2,1.9l-0.3,0.3c-10,9.3-10.5,25.1-1.2,35.1
					c3.5,3.7,7.9,6.2,12.9,7.3c4.9,1,9.8,0.6,14.4-1.2c0.5-0.2,1.1,0,1.3,0.6c0.2,0.5,0,1.1-0.6,1.3c-5,2-10.4,2.5-15.6,1.3
					c-5.4-1.1-10.2-3.9-14-7.9c-9.9-10.6-9.6-27.2,0.7-37.4l0,0l0.6-0.5c0.8-0.8,1.7-1.6,2.6-2.3c0.4-0.4,1.1-0.3,1.5,0.1
					C261.2,115.2,261.2,115.2,261.2,115.3z"/>
				<path class="st3" d="M284.2,102.9c0,0.1,0.1,0.2,0.1,0.2c0.2,0.5-0.1,1.1-0.7,1.3c-6.6,2-12.7,5-18.3,8.9
					c-0.5,0.3-1.1,0.2-1.4-0.2c-0.3-0.5-0.2-1.1,0.2-1.4c5.8-4.1,12.1-7.2,18.9-9.2C283.4,102.3,283.9,102.5,284.2,102.9z"/>
				<path class="st3" d="M304.5,156.2c0.1,0.2,0.2,0.5,0.1,0.7c-0.1,0.6-0.7,0.9-1.2,0.8c-2.3-0.5-4.7,0.2-6.4,1.7l-0.2,0.2
					c-6.1,5.7-14,8.7-22.3,8.4c-8.3-0.3-16-3.8-21.7-9.9c-2.4-2.6-4.3-5.4-5.7-8.6c-0.2-0.5,0-1.1,0.5-1.4c0.5-0.2,1.1,0,1.4,0.5
					c1.3,3,3.1,5.7,5.3,8c5.3,5.7,12.5,8.9,20.3,9.2c7.6,0.3,14.8-2.4,20.5-7.5l0.4-0.4c2.3-2.1,5.4-3,8.5-2.4
					C304.1,155.8,304.4,156,304.5,156.2z"/>
				<path class="st3" d="M274.2,102c0,0,0,0.1,0.1,0.1c0.2,0.5,0,1.1-0.5,1.4c-6.5,3-12.4,6.9-17.7,11.8l-0.4,0.4
					c-7.7,7.2-10.9,18-8.4,28.3c0.1,0.6-0.2,1.1-0.8,1.2c-0.6,0.1-1.1-0.2-1.2-0.8c-2.6-10.7,0.5-21.9,8.3-29.7l0,0l0.6-0.6
					c5.5-5.2,11.8-9.4,18.7-12.5C273.3,101.4,273.9,101.6,274.2,102z"/>
			</g>
			<g>
				<path class="st3" d="M318,96.5c0.1,0.5,0.6,0.8,1.1,0.7c8.1-0.8,15.4-4.1,21.2-9.8c0.4-0.4,0.4-1,0-1.5c-0.4-0.4-1-0.4-1.5,0
					c-5.5,5.3-12.4,8.5-20,9.2c-0.6,0.1-1,0.6-0.9,1.1C318,96.4,318,96.5,318,96.5z"/>
				<path class="st3" d="M342.3,83c0.1,0.2,0.2,0.4,0.4,0.5c0.5,0.3,1.1,0.3,1.4-0.2c5.4-7.1,7.8-15.9,7-24.7
					c-0.7-7.8-4-15-9.3-20.8c-0.4-0.4-1-0.4-1.5-0.1c-0.4,0.4-0.4,1-0.1,1.5c5.1,5.4,8.1,12.2,8.8,19.6c0.8,8.3-1.6,16.6-6.6,23.3
					C342.2,82.4,342.2,82.7,342.3,83z"/>
				<path class="st3" d="M311.5,28c0.1,0.5,0.6,0.8,1.1,0.7c8.6-0.8,17,1.7,23.8,7c0.4,0.4,1.1,0.3,1.4-0.2c0.4-0.4,0.3-1.1-0.2-1.4
					c-7.2-5.6-16.1-8.3-25.2-7.4c-0.6,0.1-1,0.6-0.9,1.1C311.5,27.9,311.5,27.9,311.5,28z"/>
				<path class="st3" d="M304.2,29.5C304.2,29.5,304.2,29.5,304.2,29.5c0.2,0.6,0.8,0.9,1.3,0.7c2.3-0.7,4.7-1.2,7.2-1.5
					c0.6-0.1,1-0.6,0.9-1.1c-0.1-0.6-0.6-1-1.1-0.9c-2.6,0.2-5.1,0.8-7.6,1.6C304.3,28.4,304,29,304.2,29.5z"/>
				<path class="st3" d="M316.5,96.6c0.1,0.4,0.6,0.8,1,0.7c0.5,0,1-0.1,1.5-0.1c0.6-0.1,1-0.6,0.9-1.1c-0.1-0.6-0.6-1-1.1-0.9
					c-0.5,0-1,0.1-1.5,0.1c-0.6,0-1,0.5-1,1.1C316.5,96.5,316.5,96.6,316.5,96.6z"/>
				<path class="st3" d="M285.5,80.4c0.1,0.2,0.2,0.4,0.4,0.6c0.5,0.3,1.1,0.2,1.4-0.3c6.3-10.1,16.7-16.5,28.5-17.7
					c0.6-0.1,1-0.6,0.9-1.1c-0.1-0.6-0.6-1-1.1-0.9c-12.5,1.2-23.4,8-30.1,18.6C285.5,79.8,285.4,80.1,285.5,80.4z"/>
				<path class="st3" d="M288.3,84.2c0.1,0.2,0.2,0.5,0.5,0.6c0.5,0.3,1.1,0.1,1.4-0.4c2.2-4,5.1-7.4,8.7-10.2
					c0.4-0.4,0.5-1,0.2-1.4c-0.4-0.4-1-0.5-1.4-0.2c-3.8,3-6.9,6.6-9.2,10.8C288.2,83.7,288.2,84,288.3,84.2z"/>
				<path class="st3" d="M283.2,76.1c0.1,0.2,0.2,0.4,0.4,0.5c0.5,0.3,1.1,0.2,1.4-0.2c7.1-10.1,18.2-16.5,30.4-17.7l0.3,0
					c1.7,0,3.1,1.3,3.3,3c0.2,1.7-0.9,3.1-2.5,3.5l-0.5,0c-4.9,0.5-9.5,1.9-13.8,4.3c-0.5,0.3-0.7,0.9-0.4,1.4
					c0.3,0.5,0.9,0.7,1.4,0.4c3.7-2.1,7.8-3.4,12-3.9l0,0l1-0.1c2.9-0.3,5.1-2.9,4.8-5.8c-0.3-2.9-2.9-5.1-5.8-4.8l-0.9,0.1l0,0
					c-12.5,1.4-23.7,8.1-31,18.4C283.2,75.4,283.1,75.8,283.2,76.1z"/>
				<path class="st3" d="M291.4,87.5c0.1,0.3,0.3,0.5,0.5,0.6c0.5,0.3,1.1,0,1.4-0.5c4.2-8.5,12.2-14.4,21.5-15.9
					c0.6-0.1,0.9-0.6,0.9-1.2c-0.1-0.6-0.6-0.9-1.2-0.9c-9.9,1.6-18.6,8-23,17C291.3,87,291.3,87.3,291.4,87.5z"/>
				<path class="st3" d="M304.8,55.5c0.2,0.5,0.7,0.9,1.3,0.7c2.9-0.9,5.9-1.5,9-1.7l0.4,0c1.9-0.1,3.7,0.5,5.2,1.7
					c1.6,1.3,2.5,3.1,2.7,5.1c0.3,3-1.3,5.9-3.9,7.4c-0.5,0.3-0.7,0.9-0.4,1.4c0.3,0.5,0.9,0.7,1.4,0.4c3.4-1.9,5.4-5.5,5-9.4
					c-0.2-2.6-1.5-4.9-3.5-6.5c-2-1.6-4.5-2.4-7.1-2.2l-0.9,0.1l0,0c-2.9,0.3-5.7,0.9-8.5,1.7C305,54.4,304.7,54.9,304.8,55.5
					C304.8,55.5,304.8,55.5,304.8,55.5z"/>
				<path class="st3" d="M281.5,71.2c0.1,0.2,0.2,0.4,0.3,0.5c0.4,0.4,1.1,0.3,1.4-0.2C288,65.6,294.2,61,301.1,58
					c0.5-0.2,0.8-0.8,0.5-1.4c-0.2-0.5-0.8-0.8-1.4-0.5c-7.2,3.1-13.6,8-18.6,14.1C281.5,70.5,281.4,70.9,281.5,71.2z"/>
				<path class="st3" d="M294.8,90.3c0.1,0.3,0.3,0.5,0.6,0.6c0.5,0.2,1.1,0,1.4-0.5c3.6-8,11.1-13.5,19.7-14.5l0.6,0
					c7.7-0.7,13.3-7.6,12.6-15.2c-0.1-1.3-0.4-2.6-0.9-3.8c-0.2-0.5-0.8-0.8-1.3-0.6c-0.5,0.2-0.8,0.8-0.6,1.3
					c0.4,1,0.7,2.1,0.8,3.2c0.6,6.4-3.9,12-10.2,12.9l-0.5,0c-9.6,0.9-18.1,7-22,15.8C294.8,89.8,294.8,90.1,294.8,90.3z"/>
				<path class="st3" d="M280.5,65.8c0.1,0.2,0.1,0.3,0.3,0.5c0.4,0.4,1.1,0.4,1.5-0.1c8.5-9.1,20-14.8,32.4-16l0.4,0
					c3.3-0.2,6.6,1,9,3.3c0.4,0.4,1.1,0.4,1.5,0c0.4-0.4,0.4-1.1,0-1.5c-2.9-2.8-7-4.2-11-3.9l-0.8,0.1l0,0
					c-12.6,1.4-24.3,7.3-32.9,16.6C280.5,65,280.4,65.4,280.5,65.8z"/>
				<path class="st3" d="M298.5,92.6c0.1,0.3,0.3,0.5,0.6,0.7c0.5,0.2,1.1,0,1.3-0.6c1.4-3.3,3.5-6.2,6.3-8.3c0.4-0.4,0.5-1,0.2-1.4
					c-0.4-0.4-1-0.5-1.4-0.2c-3.1,2.4-5.5,5.6-7,9.2C298.5,92.2,298.5,92.4,298.5,92.6z"/>
				<path class="st3" d="M293.8,50.6c0,0.1,0,0.1,0.1,0.2c0.3,0.5,0.9,0.7,1.4,0.5c6-2.9,12.4-4.7,19-5.4l0.3,0
					c8.8-0.7,16.5,5.8,17.4,14.6c0.8,8.7-5.4,16.5-14.1,17.6l-0.6,0c-2.3,0.2-4.6,0.8-6.7,1.7c-0.5,0.2-0.8,0.8-0.5,1.3
					c0.2,0.5,0.8,0.8,1.3,0.5c1.7-0.7,3.6-1.2,5.5-1.5l0.6,0c10-1,17.4-9.9,16.5-19.9c-1-10-9.9-17.4-19.9-16.4l-0.6,0.1l0,0
					c-6.7,0.7-13.1,2.6-19.1,5.5C293.8,49.6,293.6,50.1,293.8,50.6z"/>
				<path class="st3" d="M280.4,59.8c0,0.1,0.1,0.3,0.2,0.4c0.4,0.4,1,0.4,1.5,0.1c2.6-2.4,5.4-4.5,8.4-6.4c0.5-0.3,0.6-0.9,0.3-1.4
					c-0.3-0.5-0.9-0.6-1.4-0.3c-3.1,1.9-6,4.1-8.7,6.6C280.4,59,280.3,59.4,280.4,59.8z"/>
				<path class="st3" d="M281.6,53.2c0,0.1,0.1,0.2,0.2,0.3c0.3,0.4,1,0.5,1.4,0.2c8.8-6.8,19.3-11,30.4-12.1l0.2,0
					c3-0.3,5.9,0.1,8.7,1c0.5,0.2,1.1-0.1,1.3-0.6c0.2-0.5-0.1-1.1-0.6-1.3c-3-1-6-1.4-9.2-1.2l0,0l-0.4,0
					c-11.6,1.1-22.6,5.4-31.7,12.5C281.6,52.3,281.5,52.8,281.6,53.2z"/>
				<path class="st3" d="M326.8,44.4c0.1,0.2,0.2,0.4,0.4,0.6c5.1,3.4,8.4,8.9,9,15.1c0.2,1.6,0.1,3.2-0.1,4.7
					c-0.1,0.6,0.3,1.1,0.9,1.2c0.6,0.1,1.1-0.3,1.2-0.9c0.2-1.7,0.3-3.5,0.1-5.2c-0.6-6.8-4.2-12.8-9.9-16.6
					c-0.5-0.3-1.1-0.2-1.4,0.3C326.7,43.8,326.7,44.1,326.8,44.4z"/>
				<path class="st3" d="M302.4,94.4c0.1,0.3,0.3,0.5,0.6,0.7c0.5,0.2,1.1,0,1.3-0.6c2.2-5.5,7.2-9.3,13-10l0.5,0
					c8.4-0.8,15.6-6.1,18.8-13.9c0.2-0.5,0-1.1-0.6-1.3c-0.5-0.2-1.1,0-1.3,0.6c-2.8,6.9-9.1,11.7-16.5,12.6l-0.6,0
					c-6.8,0.6-12.7,5-15.2,11.4C302.4,94,302.4,94.2,302.4,94.4z"/>
				<path class="st3" d="M306.6,95.7c0.1,0.3,0.3,0.5,0.6,0.6c0.5,0.2,1.1,0,1.4-0.5c1.7-3.9,5.2-6.5,9.4-7.1l0.4,0
					c1.4-0.1,2.8-0.4,4.2-0.7c0.6-0.1,0.9-0.7,0.7-1.3c-0.1-0.6-0.7-0.9-1.3-0.7c-1.1,0.3-2.2,0.5-3.3,0.6l-0.6,0
					c-5.1,0.5-9.5,3.7-11.5,8.4C306.5,95.2,306.5,95.5,306.6,95.7z"/>
				<path class="st3" d="M309,37c0.1,0.5,0.6,0.8,1.1,0.7c0.9-0.1,1.9-0.3,2.8-0.4l0.5,0c13.6-1.3,25.7,8.7,27,22.3
					c0.5,5.1-0.6,10.1-3.1,14.5c-2.4,4.3-6.1,7.8-10.5,10c-0.5,0.3-0.7,0.9-0.5,1.4c0.3,0.5,0.9,0.7,1.4,0.5
					c4.8-2.4,8.7-6.1,11.4-10.8c2.7-4.8,3.9-10.2,3.3-15.7C341.1,45,328.4,34.2,314,35.2l0,0l-0.8,0.1c-1.1,0.1-2.3,0.2-3.4,0.4
					c-0.6,0.1-1,0.6-0.9,1.2C309,36.9,309,36.9,309,37z"/>
				<path class="st3" d="M284.5,45.9c0,0.1,0.1,0.2,0.1,0.2c0.3,0.5,0.9,0.6,1.4,0.3c5.8-3.6,12.2-6.2,18.8-7.8
					c0.6-0.1,0.9-0.7,0.8-1.2c-0.1-0.6-0.7-0.9-1.2-0.8c-6.9,1.6-13.4,4.3-19.4,8C284.5,45,284.4,45.5,284.5,45.9z"/>
				<path class="st3" d="M311,96.5c0.1,0.2,0.2,0.5,0.5,0.6c0.5,0.3,1.1,0.1,1.4-0.4c1.2-2,3.2-3.4,5.5-3.7l0.3,0
					c8.3-0.8,15.8-4.8,21.1-11.2c5.3-6.4,7.8-14.5,7-22.8c-0.3-3.5-1.2-6.8-2.7-10c-0.2-0.5-0.8-0.7-1.4-0.5
					c-0.5,0.2-0.7,0.8-0.5,1.4c1.3,2.9,2.2,6.1,2.5,9.3c0.7,7.7-1.6,15.3-6.5,21.3c-4.8,5.9-11.6,9.5-19.1,10.4l-0.5,0
					c-3.1,0.3-5.9,2.1-7.4,4.7C310.9,95.9,310.9,96.2,311,96.5z"/>
				<path class="st3" d="M290.5,37.9c0,0,0,0.1,0,0.1c0.2,0.5,0.8,0.8,1.4,0.5c6.5-2.9,13.4-4.7,20.5-5.5L313,33
					c10.5-1,20.7,3.8,26.7,12.5c0.3,0.5,1,0.6,1.4,0.3c0.5-0.3,0.6-1,0.3-1.4c-6.2-9-16.8-14.1-27.7-13.4l0,0l-0.9,0.1
					c-7.6,0.7-14.9,2.6-21.8,5.7C290.6,36.8,290.4,37.4,290.5,37.9z"/>
			</g>
			<g>
				<path class="st3" d="M377,100c0.3-0.4,0.8-0.5,1.3-0.3c7.3,3.6,12.9,9.4,16.4,16.7c0.2,0.5,0,1.1-0.5,1.4
					c-0.5,0.2-1.1,0-1.4-0.5c-3.3-6.9-8.6-12.3-15.4-15.7c-0.5-0.3-0.7-0.9-0.5-1.4C376.9,100.1,376.9,100.1,377,100z"/>
				<path class="st3" d="M394.8,121.3c0.1-0.2,0.3-0.3,0.5-0.4c0.5-0.2,1.1,0.2,1.3,0.7c2.5,8.5,1.7,17.6-2.2,25.6
					c-3.5,7.1-9.1,12.6-16.1,16.1c-0.5,0.3-1.1,0-1.4-0.5c-0.3-0.5,0-1.1,0.5-1.4c6.6-3.3,11.9-8.5,15.2-15.2
					c3.7-7.5,4.4-16.1,2.1-24.1C394.6,121.9,394.6,121.6,394.8,121.3z"/>
				<path class="st3" d="M346.5,161.8c0.3-0.4,0.8-0.5,1.3-0.3c7.7,3.8,16.5,4.5,24.7,1.9c0.5-0.2,1.1,0.1,1.3,0.7
					c0.2,0.5-0.1,1.1-0.7,1.3c-8.7,2.7-18,2-26.2-2.1c-0.5-0.3-0.7-0.9-0.5-1.4C346.5,161.9,346.5,161.8,346.5,161.8z"/>
				<path class="st3" d="M340.2,157.8C340.2,157.7,340.2,157.7,340.2,157.8c0.4-0.5,1-0.5,1.5-0.2c1.9,1.5,4,2.8,6.2,3.9
					c0.5,0.3,0.7,0.9,0.5,1.4c-0.3,0.5-0.9,0.7-1.4,0.5c-2.3-1.2-4.5-2.6-6.5-4.2C339.9,158.8,339.8,158.2,340.2,157.8z"/>
				<path class="st3" d="M375.6,99.4c0.3-0.4,0.8-0.5,1.2-0.3c0.5,0.2,0.9,0.4,1.4,0.7c0.5,0.3,0.7,0.9,0.5,1.4
					c-0.3,0.5-0.9,0.7-1.4,0.5c-0.4-0.2-0.9-0.4-1.3-0.6c-0.5-0.2-0.8-0.8-0.5-1.4C375.5,99.5,375.6,99.5,375.6,99.4z"/>
				<path class="st3" d="M340.8,103.5c0.1-0.2,0.4-0.3,0.6-0.4c0.6-0.1,1.1,0.3,1.2,0.8c2.3,11.7,9.7,21.4,20.4,26.6
					c0.5,0.3,0.7,0.9,0.5,1.4c-0.2,0.5-0.9,0.7-1.4,0.5c-11.2-5.5-19.1-15.8-21.5-28.1C340.6,104.1,340.7,103.8,340.8,103.5z"/>
				<path class="st3" d="M344.8,101c0.2-0.2,0.4-0.4,0.7-0.4c0.6-0.1,1.1,0.3,1.2,0.9c0.6,4.5,2.1,8.7,4.5,12.6
					c0.3,0.5,0.1,1.1-0.4,1.4c-0.5,0.3-1.1,0.1-1.4-0.4c-2.5-4.1-4.1-8.6-4.8-13.4C344.5,101.4,344.6,101.2,344.8,101z"/>
				<path class="st3" d="M337.2,106.8c0.1-0.2,0.3-0.3,0.6-0.4c0.6-0.1,1.1,0.2,1.3,0.7c3.1,11.9,11.1,21.9,22.2,27.3l0.3,0.1
					c1.6,0.6,3.4-0.1,4.1-1.6c0.7-1.5,0.2-3.3-1.1-4.2l-0.4-0.2c-4.4-2.2-8.2-5.2-11.4-8.9c-0.4-0.4-0.3-1.1,0.1-1.5
					c0.4-0.4,1.1-0.3,1.5,0.1c2.8,3.3,6.1,5.9,9.8,7.9l0,0l0.9,0.4c2.6,1.3,3.7,4.5,2.4,7.2c-1.3,2.6-4.5,3.7-7.2,2.4l-0.8-0.4l0,0
					c-11.1-5.8-19.3-16-22.4-28.2C336.9,107.4,337,107,337.2,106.8z"/>
				<path class="st3" d="M348.9,99c0.2-0.2,0.4-0.4,0.7-0.4c0.6-0.1,1.1,0.4,1.1,0.9c0.9,9.4,6.3,17.8,14.5,22.5
					c0.5,0.3,0.7,0.9,0.4,1.4c-0.3,0.5-0.9,0.7-1.4,0.4c-8.7-5-14.5-14-15.5-24.1C348.6,99.4,348.7,99.2,348.9,99z"/>
				<path class="st3" d="M350,133.7c0.3-0.4,1-0.5,1.4-0.2c2.4,1.8,5,3.5,7.8,4.8l0.4,0.2c1.7,0.7,3.6,0.8,5.4,0.2
					c1.9-0.7,3.5-2,4.4-3.8c1.3-2.7,0.9-6-1-8.3c-0.4-0.4-0.3-1.1,0.1-1.5c0.4-0.4,1.1-0.3,1.5,0.1c2.5,2.9,3,7.1,1.3,10.6
					c-1.1,2.3-3.1,4-5.6,4.9c-2.4,0.8-5.1,0.7-7.4-0.5l-0.8-0.4l0,0c-2.6-1.3-5-2.9-7.3-4.6C349.8,134.8,349.7,134.2,350,133.7
					C350,133.7,350,133.7,350,133.7z"/>
				<path class="st3" d="M333.8,110.8c0.1-0.2,0.3-0.3,0.5-0.3c0.5-0.2,1.1,0.1,1.3,0.7c2.3,7.2,6.4,13.7,11.8,19
					c0.4,0.4,0.4,1,0,1.5c-0.4,0.4-1,0.4-1.5,0c-5.6-5.5-9.9-12.3-12.3-19.8C333.6,111.4,333.6,111,333.8,110.8z"/>
				<path class="st3" d="M353.1,97.6c0.2-0.2,0.4-0.4,0.8-0.4c0.6,0,1.1,0.4,1.1,1c0.5,8.7,5.5,16.5,13.2,20.6l0.6,0.3
					c6.9,3.4,9.8,11.8,6.4,18.7c-0.6,1.2-1.3,2.2-2.2,3.2c-0.4,0.4-1,0.5-1.5,0.1c-0.4-0.4-0.5-1-0.1-1.5c0.7-0.8,1.4-1.7,1.8-2.7
					c2.8-5.7,0.6-12.6-4.9-15.7l-0.5-0.2c-8.7-4.3-14.4-12.9-15-22.6C352.8,98,352.9,97.8,353.1,97.6z"/>
				<path class="st3" d="M331,115.5c0.1-0.1,0.3-0.3,0.4-0.3c0.5-0.2,1.1,0,1.3,0.6c4.7,11.6,13.4,21,24.6,26.5l0.4,0.2
					c3,1.4,6.5,1.4,9.6,0.1c0.5-0.2,1.1,0,1.4,0.5c0.2,0.5,0,1.1-0.5,1.4c-3.8,1.6-8,1.5-11.7-0.3l-0.7-0.4l0,0
					c-11.3-5.8-20.1-15.4-24.8-27.2C330.7,116.1,330.8,115.8,331,115.5z"/>
				<path class="st3" d="M357.3,96.8c0.2-0.2,0.5-0.4,0.8-0.4c0.6,0,1,0.4,1.1,1c0.1,3.5,1.1,7,3,10.1c0.3,0.5,0.1,1.1-0.3,1.4
					c-0.5,0.3-1.1,0.1-1.4-0.3c-2-3.3-3.1-7.2-3.3-11.1C357.1,97.2,357.2,96.9,357.3,96.8z"/>
				<path class="st3" d="M338,134.3c0,0,0.1-0.1,0.1-0.1c0.4-0.4,1.1-0.4,1.5,0.1c4.5,4.9,9.9,8.8,15.9,11.8l0.3,0.1
					c8,3.7,17.5,0.4,21.4-7.5c3.9-7.8,0.8-17.3-6.9-21.4l-0.5-0.2c-2.1-1-4-2.4-5.6-3.9c-0.4-0.4-0.4-1,0-1.5c0.4-0.4,1-0.4,1.5,0
					c1.4,1.3,2.9,2.4,4.6,3.3l0.5,0.3c9,4.5,12.8,15.4,8.3,24.5c-4.4,9-15.4,12.7-24.5,8.3l-0.6-0.3l0,0c-6-3-11.3-7.1-15.9-11.9
					C337.7,135.3,337.7,134.7,338,134.3z"/>
				<path class="st3" d="M328.8,121c0.1-0.1,0.2-0.2,0.4-0.3c0.5-0.3,1.1,0,1.4,0.5c1.6,3.1,3.4,6.2,5.6,8.9
					c0.3,0.5,0.3,1.1-0.2,1.4c-0.5,0.3-1.1,0.3-1.4-0.2c-2.2-2.9-4.1-6-5.8-9.3C328.5,121.8,328.5,121.3,328.8,121z"/>
				<path class="st3" d="M327.5,127.6c0.1-0.1,0.2-0.2,0.3-0.2c0.5-0.3,1.1-0.1,1.4,0.3c5.8,9.5,14.1,17.1,24.1,22.1l0.2,0.1
					c2.7,1.3,5.5,2,8.5,2.1c0.6,0,1,0.5,1,1.1c0,0.6-0.5,1-1.1,1c-3.1-0.1-6.2-0.8-9-2.2l0,0l-0.3-0.2c-10.4-5.1-19.1-13.1-25.2-23
					C327.2,128.4,327.2,127.9,327.5,127.6z"/>
				<path class="st3" d="M366.6,151.9c0.1-0.2,0.3-0.3,0.6-0.4c6-1.4,11-5.4,13.8-10.9c0.7-1.4,1.2-2.9,1.6-4.5
					c0.1-0.6,0.7-0.9,1.2-0.8c0.6,0.1,0.9,0.7,0.8,1.2c-0.4,1.7-1,3.3-1.8,4.9c-3,6.1-8.5,10.5-15.2,12c-0.6,0.1-1.1-0.2-1.2-0.8
					C366.3,152.4,366.4,152.1,366.6,151.9z"/>
				<path class="st3" d="M361.6,96.5c0.2-0.2,0.5-0.4,0.8-0.4c0.6,0,1,0.4,1,1c0.1,5.9,3.4,11.2,8.6,14l0.5,0.2
					c7.6,3.7,12.4,11.3,12.6,19.7c0,0.6-0.4,1-1,1.1c-0.6,0-1-0.4-1.1-1c-0.2-7.5-4.4-14.2-10.9-17.6l-0.5-0.2
					c-6.2-3-10.1-9.2-10.2-16C361.4,96.9,361.5,96.7,361.6,96.5z"/>
				<path class="st3" d="M366,96.7c0.2-0.2,0.5-0.4,0.8-0.4c0.6,0,1,0.4,1.1,1c0.2,4.2,2.6,8,6.2,9.9l0.4,0.2
					c1.3,0.6,2.5,1.4,3.7,2.2c0.5,0.3,0.6,1,0.2,1.4c-0.3,0.5-1,0.6-1.4,0.2c-0.9-0.6-1.9-1.2-2.9-1.8l-0.5-0.2
					c-4.6-2.3-7.5-6.8-7.8-11.9C365.7,97.2,365.8,96.9,366,96.7z"/>
				<path class="st3" d="M347.3,152.5c0.3-0.4,0.9-0.5,1.3-0.3c0.8,0.5,1.7,0.9,2.5,1.3l0.4,0.2c12.3,6.1,27.2,1,33.2-11.3
					c2.3-4.6,3-9.6,2.3-14.7c-0.7-4.9-2.9-9.4-6.2-13.1c-0.4-0.4-0.4-1.1,0.1-1.5c0.4-0.4,1.1-0.4,1.5,0.1c3.6,3.9,6,8.8,6.8,14.2
					c0.8,5.4,0,10.9-2.5,15.9c-6.4,13-22.1,18.6-35.3,12.5l0,0l-0.7-0.3c-1-0.5-2.1-1-3.1-1.6c-0.5-0.3-0.7-0.9-0.4-1.4
					C347.3,152.6,347.3,152.5,347.3,152.5z"/>
				<path class="st3" d="M327.6,135.4c0.1-0.1,0.1-0.1,0.2-0.2c0.5-0.3,1.1-0.3,1.4,0.2c4.2,5.4,9.1,10.1,14.8,14
					c0.5,0.3,0.6,1,0.3,1.4c-0.3,0.5-1,0.6-1.4,0.3c-5.9-4-11-8.8-15.3-14.4C327.3,136.3,327.3,135.8,327.6,135.4z"/>
				<path class="st3" d="M370.4,97.6c0.2-0.2,0.4-0.3,0.6-0.4c0.6-0.1,1.1,0.3,1.2,0.8c0.4,2.3,1.8,4.3,3.9,5.4l0.3,0.1
					c7.5,3.7,13.1,10.1,15.7,17.9c2.7,7.9,2.1,16.3-1.6,23.8c-1.5,3.1-3.6,6-6,8.4c-0.4,0.4-1.1,0.4-1.5,0c-0.4-0.4-0.4-1.1,0-1.5
					c2.3-2.3,4.2-4.9,5.6-7.8c3.4-7,4-14.9,1.4-22.2c-2.4-7.2-7.5-13-14.2-16.5l-0.5-0.2c-2.8-1.4-4.7-4-5.3-7.1
					C370.1,98.1,370.2,97.8,370.4,97.6z"/>
				<path class="st3" d="M330.4,145.1C330.4,145,330.4,145,330.4,145.1c0.5-0.5,1.1-0.5,1.5-0.1c5,5,10.8,9.2,17.2,12.4l0.6,0.3
					c9.5,4.7,20.7,3.8,29.4-2.1c0.5-0.3,1.1-0.2,1.4,0.3c0.3,0.5,0.2,1.1-0.3,1.4c-9.1,6.2-20.7,7.2-30.7,2.7l0,0l-0.8-0.4
					c-6.8-3.4-13-7.7-18.3-13C330.1,146.1,330.1,145.5,330.4,145.1z"/>
			</g>
		</g>
	</g>
	<g>
		<path class="st3" d="M25.4,319.8v-17.2h7.7c1.6,0,2.8,0.2,3.8,0.5c0.9,0.3,1.7,0.9,2.2,1.6c0.5,0.7,0.8,1.5,0.8,2.3
			c0,0.7-0.2,1.4-0.7,2.1c-0.5,0.7-1.2,1.2-2.2,1.6c1.2,0.3,2.2,0.8,2.9,1.6c0.7,0.7,1,1.6,1,2.6c0,0.8-0.2,1.6-0.6,2.3
			c-0.4,0.7-0.9,1.2-1.5,1.6c-0.6,0.4-1.3,0.7-2.2,0.9c-0.9,0.2-2,0.3-3.3,0.3H25.4z M28.1,309.8h4.4c1.2,0,2.1-0.1,2.6-0.2
			c0.7-0.2,1.2-0.5,1.6-0.9c0.3-0.4,0.5-0.9,0.5-1.5c0-0.6-0.2-1.1-0.5-1.5c-0.3-0.4-0.8-0.7-1.4-0.9c-0.6-0.2-1.6-0.2-3.1-0.2h-4.1
			V309.8z M28.1,317.7h5.1c0.9,0,1.5,0,1.8-0.1c0.6-0.1,1.1-0.3,1.6-0.5s0.8-0.5,1-1c0.3-0.4,0.4-0.9,0.4-1.5c0-0.6-0.2-1.2-0.6-1.7
			c-0.4-0.5-0.9-0.8-1.6-1c-0.7-0.2-1.7-0.3-3-0.3h-4.7V317.7z"/>
		<path class="st3" d="M58,302.5h2.7v10c0,1.7-0.2,3.1-0.7,4.1c-0.5,1-1.3,1.8-2.5,2.5c-1.2,0.6-2.8,1-4.8,1c-1.9,0-3.5-0.3-4.7-0.8
			c-1.2-0.6-2.1-1.4-2.6-2.4c-0.5-1.1-0.8-2.5-0.8-4.3v-10h2.7v9.9c0,1.5,0.2,2.6,0.5,3.3c0.3,0.7,0.9,1.3,1.7,1.6
			c0.8,0.4,1.8,0.6,3,0.6c2,0,3.4-0.4,4.3-1.1c0.8-0.8,1.3-2.2,1.3-4.4V302.5z"/>
		<path class="st3" d="M65.7,319.8v-17.2h2.7v17.2H65.7z"/>
		<path class="st3" d="M73,319.8v-17.2h2.7v15.2h10.1v2H73z"/>
		<path class="st3" d="M89.1,319.8v-17.2h7.1c1.6,0,2.8,0.1,3.6,0.2c1.2,0.2,2.2,0.6,3,1.2c1.1,0.8,1.9,1.8,2.4,2.9
			c0.5,1.2,0.8,2.6,0.8,4.1c0,1.3-0.2,2.5-0.5,3.5c-0.4,1-0.8,1.8-1.4,2.5c-0.6,0.7-1.2,1.2-1.9,1.6c-0.7,0.4-1.5,0.7-2.4,0.9
			c-1,0.2-2.1,0.3-3.3,0.3H89.1z M91.8,317.7h4.4c1.3,0,2.4-0.1,3.2-0.3c0.8-0.2,1.4-0.5,1.8-0.9c0.6-0.5,1.1-1.3,1.5-2.2
			c0.4-0.9,0.5-2,0.5-3.3c0-1.8-0.4-3.2-1.1-4.2c-0.7-1-1.6-1.6-2.6-1.9c-0.7-0.2-1.9-0.4-3.5-0.4h-4.3V317.7z"/>
		<path class="st3" d="M110.2,319.8v-17.2h2.7v17.2H110.2z"/>
		<path class="st3" d="M117.6,319.8v-17.2h2.8l10.8,13.5v-13.5h2.6v17.2H131l-10.8-13.5v13.5H117.6z"/>
		<path class="st3" d="M147.9,313v-2l8.7,0v6.4c-1.3,0.9-2.7,1.6-4.1,2c-1.4,0.5-2.9,0.7-4.4,0.7c-2,0-3.8-0.4-5.5-1.1
			c-1.6-0.7-2.9-1.8-3.7-3.1c-0.8-1.4-1.3-2.9-1.3-4.6c0-1.7,0.4-3.2,1.2-4.7c0.8-1.5,2-2.5,3.6-3.2s3.4-1.1,5.4-1.1
			c1.5,0,2.8,0.2,4,0.6c1.2,0.4,2.1,1,2.8,1.7c0.7,0.7,1.2,1.7,1.5,2.8l-2.4,0.6c-0.3-0.9-0.7-1.6-1.1-2.1c-0.5-0.5-1.1-0.9-2-1.2
			c-0.8-0.3-1.8-0.5-2.8-0.5c-1.2,0-2.3,0.2-3.2,0.5c-0.9,0.3-1.6,0.7-2.2,1.3s-1,1.1-1.3,1.7c-0.5,1.1-0.8,2.2-0.8,3.5
			c0,1.5,0.3,2.8,0.9,3.9c0.6,1,1.5,1.8,2.7,2.3c1.2,0.5,2.5,0.8,3.8,0.8c1.2,0,2.3-0.2,3.4-0.6c1.1-0.4,2-0.8,2.5-1.2V313H147.9z"
			/>
		<path class="st3" d="M164.7,319.8l7.9-17.2h2.9l8.4,17.2h-3.1l-2.4-5.2h-8.6l-2.2,5.2H164.7z M170.6,312.7h6.9l-2.1-4.8
			c-0.7-1.5-1.1-2.6-1.5-3.6c-0.3,1.1-0.6,2.2-1.1,3.3L170.6,312.7z"/>
		<path class="st3" d="M192.3,319.8v-17.2h4.1l4.8,12.2c0.4,1.1,0.8,2,1,2.6c0.2-0.6,0.6-1.5,1.1-2.8l4.9-12h3.6v17.2h-2.6v-14.4
			l-5.9,14.4h-2.4l-5.9-14.7v14.7H192.3z"/>
		<path class="st3" d="M216.2,319.8v-17.2H231v2h-12.1v5.3h11.3v2h-11.3v5.9h12.6v2H216.2z"/>
		<path class="st3" d="M235.2,319.8v-17.2h2.8l10.8,13.5v-13.5h2.6v17.2h-2.8l-10.8-13.5v13.5H235.2z"/>
		<path class="st3" d="M261.1,319.8v-15.2h-6.7v-2h16.2v2h-6.8v15.2H261.1z"/>
		<path class="st3" d="M269,319.8l7.9-17.2h2.9l8.4,17.2h-3.1l-2.4-5.2h-8.6l-2.2,5.2H269z M274.9,312.7h6.9l-2.1-4.8
			c-0.7-1.5-1.1-2.6-1.5-3.6c-0.3,1.1-0.6,2.2-1.1,3.3L274.9,312.7z"/>
		<path class="st3" d="M290.2,319.8v-17.2h2.7v15.2H303v2H290.2z"/>
		<path class="st3" d="M316.7,319.8l-5.4-17.2h2.8l3.1,11.3c0.3,1.2,0.6,2.4,0.9,3.5c0.5-1.8,0.8-2.9,0.9-3.2l3.9-11.6h3.3l2.9,8.7
			c0.7,2.2,1.3,4.2,1.6,6.1c0.3-1.1,0.6-2.3,1-3.8l3.2-11.1h2.7l-5.6,17.2h-2.6l-4.3-13.1c-0.4-1.1-0.6-1.8-0.6-2
			c-0.2,0.8-0.4,1.5-0.6,2l-4.3,13.1H316.7z"/>
		<path class="st3" d="M340.2,319.8v-17.2H355v2h-12.1v5.3h11.3v2h-11.3v5.9h12.6v2H340.2z"/>
		<path class="st3" d="M359.1,319.8v-17.2h2.7v15.2h10.1v2H359.1z"/>
		<path class="st3" d="M375,319.8v-17.2h2.7v15.2h10.1v2H375z"/>
		<path class="st3" d="M390.9,319.8v-17.2h7.7c1.6,0,2.8,0.2,3.8,0.5c0.9,0.3,1.7,0.9,2.2,1.6c0.5,0.7,0.8,1.5,0.8,2.3
			c0,0.7-0.2,1.4-0.7,2.1c-0.5,0.7-1.2,1.2-2.2,1.6c1.2,0.3,2.2,0.8,2.9,1.6c0.7,0.7,1,1.6,1,2.6c0,0.8-0.2,1.6-0.6,2.3
			c-0.4,0.7-0.9,1.2-1.5,1.6c-0.6,0.4-1.3,0.7-2.2,0.9c-0.9,0.2-2,0.3-3.3,0.3H390.9z M393.6,309.8h4.4c1.2,0,2.1-0.1,2.6-0.2
			c0.7-0.2,1.2-0.5,1.6-0.9c0.3-0.4,0.5-0.9,0.5-1.5c0-0.6-0.2-1.1-0.5-1.5c-0.3-0.4-0.8-0.7-1.4-0.9c-0.6-0.2-1.6-0.2-3.1-0.2h-4.1
			V309.8z M393.6,317.7h5.1c0.9,0,1.5,0,1.8-0.1c0.6-0.1,1.1-0.3,1.6-0.5c0.4-0.2,0.8-0.5,1-1c0.3-0.4,0.4-0.9,0.4-1.5
			c0-0.6-0.2-1.2-0.6-1.7c-0.4-0.5-0.9-0.8-1.6-1c-0.7-0.2-1.7-0.3-3-0.3h-4.7V317.7z"/>
		<path class="st3" d="M410.1,319.8v-17.2h14.8v2h-12.1v5.3h11.3v2h-11.3v5.9h12.6v2H410.1z"/>
		<path class="st3" d="M429.6,319.8v-17.2h2.7v17.2H429.6z"/>
		<path class="st3" d="M437,319.8v-17.2h2.8l10.8,13.5v-13.5h2.6v17.2h-2.8l-10.8-13.5v13.5H437z"/>
		<path class="st3" d="M467.3,313v-2l8.7,0v6.4c-1.3,0.9-2.7,1.6-4.1,2c-1.4,0.5-2.9,0.7-4.4,0.7c-2,0-3.8-0.4-5.5-1.1
			c-1.6-0.7-2.9-1.8-3.7-3.1c-0.8-1.4-1.3-2.9-1.3-4.6c0-1.7,0.4-3.2,1.2-4.7c0.8-1.5,2-2.5,3.6-3.2c1.6-0.7,3.4-1.1,5.4-1.1
			c1.5,0,2.8,0.2,4,0.6c1.2,0.4,2.1,1,2.8,1.7c0.7,0.7,1.2,1.7,1.5,2.8l-2.4,0.6c-0.3-0.9-0.7-1.6-1.1-2.1s-1.1-0.9-2-1.2
			c-0.8-0.3-1.8-0.5-2.8-0.5c-1.2,0-2.3,0.2-3.2,0.5c-0.9,0.3-1.6,0.7-2.2,1.3c-0.6,0.5-1,1.1-1.3,1.7c-0.5,1.1-0.8,2.2-0.8,3.5
			c0,1.5,0.3,2.8,0.9,3.9c0.6,1,1.5,1.8,2.7,2.3c1.2,0.5,2.5,0.8,3.8,0.8c1.2,0,2.3-0.2,3.4-0.6c1.1-0.4,2-0.8,2.5-1.2V313H467.3z"
			/>
		<path class="st3" d="M502.5,313.7l2.7,0.6c-0.6,1.9-1.6,3.3-3.1,4.3c-1.5,1-3.3,1.5-5.4,1.5c-2.2,0-4-0.4-5.4-1.1
			c-1.4-0.8-2.4-1.9-3.2-3.3c-0.7-1.4-1.1-3-1.1-4.6c0-1.8,0.4-3.4,1.2-4.7c0.8-1.3,2-2.4,3.5-3c1.5-0.7,3.2-1,5-1
			c2,0,3.8,0.4,5.2,1.3c1.4,0.9,2.4,2.1,2.9,3.7l-2.7,0.5c-0.5-1.3-1.2-2.2-2.1-2.7s-2-0.9-3.4-0.9c-1.6,0-2.9,0.3-3.9,1
			c-1.1,0.6-1.8,1.5-2.2,2.6c-0.4,1.1-0.6,2.2-0.6,3.3c0,1.5,0.3,2.7,0.8,3.8c0.5,1.1,1.3,1.9,2.4,2.5s2.2,0.8,3.5,0.8
			c1.5,0,2.8-0.4,3.9-1.1C501.4,316.3,502.1,315.2,502.5,313.7z"/>
		<path class="st3" d="M522,302.5h2.7v10c0,1.7-0.2,3.1-0.7,4.1c-0.5,1-1.3,1.8-2.5,2.5c-1.2,0.6-2.8,1-4.8,1
			c-1.9,0-3.5-0.3-4.7-0.8s-2.1-1.4-2.6-2.4c-0.5-1.1-0.8-2.5-0.8-4.3v-10h2.7v9.9c0,1.5,0.2,2.6,0.5,3.3c0.3,0.7,0.9,1.3,1.7,1.6
			c0.8,0.4,1.8,0.6,3,0.6c2,0,3.4-0.4,4.3-1.1c0.8-0.8,1.3-2.2,1.3-4.4V302.5z"/>
		<path class="st3" d="M529.1,319.8v-17.2h2.7v15.2h10.1v2H529.1z"/>
		<path class="st3" d="M548.2,319.8v-15.2h-6.7v-2h16.2v2h-6.8v15.2H548.2z"/>
		<path class="st3" d="M573.9,302.5h2.7v10c0,1.7-0.2,3.1-0.7,4.1c-0.5,1-1.3,1.8-2.5,2.5c-1.2,0.6-2.8,1-4.8,1
			c-1.9,0-3.5-0.3-4.7-0.8s-2.1-1.4-2.6-2.4c-0.5-1.1-0.8-2.5-0.8-4.3v-10h2.7v9.9c0,1.5,0.2,2.6,0.5,3.3c0.3,0.7,0.9,1.3,1.7,1.6
			c0.8,0.4,1.8,0.6,3,0.6c2,0,3.4-0.4,4.3-1.1c0.8-0.8,1.3-2.2,1.3-4.4V302.5z"/>
		<path class="st3" d="M581.2,319.8v-17.2h9.1c1.8,0,3.2,0.2,4.2,0.5c0.9,0.3,1.7,0.9,2.3,1.6c0.6,0.8,0.9,1.7,0.9,2.6
			c0,1.2-0.5,2.3-1.4,3.1c-0.9,0.8-2.4,1.4-4.4,1.6c0.7,0.3,1.3,0.6,1.6,0.9c0.8,0.6,1.5,1.4,2.2,2.3l3.6,4.7h-3.4l-2.7-3.6
			c-0.8-1-1.4-1.8-2-2.4c-0.5-0.5-1-0.9-1.4-1.2c-0.4-0.2-0.8-0.4-1.2-0.5c-0.3-0.1-0.8-0.1-1.5-0.1h-3.1v7.7H581.2z M583.9,310.2
			h5.8c1.2,0,2.2-0.1,2.9-0.3c0.7-0.2,1.2-0.6,1.6-1c0.4-0.5,0.5-1,0.5-1.5c0-0.8-0.4-1.5-1.1-2c-0.7-0.5-1.8-0.8-3.3-0.8h-6.5
			V310.2z"/>
		<path class="st3" d="M601.8,319.8v-17.2h14.8v2h-12.1v5.3h11.3v2h-11.3v5.9h12.6v2H601.8z"/>
	</g>
	<g>
		<path class="st3" d="M27.1,195.3h26.2c17.4,0,30,5.5,30,21.5v3.8c0,8.6-4.2,15.5-10.7,18.6c7.1,3.3,11.9,10.4,11.9,19.2v3.8
			c0,15.4-12.7,22.1-31.3,22.1H37.6c0,0-10.5-0.1-10.5-6.4V195.3z M37.8,204v30.8h16.5c13.6,0,18.3-5.6,18.3-16.1
			c0-10.8-6.2-14.6-19.3-14.6H37.8z M37.8,243.6v31.9h15.5c14.4,0,20.6-4.4,20.6-15.2c0-10.4-6-16.6-19.6-16.6H37.8z"/>
		<path class="st3" d="M101.5,230.3v54.8c0,0-10.2,0-10.2-6.4v-59c2.9,1.5,5.5,2,7.8,2c5.3,0,9.7-2.7,16.6-2.7c8.9,0,15,3.4,15,10.3
			c0,3-1.1,5.7-3.6,9c0-7-6.1-10.3-13.5-10.3C106.9,228.2,101.5,230.3,101.5,230.3z"/>
		<path class="st3" d="M142.1,198.9c2.9-2.9,5.6-6,5.6-8.8c0-1-0.3-1.9-0.8-2.9c5.3,1.8,14.4,7.9,3.7,16.6l-10.2,8.3
			c0,0-10.4-1.7-5.6-6.2L142.1,198.9z M134.9,220.7c0.6,0,10.2,0.1,10.2,6.4v58.5c0,0-10.2,0-10.2-6.4V220.7z"/>
		<path class="st3" d="M153.2,239.2c0-12.6,10.3-20.1,22.2-20.1c15.4,0,19.8,7,19.8,7s-1.3-2.9-1.3-11.6v-25.3
			c0.9,0,10.2-0.1,10.2,7.6v88.2c-2.8-1.3-6.5-1.7-8.6-1.7c-5.1,0-10.7,2.3-16.9,2.3c-16.1,0-25.4-7.4-25.4-20.2V239.2z M194,239.9
			c0-7.4-8.5-12.5-16.9-12.5c-7.9,0-13.7,4.2-13.7,13.7v22.5c0,9.3,3.7,13.9,16.8,13.9c9.5,0,13.9-3.2,13.9-3.2V239.9z"/>
		<path class="st3" d="M298,257.5c0,17.7-11.2,28.2-35.1,28.2c-24,0-35.1-10.5-35.1-28.2v-35.6c0-17.7,11.1-28.2,35.1-28.2
			c23.9,0,35.1,10.5,35.1,28.2V257.5z M287.3,223.6c0-13.2-3.9-21.1-24.5-21.1c-20.3,0-24.3,7.9-24.3,21.1v32.3
			c0,13.2,3.9,21.1,24.3,21.1c20.6,0,24.5-7.9,24.5-21.1V223.6z"/>
		<path class="st3" d="M309.6,195.3h6.2c1.1,0,2.3,1.1,2.3,2.4v8c0,7.8-1.7,15.8-8.4,15.8c-1.7,0-3.8-0.4-5.7-1.7
			c5.1-1,5.2-8.8,4.6-13l-1.9-11.6H309.6z"/>
		<path class="st3" d="M396.5,220.2c0-5.3,0.9-11.4,0.9-11.4l-28.2,57.7c0,0-6,0-9.9-6.4l-24-51.3c0,0,0.9,6.1,0.9,11.4v65.3
			c0,0-10.7,0-10.7-6.4v-83.9h7.8c0.5,0,6.2-0.1,9.3,6.4l23.6,50.7l27.3-57.1c3.1,0,13.7,0,13.7,6.4v83.9c0,0-10.7,0-10.7-6.4V220.2
			z"/>
		<path class="st3" d="M467.2,272.3c0,8.9-11.9,13.5-24.4,13.5c-16.1,0-26.2-7.6-26.2-20.5v-25.7c0-12.8,9.5-20.5,25.7-20.5
			c16.1,0,24.1,7.6,24.1,19.2c0,10.3-7,18.8-25.7,18.8c-4.3,0-10.9-0.9-14-3.1v9.3c0,8.9,5,13.5,16.8,13.5
			c11.1,0,20.3-4.6,20.3-13.5C466.1,266.7,467.2,269.6,467.2,272.3z M426.7,246c0.1,0.3,7.8,2.3,13.2,2.3c12.1,0,16.3-3.7,16.3-9.9
			c0-6.5-3.6-10.9-14-10.9c-11.3,0-15.5,5.2-15.5,14.1V246z"/>
		<path class="st3" d="M509.6,239.1c0-6.5-2.9-11.1-14.7-11.1c-11.8,0-19.8,4.6-19.8,13.5c-2.4-3.4-3.4-6.6-3.4-9.3
			c0-8.6,10.9-13.1,23.3-13.1c16.1,0,24.9,7.6,24.9,20.5v45.5c-3.1-1.3-5.7-1.7-8.4-1.7c-5.8,0-11.2,2.3-18.2,2.3
			c-11.6,0-23.5-5-23.5-18.7C469.7,242.5,505.2,251.3,509.6,239.1z M510,249.1c-2.4,8.5-30.1,2.9-30.1,18c0,5.6,4.2,10.4,15.1,10.4
			c9.3,0,15-3.4,15-3.4V249.1z"/>
		<path class="st3" d="M535.7,230.3v54.8c0,0-10.2,0-10.2-6.4v-59c2.9,1.5,5.5,2,7.8,2c5.3,0,9.7-2.7,16.6-2.7c8.9,0,15,3.4,15,10.3
			c0,3-1.1,5.7-3.6,9c0-7-6.1-10.3-13.5-10.3C541.1,228.2,535.7,230.3,535.7,230.3z"/>
		<path class="st3" d="M605.2,239.1c0-6.5-2.9-11.1-14.7-11.1c-11.8,0-19.8,4.6-19.8,13.5c-2.4-3.4-3.4-6.6-3.4-9.3
			c0-8.6,10.9-13.1,23.3-13.1c16.1,0,24.9,7.6,24.9,20.5v45.5c-3.1-1.3-5.7-1.7-8.4-1.7c-5.8,0-11.2,2.3-18.2,2.3
			c-11.6,0-23.5-5-23.5-18.7C565.3,242.5,600.8,251.3,605.2,239.1z M605.6,249.1c-2.4,8.5-30.1,2.9-30.1,18
			c0,5.6,4.2,10.4,15.1,10.4c9.3,0,15-3.4,15-3.4V249.1z"/>
	</g>
</g>
</svg>
