<?xml version="1.0" encoding="UTF-8" standalone="no"?>
<svg
   xmlns:dc="http://purl.org/dc/elements/1.1/"
   xmlns:cc="http://creativecommons.org/ns#"
   xmlns:rdf="http://www.w3.org/1999/02/22-rdf-syntax-ns#"
   xmlns:svg="http://www.w3.org/2000/svg"
   xmlns="http://www.w3.org/2000/svg"
   xmlns:sodipodi="http://sodipodi.sourceforge.net/DTD/sodipodi-0.dtd"
   xmlns:inkscape="http://www.inkscape.org/namespaces/inkscape"
   inkscape:version="1.0 (4035a4f, 2020-05-01)"
   height="164.5"
   width="781"
   sodipodi:docname="BridOMeara_Landscape_Final_Logo.svg"
   xml:space="preserve"
   viewBox="0 0 780.99998 164.5"
   y="0px"
   x="0px"
   id="Layer_1"
   version="1.1"><metadata
   id="metadata267"><rdf:RDF><cc:Work
       rdf:about=""><dc:format>image/svg+xml</dc:format><dc:type
         rdf:resource="http://purl.org/dc/dcmitype/StillImage" /><dc:title></dc:title></cc:Work></rdf:RDF></metadata><defs
   id="defs265" /><sodipodi:namedview
   inkscape:current-layer="Layer_1"
   inkscape:window-maximized="1"
   inkscape:window-y="23"
   inkscape:window-x="0"
   inkscape:cy="79.750002"
   inkscape:cx="393.45"
   inkscape:zoom="1.3045546"
   fit-margin-bottom="0"
   fit-margin-right="0"
   fit-margin-left="0"
   fit-margin-top="0"
   showgrid="false"
   id="namedview263"
   inkscape:window-height="1005"
   inkscape:window-width="1680"
   inkscape:pageshadow="2"
   inkscape:pageopacity="0"
   guidetolerance="10"
   gridtolerance="10"
   objecttolerance="10"
   borderopacity="1"
   bordercolor="#666666"
   pagecolor="#ffffff" />
<style
   id="style10"
   type="text/css">
	.st0{fill:#8CD2D1;}
	.st1{fill:#FAA61A;}
	.st2{fill:#E98EBC;}
	.st3{fill:#808285;}
</style>
<g
   transform="translate(-27,-25.399998)"
   id="g260">
	<circle
   id="circle12"
   r="36.700001"
   cy="62.099998"
   cx="98.599998"
   class="st0" />
	<circle
   id="circle14"
   r="36.700001"
   cy="153.2"
   cx="66.900002"
   class="st1" />
	<circle
   id="circle16"
   r="36.700001"
   cy="133.60001"
   cx="159.7"
   class="st2" />
	<g
   id="g170">
		<path
   id="path18"
   d="m 152.9,180.5 c -22.2,0.4 -40.6,-16.4 -41.6,-37.8 0,-0.5 -0.1,-0.9 -0.1,-1.4 -0.1,-2.7 0.1,-5.4 0.6,-8 0.5,-2.6 1.2,-5.2 2.2,-7.7 1,-2.5 2.3,-4.9 3.8,-7.1 3,-4.5 6.9,-8.4 11.4,-11.4 v 0 c 0,0 0,0 0,0 2.6,-1.5 5,-3.4 7.2,-5.4 2.2,-2 4.2,-4.3 5.9,-6.8 1.7,-2.5 3.2,-5.1 4.4,-7.9 1.2,-2.8 2,-5.7 2.6,-8.6 0.6,-3 0.8,-6 0.7,-9 -0.2,-6 -1.6,-12 -4.3,-17.4 -0.7,-1.3 -1.4,-2.7 -2.2,-3.9 -0.8,-1.3 -1.7,-2.5 -2.7,-3.7 -1.9,-2.3 -4.1,-4.5 -6.4,-6.3 -2.4,-1.9 -5,-3.5 -7.7,-4.7 -2.7,-1.3 -5.6,-2.3 -8.6,-2.9 -2,-0.4 -4.1,-0.7 -6.2,-0.8 19.1,2.9 34,18.8 34.3,38.2 0.1,6.7 -1.5,13 -4.4,18.6 -0.9,2 -2,3.9 -3.3,5.7 -1.5,2.2 -3.3,4.2 -5.2,6.1 -2,1.8 -4.1,3.5 -6.4,4.9 -2.3,1.4 -4.7,2.6 -7.3,3.5 -2.5,0.9 -5.2,1.6 -7.8,1.9 -2.7,0.4 -5.4,0.5 -8.1,0.3 -5.4,-0.3 -10.7,-1.8 -15.5,-4.2 v 0 c 0,0 0,0 0,0 -0.5,-0.3 -1,-0.5 -1.5,-0.8 -0.1,-0.1 -0.2,-0.1 -0.3,-0.2 -2.1,-1 -4.2,-1.9 -6.4,-2.5 -2.9,-0.9 -5.8,-1.5 -8.8,-1.7 -3,-0.3 -6,-0.2 -9,0.2 -3,0.4 -5.9,1.1 -8.8,2 -2.8,1 -5.6,2.3 -8.1,3.9 -5.1,3.1 -9.6,7.4 -12.9,12.4 -0.8,1.3 -1.6,2.6 -2.3,3.9 -0.7,1.3 -1.3,2.7 -1.8,4.1 -0.5,1.4 -1,2.8 -1.3,4.2 5.4,-15.2 20.2,-26.3 37.8,-26.6 3.7,-0.1 7.3,0.3 10.7,1.2 1.1,0.2 2.2,0.5 3.2,0.8 2.6,0.8 5.1,1.8 7.4,3.1 2.4,1.3 4.6,2.8 6.6,4.5 2,1.7 3.9,3.7 5.6,5.8 1.7,2.1 3.1,4.4 4.3,6.8 2.4,4.8 3.8,10.1 4.2,15.5 v 0 c 0,0 0,0 0,0 0.1,3 0.4,6 1.1,8.9 0.7,2.9 1.6,5.8 2.9,8.5 1.3,2.7 2.8,5.3 4.6,7.7 1.8,2.4 3.9,4.6 6.1,6.6 2.3,2 4.8,3.7 7.4,5.1 5.3,2.9 11.2,4.6 17.2,4.9 1.5,0.1 3,0.1 4.5,0 1.5,-0.1 3,-0.2 4.5,-0.5 3,-0.5 5.9,-1.3 8.7,-2.4 2.8,-1.1 5.5,-2.6 8,-4.3 0.7,-0.5 1.4,-1 2.1,-1.6 -6,3.9 -13.2,6.1 -21,6.3 z"
   class="st3" />
		<g
   id="g68">
			<path
   id="path20"
   d="m 90.2,170.2 c 0.3,0.4 0.2,1 -0.2,1.3 -6,5.6 -13.4,8.9 -21.6,9.5 -0.6,0 -1.1,-0.4 -1.1,-1 0,-0.6 0.4,-1.1 1,-1.1 7.7,-0.6 14.7,-3.7 20.3,-9 0.4,-0.4 1.1,-0.4 1.5,0 0,0.2 0,0.3 0.1,0.3 z"
   class="st3" />
			<path
   id="path22"
   d="m 63.7,179.5 c 0.1,0.2 0.2,0.4 0.2,0.6 0,0.6 -0.5,1 -1.1,1 -8.9,-0.7 -17.2,-4.7 -23.4,-11.2 -5.4,-5.8 -8.7,-13.1 -9.5,-21 -0.1,-0.6 0.4,-1.1 0.9,-1.1 0.6,-0.1 1.1,0.4 1.1,0.9 0.7,7.4 3.8,14.3 8.9,19.7 5.8,6.2 13.6,9.9 22,10.6 0.5,0 0.7,0.2 0.9,0.5 z"
   class="st3" />
			<path
   id="path24"
   d="m 42.7,119.5 c 0.3,0.4 0.2,1 -0.2,1.3 -6.3,5.9 -10.1,14 -10.6,22.6 0,0.6 -0.5,1 -1.1,1 -0.6,0 -1,-0.5 -1,-1.1 0.5,-9.2 4.6,-17.7 11.3,-24 0.4,-0.4 1.1,-0.4 1.5,0 0,0.1 0,0.1 0.1,0.2 z"
   class="st3" />
			<path
   id="path26"
   d="m 48.8,114.9 c 0,0 0,0 0,0 0.3,0.5 0.1,1.1 -0.4,1.4 -2.1,1.2 -4.1,2.7 -5.9,4.4 -0.4,0.4 -1.1,0.4 -1.5,0 -0.4,-0.4 -0.4,-1.1 0,-1.5 1.9,-1.8 4,-3.4 6.3,-4.7 0.5,-0.2 1.2,-0.1 1.5,0.4 z"
   class="st3" />
			<path
   id="path28"
   d="m 91.2,169.2 c 0.2,0.4 0.2,0.9 -0.1,1.3 -0.4,0.4 -0.7,0.7 -1.1,1.1 -0.4,0.4 -1.1,0.4 -1.5,0 -0.4,-0.4 -0.4,-1.1 0,-1.5 0.4,-0.3 0.7,-0.7 1.1,-1 0.4,-0.4 1.1,-0.4 1.5,0 0,-0.1 0.1,0 0.1,0.1 z"
   class="st3" />
			<path
   id="path30"
   d="m 99.7,134.8 c 0.1,0.2 0.2,0.5 0.1,0.7 -0.1,0.6 -0.6,0.9 -1.2,0.9 -11.8,-2 -23.7,1.5 -32.4,9.7 -0.4,0.4 -1.1,0.4 -1.5,0 -0.4,-0.4 -0.4,-1.1 0,-1.5 9.2,-8.6 21.7,-12.4 34.2,-10.3 0.4,0.1 0.7,0.3 0.8,0.5 z"
   class="st3" />
			<path
   id="path32"
   d="m 100.8,139.5 c 0.1,0.2 0.2,0.5 0.1,0.8 -0.1,0.6 -0.7,0.9 -1.2,0.8 -4.5,-1 -9,-1.1 -13.5,-0.3 -0.6,0.1 -1.1,-0.3 -1.2,-0.8 -0.1,-0.6 0.3,-1.1 0.8,-1.2 4.8,-0.9 9.6,-0.8 14.3,0.3 0.3,0 0.5,0.1 0.7,0.4 z"
   class="st3" />
			<path
   id="path34"
   d="m 98,130.2 c 0.1,0.2 0.2,0.4 0.1,0.7 -0.1,0.6 -0.6,1 -1.1,0.9 -12.3,-1.4 -24.6,2.7 -33.7,11.2 l -0.2,0.2 c -1.1,1.3 -1.1,3.2 0.1,4.5 1.1,1.2 3,1.4 4.4,0.4 l 0.3,-0.3 c 3.6,-3.4 7.8,-5.9 12.4,-7.6 0.5,-0.2 1.1,0.1 1.3,0.6 0.2,0.5 -0.1,1.1 -0.6,1.3 -4.1,1.4 -7.7,3.6 -11,6.5 v 0 l -0.7,0.7 c -2.2,2 -5.6,1.9 -7.6,-0.3 -2,-2.2 -1.9,-5.6 0.3,-7.6 l 0.7,-0.6 v 0 c 9.4,-8.5 22,-12.5 34.7,-11.1 0.1,0.1 0.4,0.2 0.6,0.5 z"
   class="st3" />
			<path
   id="path36"
   d="m 101.2,144 c 0.1,0.2 0.2,0.5 0.1,0.8 -0.2,0.6 -0.7,0.9 -1.3,0.7 -9.2,-2.5 -19.1,-0.4 -26.4,5.6 -0.4,0.4 -1.1,0.3 -1.5,-0.1 -0.4,-0.4 -0.3,-1.1 0.1,-1.5 7.9,-6.5 18.4,-8.7 28.3,-6 0.3,0.2 0.5,0.3 0.7,0.5 z"
   class="st3" />
			<path
   id="path38"
   d="m 67.9,132.8 c 0.3,0.5 0.2,1.1 -0.3,1.4 -2.6,1.6 -5.1,3.5 -7.3,5.6 l -0.3,0.3 c -1.3,1.4 -2.1,3.2 -2.1,5.1 -0.1,2 0.7,4 2.1,5.5 2.1,2.2 5.3,3 8.2,2 0.5,-0.2 1.1,0.1 1.3,0.6 0.2,0.5 -0.1,1.1 -0.6,1.3 -3.7,1.3 -7.8,0.3 -10.4,-2.5 -1.8,-1.9 -2.7,-4.4 -2.6,-7 0.1,-2.6 1.2,-5 3.1,-6.8 l 0.7,-0.6 v 0 c 2.2,-2 4.5,-3.7 7,-5.2 0.3,-0.4 0.9,-0.2 1.2,0.3 0,0 0,0 0,0 z"
   class="st3" />
			<path
   id="path40"
   d="m 95.4,125.7 c 0.1,0.2 0.2,0.4 0.2,0.6 0,0.6 -0.5,1 -1.1,1 -7.6,-0.4 -15.3,1.2 -22.1,4.4 -0.5,0.2 -1.1,0 -1.4,-0.5 -0.2,-0.5 0,-1.1 0.5,-1.4 7.2,-3.4 15.2,-5 23.1,-4.6 0.3,0 0.6,0.2 0.8,0.5 z"
   class="st3" />
			<path
   id="path42"
   d="m 101,148.5 c 0.2,0.2 0.2,0.6 0.1,0.9 -0.2,0.5 -0.8,0.9 -1.3,0.7 -8.4,-2.6 -17.6,-0.7 -24.2,5.2 l -0.5,0.5 c -5.7,5.3 -14.6,5 -19.9,-0.7 -0.9,-1 -1.6,-2 -2.2,-3.2 -0.3,-0.5 -0.1,-1.1 0.4,-1.4 0.5,-0.3 1.1,-0.1 1.4,0.4 0.5,1 1.2,1.9 1.9,2.7 4.4,4.7 11.7,5.1 16.6,0.9 l 0.4,-0.4 c 7.1,-6.7 17.4,-9 26.7,-6.1 0.3,0.2 0.5,0.3 0.6,0.5 z"
   class="st3" />
			<path
   id="path44"
   d="m 92,121.3 c 0.1,0.2 0.1,0.3 0.2,0.5 0,0.6 -0.4,1 -1,1.1 -12.6,0.3 -24.6,5.2 -33.8,13.8 l -0.3,0.3 c -2.4,2.4 -3.7,5.7 -3.5,9 0,0.6 -0.4,1.1 -1,1.1 -0.6,0 -1.1,-0.4 -1.1,-1 -0.2,-4.1 1.4,-8.1 4.5,-10.9 l 0.6,-0.6 v 0 c 9.5,-8.6 21.7,-13.5 34.5,-13.8 0.3,0 0.7,0.2 0.9,0.5 z"
   class="st3" />
			<path
   id="path46"
   d="m 100.2,152.9 c 0.2,0.3 0.2,0.6 0.1,0.9 -0.2,0.5 -0.8,0.8 -1.3,0.6 -3.4,-1.2 -7,-1.4 -10.5,-0.8 -0.6,0.1 -1.1,-0.3 -1.2,-0.8 -0.1,-0.6 0.3,-1.1 0.8,-1.2 3.9,-0.7 7.9,-0.4 11.6,0.9 0.2,0 0.4,0.2 0.5,0.4 z"
   class="st3" />
			<path
   id="path48"
   d="m 71.7,121.1 c 0,0 0.1,0.1 0.1,0.2 0.2,0.5 0,1.1 -0.6,1.4 -6.2,2.5 -11.9,6.2 -16.8,10.8 l -0.2,0.2 c -6.4,6.2 -6.6,16.4 -0.6,22.9 6,6.4 16.1,6.9 22.7,1.1 l 0.4,-0.4 c 1.7,-1.6 3.6,-2.9 5.7,-3.9 0.5,-0.2 1.1,0 1.4,0.5 0.2,0.5 0,1.1 -0.5,1.4 -1.7,0.8 -3.3,1.9 -4.8,3.2 l -0.4,0.4 C 70.7,165.8 59,165.5 52,158 c -6.9,-7.4 -6.5,-19.1 0.9,-26 l 0.5,-0.4 v 0 c 5,-4.6 10.7,-8.2 16.9,-10.8 0.6,-0.3 1.1,-0.1 1.4,0.3 z"
   class="st3" />
			<path
   id="path50"
   d="m 87.5,117.2 c 0.1,0.1 0.1,0.3 0.1,0.4 0.1,0.6 -0.4,1.1 -0.9,1.1 -3.5,0.4 -7,1 -10.4,2.1 -0.6,0.2 -1.1,-0.1 -1.3,-0.7 -0.2,-0.5 0.1,-1.1 0.7,-1.3 3.5,-1.1 7.2,-1.8 10.8,-2.1 0.4,0 0.8,0.2 1,0.5 z"
   class="st3" />
			<path
   id="path52"
   d="m 81.7,113.6 c 0.1,0.1 0.1,0.2 0.1,0.4 0.1,0.6 -0.3,1.1 -0.8,1.2 -11,2.1 -21.2,7.3 -29.5,14.9 l -0.2,0.2 c -2.2,2.1 -3.9,4.5 -5,7.3 -0.2,0.5 -0.8,0.8 -1.4,0.6 -0.5,-0.2 -0.8,-0.8 -0.6,-1.4 1.2,-2.9 3,-5.5 5.2,-7.7 v 0 l 0.3,-0.3 c 8.6,-8 19.2,-13.4 30.7,-15.6 0.6,-0.1 1,0.1 1.2,0.4 z"
   class="st3" />
			<path
   id="path54"
   d="m 44.9,142 c 0.1,0.2 0.2,0.4 0.1,0.7 -0.8,6.2 1.1,12.3 5.4,16.9 1.1,1.2 2.3,2.2 3.6,3.1 0.5,0.3 0.6,1 0.3,1.4 -0.3,0.5 -1,0.6 -1.4,0.3 -1.5,-1 -2.8,-2.1 -4,-3.4 -4.7,-5 -6.8,-11.8 -5.9,-18.6 0.1,-0.6 0.6,-1 1.2,-0.9 0.3,0 0.5,0.2 0.7,0.5 z"
   class="st3" />
			<path
   id="path56"
   d="m 99,157 c 0.2,0.3 0.2,0.6 0.1,0.9 -0.2,0.5 -0.8,0.8 -1.3,0.6 -5.6,-2 -11.8,-0.8 -16.3,3.1 l -0.4,0.4 c -6.2,5.8 -15.1,7.7 -23.1,4.9 -0.5,-0.2 -0.8,-0.8 -0.6,-1.3 0.2,-0.5 0.8,-0.8 1.3,-0.6 7.1,2.5 14.9,0.9 20.6,-4 l 0.4,-0.4 c 5.1,-4.7 12.3,-6.2 18.8,-3.9 0.2,0 0.4,0.1 0.5,0.3 z"
   class="st3" />
			<path
   id="path58"
   d="m 97.2,161 c 0.2,0.3 0.2,0.6 0.1,0.9 -0.2,0.5 -0.8,0.8 -1.3,0.7 -4,-1.3 -8.4,-0.4 -11.6,2.4 l -0.3,0.3 c -1.1,1 -2.2,1.9 -3.4,2.7 -0.5,0.3 -1.1,0.2 -1.4,-0.3 -0.3,-0.5 -0.2,-1.1 0.3,-1.4 0.9,-0.6 1.8,-1.3 2.7,-2.1 l 0.4,-0.4 c 3.8,-3.5 9.1,-4.7 14,-3.1 0.2,-0.1 0.4,0.1 0.5,0.3 z"
   class="st3" />
			<path
   id="path60"
   d="m 51.2,123.5 c 0.3,0.4 0.2,1 -0.2,1.3 -0.7,0.6 -1.5,1.3 -2.2,1.9 l -0.4,0.3 c -10.1,9.4 -10.6,25.3 -1.2,35.4 3.5,3.8 8,6.3 13,7.4 4.9,1 9.9,0.6 14.6,-1.2 0.5,-0.2 1.1,0 1.4,0.6 0.2,0.5 0,1.1 -0.6,1.4 -5,2 -10.5,2.5 -15.8,1.3 -5.4,-1.2 -10.3,-3.9 -14.1,-8 -10,-10.7 -9.6,-27.5 0.7,-37.8 v 0 l 0.6,-0.5 c 0.8,-0.8 1.7,-1.6 2.6,-2.3 0.4,-0.4 1.1,-0.3 1.5,0.1 0,0.1 0,0.1 0.1,0.1 z"
   class="st3" />
			<path
   id="path62"
   d="m 74.3,111 c 0,0.1 0.1,0.2 0.1,0.2 0.2,0.5 -0.1,1.1 -0.7,1.3 -6.6,2 -12.8,5 -18.5,9 -0.5,0.3 -1.1,0.2 -1.4,-0.2 -0.3,-0.5 -0.2,-1.1 0.2,-1.4 5.8,-4.1 12.2,-7.3 19.1,-9.3 0.5,-0.2 1,0 1.2,0.4 z"
   class="st3" />
			<path
   id="path64"
   d="m 94.8,164.9 c 0.1,0.2 0.2,0.5 0.1,0.7 -0.1,0.6 -0.7,0.9 -1.2,0.8 -2.3,-0.5 -4.7,0.2 -6.5,1.7 l -0.2,0.2 c -6.1,5.7 -14.1,8.7 -22.5,8.5 -8.4,-0.3 -16.2,-3.8 -21.9,-9.9 -2.4,-2.6 -4.4,-5.5 -5.8,-8.7 -0.2,-0.5 0,-1.1 0.5,-1.4 0.5,-0.2 1.1,0 1.4,0.5 1.3,3 3.1,5.7 5.4,8.1 5.4,5.7 12.6,9 20.5,9.3 7.7,0.3 15,-2.4 20.6,-7.5 l 0.4,-0.4 c 2.3,-2.1 5.5,-3.1 8.6,-2.4 0.2,0.1 0.5,0.2 0.6,0.5 z"
   class="st3" />
			<path
   id="path66"
   d="m 64.2,110.2 c 0,0 0,0.1 0.1,0.1 0.2,0.5 0,1.1 -0.5,1.4 -6.5,3 -12.5,7 -17.8,11.9 l -0.4,0.4 c -7.8,7.3 -11,18.2 -8.5,28.5 0.1,0.6 -0.2,1.1 -0.8,1.3 -0.6,0.1 -1.1,-0.2 -1.3,-0.8 -2.7,-10.8 0.5,-22.2 8.4,-29.9 v 0 l 0.7,-0.6 C 49.7,117.3 56,113 63,109.8 c 0.4,-0.2 0.9,-0.1 1.2,0.4 z"
   class="st3" />
		</g>
		<g
   id="g118">
			<path
   id="path70"
   d="m 108.5,104.6 c 0.1,0.5 0.6,0.8 1.1,0.7 8.1,-0.8 15.6,-4.2 21.4,-9.8 0.4,-0.4 0.4,-1.1 0,-1.5 -0.4,-0.4 -1.1,-0.4 -1.5,0 -5.5,5.3 -12.5,8.5 -20.2,9.3 -0.6,0.1 -1,0.6 -0.9,1.1 0.1,0.1 0.1,0.2 0.1,0.2 z"
   class="st3" />
			<path
   id="path72"
   d="m 133,91 c 0.1,0.2 0.2,0.4 0.4,0.5 0.5,0.3 1.1,0.3 1.5,-0.2 5.4,-7.2 7.9,-16 7.1,-24.9 -0.8,-7.9 -4,-15.2 -9.4,-21 -0.4,-0.4 -1,-0.4 -1.5,-0.1 -0.4,0.4 -0.4,1 -0.1,1.5 5.1,5.5 8.2,12.3 8.9,19.8 0.8,8.4 -1.6,16.8 -6.7,23.5 -0.3,0.2 -0.3,0.6 -0.2,0.9 z"
   class="st3" />
			<path
   id="path74"
   d="m 101.9,35.4 c 0.1,0.5 0.6,0.8 1.1,0.7 8.6,-0.8 17.2,1.7 24,7 0.5,0.4 1.1,0.3 1.5,-0.2 0.4,-0.5 0.3,-1.1 -0.2,-1.5 -7.3,-5.7 -16.3,-8.3 -25.5,-7.5 -0.6,0.1 -1,0.6 -0.9,1.1 0,0.3 0,0.4 0,0.4 z"
   class="st3" />
			<path
   id="path76"
   d="m 94.5,37 c 0,0 0,0 0,0 0.2,0.6 0.8,0.9 1.3,0.7 2.3,-0.8 4.8,-1.3 7.2,-1.5 0.6,-0.1 1,-0.6 0.9,-1.1 -0.1,-0.6 -0.6,-1 -1.1,-0.9 -2.6,0.2 -5.2,0.8 -7.7,1.6 -0.5,0 -0.8,0.6 -0.6,1.2 z"
   class="st3" />
			<path
   id="path78"
   d="m 107,104.7 c 0.1,0.4 0.6,0.8 1,0.7 0.5,0 1,-0.1 1.6,-0.1 0.6,-0.1 1,-0.6 0.9,-1.1 -0.1,-0.6 -0.6,-1 -1.1,-0.9 -0.5,0 -1,0.1 -1.5,0.1 -0.6,0 -1,0.5 -1,1.1 0,0.1 0.1,0.1 0.1,0.2 z"
   class="st3" />
			<path
   id="path80"
   d="m 75.7,88.3 c 0.1,0.2 0.2,0.4 0.4,0.6 0.5,0.3 1.1,0.2 1.4,-0.3 6.3,-10.2 16.8,-16.7 28.8,-17.8 0.6,-0.1 1,-0.6 0.9,-1.1 -0.1,-0.6 -0.6,-1 -1.1,-0.9 -12.6,1.2 -23.7,8.1 -30.3,18.8 -0.2,0.2 -0.2,0.5 -0.1,0.7 z"
   class="st3" />
			<path
   id="path82"
   d="m 78.4,92.2 c 0.1,0.3 0.2,0.5 0.5,0.6 0.5,0.3 1.1,0.1 1.4,-0.4 2.2,-4 5.2,-7.5 8.8,-10.3 0.5,-0.4 0.5,-1 0.2,-1.5 -0.4,-0.5 -1,-0.5 -1.5,-0.2 -3.8,3 -6.9,6.7 -9.3,10.9 -0.1,0.3 -0.1,0.6 -0.1,0.9 z"
   class="st3" />
			<path
   id="path84"
   d="m 73.4,84 c 0.1,0.2 0.2,0.4 0.4,0.5 0.5,0.3 1.1,0.2 1.4,-0.3 C 82.4,74 93.5,67.6 105.9,66.4 h 0.3 c 1.7,0 3.2,1.3 3.3,3 0.2,1.7 -1,3.2 -2.6,3.6 h -0.5 c -4.9,0.5 -9.6,1.9 -13.9,4.3 -0.5,0.3 -0.7,0.9 -0.4,1.4 0.3,0.5 0.9,0.7 1.4,0.4 3.8,-2.1 7.8,-3.4 12.1,-3.9 v 0 l 1,-0.1 c 3,-0.3 5.2,-2.9 4.9,-5.9 -0.3,-3 -2.9,-5.2 -5.9,-4.9 l -0.9,0.1 v 0 c -12.6,1.5 -24,8.2 -31.3,18.6 -0.1,0.3 -0.1,0.7 0,1 z"
   class="st3" />
			<path
   id="path86"
   d="m 81.6,95.5 c 0.1,0.3 0.3,0.5 0.5,0.6 0.5,0.3 1.1,0 1.4,-0.5 4.2,-8.5 12.3,-14.5 21.7,-16 0.6,-0.1 1,-0.6 0.9,-1.2 -0.1,-0.6 -0.6,-1 -1.2,-0.9 -10,1.6 -18.7,8 -23.2,17.2 -0.2,0.3 -0.2,0.6 -0.1,0.8 z"
   class="st3" />
			<path
   id="path88"
   d="m 95.2,63.2 c 0.2,0.5 0.7,0.9 1.3,0.7 2.9,-0.9 6,-1.5 9,-1.8 h 0.4 c 1.9,-0.1 3.7,0.5 5.2,1.8 1.6,1.3 2.6,3.1 2.7,5.2 0.3,3.1 -1.3,6 -4,7.5 -0.5,0.3 -0.7,0.9 -0.4,1.4 0.3,0.5 0.9,0.7 1.4,0.4 3.4,-1.9 5.4,-5.6 5,-9.5 -0.2,-2.6 -1.5,-4.9 -3.5,-6.6 -2,-1.7 -4.5,-2.4 -7.1,-2.2 l -0.9,0.1 v 0 c -2.9,0.3 -5.8,0.9 -8.5,1.7 -0.5,0.1 -0.8,0.7 -0.6,1.3 0,0 0,0 0,0 z"
   class="st3" />
			<path
   id="path90"
   d="m 71.6,79 c 0.1,0.2 0.2,0.4 0.3,0.5 0.4,0.4 1.1,0.3 1.5,-0.2 4.8,-5.9 11,-10.7 17.9,-13.7 0.5,-0.2 0.8,-0.8 0.5,-1.4 -0.2,-0.5 -0.8,-0.8 -1.4,-0.5 -7.3,3.1 -13.7,8.1 -18.7,14.3 -0.1,0.4 -0.2,0.7 -0.1,1 z"
   class="st3" />
			<path
   id="path92"
   d="m 85.1,98.4 c 0.1,0.3 0.3,0.5 0.6,0.6 0.5,0.2 1.1,0 1.4,-0.5 3.6,-8 11.2,-13.6 19.9,-14.7 h 0.7 c 7.7,-0.7 13.4,-7.6 12.7,-15.4 -0.1,-1.3 -0.4,-2.6 -0.9,-3.8 -0.2,-0.5 -0.8,-0.8 -1.3,-0.6 -0.5,0.2 -0.8,0.8 -0.6,1.3 0.4,1 0.7,2.1 0.8,3.2 0.6,6.4 -4,12.1 -10.3,13 h -0.5 c -9.7,0.9 -18.2,7 -22.2,16 -0.4,0.4 -0.4,0.6 -0.3,0.9 z"
   class="st3" />
			<path
   id="path94"
   d="m 70.6,73.5 c 0.1,0.2 0.1,0.3 0.3,0.5 0.4,0.4 1.1,0.4 1.5,-0.1 8.5,-9.2 20.2,-15 32.7,-16.2 h 0.4 c 3.4,-0.2 6.7,1 9.1,3.4 0.4,0.4 1.1,0.4 1.5,0 0.4,-0.4 0.4,-1.1 0,-1.5 -3,-2.9 -7,-4.3 -11.1,-3.9 l -0.8,0.1 v 0 C 91.5,57.2 79.7,63.1 71,72.5 c -0.4,0.3 -0.5,0.7 -0.4,1 z"
   class="st3" />
			<path
   id="path96"
   d="m 88.8,100.7 c 0.1,0.3 0.3,0.5 0.6,0.7 0.5,0.2 1.1,0 1.4,-0.6 1.4,-3.3 3.6,-6.2 6.4,-8.4 0.5,-0.4 0.5,-1 0.2,-1.5 -0.4,-0.5 -1,-0.5 -1.5,-0.2 -3.1,2.4 -5.5,5.6 -7,9.3 -0.2,0.2 -0.2,0.4 -0.1,0.7 z"
   class="st3" />
			<path
   id="path98"
   d="m 84,58.2 c 0,0.1 0,0.1 0.1,0.2 0.3,0.5 0.9,0.7 1.4,0.5 6,-3 12.5,-4.8 19.2,-5.4 h 0.3 c 8.9,-0.7 16.7,5.9 17.5,14.8 0.8,8.8 -5.5,16.6 -14.2,17.8 h -0.6 c -2.3,0.2 -4.6,0.8 -6.7,1.7 -0.5,0.2 -0.8,0.8 -0.6,1.4 0.2,0.5 0.8,0.8 1.4,0.6 1.8,-0.7 3.6,-1.2 5.5,-1.5 h 0.6 c 10.1,-1 17.6,-10 16.6,-20.1 -1,-10.1 -10,-17.6 -20.1,-16.6 l -0.7,0.1 v 0 C 97.1,52.2 90.6,54 84.5,57 84.1,57.2 83.9,57.8 84,58.2 Z"
   class="st3" />
			<path
   id="path100"
   d="m 70.5,67.5 c 0,0.1 0.1,0.3 0.2,0.4 0.4,0.4 1,0.4 1.5,0.1 2.6,-2.4 5.4,-4.6 8.5,-6.4 0.5,-0.3 0.6,-0.9 0.3,-1.4 -0.3,-0.5 -0.9,-0.6 -1.4,-0.3 -3.1,1.9 -6.1,4.2 -8.8,6.7 -0.3,0.1 -0.4,0.5 -0.3,0.9 z"
   class="st3" />
			<path
   id="path102"
   d="m 71.7,60.8 c 0,0.1 0.1,0.2 0.2,0.3 0.4,0.5 1,0.5 1.5,0.2 8.9,-6.9 19.5,-11.1 30.7,-12.2 h 0.2 c 3,-0.3 6,0.1 8.8,1.1 0.5,0.2 1.1,-0.1 1.3,-0.6 0.2,-0.5 -0.1,-1.1 -0.6,-1.3 -3,-1 -6.1,-1.4 -9.3,-1.2 v 0 h -0.4 c -11.7,1.1 -22.8,5.5 -32,12.6 -0.4,0.3 -0.5,0.7 -0.4,1.1 z"
   class="st3" />
			<path
   id="path104"
   d="m 117.3,52 c 0.1,0.2 0.2,0.4 0.4,0.6 5.2,3.5 8.5,9 9.1,15.2 0.2,1.6 0.1,3.2 -0.1,4.8 -0.1,0.6 0.3,1.1 0.9,1.2 0.6,0.1 1.1,-0.3 1.2,-0.9 0.2,-1.7 0.3,-3.5 0.1,-5.3 -0.6,-6.8 -4.3,-12.9 -10,-16.8 -0.5,-0.3 -1.1,-0.2 -1.4,0.3 -0.2,0.3 -0.3,0.6 -0.2,0.9 z"
   class="st3" />
			<path
   id="path106"
   d="m 92.8,102.5 c 0.1,0.3 0.3,0.5 0.6,0.7 0.5,0.2 1.1,0 1.4,-0.6 2.2,-5.5 7.2,-9.4 13.1,-10.1 h 0.5 c 8.5,-0.8 15.7,-6.2 18.9,-14.1 0.2,-0.5 0,-1.1 -0.6,-1.4 -0.5,-0.2 -1.1,0 -1.4,0.6 -2.9,7 -9.2,11.8 -16.6,12.7 h -0.6 c -6.9,0.7 -12.8,5.1 -15.4,11.5 0,0.2 0,0.5 0.1,0.7 z"
   class="st3" />
			<path
   id="path108"
   d="m 96.9,103.8 c 0.1,0.3 0.3,0.5 0.6,0.7 0.5,0.2 1.1,0 1.4,-0.5 1.7,-3.9 5.3,-6.6 9.5,-7.1 h 0.4 c 1.4,-0.1 2.9,-0.4 4.3,-0.7 0.6,-0.1 0.9,-0.7 0.7,-1.3 -0.1,-0.6 -0.7,-0.9 -1.3,-0.7 -1.1,0.3 -2.2,0.5 -3.4,0.6 h -0.6 c -5.1,0.5 -9.6,3.7 -11.6,8.4 0,0.1 0,0.4 0,0.6 z"
   class="st3" />
			<path
   id="path110"
   d="m 99.4,44.5 c 0.1,0.5 0.6,0.8 1.1,0.7 0.9,-0.1 1.9,-0.3 2.9,-0.4 h 0.5 c 13.7,-1.3 26,8.8 27.3,22.5 0.5,5.1 -0.6,10.2 -3.1,14.6 -2.5,4.4 -6.1,7.9 -10.6,10.1 -0.5,0.3 -0.7,0.9 -0.5,1.4 0.3,0.5 0.9,0.7 1.4,0.5 4.8,-2.4 8.8,-6.2 11.5,-10.9 2.7,-4.8 3.9,-10.3 3.4,-15.9 -1.4,-14.6 -14.2,-25.4 -28.8,-24.5 v 0 l -0.8,0.1 c -1.2,0.1 -2.3,0.3 -3.5,0.4 -0.6,0.1 -1,0.6 -0.9,1.2 0,0.1 0,0.1 0.1,0.2 z"
   class="st3" />
			<path
   id="path112"
   d="m 74.6,53.5 c 0,0.1 0.1,0.2 0.1,0.2 0.3,0.5 0.9,0.6 1.4,0.3 5.9,-3.6 12.3,-6.3 19,-7.9 0.6,-0.1 0.9,-0.7 0.8,-1.2 -0.1,-0.6 -0.7,-0.9 -1.2,-0.8 -6.9,1.6 -13.5,4.4 -19.6,8.1 -0.4,0.4 -0.6,0.9 -0.5,1.3 z"
   class="st3" />
			<path
   id="path114"
   d="m 101.4,104.6 c 0.1,0.2 0.2,0.5 0.5,0.6 0.5,0.3 1.1,0.1 1.4,-0.4 1.2,-2 3.3,-3.4 5.6,-3.7 h 0.3 c 8.4,-0.8 15.9,-4.8 21.3,-11.3 5.4,-6.5 7.9,-14.6 7.1,-23 -0.3,-3.5 -1.2,-6.9 -2.7,-10.1 -0.2,-0.5 -0.9,-0.8 -1.4,-0.5 -0.5,0.2 -0.8,0.9 -0.5,1.4 1.4,3 2.2,6.1 2.5,9.4 0.7,7.8 -1.6,15.4 -6.6,21.5 -4.9,5.9 -11.7,9.6 -19.3,10.5 h -0.5 c -3.1,0.3 -5.9,2.1 -7.5,4.8 -0.3,0.2 -0.3,0.5 -0.2,0.8 z"
   class="st3" />
			<path
   id="path116"
   d="m 80.7,45.4 c 0,0 0,0.1 0,0.1 0.2,0.5 0.8,0.8 1.4,0.5 6.6,-2.9 13.5,-4.8 20.7,-5.5 l 0.6,-0.1 c 10.6,-1 20.9,3.8 27,12.6 0.3,0.5 1,0.6 1.4,0.3 0.5,-0.3 0.6,-1 0.3,-1.4 -6.3,-9.1 -17,-14.3 -28,-13.5 v 0 l -0.9,0.1 c -7.6,0.7 -15,2.7 -22,5.7 -0.4,0.2 -0.6,0.7 -0.5,1.2 z"
   class="st3" />
		</g>
		<g
   id="g168">
			<path
   id="path120"
   d="m 168,108.1 c 0.3,-0.4 0.8,-0.5 1.3,-0.3 7.3,3.6 13.1,9.4 16.5,16.8 0.2,0.5 0,1.1 -0.5,1.4 -0.5,0.2 -1.1,0 -1.4,-0.5 -3.3,-7 -8.7,-12.4 -15.6,-15.8 -0.5,-0.3 -0.7,-0.9 -0.5,-1.4 0.1,0 0.2,-0.1 0.2,-0.2 z"
   class="st3" />
			<path
   id="path122"
   d="m 186,129.6 c 0.1,-0.2 0.3,-0.3 0.5,-0.4 0.6,-0.2 1.1,0.2 1.3,0.7 2.5,8.6 1.7,17.8 -2.3,25.8 -3.5,7.1 -9.1,12.8 -16.3,16.3 -0.5,0.3 -1.1,0 -1.4,-0.5 -0.3,-0.5 0,-1.1 0.5,-1.4 6.7,-3.3 12,-8.6 15.3,-15.3 3.7,-7.6 4.5,-16.2 2.1,-24.3 0,-0.3 0.1,-0.6 0.3,-0.9 z"
   class="st3" />
			<path
   id="path124"
   d="m 137.3,170.5 c 0.3,-0.4 0.8,-0.5 1.3,-0.3 7.8,3.8 16.6,4.5 24.9,2 0.5,-0.2 1.1,0.1 1.3,0.7 0.2,0.5 -0.1,1.1 -0.7,1.3 -8.8,2.7 -18.2,2 -26.5,-2.1 -0.5,-0.3 -0.7,-0.9 -0.5,-1.4 0.1,-0.1 0.1,-0.2 0.2,-0.2 z"
   class="st3" />
			<path
   id="path126"
   d="m 130.8,166.4 c 0.1,0 0.1,0 0,0 0.4,-0.5 1,-0.5 1.5,-0.2 1.9,1.5 4,2.9 6.2,4 0.5,0.3 0.7,0.9 0.5,1.4 -0.3,0.5 -0.9,0.7 -1.4,0.5 -2.4,-1.2 -4.6,-2.6 -6.6,-4.2 -0.4,-0.4 -0.5,-1 -0.2,-1.5 z"
   class="st3" />
			<path
   id="path128"
   d="m 166.6,107.5 c 0.3,-0.4 0.8,-0.5 1.2,-0.3 0.5,0.2 1,0.4 1.4,0.7 0.5,0.3 0.7,0.9 0.5,1.4 -0.3,0.5 -0.9,0.7 -1.4,0.5 -0.4,-0.2 -0.9,-0.4 -1.3,-0.6 -0.5,-0.2 -0.8,-0.8 -0.5,-1.4 0,-0.1 0.1,-0.2 0.1,-0.3 z"
   class="st3" />
			<path
   id="path130"
   d="m 131.5,111.7 c 0.1,-0.2 0.4,-0.3 0.6,-0.4 0.6,-0.1 1.1,0.3 1.2,0.8 2.3,11.8 9.8,21.6 20.6,26.9 0.5,0.3 0.7,0.9 0.5,1.4 -0.3,0.5 -0.9,0.7 -1.4,0.5 -11.3,-5.6 -19.2,-15.9 -21.7,-28.4 0,-0.3 0,-0.6 0.2,-0.8 z"
   class="st3" />
			<path
   id="path132"
   d="m 135.5,109.1 c 0.2,-0.2 0.4,-0.4 0.7,-0.4 0.6,-0.1 1.1,0.3 1.2,0.9 0.6,4.5 2.2,8.8 4.5,12.7 0.3,0.5 0.1,1.1 -0.4,1.4 -0.5,0.3 -1.1,0.1 -1.4,-0.4 -2.5,-4.2 -4.1,-8.7 -4.8,-13.5 -0.1,-0.2 0,-0.5 0.2,-0.7 z"
   class="st3" />
			<path
   id="path134"
   d="m 127.8,115 c 0.1,-0.2 0.3,-0.3 0.6,-0.4 0.6,-0.1 1.1,0.2 1.3,0.7 3.1,12 11.2,22.1 22.4,27.6 l 0.3,0.1 c 1.6,0.6 3.4,-0.1 4.2,-1.6 0.7,-1.5 0.2,-3.3 -1.1,-4.2 l -0.4,-0.2 c -4.4,-2.2 -8.3,-5.2 -11.5,-9 -0.4,-0.4 -0.3,-1.1 0.1,-1.5 0.4,-0.4 1.1,-0.3 1.5,0.1 2.8,3.3 6.1,6 9.9,8 v 0 l 0.9,0.4 c 2.7,1.3 3.8,4.6 2.5,7.2 -1.3,2.7 -4.6,3.8 -7.2,2.5 l -0.8,-0.4 v 0 c -11.2,-5.8 -19.5,-16.2 -22.6,-28.5 -0.4,-0.3 -0.3,-0.6 -0.1,-0.8 z"
   class="st3" />
			<path
   id="path136"
   d="m 139.6,107.1 c 0.2,-0.2 0.4,-0.4 0.7,-0.4 0.6,-0.1 1.1,0.4 1.1,0.9 0.9,9.5 6.4,18 14.6,22.7 0.5,0.3 0.7,0.9 0.4,1.4 -0.3,0.5 -0.9,0.7 -1.4,0.4 -8.8,-5.1 -14.7,-14.2 -15.6,-24.3 0,-0.3 0.1,-0.5 0.2,-0.7 z"
   class="st3" />
			<path
   id="path138"
   d="m 140.8,142.1 c 0.3,-0.5 1,-0.5 1.5,-0.2 2.4,1.9 5.1,3.5 7.8,4.9 l 0.4,0.2 c 1.7,0.8 3.7,0.8 5.5,0.2 1.9,-0.7 3.5,-2 4.4,-3.9 1.4,-2.8 0.9,-6 -1.1,-8.4 -0.4,-0.4 -0.3,-1.1 0.1,-1.5 0.4,-0.4 1.1,-0.3 1.5,0.1 2.5,3 3.1,7.2 1.3,10.7 -1.2,2.3 -3.1,4.1 -5.6,4.9 -2.5,0.8 -5.1,0.7 -7.4,-0.5 l -0.8,-0.4 v 0 c -2.6,-1.3 -5.1,-2.9 -7.4,-4.7 -0.5,-0.2 -0.6,-0.9 -0.2,-1.4 0,0 0,0 0,0 z"
   class="st3" />
			<path
   id="path140"
   d="m 124.4,119 c 0.1,-0.2 0.3,-0.3 0.5,-0.4 0.5,-0.2 1.1,0.1 1.3,0.7 2.4,7.2 6.5,13.9 11.9,19.1 0.4,0.4 0.4,1.1 0,1.5 -0.4,0.4 -1.1,0.4 -1.5,0 -5.7,-5.5 -10,-12.4 -12.4,-20 0,-0.3 0,-0.7 0.2,-0.9 z"
   class="st3" />
			<path
   id="path142"
   d="m 143.9,105.7 c 0.2,-0.2 0.5,-0.4 0.8,-0.4 0.6,0 1.1,0.4 1.1,1 0.5,8.8 5.6,16.7 13.4,20.8 l 0.6,0.3 c 7,3.4 9.8,11.9 6.4,18.9 -0.6,1.2 -1.3,2.3 -2.2,3.2 -0.4,0.4 -1,0.5 -1.5,0.1 -0.4,-0.4 -0.5,-1 -0.1,-1.5 0.7,-0.8 1.4,-1.7 1.9,-2.7 2.8,-5.8 0.6,-12.8 -5,-15.8 l -0.5,-0.2 c -8.8,-4.3 -14.5,-13.1 -15.1,-22.8 -0.1,-0.5 0,-0.7 0.2,-0.9 z"
   class="st3" />
			<path
   id="path144"
   d="m 121.6,123.7 c 0.1,-0.1 0.3,-0.3 0.4,-0.3 0.5,-0.2 1.1,0 1.4,0.6 4.7,11.7 13.5,21.2 24.8,26.7 l 0.4,0.2 c 3.1,1.4 6.6,1.4 9.7,0.1 0.5,-0.2 1.1,0 1.4,0.5 0.2,0.5 0,1.1 -0.5,1.4 -3.8,1.6 -8.1,1.5 -11.8,-0.3 l -0.8,-0.4 v 0 c -11.4,-5.8 -20.3,-15.6 -25.1,-27.4 -0.2,-0.4 -0.2,-0.8 0.1,-1.1 z"
   class="st3" />
			<path
   id="path146"
   d="m 148.2,104.8 c 0.2,-0.2 0.5,-0.4 0.8,-0.4 0.6,0 1.1,0.4 1.1,1 0.1,3.6 1.1,7.1 3,10.1 0.3,0.5 0.1,1.1 -0.4,1.4 -0.5,0.3 -1.1,0.1 -1.4,-0.4 -2,-3.4 -3.2,-7.2 -3.3,-11.2 0,0 0,-0.3 0.2,-0.5 z"
   class="st3" />
			<path
   id="path148"
   d="m 128.6,142.8 c 0,0 0.1,-0.1 0.1,-0.1 0.4,-0.4 1.1,-0.4 1.5,0.1 4.6,4.9 10,8.9 16,11.9 l 0.3,0.1 c 8,3.8 17.7,0.4 21.6,-7.6 3.9,-7.9 0.8,-17.5 -6.9,-21.6 l -0.5,-0.2 c -2.1,-1 -4,-2.4 -5.7,-4 -0.4,-0.4 -0.4,-1.1 0,-1.5 0.4,-0.4 1.1,-0.4 1.5,0 1.4,1.3 2.9,2.4 4.6,3.3 l 0.5,0.3 c 9.1,4.5 12.9,15.6 8.4,24.7 -4.5,9.1 -15.6,12.9 -24.7,8.4 l -0.6,-0.3 v 0 c -6.1,-3.1 -11.5,-7.1 -16.1,-12.1 -0.3,-0.5 -0.3,-1 0,-1.4 z"
   class="st3" />
			<path
   id="path150"
   d="m 119.3,129.4 c 0.1,-0.1 0.2,-0.2 0.4,-0.3 0.5,-0.3 1.1,0 1.4,0.5 1.6,3.2 3.5,6.2 5.6,9 0.3,0.5 0.3,1.1 -0.2,1.5 -0.5,0.3 -1.1,0.3 -1.5,-0.2 -2.2,-2.9 -4.2,-6.1 -5.8,-9.4 -0.2,-0.4 -0.1,-0.8 0.1,-1.1 z"
   class="st3" />
			<path
   id="path152"
   d="m 118,136 c 0.1,-0.1 0.2,-0.2 0.3,-0.3 0.5,-0.3 1.1,-0.1 1.4,0.3 5.9,9.6 14.3,17.3 24.4,22.3 l 0.2,0.1 c 2.7,1.3 5.6,2.1 8.6,2.1 0.6,0 1,0.5 1,1.1 0,0.6 -0.5,1 -1.1,1 -3.2,-0.1 -6.2,-0.8 -9.1,-2.2 v 0 l -0.3,-0.2 C 132.9,155 124.1,147 118,137 c -0.3,-0.2 -0.2,-0.7 0,-1 z"
   class="st3" />
			<path
   id="path154"
   d="m 157.5,160.5 c 0.1,-0.2 0.3,-0.3 0.6,-0.4 6.1,-1.4 11.1,-5.4 13.9,-11 0.7,-1.4 1.3,-3 1.6,-4.5 0.1,-0.6 0.7,-0.9 1.2,-0.8 0.6,0.1 0.9,0.7 0.8,1.2 -0.4,1.7 -1,3.4 -1.8,5 -3,6.2 -8.6,10.6 -15.3,12.1 -0.6,0.1 -1.1,-0.2 -1.2,-0.8 0,-0.3 0.1,-0.6 0.2,-0.8 z"
   class="st3" />
			<path
   id="path156"
   d="m 152.5,104.6 c 0.2,-0.2 0.5,-0.4 0.8,-0.4 0.6,0 1,0.4 1.1,1 0.1,6 3.4,11.3 8.7,14.1 l 0.5,0.2 c 7.6,3.8 12.5,11.4 12.7,19.9 0,0.6 -0.4,1.1 -1,1.1 -0.6,0 -1.1,-0.4 -1.1,-1 -0.2,-7.5 -4.4,-14.3 -11,-17.8 l -0.5,-0.2 c -6.2,-3.1 -10.2,-9.3 -10.3,-16.2 -0.1,-0.3 0,-0.6 0.1,-0.7 z"
   class="st3" />
			<path
   id="path158"
   d="m 156.9,104.8 c 0.2,-0.2 0.5,-0.4 0.8,-0.4 0.6,0 1.1,0.4 1.1,1 0.2,4.2 2.6,8 6.3,10 l 0.4,0.2 c 1.3,0.6 2.5,1.4 3.7,2.2 0.5,0.3 0.6,1 0.2,1.4 -0.3,0.5 -1,0.6 -1.4,0.2 -0.9,-0.7 -1.9,-1.3 -2.9,-1.8 l -0.5,-0.2 c -4.6,-2.3 -7.6,-6.9 -7.9,-12 0,-0.2 0,-0.4 0.2,-0.6 z"
   class="st3" />
			<path
   id="path160"
   d="m 138.1,161.1 c 0.3,-0.4 0.9,-0.5 1.3,-0.3 0.8,0.5 1.7,0.9 2.6,1.4 l 0.4,0.2 c 12.4,6.1 27.4,1 33.5,-11.4 2.3,-4.6 3.1,-9.7 2.3,-14.8 -0.8,-5 -2.9,-9.5 -6.3,-13.2 -0.4,-0.4 -0.4,-1.1 0.1,-1.5 0.4,-0.4 1.1,-0.4 1.5,0.1 3.7,4 6,8.9 6.8,14.3 0.8,5.5 0,11 -2.5,16 -6.5,13.2 -22.3,18.7 -35.6,12.7 v 0 l -0.7,-0.3 c -1,-0.5 -2.1,-1.1 -3.1,-1.6 -0.5,-0.3 -0.7,-0.9 -0.4,-1.4 0,-0.1 0,-0.2 0.1,-0.2 z"
   class="st3" />
			<path
   id="path162"
   d="m 118.2,143.9 c 0.1,-0.1 0.1,-0.1 0.2,-0.2 0.5,-0.3 1.1,-0.3 1.5,0.2 4.2,5.5 9.2,10.2 15,14.1 0.5,0.3 0.6,1 0.3,1.4 -0.3,0.5 -1,0.6 -1.4,0.3 -5.9,-4 -11.1,-8.9 -15.5,-14.6 -0.4,-0.3 -0.4,-0.8 -0.1,-1.2 z"
   class="st3" />
			<path
   id="path164"
   d="m 161.3,105.7 c 0.2,-0.2 0.4,-0.3 0.7,-0.4 0.6,-0.1 1.1,0.3 1.2,0.9 0.4,2.3 1.8,4.3 3.9,5.5 l 0.3,0.1 c 7.5,3.7 13.2,10.1 15.9,18.1 2.7,8 2.1,16.5 -1.6,24 -1.6,3.2 -3.6,6 -6.1,8.5 -0.4,0.4 -1.1,0.4 -1.5,0 -0.4,-0.4 -0.4,-1.1 0,-1.5 2.3,-2.3 4.2,-5 5.7,-7.9 3.5,-7 4,-15 1.5,-22.4 -2.5,-7.3 -7.5,-13.2 -14.3,-16.7 l -0.5,-0.2 c -2.8,-1.4 -4.8,-4.1 -5.3,-7.1 -0.1,-0.4 0,-0.7 0.1,-0.9 z"
   class="st3" />
			<path
   id="path166"
   d="m 121,153.6 c 0,0 0,0 0,0 0.5,-0.5 1.1,-0.5 1.6,-0.1 5.1,5.1 10.9,9.3 17.4,12.5 l 0.6,0.3 c 9.5,4.7 20.9,3.9 29.7,-2.2 0.5,-0.3 1.1,-0.2 1.4,0.3 0.3,0.5 0.2,1.1 -0.3,1.4 -9.1,6.3 -20.9,7.3 -31,2.7 v 0 l -0.8,-0.4 c -6.9,-3.4 -13.1,-7.8 -18.5,-13.2 -0.4,-0.3 -0.5,-0.9 -0.1,-1.3 z"
   class="st3" />
		</g>
	</g>
	<g
   id="g234">
		<path
   id="path172"
   d="m 210.7,176.8 v -17.4 h 7.8 c 1.6,0 2.8,0.2 3.8,0.5 1,0.4 1.7,0.9 2.2,1.6 0.5,0.7 0.8,1.5 0.8,2.3 0,0.7 -0.2,1.4 -0.7,2.1 -0.5,0.7 -1.2,1.2 -2.2,1.6 1.2,0.3 2.2,0.8 2.9,1.6 0.7,0.7 1,1.6 1,2.6 0,0.8 -0.2,1.6 -0.6,2.3 -0.4,0.7 -0.9,1.2 -1.5,1.6 -0.6,0.4 -1.4,0.7 -2.3,0.9 -0.9,0.2 -2,0.3 -3.3,0.3 z m 2.7,-10.1 h 4.5 c 1.2,0 2.1,-0.1 2.6,-0.2 0.7,-0.2 1.2,-0.5 1.6,-0.9 0.4,-0.4 0.5,-0.9 0.5,-1.5 0,-0.6 -0.2,-1.1 -0.5,-1.5 -0.3,-0.4 -0.8,-0.7 -1.4,-0.9 -0.6,-0.2 -1.7,-0.2 -3.1,-0.2 h -4.1 v 5.2 z m 0,8.1 h 5.1 c 0.9,0 1.5,0 1.9,-0.1 0.6,-0.1 1.2,-0.3 1.6,-0.5 0.4,-0.2 0.8,-0.5 1,-1 0.3,-0.4 0.4,-0.9 0.4,-1.5 0,-0.6 -0.2,-1.2 -0.6,-1.7 -0.4,-0.5 -0.9,-0.8 -1.6,-1 -0.7,-0.2 -1.7,-0.3 -3,-0.3 h -4.8 z"
   class="st3" />
		<path
   id="path174"
   d="m 243.6,159.4 h 2.7 v 10.1 c 0,1.8 -0.2,3.1 -0.7,4.2 -0.5,1 -1.3,1.9 -2.5,2.5 -1.2,0.6 -2.8,1 -4.8,1 -1.9,0 -3.5,-0.3 -4.7,-0.8 -1.2,-0.6 -2.1,-1.4 -2.6,-2.4 -0.5,-1.1 -0.8,-2.5 -0.8,-4.4 v -10.1 h 2.7 v 10 c 0,1.5 0.2,2.6 0.5,3.3 0.3,0.7 0.9,1.3 1.7,1.7 0.8,0.4 1.8,0.6 3,0.6 2,0 3.4,-0.4 4.3,-1.2 0.9,-0.8 1.3,-2.2 1.3,-4.4 v -10.1 z"
   class="st3" />
		<path
   id="path176"
   d="m 251.3,176.8 v -17.4 h 2.7 v 17.4 z"
   class="st3" />
		<path
   id="path178"
   d="m 258.8,176.8 v -17.4 h 2.7 v 15.4 h 10.2 v 2.1 h -12.9 z"
   class="st3" />
		<path
   id="path180"
   d="m 275,176.8 v -17.4 h 7.1 c 1.6,0 2.8,0.1 3.7,0.2 1.2,0.2 2.2,0.6 3,1.2 1.1,0.8 1.9,1.8 2.4,3 0.5,1.2 0.8,2.6 0.8,4.1 0,1.3 -0.2,2.5 -0.5,3.5 -0.4,1 -0.8,1.9 -1.4,2.5 -0.6,0.7 -1.2,1.2 -1.9,1.6 -0.7,0.4 -1.5,0.7 -2.5,0.9 -1,0.2 -2.1,0.3 -3.3,0.3 H 275 Z m 2.7,-2 h 4.4 c 1.4,0 2.4,-0.1 3.2,-0.3 0.8,-0.2 1.4,-0.5 1.9,-0.9 0.6,-0.5 1.2,-1.3 1.5,-2.2 0.4,-0.9 0.5,-2 0.5,-3.4 0,-1.8 -0.4,-3.2 -1.1,-4.2 -0.7,-1 -1.6,-1.6 -2.6,-2 -0.7,-0.2 -1.9,-0.4 -3.5,-0.4 h -4.3 z"
   class="st3" />
		<path
   id="path182"
   d="m 296.3,176.8 v -17.4 h 2.7 v 17.4 z"
   class="st3" />
		<path
   id="path184"
   d="m 303.8,176.8 v -17.4 h 2.8 l 10.9,13.7 v -13.7 h 2.6 v 17.4 h -2.8 l -10.9,-13.7 v 13.7 z"
   class="st3" />
		<path
   id="path186"
   d="m 334.3,170 v -2 h 8.8 v 6.5 c -1.3,0.9 -2.7,1.6 -4.2,2 -1.4,0.5 -2.9,0.7 -4.4,0.7 -2,0 -3.9,-0.4 -5.5,-1.1 -1.7,-0.7 -2.9,-1.8 -3.8,-3.2 -0.8,-1.4 -1.3,-2.9 -1.3,-4.6 0,-1.7 0.4,-3.3 1.3,-4.7 0.8,-1.5 2.1,-2.6 3.6,-3.3 1.6,-0.7 3.4,-1.1 5.5,-1.1 1.5,0 2.8,0.2 4.1,0.6 1.2,0.4 2.2,1 2.8,1.7 0.7,0.7 1.2,1.7 1.6,2.8 l -2.5,0.6 c -0.3,-0.9 -0.7,-1.6 -1.2,-2.1 -0.5,-0.5 -1.1,-0.9 -2,-1.2 -0.9,-0.3 -1.8,-0.5 -2.8,-0.5 -1.2,0 -2.3,0.2 -3.2,0.5 -0.9,0.3 -1.6,0.7 -2.2,1.3 -0.6,0.5 -1,1.1 -1.3,1.7 -0.5,1.1 -0.8,2.2 -0.8,3.5 0,1.6 0.3,2.8 1,3.9 0.6,1 1.6,1.8 2.8,2.3 1.2,0.5 2.5,0.8 3.9,0.8 1.2,0 2.3,-0.2 3.5,-0.6 1.1,-0.4 2,-0.8 2.6,-1.2 V 170 Z"
   class="st3" />
		<path
   id="path188"
   d="m 351.3,176.8 7.9,-17.4 h 2.9 l 8.5,17.4 h -3.1 l -2.4,-5.3 h -8.6 l -2.3,5.3 z m 5.9,-7.1 h 7 l -2.2,-4.8 c -0.7,-1.5 -1.1,-2.7 -1.5,-3.6 -0.3,1.1 -0.6,2.2 -1.1,3.3 z"
   class="st3" />
		<path
   id="path190"
   d="m 379.1,176.8 v -17.4 h 4.1 l 4.9,12.3 c 0.5,1.1 0.8,2 1,2.6 0.2,-0.6 0.6,-1.6 1.1,-2.8 l 4.9,-12.1 h 3.7 v 17.4 h -2.6 v -14.6 l -6,14.6 h -2.5 l -6,-14.8 v 14.8 z"
   class="st3" />
		<path
   id="path192"
   d="m 403.3,176.8 v -17.4 h 14.9 v 2.1 H 406 v 5.3 h 11.4 v 2 H 406 v 5.9 h 12.7 v 2.1 z"
   class="st3" />
		<path
   id="path194"
   d="m 422.5,176.8 v -17.4 h 2.8 l 10.9,13.7 v -13.7 h 2.6 v 17.4 H 436 l -10.9,-13.7 v 13.7 z"
   class="st3" />
		<path
   id="path196"
   d="m 448.6,176.8 v -15.4 h -6.8 v -2.1 h 16.4 v 2.1 h -6.8 v 15.4 z"
   class="st3" />
		<path
   id="path198"
   d="m 456.6,176.8 7.9,-17.4 h 2.9 l 8.5,17.4 h -3.1 l -2.4,-5.3 h -8.6 l -2.3,5.3 z m 6,-7.1 h 7 l -2.2,-4.8 c -0.7,-1.5 -1.1,-2.7 -1.5,-3.6 -0.3,1.1 -0.6,2.2 -1.1,3.3 z"
   class="st3" />
		<path
   id="path200"
   d="m 478,176.8 v -17.4 h 2.7 v 15.4 h 10.2 v 2.1 H 478 Z"
   class="st3" />
		<path
   id="path202"
   d="m 504.7,176.8 -5.5,-17.4 h 2.8 l 3.1,11.4 c 0.3,1.2 0.6,2.4 0.9,3.6 0.5,-1.9 0.8,-2.9 0.9,-3.2 l 3.9,-11.8 h 3.3 l 3,8.8 c 0.7,2.2 1.3,4.2 1.6,6.2 0.3,-1.1 0.6,-2.4 1,-3.8 l 3.2,-11.2 h 2.7 l -5.7,17.4 h -2.6 l -4.4,-13.3 c -0.4,-1.1 -0.6,-1.8 -0.6,-2 -0.2,0.8 -0.4,1.5 -0.6,2 l -4.4,13.3 z"
   class="st3" />
		<path
   id="path204"
   d="m 528.4,176.8 v -17.4 h 14.9 v 2.1 h -12.2 v 5.3 h 11.4 v 2 h -11.4 v 5.9 h 12.7 v 2.1 z"
   class="st3" />
		<path
   id="path206"
   d="m 547.5,176.8 v -17.4 h 2.7 v 15.4 h 10.2 v 2.1 h -12.9 z"
   class="st3" />
		<path
   id="path208"
   d="m 563.6,176.8 v -17.4 h 2.7 v 15.4 h 10.2 v 2.1 h -12.9 z"
   class="st3" />
		<path
   id="path210"
   d="m 579.6,176.8 v -17.4 h 7.8 c 1.6,0 2.8,0.2 3.8,0.5 1,0.4 1.7,0.9 2.2,1.6 0.5,0.7 0.8,1.5 0.8,2.3 0,0.7 -0.2,1.4 -0.7,2.1 -0.5,0.7 -1.2,1.2 -2.2,1.6 1.2,0.3 2.2,0.8 2.9,1.6 0.7,0.7 1,1.6 1,2.6 0,0.8 -0.2,1.6 -0.6,2.3 -0.4,0.7 -0.9,1.2 -1.5,1.6 -0.6,0.4 -1.4,0.7 -2.3,0.9 -0.9,0.2 -2,0.3 -3.3,0.3 z m 2.8,-10.1 h 4.5 c 1.2,0 2.1,-0.1 2.6,-0.2 0.7,-0.2 1.2,-0.5 1.6,-0.9 0.4,-0.4 0.5,-0.9 0.5,-1.5 0,-0.6 -0.2,-1.1 -0.5,-1.5 -0.3,-0.4 -0.8,-0.7 -1.4,-0.9 -0.6,-0.2 -1.7,-0.2 -3.1,-0.2 h -4.1 v 5.2 z m 0,8.1 h 5.1 c 0.9,0 1.5,0 1.9,-0.1 0.6,-0.1 1.2,-0.3 1.6,-0.5 0.4,-0.2 0.8,-0.5 1,-1 0.3,-0.4 0.4,-0.9 0.4,-1.5 0,-0.6 -0.2,-1.2 -0.6,-1.7 -0.4,-0.5 -0.9,-0.8 -1.6,-1 -0.7,-0.2 -1.7,-0.3 -3,-0.3 h -4.8 z"
   class="st3" />
		<path
   id="path212"
   d="M 599.1,176.8 V 159.4 H 614 v 2.1 h -12.2 v 5.3 h 11.4 v 2 h -11.4 v 5.9 h 12.7 v 2.1 z"
   class="st3" />
		<path
   id="path214"
   d="m 618.7,176.8 v -17.4 h 2.7 v 17.4 z"
   class="st3" />
		<path
   id="path216"
   d="m 626.2,176.8 v -17.4 h 2.8 l 10.9,13.7 v -13.7 h 2.6 v 17.4 h -2.8 l -10.9,-13.7 v 13.7 z"
   class="st3" />
		<path
   id="path218"
   d="m 656.8,170 v -2 h 8.8 v 6.5 c -1.3,0.9 -2.7,1.6 -4.2,2 -1.4,0.5 -2.9,0.7 -4.4,0.7 -2,0 -3.9,-0.4 -5.5,-1.1 -1.7,-0.7 -2.9,-1.8 -3.8,-3.2 -0.8,-1.4 -1.3,-2.9 -1.3,-4.6 0,-1.7 0.4,-3.3 1.3,-4.7 0.8,-1.5 2.1,-2.6 3.6,-3.3 1.5,-0.7 3.4,-1.1 5.5,-1.1 1.5,0 2.8,0.2 4.1,0.6 1.2,0.4 2.2,1 2.8,1.7 0.7,0.7 1.2,1.7 1.6,2.8 l -2.5,0.6 c -0.3,-0.9 -0.7,-1.6 -1.2,-2.1 -0.5,-0.5 -1.1,-0.9 -2,-1.2 -0.9,-0.3 -1.8,-0.5 -2.8,-0.5 -1.2,0 -2.3,0.2 -3.2,0.5 -0.9,0.3 -1.6,0.7 -2.2,1.3 -0.6,0.5 -1,1.1 -1.3,1.7 -0.5,1.1 -0.8,2.2 -0.8,3.5 0,1.6 0.3,2.8 1,3.9 0.6,1 1.6,1.8 2.8,2.3 1.2,0.5 2.5,0.8 3.9,0.8 1.2,0 2.3,-0.2 3.5,-0.6 1.1,-0.4 2,-0.8 2.6,-1.2 V 170 Z"
   class="st3" />
		<path
   id="path220"
   d="m 692.3,170.7 2.7,0.6 c -0.6,1.9 -1.6,3.3 -3.1,4.3 -1.5,1 -3.3,1.5 -5.5,1.5 -2.2,0 -4,-0.4 -5.4,-1.1 -1.4,-0.8 -2.5,-1.9 -3.2,-3.3 -0.7,-1.4 -1.1,-3 -1.1,-4.7 0,-1.8 0.4,-3.4 1.2,-4.7 0.8,-1.3 2,-2.4 3.5,-3.1 1.5,-0.7 3.2,-1.1 5,-1.1 2.1,0 3.8,0.4 5.2,1.3 1.4,0.9 2.4,2.1 2.9,3.7 l -2.7,0.5 c -0.5,-1.3 -1.2,-2.2 -2.1,-2.8 -0.9,-0.6 -2.1,-0.9 -3.4,-0.9 -1.6,0 -2.9,0.3 -4,1 -1.1,0.6 -1.8,1.5 -2.2,2.6 -0.4,1.1 -0.6,2.2 -0.6,3.3 0,1.5 0.3,2.8 0.8,3.9 0.5,1.1 1.3,1.9 2.4,2.5 1.1,0.5 2.3,0.8 3.5,0.8 1.5,0 2.8,-0.4 3.9,-1.1 1.1,-0.6 1.9,-1.7 2.2,-3.2 z"
   class="st3" />
		<path
   id="path222"
   d="m 712,159.4 h 2.7 v 10.1 c 0,1.8 -0.2,3.1 -0.7,4.2 -0.5,1 -1.3,1.9 -2.5,2.5 -1.2,0.6 -2.8,1 -4.8,1 -1.9,0 -3.5,-0.3 -4.7,-0.8 -1.2,-0.6 -2.1,-1.4 -2.6,-2.4 -0.5,-1.1 -0.8,-2.5 -0.8,-4.4 v -10.1 h 2.7 v 10 c 0,1.5 0.2,2.6 0.5,3.3 0.3,0.7 0.9,1.3 1.7,1.7 0.8,0.4 1.8,0.6 3,0.6 2,0 3.4,-0.4 4.3,-1.2 0.9,-0.8 1.3,-2.2 1.3,-4.4 v -10.1 z"
   class="st3" />
		<path
   id="path224"
   d="m 719.2,176.8 v -17.4 h 2.7 v 15.4 h 10.2 v 2.1 h -12.9 z"
   class="st3" />
		<path
   id="path226"
   d="m 738.5,176.8 v -15.4 h -6.8 v -2.1 H 748 v 2.1 h -6.8 v 15.4 z"
   class="st3" />
		<path
   id="path228"
   d="m 764.4,159.4 h 2.7 v 10.1 c 0,1.8 -0.2,3.1 -0.7,4.2 -0.5,1 -1.3,1.9 -2.5,2.5 -1.2,0.6 -2.8,1 -4.8,1 -1.9,0 -3.5,-0.3 -4.7,-0.8 -1.2,-0.6 -2.1,-1.4 -2.6,-2.4 -0.5,-1.1 -0.8,-2.5 -0.8,-4.4 v -10.1 h 2.7 v 10 c 0,1.5 0.2,2.6 0.5,3.3 0.3,0.7 0.9,1.3 1.7,1.7 0.8,0.4 1.8,0.6 3,0.6 2,0 3.4,-0.4 4.3,-1.2 0.9,-0.8 1.3,-2.2 1.3,-4.4 v -10.1 z"
   class="st3" />
		<path
   id="path230"
   d="m 771.7,176.8 v -17.4 h 9.2 c 1.8,0 3.2,0.2 4.2,0.5 1,0.3 1.7,0.9 2.3,1.7 0.6,0.8 0.9,1.7 0.9,2.6 0,1.2 -0.5,2.3 -1.4,3.1 -1,0.8 -2.4,1.4 -4.4,1.6 0.7,0.3 1.3,0.6 1.6,0.9 0.8,0.6 1.6,1.4 2.3,2.3 l 3.6,4.7 h -3.4 l -2.7,-3.6 c -0.8,-1 -1.5,-1.8 -2,-2.4 -0.5,-0.6 -1,-0.9 -1.4,-1.2 -0.4,-0.2 -0.8,-0.4 -1.2,-0.5 -0.3,-0.1 -0.8,-0.1 -1.5,-0.1 h -3.2 v 7.7 h -2.9 z m 2.8,-9.7 h 5.9 c 1.2,0 2.2,-0.1 2.9,-0.3 0.7,-0.2 1.2,-0.6 1.6,-1 0.4,-0.5 0.5,-1 0.5,-1.6 0,-0.8 -0.4,-1.5 -1.1,-2 -0.7,-0.5 -1.8,-0.8 -3.4,-0.8 h -6.5 v 5.7 z"
   class="st3" />
		<path
   id="path232"
   d="m 792.6,176.8 v -17.4 h 14.9 v 2.1 h -12.2 v 5.3 h 11.4 v 2 h -11.4 v 5.9 H 808 v 2.1 z"
   class="st3" />
	</g>
	<g
   id="g258">
		<path
   id="path236"
   d="m 207.2,51.1 h 26.4 c 17.6,0 30.3,5.5 30.3,21.7 v 3.8 c 0,8.7 -4.2,15.7 -10.8,18.7 7.2,3.3 12.1,10.5 12.1,19.4 v 3.8 c 0,15.5 -12.8,22.3 -31.6,22.3 h -15.8 c 0,0 -10.6,-0.1 -10.6,-6.4 z M 218,60 v 31 h 16.7 c 13.7,0 18.5,-5.6 18.5,-16.3 0,-10.9 -6.3,-14.8 -19.5,-14.8 H 218 Z m 0,39.9 v 32.2 h 15.7 c 14.5,0 20.8,-4.5 20.8,-15.4 0,-10.5 -6,-16.8 -19.8,-16.8 z"
   class="st3" />
		<path
   id="path238"
   d="m 282.3,86.5 v 55.3 c 0,0 -10.3,0 -10.3,-6.4 V 75.9 c 3,1.5 5.5,2.1 7.8,2.1 5.4,0 9.7,-2.7 16.8,-2.7 9,0 15.1,3.5 15.1,10.4 0,3.1 -1.2,5.8 -3.6,9.1 0,-7.1 -6.2,-10.4 -13.6,-10.4 -6.7,-0.1 -12.2,2.1 -12.2,2.1 z"
   class="st3" />
		<path
   id="path240"
   d="m 323.3,54.8 c 3,-3 5.6,-6 5.6,-8.9 0,-1 -0.3,-1.9 -0.8,-3 5.4,1.8 14.5,8 3.7,16.8 L 321.5,68 c 0,0 -10.5,-1.7 -5.6,-6.3 z m -7.2,22 c 0.6,0 10.3,0.1 10.3,6.4 v 59 c 0,0 -10.3,0 -10.3,-6.4 z"
   class="st3" />
		<path
   id="path242"
   d="m 334.5,95.5 c 0,-12.7 10.4,-20.3 22.4,-20.3 15.5,0 20,7.1 20,7.1 0,0 -1.3,-3 -1.3,-11.7 V 45.1 c 0.9,0 10.3,-0.1 10.3,7.7 v 89 c -2.8,-1.3 -6.5,-1.7 -8.7,-1.7 -5.1,0 -10.8,2.3 -17.1,2.3 -16.3,0 -25.7,-7.4 -25.7,-20.4 V 95.5 Z m 41.2,0.6 c 0,-7.4 -8.6,-12.6 -17.1,-12.6 -8,0 -13.9,4.2 -13.9,13.9 v 22.7 c 0,9.4 3.7,14 16.9,14 9.6,0 14,-3.2 14,-3.2 V 96.1 Z"
   class="st3" />
		<path
   id="path244"
   d="m 480.7,114 c 0,17.8 -11.3,28.5 -35.4,28.5 -24.2,0 -35.4,-10.6 -35.4,-28.5 V 78.1 c 0,-17.8 11.2,-28.5 35.4,-28.5 24.1,0 35.4,10.6 35.4,28.5 z M 469.9,79.7 c 0,-13.3 -4,-21.3 -24.8,-21.3 -20.5,0 -24.5,8 -24.5,21.3 v 32.6 c 0,13.3 4,21.3 24.5,21.3 20.8,0 24.8,-8 24.8,-21.3 z"
   class="st3" />
		<path
   id="path246"
   d="m 492.4,51.1 h 6.3 c 1.2,0 2.3,1.2 2.3,2.4 v 8.1 c 0,7.8 -1.7,15.9 -8.5,15.9 -1.7,0 -3.8,-0.4 -5.8,-1.7 5.1,-1 5.3,-8.9 4.6,-13.1 L 489.4,51 h 3 z"
   class="st3" />
		<path
   id="path248"
   d="m 580.1,76.3 c 0,-5.4 0.9,-11.5 0.9,-11.5 L 552.6,123 c 0,0 -6,0 -10,-6.4 L 518.4,64.8 c 0,0 0.9,6.2 0.9,11.5 v 65.9 c 0,0 -10.8,0 -10.8,-6.4 V 51.1 h 7.8 c 0.5,0 6.3,-0.1 9.4,6.4 l 23.9,51.2 27.6,-57.6 c 3.1,0 13.9,0 13.9,6.4 v 84.7 c 0,0 -10.8,0 -10.8,-6.4 V 76.3 Z"
   class="st3" />
		<path
   id="path250"
   d="m 651.5,128.9 c 0,9 -12.1,13.6 -24.6,13.6 -16.3,0 -26.4,-7.7 -26.4,-20.7 V 95.9 c 0,-13 9.6,-20.7 25.9,-20.7 16.3,0 24.4,7.7 24.4,19.4 0,10.4 -7.1,19 -25.9,19 -4.4,0 -11,-0.9 -14.1,-3.1 v 9.4 c 0,9 5,13.6 16.9,13.6 11.2,0 20.5,-4.6 20.5,-13.6 2.2,3.3 3.3,6.3 3.3,9 z m -40.8,-26.6 c 0.1,0.3 7.8,2.3 13.3,2.3 12.2,0 16.4,-3.7 16.4,-10 0,-6.5 -3.6,-11 -14.1,-11 -11.4,0 -15.7,5.3 -15.7,14.2 v 4.5 z"
   class="st3" />
		<path
   id="path252"
   d="m 694.3,95.4 c 0,-6.5 -3,-11.2 -14.9,-11.2 -11.9,0 -20,4.6 -20,13.6 -2.4,-3.5 -3.5,-6.7 -3.5,-9.4 0,-8.7 11,-13.2 23.5,-13.2 16.3,0 25.1,7.7 25.1,20.7 v 45.9 c -3.1,-1.3 -5.8,-1.7 -8.5,-1.7 -5.9,0 -11.3,2.3 -18.3,2.3 -11.7,0 -23.7,-5 -23.7,-18.9 0,-24.7 35.8,-15.8 40.3,-28.1 z m 0.4,10.1 c -2.4,8.6 -30.4,3 -30.4,18.2 0,5.6 4.2,10.5 15.3,10.5 9.4,0 15.1,-3.5 15.1,-3.5 z"
   class="st3" />
		<path
   id="path254"
   d="m 720.6,86.5 v 55.3 c 0,0 -10.3,0 -10.3,-6.4 V 75.9 c 3,1.5 5.5,2.1 7.8,2.1 5.4,0 9.7,-2.7 16.8,-2.7 9,0 15.1,3.5 15.1,10.4 0,3.1 -1.2,5.8 -3.6,9.1 0,-7.1 -6.2,-10.4 -13.6,-10.4 -6.7,-0.1 -12.2,2.1 -12.2,2.1 z"
   class="st3" />
		<path
   id="path256"
   d="m 790.8,95.4 c 0,-6.5 -3,-11.2 -14.9,-11.2 -11.9,0 -20,4.6 -20,13.6 -2.4,-3.5 -3.5,-6.7 -3.5,-9.4 0,-8.7 11,-13.2 23.5,-13.2 16.3,0 25.1,7.7 25.1,20.7 v 45.9 c -3.1,-1.3 -5.8,-1.7 -8.5,-1.7 -5.9,0 -11.3,2.3 -18.3,2.3 -11.7,0 -23.7,-5 -23.7,-18.9 0.1,-24.7 35.9,-15.8 40.3,-28.1 z m 0.4,10.1 c -2.4,8.6 -30.4,3 -30.4,18.2 0,5.6 4.2,10.5 15.3,10.5 9.4,0 15.1,-3.5 15.1,-3.5 z"
   class="st3" />
	</g>
</g>
</svg>
