<?xml version="1.0" encoding="UTF-8" standalone="no"?>
<svg
   xmlns:dc="http://purl.org/dc/elements/1.1/"
   xmlns:cc="http://creativecommons.org/ns#"
   xmlns:rdf="http://www.w3.org/1999/02/22-rdf-syntax-ns#"
   xmlns:svg="http://www.w3.org/2000/svg"
   xmlns="http://www.w3.org/2000/svg"
   version="1.1"
   id="Layer_1"
   x="0px"
   y="0px"
   viewBox="0 0 600.79997 134.3"
   xml:space="preserve"
   width="600.79999"
   height="134.3"><metadata
   id="metadata267"><rdf:RDF><cc:Work
       rdf:about=""><dc:format>image/svg+xml</dc:format><dc:type
         rdf:resource="http://purl.org/dc/dcmitype/StillImage" /><dc:title></dc:title></cc:Work></rdf:RDF></metadata><defs
   id="defs265" />
<style
   type="text/css"
   id="style10">
	.st0{fill:#8CD2D1;}
	.st1{fill:#FAA61A;}
	.st2{fill:#E98EBC;}
	.st3{fill:#808285;}
</style>
<g
   id="g260"
   transform="translate(-207.2,-42.9)">
	
	
	
	<g
   id="g170">
		
		
		
		<g
   id="g168">
			
			
			
			
			
			
			
			
			
			
			
			
			
			
			
			
			
			
			
			
			
			
			
			
		</g>
	</g>
	<g
   id="g234">
		<path
   class="st3"
   d="m 210.7,176.8 v -17.4 h 7.8 c 1.6,0 2.8,0.2 3.8,0.5 1,0.4 1.7,0.9 2.2,1.6 0.5,0.7 0.8,1.5 0.8,2.3 0,0.7 -0.2,1.4 -0.7,2.1 -0.5,0.7 -1.2,1.2 -2.2,1.6 1.2,0.3 2.2,0.8 2.9,1.6 0.7,0.7 1,1.6 1,2.6 0,0.8 -0.2,1.6 -0.6,2.3 -0.4,0.7 -0.9,1.2 -1.5,1.6 -0.6,0.4 -1.4,0.7 -2.3,0.9 -0.9,0.2 -2,0.3 -3.3,0.3 z m 2.7,-10.1 h 4.5 c 1.2,0 2.1,-0.1 2.6,-0.2 0.7,-0.2 1.2,-0.5 1.6,-0.9 0.4,-0.4 0.5,-0.9 0.5,-1.5 0,-0.6 -0.2,-1.1 -0.5,-1.5 -0.3,-0.4 -0.8,-0.7 -1.4,-0.9 -0.6,-0.2 -1.7,-0.2 -3.1,-0.2 h -4.1 v 5.2 z m 0,8.1 h 5.1 c 0.9,0 1.5,0 1.9,-0.1 0.6,-0.1 1.2,-0.3 1.6,-0.5 0.4,-0.2 0.8,-0.5 1,-1 0.3,-0.4 0.4,-0.9 0.4,-1.5 0,-0.6 -0.2,-1.2 -0.6,-1.7 -0.4,-0.5 -0.9,-0.8 -1.6,-1 -0.7,-0.2 -1.7,-0.3 -3,-0.3 h -4.8 z"
   id="path172" />
		<path
   class="st3"
   d="m 243.6,159.4 h 2.7 v 10.1 c 0,1.8 -0.2,3.1 -0.7,4.2 -0.5,1 -1.3,1.9 -2.5,2.5 -1.2,0.6 -2.8,1 -4.8,1 -1.9,0 -3.5,-0.3 -4.7,-0.8 -1.2,-0.6 -2.1,-1.4 -2.6,-2.4 -0.5,-1.1 -0.8,-2.5 -0.8,-4.4 v -10.1 h 2.7 v 10 c 0,1.5 0.2,2.6 0.5,3.3 0.3,0.7 0.9,1.3 1.7,1.7 0.8,0.4 1.8,0.6 3,0.6 2,0 3.4,-0.4 4.3,-1.2 0.9,-0.8 1.3,-2.2 1.3,-4.4 v -10.1 z"
   id="path174" />
		<path
   class="st3"
   d="m 251.3,176.8 v -17.4 h 2.7 v 17.4 z"
   id="path176" />
		<path
   class="st3"
   d="m 258.8,176.8 v -17.4 h 2.7 v 15.4 h 10.2 v 2.1 h -12.9 z"
   id="path178" />
		<path
   class="st3"
   d="m 275,176.8 v -17.4 h 7.1 c 1.6,0 2.8,0.1 3.7,0.2 1.2,0.2 2.2,0.6 3,1.2 1.1,0.8 1.9,1.8 2.4,3 0.5,1.2 0.8,2.6 0.8,4.1 0,1.3 -0.2,2.5 -0.5,3.5 -0.4,1 -0.8,1.9 -1.4,2.5 -0.6,0.7 -1.2,1.2 -1.9,1.6 -0.7,0.4 -1.5,0.7 -2.5,0.9 -1,0.2 -2.1,0.3 -3.3,0.3 H 275 Z m 2.7,-2 h 4.4 c 1.4,0 2.4,-0.1 3.2,-0.3 0.8,-0.2 1.4,-0.5 1.9,-0.9 0.6,-0.5 1.2,-1.3 1.5,-2.2 0.4,-0.9 0.5,-2 0.5,-3.4 0,-1.8 -0.4,-3.2 -1.1,-4.2 -0.7,-1 -1.6,-1.6 -2.6,-2 -0.7,-0.2 -1.9,-0.4 -3.5,-0.4 h -4.3 z"
   id="path180" />
		<path
   class="st3"
   d="m 296.3,176.8 v -17.4 h 2.7 v 17.4 z"
   id="path182" />
		<path
   class="st3"
   d="m 303.8,176.8 v -17.4 h 2.8 l 10.9,13.7 v -13.7 h 2.6 v 17.4 h -2.8 l -10.9,-13.7 v 13.7 z"
   id="path184" />
		<path
   class="st3"
   d="m 334.3,170 v -2 h 8.8 v 6.5 c -1.3,0.9 -2.7,1.6 -4.2,2 -1.4,0.5 -2.9,0.7 -4.4,0.7 -2,0 -3.9,-0.4 -5.5,-1.1 -1.7,-0.7 -2.9,-1.8 -3.8,-3.2 -0.8,-1.4 -1.3,-2.9 -1.3,-4.6 0,-1.7 0.4,-3.3 1.3,-4.7 0.8,-1.5 2.1,-2.6 3.6,-3.3 1.6,-0.7 3.4,-1.1 5.5,-1.1 1.5,0 2.8,0.2 4.1,0.6 1.2,0.4 2.2,1 2.8,1.7 0.7,0.7 1.2,1.7 1.6,2.8 l -2.5,0.6 c -0.3,-0.9 -0.7,-1.6 -1.2,-2.1 -0.5,-0.5 -1.1,-0.9 -2,-1.2 -0.9,-0.3 -1.8,-0.5 -2.8,-0.5 -1.2,0 -2.3,0.2 -3.2,0.5 -0.9,0.3 -1.6,0.7 -2.2,1.3 -0.6,0.5 -1,1.1 -1.3,1.7 -0.5,1.1 -0.8,2.2 -0.8,3.5 0,1.6 0.3,2.8 1,3.9 0.6,1 1.6,1.8 2.8,2.3 1.2,0.5 2.5,0.8 3.9,0.8 1.2,0 2.3,-0.2 3.5,-0.6 1.1,-0.4 2,-0.8 2.6,-1.2 V 170 Z"
   id="path186" />
		<path
   class="st3"
   d="m 351.3,176.8 7.9,-17.4 h 2.9 l 8.5,17.4 h -3.1 l -2.4,-5.3 h -8.6 l -2.3,5.3 z m 5.9,-7.1 h 7 l -2.2,-4.8 c -0.7,-1.5 -1.1,-2.7 -1.5,-3.6 -0.3,1.1 -0.6,2.2 -1.1,3.3 z"
   id="path188" />
		<path
   class="st3"
   d="m 379.1,176.8 v -17.4 h 4.1 l 4.9,12.3 c 0.5,1.1 0.8,2 1,2.6 0.2,-0.6 0.6,-1.6 1.1,-2.8 l 4.9,-12.1 h 3.7 v 17.4 h -2.6 v -14.6 l -6,14.6 h -2.5 l -6,-14.8 v 14.8 z"
   id="path190" />
		<path
   class="st3"
   d="m 403.3,176.8 v -17.4 h 14.9 v 2.1 H 406 v 5.3 h 11.4 v 2 H 406 v 5.9 h 12.7 v 2.1 z"
   id="path192" />
		<path
   class="st3"
   d="m 422.5,176.8 v -17.4 h 2.8 l 10.9,13.7 v -13.7 h 2.6 v 17.4 H 436 l -10.9,-13.7 v 13.7 z"
   id="path194" />
		<path
   class="st3"
   d="m 448.6,176.8 v -15.4 h -6.8 v -2.1 h 16.4 v 2.1 h -6.8 v 15.4 z"
   id="path196" />
		<path
   class="st3"
   d="m 456.6,176.8 7.9,-17.4 h 2.9 l 8.5,17.4 h -3.1 l -2.4,-5.3 h -8.6 l -2.3,5.3 z m 6,-7.1 h 7 l -2.2,-4.8 c -0.7,-1.5 -1.1,-2.7 -1.5,-3.6 -0.3,1.1 -0.6,2.2 -1.1,3.3 z"
   id="path198" />
		<path
   class="st3"
   d="m 478,176.8 v -17.4 h 2.7 v 15.4 h 10.2 v 2.1 H 478 Z"
   id="path200" />
		<path
   class="st3"
   d="m 504.7,176.8 -5.5,-17.4 h 2.8 l 3.1,11.4 c 0.3,1.2 0.6,2.4 0.9,3.6 0.5,-1.9 0.8,-2.9 0.9,-3.2 l 3.9,-11.8 h 3.3 l 3,8.8 c 0.7,2.2 1.3,4.2 1.6,6.2 0.3,-1.1 0.6,-2.4 1,-3.8 l 3.2,-11.2 h 2.7 l -5.7,17.4 h -2.6 l -4.4,-13.3 c -0.4,-1.1 -0.6,-1.8 -0.6,-2 -0.2,0.8 -0.4,1.5 -0.6,2 l -4.4,13.3 z"
   id="path202" />
		<path
   class="st3"
   d="m 528.4,176.8 v -17.4 h 14.9 v 2.1 h -12.2 v 5.3 h 11.4 v 2 h -11.4 v 5.9 h 12.7 v 2.1 z"
   id="path204" />
		<path
   class="st3"
   d="m 547.5,176.8 v -17.4 h 2.7 v 15.4 h 10.2 v 2.1 h -12.9 z"
   id="path206" />
		<path
   class="st3"
   d="m 563.6,176.8 v -17.4 h 2.7 v 15.4 h 10.2 v 2.1 h -12.9 z"
   id="path208" />
		<path
   class="st3"
   d="m 579.6,176.8 v -17.4 h 7.8 c 1.6,0 2.8,0.2 3.8,0.5 1,0.4 1.7,0.9 2.2,1.6 0.5,0.7 0.8,1.5 0.8,2.3 0,0.7 -0.2,1.4 -0.7,2.1 -0.5,0.7 -1.2,1.2 -2.2,1.6 1.2,0.3 2.2,0.8 2.9,1.6 0.7,0.7 1,1.6 1,2.6 0,0.8 -0.2,1.6 -0.6,2.3 -0.4,0.7 -0.9,1.2 -1.5,1.6 -0.6,0.4 -1.4,0.7 -2.3,0.9 -0.9,0.2 -2,0.3 -3.3,0.3 z m 2.8,-10.1 h 4.5 c 1.2,0 2.1,-0.1 2.6,-0.2 0.7,-0.2 1.2,-0.5 1.6,-0.9 0.4,-0.4 0.5,-0.9 0.5,-1.5 0,-0.6 -0.2,-1.1 -0.5,-1.5 -0.3,-0.4 -0.8,-0.7 -1.4,-0.9 -0.6,-0.2 -1.7,-0.2 -3.1,-0.2 h -4.1 v 5.2 z m 0,8.1 h 5.1 c 0.9,0 1.5,0 1.9,-0.1 0.6,-0.1 1.2,-0.3 1.6,-0.5 0.4,-0.2 0.8,-0.5 1,-1 0.3,-0.4 0.4,-0.9 0.4,-1.5 0,-0.6 -0.2,-1.2 -0.6,-1.7 -0.4,-0.5 -0.9,-0.8 -1.6,-1 -0.7,-0.2 -1.7,-0.3 -3,-0.3 h -4.8 z"
   id="path210" />
		<path
   class="st3"
   d="M 599.1,176.8 V 159.4 H 614 v 2.1 h -12.2 v 5.3 h 11.4 v 2 h -11.4 v 5.9 h 12.7 v 2.1 z"
   id="path212" />
		<path
   class="st3"
   d="m 618.7,176.8 v -17.4 h 2.7 v 17.4 z"
   id="path214" />
		<path
   class="st3"
   d="m 626.2,176.8 v -17.4 h 2.8 l 10.9,13.7 v -13.7 h 2.6 v 17.4 h -2.8 l -10.9,-13.7 v 13.7 z"
   id="path216" />
		<path
   class="st3"
   d="m 656.8,170 v -2 h 8.8 v 6.5 c -1.3,0.9 -2.7,1.6 -4.2,2 -1.4,0.5 -2.9,0.7 -4.4,0.7 -2,0 -3.9,-0.4 -5.5,-1.1 -1.7,-0.7 -2.9,-1.8 -3.8,-3.2 -0.8,-1.4 -1.3,-2.9 -1.3,-4.6 0,-1.7 0.4,-3.3 1.3,-4.7 0.8,-1.5 2.1,-2.6 3.6,-3.3 1.5,-0.7 3.4,-1.1 5.5,-1.1 1.5,0 2.8,0.2 4.1,0.6 1.2,0.4 2.2,1 2.8,1.7 0.7,0.7 1.2,1.7 1.6,2.8 l -2.5,0.6 c -0.3,-0.9 -0.7,-1.6 -1.2,-2.1 -0.5,-0.5 -1.1,-0.9 -2,-1.2 -0.9,-0.3 -1.8,-0.5 -2.8,-0.5 -1.2,0 -2.3,0.2 -3.2,0.5 -0.9,0.3 -1.6,0.7 -2.2,1.3 -0.6,0.5 -1,1.1 -1.3,1.7 -0.5,1.1 -0.8,2.2 -0.8,3.5 0,1.6 0.3,2.8 1,3.9 0.6,1 1.6,1.8 2.8,2.3 1.2,0.5 2.5,0.8 3.9,0.8 1.2,0 2.3,-0.2 3.5,-0.6 1.1,-0.4 2,-0.8 2.6,-1.2 V 170 Z"
   id="path218" />
		<path
   class="st3"
   d="m 692.3,170.7 2.7,0.6 c -0.6,1.9 -1.6,3.3 -3.1,4.3 -1.5,1 -3.3,1.5 -5.5,1.5 -2.2,0 -4,-0.4 -5.4,-1.1 -1.4,-0.8 -2.5,-1.9 -3.2,-3.3 -0.7,-1.4 -1.1,-3 -1.1,-4.7 0,-1.8 0.4,-3.4 1.2,-4.7 0.8,-1.3 2,-2.4 3.5,-3.1 1.5,-0.7 3.2,-1.1 5,-1.1 2.1,0 3.8,0.4 5.2,1.3 1.4,0.9 2.4,2.1 2.9,3.7 l -2.7,0.5 c -0.5,-1.3 -1.2,-2.2 -2.1,-2.8 -0.9,-0.6 -2.1,-0.9 -3.4,-0.9 -1.6,0 -2.9,0.3 -4,1 -1.1,0.6 -1.8,1.5 -2.2,2.6 -0.4,1.1 -0.6,2.2 -0.6,3.3 0,1.5 0.3,2.8 0.8,3.9 0.5,1.1 1.3,1.9 2.4,2.5 1.1,0.5 2.3,0.8 3.5,0.8 1.5,0 2.8,-0.4 3.9,-1.1 1.1,-0.6 1.9,-1.7 2.2,-3.2 z"
   id="path220" />
		<path
   class="st3"
   d="m 712,159.4 h 2.7 v 10.1 c 0,1.8 -0.2,3.1 -0.7,4.2 -0.5,1 -1.3,1.9 -2.5,2.5 -1.2,0.6 -2.8,1 -4.8,1 -1.9,0 -3.5,-0.3 -4.7,-0.8 -1.2,-0.6 -2.1,-1.4 -2.6,-2.4 -0.5,-1.1 -0.8,-2.5 -0.8,-4.4 v -10.1 h 2.7 v 10 c 0,1.5 0.2,2.6 0.5,3.3 0.3,0.7 0.9,1.3 1.7,1.7 0.8,0.4 1.8,0.6 3,0.6 2,0 3.4,-0.4 4.3,-1.2 0.9,-0.8 1.3,-2.2 1.3,-4.4 v -10.1 z"
   id="path222" />
		<path
   class="st3"
   d="m 719.2,176.8 v -17.4 h 2.7 v 15.4 h 10.2 v 2.1 h -12.9 z"
   id="path224" />
		<path
   class="st3"
   d="m 738.5,176.8 v -15.4 h -6.8 v -2.1 H 748 v 2.1 h -6.8 v 15.4 z"
   id="path226" />
		<path
   class="st3"
   d="m 764.4,159.4 h 2.7 v 10.1 c 0,1.8 -0.2,3.1 -0.7,4.2 -0.5,1 -1.3,1.9 -2.5,2.5 -1.2,0.6 -2.8,1 -4.8,1 -1.9,0 -3.5,-0.3 -4.7,-0.8 -1.2,-0.6 -2.1,-1.4 -2.6,-2.4 -0.5,-1.1 -0.8,-2.5 -0.8,-4.4 v -10.1 h 2.7 v 10 c 0,1.5 0.2,2.6 0.5,3.3 0.3,0.7 0.9,1.3 1.7,1.7 0.8,0.4 1.8,0.6 3,0.6 2,0 3.4,-0.4 4.3,-1.2 0.9,-0.8 1.3,-2.2 1.3,-4.4 v -10.1 z"
   id="path228" />
		<path
   class="st3"
   d="m 771.7,176.8 v -17.4 h 9.2 c 1.8,0 3.2,0.2 4.2,0.5 1,0.3 1.7,0.9 2.3,1.7 0.6,0.8 0.9,1.7 0.9,2.6 0,1.2 -0.5,2.3 -1.4,3.1 -1,0.8 -2.4,1.4 -4.4,1.6 0.7,0.3 1.3,0.6 1.6,0.9 0.8,0.6 1.6,1.4 2.3,2.3 l 3.6,4.7 h -3.4 l -2.7,-3.6 c -0.8,-1 -1.5,-1.8 -2,-2.4 -0.5,-0.6 -1,-0.9 -1.4,-1.2 -0.4,-0.2 -0.8,-0.4 -1.2,-0.5 -0.3,-0.1 -0.8,-0.1 -1.5,-0.1 h -3.2 v 7.7 h -2.9 z m 2.8,-9.7 h 5.9 c 1.2,0 2.2,-0.1 2.9,-0.3 0.7,-0.2 1.2,-0.6 1.6,-1 0.4,-0.5 0.5,-1 0.5,-1.6 0,-0.8 -0.4,-1.5 -1.1,-2 -0.7,-0.5 -1.8,-0.8 -3.4,-0.8 h -6.5 v 5.7 z"
   id="path230" />
		<path
   class="st3"
   d="m 792.6,176.8 v -17.4 h 14.9 v 2.1 h -12.2 v 5.3 h 11.4 v 2 h -11.4 v 5.9 H 808 v 2.1 z"
   id="path232" />
	</g>
	<g
   id="g258">
		<path
   class="st3"
   d="m 207.2,51.1 h 26.4 c 17.6,0 30.3,5.5 30.3,21.7 v 3.8 c 0,8.7 -4.2,15.7 -10.8,18.7 7.2,3.3 12.1,10.5 12.1,19.4 v 3.8 c 0,15.5 -12.8,22.3 -31.6,22.3 h -15.8 c 0,0 -10.6,-0.1 -10.6,-6.4 z M 218,60 v 31 h 16.7 c 13.7,0 18.5,-5.6 18.5,-16.3 0,-10.9 -6.3,-14.8 -19.5,-14.8 H 218 Z m 0,39.9 v 32.2 h 15.7 c 14.5,0 20.8,-4.5 20.8,-15.4 0,-10.5 -6,-16.8 -19.8,-16.8 z"
   id="path236" />
		<path
   class="st3"
   d="m 282.3,86.5 v 55.3 c 0,0 -10.3,0 -10.3,-6.4 V 75.9 c 3,1.5 5.5,2.1 7.8,2.1 5.4,0 9.7,-2.7 16.8,-2.7 9,0 15.1,3.5 15.1,10.4 0,3.1 -1.2,5.8 -3.6,9.1 0,-7.1 -6.2,-10.4 -13.6,-10.4 -6.7,-0.1 -12.2,2.1 -12.2,2.1 z"
   id="path238" />
		<path
   class="st3"
   d="m 323.3,54.8 c 3,-3 5.6,-6 5.6,-8.9 0,-1 -0.3,-1.9 -0.8,-3 5.4,1.8 14.5,8 3.7,16.8 L 321.5,68 c 0,0 -10.5,-1.7 -5.6,-6.3 z m -7.2,22 c 0.6,0 10.3,0.1 10.3,6.4 v 59 c 0,0 -10.3,0 -10.3,-6.4 z"
   id="path240" />
		<path
   class="st3"
   d="m 334.5,95.5 c 0,-12.7 10.4,-20.3 22.4,-20.3 15.5,0 20,7.1 20,7.1 0,0 -1.3,-3 -1.3,-11.7 V 45.1 c 0.9,0 10.3,-0.1 10.3,7.7 v 89 c -2.8,-1.3 -6.5,-1.7 -8.7,-1.7 -5.1,0 -10.8,2.3 -17.1,2.3 -16.3,0 -25.7,-7.4 -25.7,-20.4 V 95.5 Z m 41.2,0.6 c 0,-7.4 -8.6,-12.6 -17.1,-12.6 -8,0 -13.9,4.2 -13.9,13.9 v 22.7 c 0,9.4 3.7,14 16.9,14 9.6,0 14,-3.2 14,-3.2 V 96.1 Z"
   id="path242" />
		<path
   class="st3"
   d="m 480.7,114 c 0,17.8 -11.3,28.5 -35.4,28.5 -24.2,0 -35.4,-10.6 -35.4,-28.5 V 78.1 c 0,-17.8 11.2,-28.5 35.4,-28.5 24.1,0 35.4,10.6 35.4,28.5 z M 469.9,79.7 c 0,-13.3 -4,-21.3 -24.8,-21.3 -20.5,0 -24.5,8 -24.5,21.3 v 32.6 c 0,13.3 4,21.3 24.5,21.3 20.8,0 24.8,-8 24.8,-21.3 z"
   id="path244" />
		<path
   class="st3"
   d="m 492.4,51.1 h 6.3 c 1.2,0 2.3,1.2 2.3,2.4 v 8.1 c 0,7.8 -1.7,15.9 -8.5,15.9 -1.7,0 -3.8,-0.4 -5.8,-1.7 5.1,-1 5.3,-8.9 4.6,-13.1 L 489.4,51 h 3 z"
   id="path246" />
		<path
   class="st3"
   d="m 580.1,76.3 c 0,-5.4 0.9,-11.5 0.9,-11.5 L 552.6,123 c 0,0 -6,0 -10,-6.4 L 518.4,64.8 c 0,0 0.9,6.2 0.9,11.5 v 65.9 c 0,0 -10.8,0 -10.8,-6.4 V 51.1 h 7.8 c 0.5,0 6.3,-0.1 9.4,6.4 l 23.9,51.2 27.6,-57.6 c 3.1,0 13.9,0 13.9,6.4 v 84.7 c 0,0 -10.8,0 -10.8,-6.4 V 76.3 Z"
   id="path248" />
		<path
   class="st3"
   d="m 651.5,128.9 c 0,9 -12.1,13.6 -24.6,13.6 -16.3,0 -26.4,-7.7 -26.4,-20.7 V 95.9 c 0,-13 9.6,-20.7 25.9,-20.7 16.3,0 24.4,7.7 24.4,19.4 0,10.4 -7.1,19 -25.9,19 -4.4,0 -11,-0.9 -14.1,-3.1 v 9.4 c 0,9 5,13.6 16.9,13.6 11.2,0 20.5,-4.6 20.5,-13.6 2.2,3.3 3.3,6.3 3.3,9 z m -40.8,-26.6 c 0.1,0.3 7.8,2.3 13.3,2.3 12.2,0 16.4,-3.7 16.4,-10 0,-6.5 -3.6,-11 -14.1,-11 -11.4,0 -15.7,5.3 -15.7,14.2 v 4.5 z"
   id="path250" />
		<path
   class="st3"
   d="m 694.3,95.4 c 0,-6.5 -3,-11.2 -14.9,-11.2 -11.9,0 -20,4.6 -20,13.6 -2.4,-3.5 -3.5,-6.7 -3.5,-9.4 0,-8.7 11,-13.2 23.5,-13.2 16.3,0 25.1,7.7 25.1,20.7 v 45.9 c -3.1,-1.3 -5.8,-1.7 -8.5,-1.7 -5.9,0 -11.3,2.3 -18.3,2.3 -11.7,0 -23.7,-5 -23.7,-18.9 0,-24.7 35.8,-15.8 40.3,-28.1 z m 0.4,10.1 c -2.4,8.6 -30.4,3 -30.4,18.2 0,5.6 4.2,10.5 15.3,10.5 9.4,0 15.1,-3.5 15.1,-3.5 z"
   id="path252" />
		<path
   class="st3"
   d="m 720.6,86.5 v 55.3 c 0,0 -10.3,0 -10.3,-6.4 V 75.9 c 3,1.5 5.5,2.1 7.8,2.1 5.4,0 9.7,-2.7 16.8,-2.7 9,0 15.1,3.5 15.1,10.4 0,3.1 -1.2,5.8 -3.6,9.1 0,-7.1 -6.2,-10.4 -13.6,-10.4 -6.7,-0.1 -12.2,2.1 -12.2,2.1 z"
   id="path254" />
		<path
   class="st3"
   d="m 790.8,95.4 c 0,-6.5 -3,-11.2 -14.9,-11.2 -11.9,0 -20,4.6 -20,13.6 -2.4,-3.5 -3.5,-6.7 -3.5,-9.4 0,-8.7 11,-13.2 23.5,-13.2 16.3,0 25.1,7.7 25.1,20.7 v 45.9 c -3.1,-1.3 -5.8,-1.7 -8.5,-1.7 -5.9,0 -11.3,2.3 -18.3,2.3 -11.7,0 -23.7,-5 -23.7,-18.9 0.1,-24.7 35.9,-15.8 40.3,-28.1 z m 0.4,10.1 c -2.4,8.6 -30.4,3 -30.4,18.2 0,5.6 4.2,10.5 15.3,10.5 9.4,0 15.1,-3.5 15.1,-3.5 z"
   id="path256" />
	</g>
</g>
</svg>
