<?xml version="1.0" encoding="utf-8"?>
<!-- Generator: Adobe Illustrator 24.3.0, SVG Export Plug-In . SVG Version: 6.00 Build 0)  -->
<svg version="1.1" id="Layer_1" xmlns="http://www.w3.org/2000/svg" xmlns:xlink="http://www.w3.org/1999/xlink" x="0px" y="0px"
	 viewBox="0 0 450 160" style="enable-background:new 0 0 450 160;" xml:space="preserve">
<style type="text/css">
	.st0{fill:#8CD2D1;}
	.st1{fill:#FAA61A;}
	.st2{fill:#E98EBC;}
	.st3{fill:#808285;}
</style>
<g>
	<circle class="st0" cx="44.3" cy="54.5" r="20.9"/>
	<circle class="st1" cx="26.3" cy="106.4" r="20.9"/>
	<circle class="st2" cx="79.2" cy="95.3" r="20.9"/>
	<g>
		<path class="st3" d="M75.3,122c-12.7,0.3-23.2-9.4-23.7-21.5c0-0.3,0-0.5,0-0.8c0-1.5,0.1-3.1,0.4-4.6c0.3-1.5,0.7-3,1.3-4.4
			c0.6-1.4,1.3-2.8,2.1-4.1c1.7-2.6,3.9-4.8,6.5-6.5l0,0c0,0,0,0,0,0c1.5-0.9,2.8-1.9,4.1-3.1c1.2-1.2,2.4-2.5,3.4-3.9
			c1-1.4,1.8-2.9,2.5-4.5c0.7-1.6,1.2-3.2,1.5-4.9c0.3-1.7,0.5-3.4,0.4-5.1c-0.1-3.4-0.9-6.8-2.5-9.9c-0.4-0.8-0.8-1.5-1.3-2.2
			c-0.5-0.7-1-1.4-1.5-2.1c-1.1-1.3-2.3-2.5-3.7-3.6c-1.4-1.1-2.8-2-4.4-2.7c-1.6-0.7-3.2-1.3-4.9-1.6c-1.2-0.3-2.3-0.4-3.5-0.5
			c10.9,1.7,19.3,10.7,19.6,21.8c0.1,3.8-0.8,7.4-2.5,10.6c-0.5,1.1-1.1,2.2-1.9,3.2c-0.9,1.3-1.9,2.4-3,3.5c-1.1,1-2.3,2-3.6,2.8
			c-1.3,0.8-2.7,1.5-4.1,2c-1.4,0.5-2.9,0.9-4.5,1.1c-1.5,0.2-3.1,0.3-4.6,0.2c-3.1-0.2-6.1-1-8.8-2.4l0,0c0,0,0,0,0,0
			c-0.3-0.2-0.6-0.3-0.9-0.5c-0.1,0-0.1-0.1-0.2-0.1c-1.2-0.6-2.4-1.1-3.7-1.5c-1.6-0.5-3.3-0.8-5-1c-1.7-0.1-3.4-0.1-5.1,0.1
			c-1.7,0.2-3.4,0.6-5,1.2c-1.6,0.6-3.2,1.3-4.6,2.2c-2.9,1.8-5.5,4.2-7.3,7.1c-0.5,0.7-0.9,1.5-1.3,2.2c-0.4,0.8-0.7,1.6-1,2.4
			c-0.3,0.8-0.5,1.6-0.8,2.4c3.1-8.7,11.5-15,21.5-15.2c2.1,0,4.1,0.2,6.1,0.7c0.6,0.1,1.2,0.3,1.9,0.5c1.5,0.4,2.9,1,4.2,1.8
			c1.3,0.7,2.6,1.6,3.8,2.6c1.2,1,2.2,2.1,3.2,3.3c0.9,1.2,1.8,2.5,2.4,3.9c1.4,2.7,2.2,5.8,2.4,8.8l0,0c0,0,0,0,0,0
			c0,1.7,0.2,3.4,0.6,5.1c0.4,1.7,0.9,3.3,1.7,4.8c0.7,1.5,1.6,3,2.6,4.4c1,1.4,2.2,2.6,3.5,3.7c1.3,1.1,2.7,2.1,4.2,2.9
			c3,1.6,6.4,2.6,9.8,2.8c0.9,0.1,1.7,0.1,2.6,0c0.9,0,1.7-0.1,2.6-0.3c1.7-0.3,3.4-0.7,5-1.4c1.6-0.6,3.1-1.5,4.5-2.4
			c0.4-0.3,0.8-0.6,1.2-0.9C83.8,120.6,79.7,121.9,75.3,122z"/>
		<g>
			<path class="st3" d="M39.5,116.1c0.1,0.2,0.1,0.5-0.1,0.7c-3.4,3.2-7.7,5.1-12.3,5.4c-0.3,0-0.6-0.2-0.6-0.5
				c0-0.3,0.2-0.6,0.5-0.6c4.4-0.4,8.4-2.1,11.6-5.1C38.9,115.8,39.2,115.8,39.5,116.1C39.5,116.1,39.5,116.1,39.5,116.1z"/>
			<path class="st3" d="M24.5,121.4c0.1,0.1,0.1,0.2,0.1,0.4c0,0.3-0.3,0.6-0.6,0.5c-5.1-0.4-9.8-2.7-13.3-6.4
				c-3.1-3.3-5-7.4-5.4-11.9c0-0.3,0.2-0.6,0.5-0.6c0.3,0,0.6,0.2,0.6,0.5c0.4,4.2,2.2,8.1,5.1,11.3c3.3,3.5,7.7,5.7,12.5,6
				C24.2,121.2,24.4,121.3,24.5,121.4z"/>
			<path class="st3" d="M12.5,87.2c0.1,0.2,0.1,0.5-0.1,0.7c-3.6,3.4-5.8,8-6.1,12.9c0,0.3-0.3,0.6-0.6,0.6c-0.3,0-0.6-0.3-0.6-0.6
				c0.3-5.2,2.6-10.1,6.4-13.7C11.8,86.9,12.2,86.9,12.5,87.2C12.4,87.2,12.5,87.2,12.5,87.2z"/>
			<path class="st3" d="M15.9,84.6C16,84.6,16,84.6,15.9,84.6c0.2,0.3,0.1,0.7-0.2,0.8c-1.2,0.7-2.3,1.6-3.4,2.5
				c-0.2,0.2-0.6,0.2-0.8,0c-0.2-0.2-0.2-0.6,0-0.8c1.1-1,2.3-1.9,3.6-2.7C15.4,84.3,15.8,84.3,15.9,84.6z"/>
			<path class="st3" d="M40.2,115.5c0.1,0.2,0.1,0.5-0.1,0.7c-0.2,0.2-0.4,0.4-0.6,0.6c-0.2,0.2-0.6,0.2-0.8,0
				c-0.2-0.2-0.2-0.6,0-0.8c0.2-0.2,0.4-0.4,0.6-0.6c0.2-0.2,0.6-0.2,0.8,0C40.1,115.5,40.1,115.5,40.2,115.5z"/>
			<path class="st3" d="M45,96c0.1,0.1,0.1,0.3,0.1,0.4c-0.1,0.3-0.4,0.5-0.7,0.5c-6.7-1.1-13.5,0.9-18.5,5.6
				c-0.2,0.2-0.6,0.2-0.8,0c-0.2-0.2-0.2-0.6,0-0.8c5.3-4.9,12.4-7.1,19.5-5.9C44.8,95.7,44.9,95.8,45,96z"/>
			<path class="st3" d="M45.6,98.6c0.1,0.1,0.1,0.3,0.1,0.4c-0.1,0.3-0.4,0.5-0.7,0.4c-2.5-0.6-5.1-0.6-7.7-0.1
				c-0.3,0.1-0.6-0.2-0.7-0.5c-0.1-0.3,0.2-0.6,0.5-0.7c2.7-0.5,5.5-0.4,8.2,0.2C45.4,98.4,45.5,98.5,45.6,98.6z"/>
			<path class="st3" d="M44,93.3c0.1,0.1,0.1,0.2,0.1,0.4c0,0.3-0.3,0.6-0.7,0.5c-7-0.8-14,1.5-19.2,6.4l-0.1,0.1
				c-0.6,0.7-0.6,1.8,0,2.6c0.7,0.7,1.7,0.8,2.5,0.3l0.2-0.2c2.1-1.9,4.4-3.4,7.1-4.3c0.3-0.1,0.6,0.1,0.8,0.4
				c0.1,0.3-0.1,0.6-0.4,0.8c-2.3,0.8-4.4,2.1-6.3,3.7l0,0l-0.4,0.4c-1.2,1.2-3.2,1.1-4.4-0.1c-1.2-1.2-1.1-3.2,0.1-4.4l0.4-0.4l0,0
				c5.4-4.8,12.5-7.1,19.7-6.3C43.7,93.1,43.9,93.2,44,93.3z"/>
			<path class="st3" d="M45.8,101.2c0.1,0.1,0.1,0.3,0.1,0.5c-0.1,0.3-0.4,0.5-0.7,0.4c-5.2-1.4-10.9-0.2-15,3.2
				c-0.3,0.2-0.6,0.2-0.8-0.1c-0.2-0.3-0.2-0.6,0.1-0.8c4.5-3.7,10.5-5,16.1-3.4C45.6,101,45.7,101.1,45.8,101.2z"/>
			<path class="st3" d="M26.9,94.8c0.2,0.3,0.1,0.6-0.2,0.8c-1.5,0.9-2.9,2-4.2,3.2L22.4,99c-0.8,0.8-1.2,1.8-1.2,2.9
				c0,1.2,0.4,2.3,1.2,3.1c1.2,1.3,3,1.7,4.7,1.1c0.3-0.1,0.6,0,0.8,0.4c0.1,0.3,0,0.6-0.4,0.8c-2.1,0.8-4.4,0.2-5.9-1.4
				c-1-1.1-1.5-2.5-1.5-4c0-1.5,0.7-2.9,1.8-3.9l0.4-0.3l0,0c1.2-1.1,2.6-2.1,4-3C26.3,94.4,26.7,94.5,26.9,94.8
				C26.9,94.8,26.9,94.8,26.9,94.8z"/>
			<path class="st3" d="M42.5,90.7c0.1,0.1,0.1,0.2,0.1,0.3c0,0.3-0.3,0.6-0.6,0.6c-4.3-0.2-8.7,0.7-12.6,2.5
				c-0.3,0.1-0.6,0-0.8-0.3c-0.1-0.3,0-0.6,0.3-0.8c4.1-1.9,8.6-2.8,13.2-2.6C42.3,90.5,42.4,90.6,42.5,90.7z"/>
			<path class="st3" d="M45.7,103.8c0.1,0.1,0.1,0.3,0.1,0.5c-0.1,0.3-0.4,0.5-0.7,0.4c-4.8-1.5-10-0.4-13.8,2.9l-0.3,0.3
				c-3.2,3-8.3,2.9-11.3-0.4c-0.5-0.5-0.9-1.2-1.3-1.8c-0.1-0.3,0-0.6,0.3-0.8c0.3-0.1,0.6,0,0.8,0.3c0.3,0.6,0.7,1.1,1.1,1.5
				c2.5,2.7,6.7,2.9,9.4,0.5l0.2-0.2c4.1-3.8,9.9-5.1,15.2-3.5C45.5,103.6,45.6,103.7,45.7,103.8z"/>
			<path class="st3" d="M40.6,88.2c0.1,0.1,0.1,0.2,0.1,0.3c0,0.3-0.3,0.6-0.6,0.6c-7.2,0.2-14,3-19.2,7.9l-0.2,0.2
				c-1.4,1.4-2.1,3.2-2,5.1c0,0.3-0.2,0.6-0.6,0.6c-0.3,0-0.6-0.2-0.6-0.6c-0.1-2.3,0.8-4.6,2.5-6.2l0.3-0.3l0,0
				c5.4-4.9,12.4-7.7,19.7-7.8C40.3,88,40.5,88.1,40.6,88.2z"/>
			<path class="st3" d="M45.3,106.2c0.1,0.1,0.1,0.3,0.1,0.5c-0.1,0.3-0.4,0.5-0.8,0.4c-1.9-0.7-4-0.8-6-0.4
				c-0.3,0.1-0.6-0.2-0.7-0.5c-0.1-0.3,0.2-0.6,0.5-0.7c2.2-0.4,4.5-0.2,6.6,0.5C45.1,106,45.2,106.1,45.3,106.2z"/>
			<path class="st3" d="M29,88.2C29,88.2,29,88.2,29,88.2c0.2,0.4,0,0.7-0.3,0.9c-3.5,1.5-6.8,3.5-9.6,6.2L19,95.3
				c-3.6,3.5-3.8,9.3-0.3,13c3.4,3.7,9.2,3.9,12.9,0.7l0.2-0.2c1-0.9,2.1-1.7,3.3-2.2c0.3-0.1,0.6,0,0.8,0.3c0.1,0.3,0,0.6-0.3,0.8
				c-1,0.5-1.9,1.1-2.7,1.8l-0.2,0.2c-4.2,4-10.9,3.7-14.8-0.5c-4-4.2-3.7-10.9,0.5-14.8l0.3-0.3l0,0c2.9-2.6,6.1-4.7,9.7-6.1
				C28.5,87.8,28.8,87.9,29,88.2z"/>
			<path class="st3" d="M38,85.9c0,0.1,0.1,0.2,0.1,0.3c0,0.3-0.2,0.6-0.5,0.6c-2,0.2-4,0.6-5.9,1.2c-0.3,0.1-0.6-0.1-0.7-0.4
				c-0.1-0.3,0.1-0.6,0.4-0.7c2-0.6,4.1-1,6.2-1.2C37.7,85.6,37.9,85.7,38,85.9z"/>
			<path class="st3" d="M34.7,83.9c0,0.1,0.1,0.1,0.1,0.2c0.1,0.3-0.2,0.6-0.5,0.7c-6.3,1.2-12.1,4.1-16.8,8.5l-0.1,0.1
				c-1.3,1.2-2.2,2.6-2.9,4.1c-0.1,0.3-0.5,0.4-0.8,0.3c-0.3-0.1-0.4-0.5-0.3-0.8c0.7-1.7,1.7-3.2,3-4.4l0,0l0.2-0.1
				c4.9-4.6,10.9-7.6,17.5-8.9C34.4,83.6,34.6,83.7,34.7,83.9z"/>
			<path class="st3" d="M13.7,100c0.1,0.1,0.1,0.2,0.1,0.4c-0.5,3.5,0.6,7,3.1,9.6c0.6,0.7,1.3,1.3,2.1,1.8c0.3,0.2,0.3,0.5,0.2,0.8
				c-0.2,0.3-0.5,0.3-0.8,0.2c-0.8-0.6-1.6-1.2-2.3-1.9c-2.7-2.9-3.9-6.7-3.4-10.6c0-0.3,0.3-0.6,0.7-0.5
				C13.5,99.8,13.7,99.9,13.7,100z"/>
			<path class="st3" d="M44.6,108.6c0.1,0.1,0.1,0.3,0.1,0.5c-0.1,0.3-0.4,0.5-0.8,0.4c-3.2-1.1-6.7-0.5-9.3,1.8l-0.2,0.2
				c-3.5,3.3-8.6,4.4-13.2,2.8c-0.3-0.1-0.5-0.4-0.4-0.8c0.1-0.3,0.4-0.5,0.8-0.4c4.1,1.4,8.5,0.5,11.7-2.3l0.2-0.2
				c2.9-2.7,7-3.5,10.7-2.2C44.4,108.4,44.5,108.5,44.6,108.6z"/>
			<path class="st3" d="M43.6,110.9c0.1,0.1,0.1,0.3,0.1,0.5c-0.1,0.3-0.4,0.5-0.7,0.4c-2.3-0.7-4.8-0.2-6.6,1.3l-0.2,0.2
				c-0.6,0.6-1.2,1.1-1.9,1.5c-0.3,0.2-0.6,0.1-0.8-0.2c-0.2-0.3-0.1-0.6,0.2-0.8c0.5-0.4,1.1-0.8,1.5-1.2l0.2-0.2
				c2.1-2,5.2-2.7,8-1.8C43.4,110.7,43.5,110.8,43.6,110.9z"/>
			<path class="st3" d="M17.3,89.5c0.2,0.2,0.1,0.6-0.1,0.8c-0.4,0.4-0.8,0.7-1.2,1.1l-0.2,0.2C10,97,9.7,106,15.1,111.7
				c2,2.1,4.6,3.6,7.4,4.2c2.8,0.6,5.7,0.4,8.3-0.7c0.3-0.1,0.6,0,0.8,0.3c0.1,0.3,0,0.6-0.3,0.8c-2.9,1.1-6,1.4-9,0.8
				c-3.1-0.7-5.9-2.2-8-4.6c-5.7-6.1-5.5-15.7,0.4-21.5l0,0l0.3-0.3c0.5-0.5,1-0.9,1.5-1.3C16.7,89.2,17.1,89.2,17.3,89.5
				C17.3,89.5,17.3,89.5,17.3,89.5z"/>
			<path class="st3" d="M30.5,82.4c0,0,0,0.1,0.1,0.1c0.1,0.3-0.1,0.6-0.4,0.7c-3.8,1.1-7.3,2.9-10.5,5.1c-0.3,0.2-0.6,0.1-0.8-0.1
				c-0.2-0.3-0.1-0.6,0.1-0.8c3.3-2.3,7-4.1,10.9-5.3C30.1,82.1,30.4,82.2,30.5,82.4z"/>
			<path class="st3" d="M42.2,113.1c0.1,0.1,0.1,0.3,0.1,0.4c-0.1,0.3-0.4,0.5-0.7,0.5c-1.3-0.3-2.7,0.1-3.7,1l-0.1,0.1
				c-3.5,3.3-8.1,5-12.8,4.8c-4.8-0.2-9.2-2.2-12.5-5.7c-1.4-1.5-2.5-3.1-3.3-5c-0.1-0.3,0-0.6,0.3-0.8c0.3-0.1,0.6,0,0.8,0.3
				c0.8,1.7,1.8,3.3,3.1,4.6c3.1,3.3,7.2,5.1,11.7,5.3c4.4,0.1,8.5-1.4,11.8-4.3l0.2-0.2c1.3-1.2,3.1-1.7,4.9-1.4
				C42,112.9,42.1,113,42.2,113.1z"/>
			<path class="st3" d="M24.8,81.9C24.8,81.9,24.8,82,24.8,81.9c0.2,0.4,0,0.7-0.3,0.8c-3.7,1.7-7.1,4-10.2,6.8l-0.3,0.2
				c-4.4,4.1-6.3,10.4-4.8,16.3c0.1,0.3-0.1,0.6-0.4,0.7c-0.3,0.1-0.6-0.1-0.7-0.4c-1.5-6.1,0.3-12.6,4.8-17.1l0,0l0.4-0.4
				c3.2-3,6.8-5.4,10.7-7.2C24.3,81.6,24.6,81.7,24.8,81.9z"/>
		</g>
		<g>
			<path class="st3" d="M50,78.8c0.1,0.3,0.3,0.4,0.6,0.4c4.6-0.4,8.9-2.4,12.2-5.6c0.2-0.2,0.2-0.6,0-0.8c-0.2-0.2-0.6-0.2-0.8,0
				c-3.2,3-7.1,4.9-11.5,5.3c-0.3,0-0.6,0.3-0.5,0.6C50,78.7,50,78.7,50,78.8z"/>
			<path class="st3" d="M63.9,71c0,0.1,0.1,0.2,0.2,0.3c0.3,0.2,0.6,0.1,0.8-0.1c3.1-4.1,4.5-9.1,4-14.2c-0.4-4.5-2.3-8.7-5.4-12
				c-0.2-0.2-0.6-0.3-0.8,0c-0.2,0.2-0.3,0.6,0,0.8c2.9,3.1,4.7,7,5.1,11.3c0.5,4.8-0.9,9.5-3.8,13.4C63.9,70.6,63.9,70.8,63.9,71z"
				/>
			<path class="st3" d="M46.3,39.3c0.1,0.3,0.3,0.4,0.6,0.4c4.9-0.5,9.8,1,13.7,4c0.3,0.2,0.6,0.2,0.8-0.1c0.2-0.3,0.2-0.6-0.1-0.8
				c-4.1-3.2-9.3-4.8-14.5-4.3c-0.3,0-0.6,0.3-0.5,0.6C46.2,39.3,46.2,39.3,46.3,39.3z"/>
			<path class="st3" d="M42,40.2C42,40.2,42,40.2,42,40.2c0.1,0.3,0.4,0.5,0.7,0.4c1.3-0.4,2.7-0.7,4.1-0.8c0.3,0,0.6-0.3,0.5-0.6
				c0-0.3-0.3-0.6-0.6-0.5c-1.5,0.1-3,0.4-4.4,0.9C42.1,39.6,41.9,39.9,42,40.2z"/>
			<path class="st3" d="M49.1,78.8c0.1,0.3,0.3,0.4,0.6,0.4c0.3,0,0.6,0,0.9-0.1c0.3,0,0.6-0.3,0.5-0.6c0-0.3-0.3-0.6-0.6-0.5
				c-0.3,0-0.6,0-0.8,0.1c-0.3,0-0.6,0.3-0.6,0.6C49.1,78.7,49.1,78.8,49.1,78.8z"/>
			<path class="st3" d="M31.3,69.5c0,0.1,0.1,0.3,0.3,0.3c0.3,0.2,0.6,0.1,0.8-0.2c3.6-5.8,9.6-9.5,16.4-10.2c0.3,0,0.6-0.3,0.5-0.6
				c0-0.3-0.3-0.6-0.6-0.5C41.5,59,35.2,62.9,31.3,69C31.3,69.1,31.2,69.3,31.3,69.5z"/>
			<path class="st3" d="M32.9,71.7c0,0.1,0.1,0.3,0.3,0.3c0.3,0.2,0.6,0.1,0.8-0.2c1.3-2.3,2.9-4.3,5-5.9c0.3-0.2,0.3-0.6,0.1-0.8
				c-0.2-0.3-0.6-0.3-0.8-0.1c-2.2,1.7-4,3.8-5.3,6.2C32.8,71.4,32.8,71.5,32.9,71.7z"/>
			<path class="st3" d="M30,67c0,0.1,0.1,0.2,0.2,0.3c0.3,0.2,0.6,0.1,0.8-0.1c4.1-5.8,10.5-9.5,17.5-10.2l0.2,0
				c1,0,1.8,0.7,1.9,1.7c0.1,1-0.5,1.8-1.5,2l-0.3,0c-2.8,0.3-5.5,1.1-7.9,2.4c-0.3,0.2-0.4,0.5-0.2,0.8c0.2,0.3,0.5,0.4,0.8,0.2
				c2.1-1.2,4.5-1.9,6.9-2.2l0,0l0.6-0.1c1.7-0.2,2.9-1.7,2.8-3.4c-0.2-1.7-1.7-2.9-3.4-2.8l-0.5,0.1l0,0
				c-7.2,0.8-13.6,4.7-17.8,10.6C29.9,66.6,29.9,66.8,30,67z"/>
			<path class="st3" d="M34.7,73.6c0,0.2,0.2,0.3,0.3,0.4c0.3,0.1,0.6,0,0.8-0.3c2.4-4.9,7-8.3,12.4-9.1c0.3-0.1,0.5-0.4,0.5-0.7
				c-0.1-0.3-0.4-0.5-0.7-0.5c-5.7,0.9-10.7,4.6-13.2,9.8C34.6,73.3,34.6,73.4,34.7,73.6z"/>
			<path class="st3" d="M42.4,55.1c0.1,0.3,0.4,0.5,0.7,0.4c1.7-0.5,3.4-0.8,5.2-1l0.2,0c1.1,0,2.1,0.3,3,1c0.9,0.7,1.5,1.8,1.6,3
				c0.2,1.7-0.7,3.4-2.3,4.3c-0.3,0.2-0.4,0.5-0.2,0.8c0.2,0.3,0.5,0.4,0.8,0.2c2-1.1,3.1-3.2,2.9-5.4c-0.1-1.5-0.8-2.8-2-3.8
				c-1.1-0.9-2.6-1.4-4.1-1.2l-0.5,0l0,0c-1.7,0.2-3.3,0.5-4.9,1C42.5,54.5,42.3,54.8,42.4,55.1C42.4,55.1,42.4,55.1,42.4,55.1z"/>
			<path class="st3" d="M29,64.2c0,0.1,0.1,0.2,0.2,0.3c0.3,0.2,0.6,0.2,0.8-0.1c2.7-3.4,6.3-6.1,10.2-7.8c0.3-0.1,0.4-0.5,0.3-0.8
				c-0.1-0.3-0.5-0.4-0.8-0.3c-4.1,1.8-7.8,4.6-10.7,8.1C29,63.8,28.9,64,29,64.2z"/>
			<path class="st3" d="M36.6,75.2c0,0.2,0.2,0.3,0.3,0.4c0.3,0.1,0.6,0,0.8-0.3c2-4.6,6.4-7.8,11.3-8.4l0.4,0
				c4.4-0.4,7.7-4.3,7.2-8.8c-0.1-0.7-0.2-1.5-0.5-2.2c-0.1-0.3-0.5-0.5-0.8-0.3c-0.3,0.1-0.5,0.5-0.3,0.8c0.2,0.6,0.4,1.2,0.4,1.8
				c0.3,3.7-2.3,6.9-5.9,7.4l-0.3,0c-5.5,0.5-10.4,4-12.7,9.1C36.6,74.9,36.6,75.1,36.6,75.2z"/>
			<path class="st3" d="M28.4,61c0,0.1,0.1,0.2,0.2,0.3c0.2,0.2,0.6,0.2,0.8,0c4.9-5.3,11.5-8.5,18.6-9.2l0.2,0
				c1.9-0.1,3.8,0.6,5.2,1.9c0.2,0.2,0.6,0.2,0.8,0c0.2-0.2,0.2-0.6,0-0.8c-1.7-1.6-4-2.4-6.3-2.2l-0.5,0l0,0
				c-7.2,0.8-13.9,4.2-18.9,9.5C28.4,60.6,28.4,60.9,28.4,61z"/>
			<path class="st3" d="M38.8,76.5c0,0.2,0.2,0.3,0.3,0.4c0.3,0.1,0.6,0,0.8-0.3c0.8-1.9,2-3.5,3.6-4.8c0.3-0.2,0.3-0.6,0.1-0.8
				c-0.2-0.3-0.6-0.3-0.8-0.1c-1.8,1.4-3.2,3.2-4,5.3C38.7,76.2,38.7,76.4,38.8,76.5z"/>
			<path class="st3" d="M36,52.3C36,52.4,36.1,52.4,36,52.3c0.2,0.4,0.5,0.5,0.8,0.4c3.4-1.7,7.1-2.7,11-3.1l0.2,0
				c5-0.4,9.5,3.4,10,8.4c0.5,5-3.1,9.5-8.1,10.1l-0.3,0c-1.3,0.1-2.6,0.5-3.8,1c-0.3,0.1-0.4,0.5-0.3,0.8c0.1,0.3,0.5,0.4,0.8,0.3
				c1-0.4,2.1-0.7,3.1-0.8l0.3,0c5.8-0.5,10-5.7,9.5-11.4c-0.5-5.8-5.7-10-11.4-9.5l-0.4,0l0,0c-3.8,0.4-7.5,1.5-11,3.2
				C36.1,51.8,36,52.1,36,52.3z"/>
			<path class="st3" d="M28.4,57.6c0,0.1,0.1,0.2,0.1,0.2c0.2,0.2,0.6,0.3,0.8,0c1.5-1.4,3.1-2.6,4.8-3.7c0.3-0.2,0.4-0.5,0.2-0.8
				c-0.2-0.3-0.5-0.4-0.8-0.2c-1.8,1.1-3.5,2.4-5,3.8C28.4,57.2,28.3,57.4,28.4,57.6z"/>
			<path class="st3" d="M29,53.8c0,0.1,0.1,0.1,0.1,0.2c0.2,0.3,0.6,0.3,0.8,0.1c5.1-3.9,11.1-6.3,17.5-7l0.1,0c1.7-0.2,3.4,0,5,0.6
				c0.3,0.1,0.6-0.1,0.8-0.4c0.1-0.3-0.1-0.6-0.4-0.8c-1.7-0.6-3.5-0.8-5.3-0.7l0,0l-0.2,0c-6.7,0.6-13,3.1-18.2,7.2
				C29,53.3,29,53.6,29,53.8z"/>
			<path class="st3" d="M55,48.8c0,0.1,0.1,0.2,0.2,0.3c3,2,4.8,5.1,5.2,8.7c0.1,0.9,0.1,1.8-0.1,2.7c0,0.3,0.2,0.6,0.5,0.7
				c0.3,0,0.6-0.2,0.7-0.5c0.1-1,0.2-2,0.1-3c-0.4-3.9-2.4-7.4-5.7-9.5c-0.3-0.2-0.6-0.1-0.8,0.2C55,48.4,55,48.6,55,48.8z"/>
			<path class="st3" d="M41,77.5c0.1,0.2,0.2,0.3,0.3,0.4c0.3,0.1,0.6,0,0.8-0.3c1.3-3.2,4.1-5.3,7.5-5.8l0.3,0
				c4.8-0.5,9-3.5,10.8-8c0.1-0.3,0-0.6-0.3-0.8c-0.3-0.1-0.6,0-0.8,0.3c-1.6,4-5.2,6.7-9.5,7.2l-0.3,0c-3.9,0.4-7.3,2.9-8.8,6.5
				C41,77.3,41,77.4,41,77.5z"/>
			<path class="st3" d="M43.4,78.3c0,0.2,0.2,0.3,0.3,0.4c0.3,0.1,0.6,0,0.8-0.3c1-2.2,3-3.8,5.4-4.1l0.3,0c0.8-0.1,1.6-0.2,2.4-0.4
				c0.3-0.1,0.5-0.4,0.4-0.7c-0.1-0.3-0.4-0.5-0.7-0.4C51.7,72.8,51,73,50.4,73l-0.3,0c-2.9,0.3-5.5,2.1-6.6,4.8
				C43.4,78,43.4,78.2,43.4,78.3z"/>
			<path class="st3" d="M44.8,44.5c0.1,0.3,0.4,0.5,0.7,0.4c0.5-0.1,1.1-0.1,1.6-0.2l0.3,0c7.8-0.7,14.8,5,15.6,12.8
				c0.3,2.9-0.3,5.8-1.8,8.3c-1.4,2.5-3.5,4.5-6,5.8c-0.3,0.1-0.4,0.5-0.3,0.8c0.1,0.3,0.5,0.4,0.8,0.3c2.8-1.4,5-3.5,6.5-6.2
				c1.6-2.8,2.2-5.9,1.9-9c-0.8-8.3-8.1-14.5-16.4-14l0,0l-0.4,0c-0.7,0.1-1.3,0.1-2,0.2C44.9,43.8,44.7,44.1,44.8,44.5
				C44.8,44.4,44.8,44.5,44.8,44.5z"/>
			<path class="st3" d="M30.7,49.6c0,0,0,0.1,0.1,0.1c0.2,0.3,0.5,0.4,0.8,0.2c3.3-2.1,7-3.6,10.8-4.5c0.3-0.1,0.5-0.4,0.4-0.7
				c-0.1-0.3-0.4-0.5-0.7-0.4c-4,0.9-7.7,2.5-11.2,4.6C30.7,49.1,30.6,49.4,30.7,49.6z"/>
			<path class="st3" d="M45.9,78.7c0,0.1,0.1,0.3,0.3,0.3c0.3,0.2,0.6,0.1,0.8-0.2c0.7-1.2,1.9-1.9,3.2-2.1l0.2,0
				c4.8-0.5,9.1-2.7,12.1-6.4c3.1-3.7,4.5-8.3,4-13.1c-0.2-2-0.7-3.9-1.5-5.7c-0.1-0.3-0.5-0.4-0.8-0.3c-0.3,0.1-0.4,0.5-0.3,0.8
				c0.8,1.7,1.3,3.5,1.4,5.4c0.4,4.5-0.9,8.8-3.8,12.2c-2.8,3.4-6.7,5.5-11,6l-0.3,0c-1.8,0.2-3.4,1.2-4.3,2.7
				C45.9,78.4,45.9,78.6,45.9,78.7z"/>
			<path class="st3" d="M34.2,45C34.2,45,34.2,45.1,34.2,45c0.2,0.4,0.5,0.5,0.8,0.4c3.7-1.7,7.7-2.7,11.8-3.1l0.4,0
				c6-0.6,11.9,2.2,15.4,7.2c0.2,0.3,0.6,0.3,0.8,0.2c0.3-0.2,0.3-0.6,0.2-0.8c-3.6-5.2-9.7-8.1-15.9-7.7l0,0L47,41
				c-4.3,0.4-8.6,1.5-12.5,3.3C34.2,44.4,34.1,44.7,34.2,45z"/>
		</g>
		<g>
			<path class="st3" d="M83.9,80.8c0.2-0.2,0.5-0.3,0.7-0.2c4.2,2.1,7.4,5.4,9.4,9.6c0.1,0.3,0,0.6-0.3,0.8c-0.3,0.1-0.6,0-0.8-0.3
				c-1.9-4-4.9-7.1-8.9-9c-0.3-0.1-0.4-0.5-0.3-0.8C83.9,80.8,83.9,80.8,83.9,80.8z"/>
			<path class="st3" d="M94.2,93c0.1-0.1,0.2-0.2,0.3-0.2c0.3-0.1,0.6,0.1,0.7,0.4c1.4,4.9,1,10.1-1.3,14.7c-2,4.1-5.2,7.3-9.3,9.3
				c-0.3,0.1-0.6,0-0.8-0.3c-0.1-0.3,0-0.6,0.3-0.8c3.8-1.9,6.8-4.9,8.7-8.7c2.1-4.3,2.6-9.2,1.2-13.9C94,93.3,94,93.1,94.2,93z"/>
			<path class="st3" d="M66.4,116.3c0.2-0.2,0.5-0.3,0.7-0.2c4.4,2.2,9.5,2.6,14.2,1.1c0.3-0.1,0.6,0.1,0.7,0.4
				c0.1,0.3-0.1,0.6-0.4,0.7c-5,1.6-10.4,1.1-15.1-1.2c-0.3-0.1-0.4-0.5-0.3-0.8C66.3,116.3,66.4,116.3,66.4,116.3z"/>
			<path class="st3" d="M62.7,114C62.7,114,62.7,114,62.7,114c0.2-0.3,0.6-0.3,0.8-0.1c1.1,0.9,2.3,1.6,3.5,2.3
				c0.3,0.1,0.4,0.5,0.3,0.8c-0.1,0.3-0.5,0.4-0.8,0.3c-1.3-0.7-2.6-1.5-3.8-2.4C62.6,114.6,62.5,114.2,62.7,114z"/>
			<path class="st3" d="M83.1,80.4c0.2-0.2,0.5-0.3,0.7-0.2c0.3,0.1,0.5,0.2,0.8,0.4c0.3,0.1,0.4,0.5,0.3,0.8
				c-0.1,0.3-0.5,0.4-0.8,0.3c-0.3-0.1-0.5-0.2-0.8-0.4c-0.3-0.1-0.4-0.5-0.3-0.8C83.1,80.5,83.1,80.4,83.1,80.4z"/>
			<path class="st3" d="M63.1,82.8c0.1-0.1,0.2-0.2,0.4-0.2c0.3-0.1,0.6,0.1,0.7,0.5c1.3,6.7,5.6,12.3,11.7,15.3
				c0.3,0.1,0.4,0.5,0.3,0.8c-0.1,0.3-0.5,0.4-0.8,0.3c-6.5-3.2-11-9.1-12.4-16.2C63,83.1,63,82.9,63.1,82.8z"/>
			<path class="st3" d="M65.4,81.3c0.1-0.1,0.2-0.2,0.4-0.2c0.3,0,0.6,0.2,0.7,0.5c0.4,2.6,1.2,5,2.6,7.2c0.2,0.3,0.1,0.6-0.2,0.8
				c-0.3,0.2-0.6,0.1-0.8-0.2c-1.4-2.4-2.3-5-2.7-7.7C65.2,81.6,65.3,81.4,65.4,81.3z"/>
			<path class="st3" d="M61,84.7c0.1-0.1,0.2-0.2,0.3-0.2c0.3-0.1,0.6,0.1,0.7,0.4c1.8,6.9,6.4,12.6,12.7,15.7l0.2,0.1
				c0.9,0.3,1.9,0,2.4-0.9c0.4-0.9,0.1-1.9-0.6-2.4l-0.2-0.1c-2.5-1.2-4.7-3-6.5-5.1c-0.2-0.2-0.2-0.6,0.1-0.8
				c0.2-0.2,0.6-0.2,0.8,0.1c1.6,1.9,3.5,3.4,5.7,4.6l0,0l0.5,0.3c1.5,0.8,2.2,2.6,1.4,4.1c-0.8,1.5-2.6,2.2-4.1,1.4l-0.5-0.2l0,0
				c-6.4-3.3-11.1-9.2-12.9-16.2C60.8,85,60.9,84.8,61,84.7z"/>
			<path class="st3" d="M67.7,80.2c0.1-0.1,0.2-0.2,0.4-0.2c0.3,0,0.6,0.2,0.6,0.5c0.5,5.4,3.6,10.2,8.3,12.9
				c0.3,0.2,0.4,0.5,0.2,0.8c-0.2,0.3-0.5,0.4-0.8,0.2c-5-2.9-8.3-8.1-8.9-13.9C67.6,80.4,67.6,80.3,67.7,80.2z"/>
			<path class="st3" d="M68.4,100.1c0.2-0.3,0.6-0.3,0.8-0.1c1.4,1.1,2.9,2,4.5,2.8l0.2,0.1c1,0.4,2.1,0.5,3.1,0.1
				c1.1-0.4,2-1.2,2.5-2.2c0.8-1.6,0.5-3.4-0.6-4.8c-0.2-0.2-0.2-0.6,0.1-0.8c0.2-0.2,0.6-0.2,0.8,0.1c1.4,1.7,1.7,4.1,0.8,6.1
				c-0.7,1.3-1.8,2.3-3.2,2.8c-1.4,0.5-2.9,0.4-4.2-0.3l-0.5-0.2l0,0c-1.5-0.8-2.9-1.7-4.2-2.7C68.2,100.8,68.2,100.4,68.4,100.1
				C68.4,100.1,68.4,100.1,68.4,100.1z"/>
			<path class="st3" d="M59.1,86.9c0.1-0.1,0.2-0.2,0.3-0.2c0.3-0.1,0.6,0.1,0.7,0.4c1.3,4.1,3.7,7.9,6.8,10.9
				c0.2,0.2,0.2,0.6,0,0.8c-0.2,0.2-0.6,0.2-0.8,0c-3.2-3.1-5.7-7.1-7.1-11.4C58.9,87.3,59,87.1,59.1,86.9z"/>
			<path class="st3" d="M70.1,79.4c0.1-0.1,0.3-0.2,0.4-0.2c0.3,0,0.6,0.2,0.6,0.6c0.3,5,3.2,9.5,7.6,11.8l0.3,0.2
				c4,2,5.6,6.8,3.7,10.8c-0.3,0.7-0.7,1.3-1.2,1.8c-0.2,0.2-0.6,0.3-0.8,0c-0.2-0.2-0.3-0.6,0-0.8c0.4-0.5,0.8-1,1.1-1.6
				c1.6-3.3,0.3-7.3-2.8-9l-0.3-0.1c-5-2.5-8.3-7.4-8.6-13C70,79.6,70.1,79.5,70.1,79.4z"/>
			<path class="st3" d="M57.4,89.7c0.1-0.1,0.1-0.1,0.2-0.2c0.3-0.1,0.6,0,0.8,0.3c2.7,6.6,7.7,12.1,14.1,15.2l0.2,0.1
				c1.8,0.8,3.8,0.8,5.5,0.1c0.3-0.1,0.6,0,0.8,0.3c0.1,0.3,0,0.6-0.3,0.8c-2.2,0.9-4.6,0.9-6.7-0.2l-0.4-0.2l0,0
				c-6.5-3.3-11.6-8.9-14.3-15.6C57.3,90,57.3,89.8,57.4,89.7z"/>
			<path class="st3" d="M72.6,78.9c0.1-0.1,0.3-0.2,0.5-0.2c0.3,0,0.6,0.2,0.6,0.6c0.1,2,0.6,4,1.7,5.8c0.2,0.3,0.1,0.6-0.2,0.8
				c-0.3,0.2-0.6,0.1-0.8-0.2c-1.2-1.9-1.8-4.1-1.9-6.4C72.5,79.1,72.5,79,72.6,78.9z"/>
			<path class="st3" d="M61.5,100.5C61.5,100.5,61.5,100.5,61.5,100.5c0.3-0.3,0.7-0.3,0.9,0c2.6,2.8,5.7,5.1,9.1,6.8l0.2,0.1
				c4.6,2.2,10.1,0.2,12.3-4.3c2.2-4.5,0.4-10-4-12.3l-0.3-0.1c-1.2-0.6-2.3-1.4-3.2-2.3c-0.2-0.2-0.2-0.6,0-0.8
				c0.2-0.2,0.6-0.2,0.8,0c0.8,0.8,1.7,1.4,2.6,1.9l0.3,0.1c5.2,2.6,7.3,8.9,4.8,14.1c-2.6,5.2-8.9,7.3-14.1,4.8l-0.3-0.2l0,0
				c-3.5-1.7-6.5-4.1-9.1-6.9C61.3,101.1,61.3,100.7,61.5,100.5z"/>
			<path class="st3" d="M56.2,92.9c0.1-0.1,0.1-0.1,0.2-0.2c0.3-0.1,0.6,0,0.8,0.3c0.9,1.8,2,3.5,3.2,5.1c0.2,0.3,0.1,0.6-0.1,0.8
				c-0.3,0.2-0.6,0.1-0.8-0.1c-1.3-1.7-2.4-3.5-3.3-5.3C56,93.3,56,93,56.2,92.9z"/>
			<path class="st3" d="M55.4,96.6c0-0.1,0.1-0.1,0.2-0.1c0.3-0.2,0.6-0.1,0.8,0.2c3.3,5.5,8.1,9.9,13.9,12.7l0.1,0.1
				c1.5,0.8,3.2,1.2,4.9,1.2c0.3,0,0.6,0.3,0.6,0.6c0,0.3-0.3,0.6-0.6,0.6c-1.8,0-3.5-0.5-5.2-1.2l0,0l-0.2-0.1
				c-6-3-11-7.5-14.5-13.2C55.3,97.1,55.3,96.8,55.4,96.6z"/>
			<path class="st3" d="M77.9,110.6c0.1-0.1,0.2-0.2,0.3-0.2c3.5-0.8,6.4-3.1,7.9-6.3c0.4-0.8,0.7-1.7,0.9-2.6
				c0.1-0.3,0.4-0.5,0.7-0.4c0.3,0.1,0.5,0.4,0.4,0.7c-0.2,1-0.6,1.9-1,2.8c-1.7,3.5-4.9,6-8.7,6.9c-0.3,0.1-0.6-0.1-0.7-0.4
				C77.8,110.9,77.8,110.7,77.9,110.6z"/>
			<path class="st3" d="M75.1,78.7c0.1-0.1,0.3-0.2,0.5-0.2c0.3,0,0.6,0.3,0.6,0.6c0.1,3.4,2,6.5,4.9,8.1l0.3,0.1
				c4.3,2.1,7.1,6.5,7.2,11.3c0,0.3-0.2,0.6-0.6,0.6c-0.3,0-0.6-0.3-0.6-0.6c-0.1-4.3-2.5-8.2-6.3-10.1l-0.3-0.1
				C77.3,86.6,75,83,75,79.1C75,79,75,78.8,75.1,78.7z"/>
			<path class="st3" d="M77.6,78.9c0.1-0.1,0.3-0.2,0.4-0.2c0.3,0,0.6,0.2,0.6,0.6c0.1,2.4,1.5,4.6,3.6,5.7l0.2,0.1
				c0.7,0.4,1.4,0.8,2.1,1.3c0.3,0.2,0.3,0.6,0.1,0.8c-0.2,0.3-0.6,0.3-0.8,0.1c-0.5-0.4-1.1-0.7-1.7-1l-0.3-0.1
				c-2.6-1.3-4.3-3.9-4.5-6.8C77.4,79.1,77.5,79,77.6,78.9z"/>
			<path class="st3" d="M66.8,110.9c0.2-0.2,0.5-0.3,0.8-0.2c0.5,0.3,1,0.5,1.5,0.8l0.2,0.1c7.1,3.5,15.6,0.6,19.1-6.5
				c1.3-2.6,1.7-5.5,1.3-8.4c-0.4-2.8-1.7-5.4-3.6-7.5c-0.2-0.2-0.2-0.6,0-0.8c0.2-0.2,0.6-0.2,0.8,0c2.1,2.3,3.4,5.1,3.9,8.1
				c0.5,3.1,0,6.3-1.4,9.1c-3.7,7.5-12.7,10.7-20.3,7.2l0,0l-0.4-0.2c-0.6-0.3-1.2-0.6-1.8-0.9C66.7,111.7,66.6,111.3,66.8,110.9
				C66.8,111,66.8,111,66.8,110.9z"/>
			<path class="st3" d="M55.5,101.1c0,0,0.1-0.1,0.1-0.1c0.3-0.2,0.6-0.1,0.8,0.1c2.4,3.1,5.3,5.8,8.5,8c0.3,0.2,0.3,0.6,0.2,0.8
				c-0.2,0.3-0.6,0.3-0.8,0.2c-3.4-2.3-6.3-5.1-8.8-8.3C55.3,101.6,55.3,101.3,55.5,101.1z"/>
			<path class="st3" d="M80.1,79.4c0.1-0.1,0.2-0.2,0.4-0.2c0.3-0.1,0.6,0.2,0.7,0.5c0.2,1.3,1,2.5,2.2,3.1l0.2,0.1
				c4.3,2.1,7.5,5.8,9,10.3c1.5,4.5,1.2,9.4-0.9,13.7c-0.9,1.8-2.1,3.4-3.5,4.8c-0.2,0.2-0.6,0.2-0.8,0c-0.2-0.2-0.2-0.6,0-0.8
				c1.3-1.3,2.4-2.8,3.2-4.5c2-4,2.3-8.5,0.8-12.8c-1.4-4.1-4.3-7.5-8.2-9.5L83,83.9c-1.6-0.8-2.7-2.3-3-4.1
				C80,79.6,80,79.5,80.1,79.4z"/>
			<path class="st3" d="M57.1,106.7C57.1,106.7,57.1,106.6,57.1,106.7c0.3-0.3,0.7-0.3,0.9-0.1c2.9,2.9,6.2,5.3,9.9,7.1l0.3,0.2
				c5.4,2.7,11.9,2.2,16.9-1.2c0.3-0.2,0.6-0.1,0.8,0.2c0.2,0.3,0.1,0.6-0.2,0.8c-5.2,3.6-11.9,4.2-17.6,1.5l0,0l-0.5-0.2
				c-3.9-1.9-7.5-4.5-10.5-7.5C56.9,107.2,56.9,106.9,57.1,106.7z"/>
		</g>
	</g>
	<g>
		<path class="st3" d="M108.2,119.9V110h4.4c0.9,0,1.6,0.1,2.2,0.3c0.5,0.2,1,0.5,1.3,0.9c0.3,0.4,0.5,0.9,0.5,1.3
			c0,0.4-0.1,0.8-0.4,1.2c-0.3,0.4-0.7,0.7-1.2,0.9c0.7,0.2,1.3,0.5,1.6,0.9c0.4,0.4,0.6,0.9,0.6,1.5c0,0.5-0.1,0.9-0.3,1.3
			c-0.2,0.4-0.5,0.7-0.9,0.9s-0.8,0.4-1.3,0.5c-0.5,0.1-1.1,0.2-1.9,0.2H108.2z M109.8,114.1h2.5c0.7,0,1.2,0,1.5-0.1
			c0.4-0.1,0.7-0.3,0.9-0.5c0.2-0.2,0.3-0.5,0.3-0.9c0-0.3-0.1-0.6-0.3-0.9c-0.2-0.3-0.5-0.4-0.8-0.5c-0.3-0.1-0.9-0.1-1.8-0.1h-2.4
			V114.1z M109.8,118.7h2.9c0.5,0,0.9,0,1.1,0c0.4-0.1,0.7-0.1,0.9-0.3c0.2-0.1,0.4-0.3,0.6-0.6c0.2-0.2,0.2-0.5,0.2-0.8
			c0-0.4-0.1-0.7-0.3-1c-0.2-0.3-0.5-0.5-0.9-0.6c-0.4-0.1-1-0.2-1.7-0.2h-2.7V118.7z"/>
		<path class="st3" d="M127,110h1.6v5.7c0,1-0.1,1.8-0.4,2.4c-0.3,0.6-0.8,1.1-1.4,1.4c-0.7,0.4-1.6,0.6-2.8,0.6
			c-1.1,0-2-0.2-2.7-0.5c-0.7-0.3-1.2-0.8-1.5-1.4c-0.3-0.6-0.4-1.4-0.4-2.5V110h1.6v5.7c0,0.9,0.1,1.5,0.3,1.9
			c0.2,0.4,0.5,0.7,1,0.9c0.5,0.2,1,0.3,1.7,0.3c1.1,0,2-0.2,2.4-0.7c0.5-0.4,0.7-1.3,0.7-2.5V110z"/>
		<path class="st3" d="M131.4,119.9V110h1.6v9.9H131.4z"/>
		<path class="st3" d="M135.6,119.9V110h1.6v8.7h5.8v1.2H135.6z"/>
		<path class="st3" d="M144.8,119.9V110h4.1c0.9,0,1.6,0,2.1,0.1c0.7,0.1,1.3,0.4,1.7,0.7c0.6,0.4,1.1,1,1.4,1.7
			c0.3,0.7,0.5,1.5,0.5,2.4c0,0.8-0.1,1.4-0.3,2c-0.2,0.6-0.5,1.1-0.8,1.4c-0.3,0.4-0.7,0.7-1.1,0.9c-0.4,0.2-0.9,0.4-1.4,0.5
			c-0.5,0.1-1.2,0.2-1.9,0.2H144.8z M146.4,118.7h2.5c0.8,0,1.4-0.1,1.8-0.2c0.4-0.1,0.8-0.3,1.1-0.5c0.4-0.3,0.7-0.7,0.9-1.3
			c0.2-0.5,0.3-1.2,0.3-1.9c0-1-0.2-1.8-0.6-2.4c-0.4-0.6-0.9-0.9-1.5-1.1c-0.4-0.1-1.1-0.2-2-0.2h-2.5V118.7z"/>
		<path class="st3" d="M157,119.9V110h1.6v9.9H157z"/>
		<path class="st3" d="M161.3,119.9V110h1.6l6.2,7.8V110h1.5v9.9h-1.6l-6.2-7.8v7.8H161.3z"/>
		<path class="st3" d="M178.7,116v-1.2l5,0v3.7c-0.8,0.5-1.6,0.9-2.4,1.2c-0.8,0.3-1.6,0.4-2.5,0.4c-1.2,0-2.2-0.2-3.2-0.6
			c-0.9-0.4-1.7-1-2.1-1.8c-0.5-0.8-0.7-1.7-0.7-2.6c0-1,0.2-1.9,0.7-2.7c0.5-0.8,1.2-1.5,2.1-1.9c0.9-0.4,1.9-0.6,3.1-0.6
			c0.9,0,1.6,0.1,2.3,0.3c0.7,0.2,1.2,0.6,1.6,1c0.4,0.4,0.7,1,0.9,1.6l-1.4,0.3c-0.2-0.5-0.4-0.9-0.7-1.2c-0.3-0.3-0.6-0.5-1.1-0.7
			c-0.5-0.2-1-0.3-1.6-0.3c-0.7,0-1.3,0.1-1.8,0.3c-0.5,0.2-0.9,0.4-1.3,0.7s-0.6,0.6-0.7,1c-0.3,0.6-0.4,1.3-0.4,2
			c0,0.9,0.2,1.6,0.5,2.2c0.4,0.6,0.9,1,1.6,1.3s1.4,0.4,2.2,0.4c0.7,0,1.3-0.1,2-0.3c0.6-0.2,1.1-0.5,1.5-0.7V116H178.7z"/>
		<path class="st3" d="M188.3,119.9l4.5-9.9h1.7l4.8,9.9h-1.8l-1.4-3h-4.9l-1.3,3H188.3z M191.7,115.8h4l-1.2-2.7
			c-0.4-0.8-0.7-1.5-0.8-2.1c-0.1,0.6-0.4,1.3-0.6,1.9L191.7,115.8z"/>
		<path class="st3" d="M204.2,119.9V110h2.3l2.8,7c0.3,0.7,0.4,1.1,0.6,1.5c0.1-0.4,0.3-0.9,0.6-1.6l2.8-6.9h2.1v9.9h-1.5v-8.3
			l-3.4,8.3h-1.4l-3.4-8.4v8.4H204.2z"/>
		<path class="st3" d="M218,119.9V110h8.5v1.2h-7v3h6.5v1.2h-6.5v3.4h7.2v1.2H218z"/>
		<path class="st3" d="M228.9,119.9V110h1.6l6.2,7.8V110h1.5v9.9h-1.6l-6.2-7.8v7.8H228.9z"/>
		<path class="st3" d="M243.8,119.9v-8.7h-3.9V110h9.3v1.2h-3.9v8.7H243.8z"/>
		<path class="st3" d="M248.3,119.9l4.5-9.9h1.7l4.8,9.9h-1.8l-1.4-3h-4.9l-1.3,3H248.3z M251.7,115.8h4l-1.2-2.7
			c-0.4-0.8-0.7-1.5-0.8-2.1c-0.1,0.6-0.4,1.3-0.6,1.9L251.7,115.8z"/>
		<path class="st3" d="M260.5,119.9V110h1.6v8.7h5.8v1.2H260.5z"/>
		<path class="st3" d="M275.8,119.9l-3.1-9.9h1.6l1.8,6.5c0.2,0.7,0.4,1.4,0.5,2c0.3-1.1,0.5-1.7,0.5-1.8l2.2-6.7h1.9l1.7,5
			c0.4,1.2,0.7,2.4,0.9,3.5c0.2-0.6,0.3-1.3,0.6-2.2l1.8-6.4h1.6l-3.2,9.9H283l-2.5-7.6c-0.2-0.6-0.3-1-0.4-1.2
			c-0.1,0.5-0.2,0.8-0.3,1.2l-2.5,7.6H275.8z"/>
		<path class="st3" d="M289.3,119.9V110h8.5v1.2h-7v3h6.5v1.2h-6.5v3.4h7.2v1.2H289.3z"/>
		<path class="st3" d="M300.1,119.9V110h1.6v8.7h5.8v1.2H300.1z"/>
		<path class="st3" d="M309.3,119.9V110h1.6v8.7h5.8v1.2H309.3z"/>
		<path class="st3" d="M318.4,119.9V110h4.4c0.9,0,1.6,0.1,2.2,0.3c0.5,0.2,1,0.5,1.3,0.9c0.3,0.4,0.5,0.9,0.5,1.3
			c0,0.4-0.1,0.8-0.4,1.2c-0.3,0.4-0.7,0.7-1.2,0.9c0.7,0.2,1.3,0.5,1.6,0.9c0.4,0.4,0.6,0.9,0.6,1.5c0,0.5-0.1,0.9-0.3,1.3
			c-0.2,0.4-0.5,0.7-0.9,0.9s-0.8,0.4-1.3,0.5c-0.5,0.1-1.2,0.2-1.9,0.2H318.4z M320,114.1h2.5c0.7,0,1.2,0,1.5-0.1
			c0.4-0.1,0.7-0.3,0.9-0.5c0.2-0.2,0.3-0.5,0.3-0.9c0-0.3-0.1-0.6-0.3-0.9c-0.2-0.3-0.5-0.4-0.8-0.5c-0.3-0.1-0.9-0.1-1.8-0.1H320
			V114.1z M320,118.7h2.9c0.5,0,0.9,0,1.1,0c0.4-0.1,0.7-0.1,0.9-0.3c0.2-0.1,0.4-0.3,0.6-0.6c0.2-0.2,0.2-0.5,0.2-0.8
			c0-0.4-0.1-0.7-0.3-1c-0.2-0.3-0.5-0.5-0.9-0.6c-0.4-0.1-1-0.2-1.7-0.2H320V118.7z"/>
		<path class="st3" d="M329.5,119.9V110h8.5v1.2h-7v3h6.5v1.2h-6.5v3.4h7.2v1.2H329.5z"/>
		<path class="st3" d="M340.7,119.9V110h1.6v9.9H340.7z"/>
		<path class="st3" d="M345,119.9V110h1.6l6.2,7.8V110h1.5v9.9h-1.6l-6.2-7.8v7.8H345z"/>
		<path class="st3" d="M362.4,116v-1.2l5,0v3.7c-0.8,0.5-1.6,0.9-2.4,1.2c-0.8,0.3-1.6,0.4-2.5,0.4c-1.2,0-2.2-0.2-3.2-0.6
			c-0.9-0.4-1.7-1-2.1-1.8c-0.5-0.8-0.7-1.7-0.7-2.6c0-1,0.2-1.9,0.7-2.7c0.5-0.8,1.2-1.5,2.1-1.9c0.9-0.4,1.9-0.6,3.1-0.6
			c0.9,0,1.6,0.1,2.3,0.3c0.7,0.2,1.2,0.6,1.6,1c0.4,0.4,0.7,1,0.9,1.6l-1.4,0.3c-0.2-0.5-0.4-0.9-0.7-1.2s-0.6-0.5-1.1-0.7
			c-0.5-0.2-1-0.3-1.6-0.3c-0.7,0-1.3,0.1-1.8,0.3c-0.5,0.2-0.9,0.4-1.3,0.7c-0.3,0.3-0.6,0.6-0.7,1c-0.3,0.6-0.5,1.3-0.5,2
			c0,0.9,0.2,1.6,0.5,2.2c0.4,0.6,0.9,1,1.6,1.3c0.7,0.3,1.4,0.4,2.2,0.4c0.7,0,1.3-0.1,2-0.3c0.6-0.2,1.1-0.5,1.5-0.7V116H362.4z"
			/>
		<path class="st3" d="M382.7,116.4l1.6,0.3c-0.3,1.1-0.9,1.9-1.8,2.5c-0.8,0.6-1.9,0.8-3.1,0.8c-1.3,0-2.3-0.2-3.1-0.7
			c-0.8-0.4-1.4-1.1-1.8-1.9c-0.4-0.8-0.6-1.7-0.6-2.7c0-1,0.2-1.9,0.7-2.7c0.5-0.8,1.1-1.4,2-1.8c0.9-0.4,1.8-0.6,2.9-0.6
			c1.2,0,2.2,0.3,3,0.8c0.8,0.5,1.4,1.2,1.7,2.1l-1.5,0.3c-0.3-0.7-0.7-1.2-1.2-1.6c-0.5-0.3-1.2-0.5-2-0.5c-0.9,0-1.7,0.2-2.3,0.5
			c-0.6,0.4-1,0.9-1.3,1.5c-0.2,0.6-0.4,1.3-0.4,1.9c0,0.8,0.1,1.6,0.4,2.2c0.3,0.6,0.7,1.1,1.4,1.4c0.6,0.3,1.3,0.5,2,0.5
			c0.9,0,1.6-0.2,2.2-0.6C382,117.9,382.4,117.3,382.7,116.4z"/>
		<path class="st3" d="M393.9,110h1.6v5.7c0,1-0.1,1.8-0.4,2.4c-0.3,0.6-0.8,1.1-1.5,1.4c-0.7,0.4-1.6,0.6-2.8,0.6
			c-1.1,0-2-0.2-2.7-0.5c-0.7-0.3-1.2-0.8-1.5-1.4c-0.3-0.6-0.4-1.4-0.4-2.5V110h1.6v5.7c0,0.9,0.1,1.5,0.3,1.9
			c0.2,0.4,0.5,0.7,1,0.9c0.5,0.2,1,0.3,1.7,0.3c1.1,0,2-0.2,2.5-0.7c0.5-0.4,0.7-1.3,0.7-2.5V110z"/>
		<path class="st3" d="M397.9,119.9V110h1.6v8.7h5.8v1.2H397.9z"/>
		<path class="st3" d="M408.9,119.9v-8.7H405V110h9.3v1.2h-3.9v8.7H408.9z"/>
		<path class="st3" d="M423.7,110h1.6v5.7c0,1-0.1,1.8-0.4,2.4c-0.3,0.6-0.8,1.1-1.5,1.4c-0.7,0.4-1.6,0.6-2.8,0.6
			c-1.1,0-2-0.2-2.7-0.5c-0.7-0.3-1.2-0.8-1.5-1.4c-0.3-0.6-0.4-1.4-0.4-2.5V110h1.6v5.7c0,0.9,0.1,1.5,0.3,1.9
			c0.2,0.4,0.5,0.7,1,0.9c0.5,0.2,1,0.3,1.7,0.3c1.1,0,2-0.2,2.5-0.7c0.5-0.4,0.7-1.3,0.7-2.5V110z"/>
		<path class="st3" d="M427.9,119.9V110h5.2c1,0,1.8,0.1,2.4,0.3c0.5,0.2,1,0.5,1.3,0.9c0.3,0.5,0.5,0.9,0.5,1.5
			c0,0.7-0.3,1.3-0.8,1.8c-0.5,0.5-1.4,0.8-2.5,0.9c0.4,0.2,0.7,0.3,0.9,0.5c0.5,0.4,0.9,0.8,1.3,1.3l2,2.7h-2l-1.6-2.1
			c-0.5-0.6-0.8-1.1-1.1-1.4c-0.3-0.3-0.6-0.5-0.8-0.7c-0.2-0.1-0.5-0.2-0.7-0.3c-0.2,0-0.5,0-0.9,0h-1.8v4.4H427.9z M429.4,114.4
			h3.3c0.7,0,1.3-0.1,1.7-0.2c0.4-0.1,0.7-0.3,0.9-0.6c0.2-0.3,0.3-0.6,0.3-0.9c0-0.5-0.2-0.9-0.6-1.2c-0.4-0.3-1-0.5-1.9-0.5h-3.7
			V114.4z"/>
		<path class="st3" d="M439.8,119.9V110h8.5v1.2h-7v3h6.5v1.2h-6.5v3.4h7.2v1.2H439.8z"/>
	</g>
	<g>
		<path class="st3" d="M106.2,48.3h15.1c10,0,17.3,3.1,17.3,12.4v2.2c0,5-2.4,8.9-6.1,10.7c4.1,1.9,6.9,6,6.9,11v2.2
			c0,8.8-7.3,12.7-18,12.7h-9c0,0-6.1-0.1-6.1-3.7V48.3z M112.4,53.3V71h9.5c7.8,0,10.5-3.2,10.5-9.3c0-6.2-3.6-8.4-11.1-8.4H112.4z
			 M112.4,76v18.3h8.9c8.3,0,11.8-2.6,11.8-8.8c0-6-3.4-9.6-11.3-9.6H112.4z"/>
		<path class="st3" d="M149,68.4v31.5c0,0-5.8,0-5.8-3.7V62.4c1.7,0.9,3.1,1.2,4.5,1.2c3.1,0,5.6-1.5,9.6-1.5c5.1,0,8.6,2,8.6,5.9
			c0,1.8-0.7,3.3-2,5.2c0-4-3.5-5.9-7.7-5.9C152.2,67.2,149,68.4,149,68.4z"/>
		<path class="st3" d="M172.4,50.4c1.7-1.7,3.2-3.4,3.2-5c0-0.6-0.1-1.1-0.4-1.7c3.1,1,8.3,4.5,2.1,9.6l-5.8,4.8c0,0-6-1-3.2-3.6
			L172.4,50.4z M168.3,62.9c0.4,0,5.8,0.1,5.8,3.7v33.6c0,0-5.8,0-5.8-3.7V62.9z"/>
		<path class="st3" d="M178.8,73.6c0-7.2,5.9-11.5,12.8-11.5c8.8,0,11.4,4,11.4,4s-0.7-1.7-0.7-6.7V44.8c0.5,0,5.8-0.1,5.8,4.4v50.7
			c-1.6-0.7-3.7-1-5-1c-2.9,0-6.1,1.3-9.7,1.3c-9.3,0-14.6-4.2-14.6-11.6V73.6z M202.2,73.9c0-4.2-4.9-7.2-9.7-7.2
			c-4.5,0-7.9,2.4-7.9,7.9v12.9c0,5.3,2.1,8,9.6,8c5.5,0,8-1.8,8-1.8V73.9z"/>
		<path class="st3" d="M262.1,84.1c0,10.2-6.4,16.2-20.2,16.2c-13.8,0-20.2-6.1-20.2-16.2V63.6c0-10.2,6.4-16.2,20.2-16.2
			c13.7,0,20.2,6.1,20.2,16.2V84.1z M255.9,64.6c0-7.6-2.3-12.1-14.1-12.1c-11.7,0-14,4.5-14,12.1v18.6c0,7.6,2.3,12.1,14,12.1
			c11.8,0,14.1-4.5,14.1-12.1V64.6z"/>
		<path class="st3" d="M268.7,48.3h3.6c0.7,0,1.3,0.7,1.3,1.4v4.6c0,4.5-0.9,9.1-4.8,9.1c-1,0-2.2-0.2-3.3-1c2.9-0.6,3-5,2.6-7.5
			l-1.1-6.7H268.7z"/>
		<path class="st3" d="M318.7,62.6c0-3.1,0.5-6.6,0.5-6.6L303,89.2c0,0-3.4,0-5.7-3.7L283.5,56c0,0,0.5,3.5,0.5,6.6v37.6
			c0,0-6.1,0-6.1-3.7V48.3h4.5c0.3,0,3.6-0.1,5.3,3.7l13.6,29.2L317,48.3c1.8,0,7.9,0,7.9,3.7v48.2c0,0-6.1,0-6.1-3.7V62.6z"/>
		<path class="st3" d="M359.4,92.6c0,5.1-6.9,7.7-14,7.7c-9.3,0-15.1-4.4-15.1-11.8V73.8c0-7.4,5.5-11.8,14.8-11.8
			c9.3,0,13.9,4.4,13.9,11c0,5.9-4,10.8-14.8,10.8c-2.5,0-6.3-0.5-8-1.8v5.3c0,5.1,2.9,7.7,9.6,7.7c6.4,0,11.7-2.6,11.7-7.7
			C358.8,89.3,359.4,91,359.4,92.6z M336.1,77.4c0.1,0.1,4.5,1.3,7.6,1.3c6.9,0,9.4-2.1,9.4-5.7c0-3.7-2-6.3-8-6.3
			c-6.5,0-8.9,3-8.9,8.1V77.4z"/>
		<path class="st3" d="M383.8,73.5c0-3.7-1.7-6.4-8.5-6.4c-6.8,0-11.4,2.6-11.4,7.7c-1.4-2-2-3.8-2-5.3c0-5,6.3-7.5,13.4-7.5
			c9.3,0,14.3,4.4,14.3,11.8v26.2c-1.8-0.7-3.3-1-4.8-1c-3.4,0-6.4,1.3-10.5,1.3c-6.7,0-13.5-2.9-13.5-10.7
			C360.8,75.5,381.2,80.5,383.8,73.5z M384,79.3c-1.4,4.9-17.3,1.7-17.3,10.4c0,3.2,2.4,6,8.7,6c5.3,0,8.6-2,8.6-2V79.3z"/>
		<path class="st3" d="M398.8,68.4v31.5c0,0-5.8,0-5.8-3.7V62.4c1.7,0.9,3.1,1.2,4.5,1.2c3.1,0,5.6-1.5,9.6-1.5c5.1,0,8.6,2,8.6,5.9
			c0,1.8-0.7,3.3-2,5.2c0-4-3.5-5.9-7.7-5.9C401.9,67.2,398.8,68.4,398.8,68.4z"/>
		<path class="st3" d="M438.8,73.5c0-3.7-1.7-6.4-8.5-6.4c-6.8,0-11.4,2.6-11.4,7.7c-1.4-2-2-3.8-2-5.3c0-5,6.3-7.5,13.4-7.5
			c9.3,0,14.3,4.4,14.3,11.8v26.2c-1.8-0.7-3.3-1-4.8-1c-3.4,0-6.4,1.3-10.5,1.3c-6.7,0-13.5-2.9-13.5-10.7
			C415.8,75.5,436.2,80.5,438.8,73.5z M439,79.3c-1.4,4.9-17.3,1.7-17.3,10.4c0,3.2,2.4,6,8.7,6c5.3,0,8.6-2,8.6-2V79.3z"/>
	</g>
</g>
</svg>
