<?xml version="1.0" encoding="utf-8"?>
<!-- Generator: Adobe Illustrator 24.3.0, SVG Export Plug-In . SVG Version: 6.00 Build 0)  -->
<svg version="1.1" id="Layer_1" xmlns="http://www.w3.org/2000/svg" xmlns:xlink="http://www.w3.org/1999/xlink" x="0px" y="0px"
	 viewBox="0 0 840.9 210.3" style="enable-background:new 0 0 840.9 210.3;" xml:space="preserve">
<style type="text/css">
	.st0{fill:#8CD2D1;}
	.st1{fill:#FAA61A;}
	.st2{fill:#E98EBC;}
	.st3{fill:#808285;}
</style>
<g>
	<circle class="st0" cx="98.6" cy="62.1" r="36.7"/>
	<circle class="st1" cx="66.9" cy="153.2" r="36.7"/>
	<circle class="st2" cx="159.7" cy="133.6" r="36.7"/>
	<g>
		<path class="st3" d="M152.9,180.5c-22.2,0.4-40.6-16.4-41.6-37.8c0-0.5-0.1-0.9-0.1-1.4c-0.1-2.7,0.1-5.4,0.6-8
			c0.5-2.6,1.2-5.2,2.2-7.7c1-2.5,2.3-4.9,3.8-7.1c3-4.5,6.9-8.4,11.4-11.4l0,0c0,0,0,0,0,0c2.6-1.5,5-3.4,7.2-5.4
			c2.2-2,4.2-4.3,5.9-6.8c1.7-2.5,3.2-5.1,4.4-7.9c1.2-2.8,2-5.7,2.6-8.6c0.6-3,0.8-6,0.7-9c-0.2-6-1.6-12-4.3-17.4
			c-0.7-1.3-1.4-2.7-2.2-3.9c-0.8-1.3-1.7-2.5-2.7-3.7c-1.9-2.3-4.1-4.5-6.4-6.3c-2.4-1.9-5-3.5-7.7-4.7c-2.7-1.3-5.6-2.3-8.6-2.9
			c-2-0.4-4.1-0.7-6.2-0.8c19.1,2.9,34,18.8,34.3,38.2c0.1,6.7-1.5,13-4.4,18.6c-0.9,2-2,3.9-3.3,5.7c-1.5,2.2-3.3,4.2-5.2,6.1
			c-2,1.8-4.1,3.5-6.4,4.9c-2.3,1.4-4.7,2.6-7.3,3.5c-2.5,0.9-5.2,1.6-7.8,1.9c-2.7,0.4-5.4,0.5-8.1,0.3c-5.4-0.3-10.7-1.8-15.5-4.2
			l0,0c0,0,0,0,0,0c-0.5-0.3-1-0.5-1.5-0.8c-0.1-0.1-0.2-0.1-0.3-0.2c-2.1-1-4.2-1.9-6.4-2.5c-2.9-0.9-5.8-1.5-8.8-1.7
			c-3-0.3-6-0.2-9,0.2c-3,0.4-5.9,1.1-8.8,2c-2.8,1-5.6,2.3-8.1,3.9c-5.1,3.1-9.6,7.4-12.9,12.4c-0.8,1.3-1.6,2.6-2.3,3.9
			c-0.7,1.3-1.3,2.7-1.8,4.1c-0.5,1.4-1,2.8-1.3,4.2c5.4-15.2,20.2-26.3,37.8-26.6c3.7-0.1,7.3,0.3,10.7,1.2
			c1.1,0.2,2.2,0.5,3.2,0.8c2.6,0.8,5.1,1.8,7.4,3.1c2.4,1.3,4.6,2.8,6.6,4.5c2,1.7,3.9,3.7,5.6,5.8c1.7,2.1,3.1,4.4,4.3,6.8
			c2.4,4.8,3.8,10.1,4.2,15.5l0,0c0,0,0,0,0,0c0.1,3,0.4,6,1.1,8.9c0.7,2.9,1.6,5.8,2.9,8.5c1.3,2.7,2.8,5.3,4.6,7.7
			c1.8,2.4,3.9,4.6,6.1,6.6c2.3,2,4.8,3.7,7.4,5.1c5.3,2.9,11.2,4.6,17.2,4.9c1.5,0.1,3,0.1,4.5,0c1.5-0.1,3-0.2,4.5-0.5
			c3-0.5,5.9-1.3,8.7-2.4c2.8-1.1,5.5-2.6,8-4.3c0.7-0.5,1.4-1,2.1-1.6C167.9,178.1,160.7,180.3,152.9,180.5z"/>
		<g>
			<path class="st3" d="M90.2,170.2c0.3,0.4,0.2,1-0.2,1.3c-6,5.6-13.4,8.9-21.6,9.5c-0.6,0-1.1-0.4-1.1-1c0-0.6,0.4-1.1,1-1.1
				c7.7-0.6,14.7-3.7,20.3-9c0.4-0.4,1.1-0.4,1.5,0C90.1,170.1,90.1,170.2,90.2,170.2z"/>
			<path class="st3" d="M63.7,179.5c0.1,0.2,0.2,0.4,0.2,0.6c0,0.6-0.5,1-1.1,1c-8.9-0.7-17.2-4.7-23.4-11.2
				c-5.4-5.8-8.7-13.1-9.5-21c-0.1-0.6,0.4-1.1,0.9-1.1c0.6-0.1,1.1,0.4,1.1,0.9c0.7,7.4,3.8,14.3,8.9,19.7
				c5.8,6.2,13.6,9.9,22,10.6C63.3,179,63.5,179.2,63.7,179.5z"/>
			<path class="st3" d="M42.7,119.5c0.3,0.4,0.2,1-0.2,1.3c-6.3,5.9-10.1,14-10.6,22.6c0,0.6-0.5,1-1.1,1c-0.6,0-1-0.5-1-1.1
				c0.5-9.2,4.6-17.7,11.3-24c0.4-0.4,1.1-0.4,1.5,0C42.6,119.4,42.6,119.4,42.7,119.5z"/>
			<path class="st3" d="M48.8,114.9C48.8,114.9,48.8,114.9,48.8,114.9c0.3,0.5,0.1,1.1-0.4,1.4c-2.1,1.2-4.1,2.7-5.9,4.4
				c-0.4,0.4-1.1,0.4-1.5,0c-0.4-0.4-0.4-1.1,0-1.5c1.9-1.8,4-3.4,6.3-4.7C47.8,114.3,48.5,114.4,48.8,114.9z"/>
			<path class="st3" d="M91.2,169.2c0.2,0.4,0.2,0.9-0.1,1.3c-0.4,0.4-0.7,0.7-1.1,1.1c-0.4,0.4-1.1,0.4-1.5,0
				c-0.4-0.4-0.4-1.1,0-1.5c0.4-0.3,0.7-0.7,1.1-1c0.4-0.4,1.1-0.4,1.5,0C91.1,169,91.2,169.1,91.2,169.2z"/>
			<path class="st3" d="M99.7,134.8c0.1,0.2,0.2,0.5,0.1,0.7c-0.1,0.6-0.6,0.9-1.2,0.9c-11.8-2-23.7,1.5-32.4,9.7
				c-0.4,0.4-1.1,0.4-1.5,0c-0.4-0.4-0.4-1.1,0-1.5c9.2-8.6,21.7-12.4,34.2-10.3C99.3,134.4,99.6,134.6,99.7,134.8z"/>
			<path class="st3" d="M100.8,139.5c0.1,0.2,0.2,0.5,0.1,0.8c-0.1,0.6-0.7,0.9-1.2,0.8c-4.5-1-9-1.1-13.5-0.3
				c-0.6,0.1-1.1-0.3-1.2-0.8c-0.1-0.6,0.3-1.1,0.8-1.2c4.8-0.9,9.6-0.8,14.3,0.3C100.4,139.1,100.6,139.2,100.8,139.5z"/>
			<path class="st3" d="M98,130.2c0.1,0.2,0.2,0.4,0.1,0.7c-0.1,0.6-0.6,1-1.1,0.9c-12.3-1.4-24.6,2.7-33.7,11.2l-0.2,0.2
				c-1.1,1.3-1.1,3.2,0.1,4.5c1.1,1.2,3,1.4,4.4,0.4l0.3-0.3c3.6-3.4,7.8-5.9,12.4-7.6c0.5-0.2,1.1,0.1,1.3,0.6
				c0.2,0.5-0.1,1.1-0.6,1.3c-4.1,1.4-7.7,3.6-11,6.5l0,0l-0.7,0.7c-2.2,2-5.6,1.9-7.6-0.3c-2-2.2-1.9-5.6,0.3-7.6l0.7-0.6l0,0
				c9.4-8.5,22-12.5,34.7-11.1C97.5,129.8,97.8,129.9,98,130.2z"/>
			<path class="st3" d="M101.2,144c0.1,0.2,0.2,0.5,0.1,0.8c-0.2,0.6-0.7,0.9-1.3,0.7c-9.2-2.5-19.1-0.4-26.4,5.6
				c-0.4,0.4-1.1,0.3-1.5-0.1c-0.4-0.4-0.3-1.1,0.1-1.5c7.9-6.5,18.4-8.7,28.3-6C100.8,143.7,101,143.8,101.2,144z"/>
			<path class="st3" d="M67.9,132.8c0.3,0.5,0.2,1.1-0.3,1.4c-2.6,1.6-5.1,3.5-7.3,5.6l-0.3,0.3c-1.3,1.4-2.1,3.2-2.1,5.1
				c-0.1,2,0.7,4,2.1,5.5c2.1,2.2,5.3,3,8.2,2c0.5-0.2,1.1,0.1,1.3,0.6c0.2,0.5-0.1,1.1-0.6,1.3c-3.7,1.3-7.8,0.3-10.4-2.5
				c-1.8-1.9-2.7-4.4-2.6-7c0.1-2.6,1.2-5,3.1-6.8l0.7-0.6l0,0c2.2-2,4.5-3.7,7-5.2C67,132.1,67.6,132.3,67.9,132.8
				C67.9,132.8,67.9,132.8,67.9,132.8z"/>
			<path class="st3" d="M95.4,125.7c0.1,0.2,0.2,0.4,0.2,0.6c0,0.6-0.5,1-1.1,1c-7.6-0.4-15.3,1.2-22.1,4.4c-0.5,0.2-1.1,0-1.4-0.5
				c-0.2-0.5,0-1.1,0.5-1.4c7.2-3.4,15.2-5,23.1-4.6C94.9,125.2,95.2,125.4,95.4,125.7z"/>
			<path class="st3" d="M101,148.5c0.2,0.2,0.2,0.6,0.1,0.9c-0.2,0.5-0.8,0.9-1.3,0.7c-8.4-2.6-17.6-0.7-24.2,5.2l-0.5,0.5
				c-5.7,5.3-14.6,5-19.9-0.7c-0.9-1-1.6-2-2.2-3.2c-0.3-0.5-0.1-1.1,0.4-1.4c0.5-0.3,1.1-0.1,1.4,0.4c0.5,1,1.2,1.9,1.9,2.7
				c4.4,4.7,11.7,5.1,16.6,0.9l0.4-0.4c7.1-6.7,17.4-9,26.7-6.1C100.7,148.2,100.9,148.3,101,148.5z"/>
			<path class="st3" d="M92,121.3c0.1,0.2,0.1,0.3,0.2,0.5c0,0.6-0.4,1-1,1.1c-12.6,0.3-24.6,5.2-33.8,13.8l-0.3,0.3
				c-2.4,2.4-3.7,5.7-3.5,9c0,0.6-0.4,1.1-1,1.1c-0.6,0-1.1-0.4-1.1-1c-0.2-4.1,1.4-8.1,4.5-10.9l0.6-0.6l0,0
				c9.5-8.6,21.7-13.5,34.5-13.8C91.4,120.8,91.8,121,92,121.3z"/>
			<path class="st3" d="M100.2,152.9c0.2,0.3,0.2,0.6,0.1,0.9c-0.2,0.5-0.8,0.8-1.3,0.6c-3.4-1.2-7-1.4-10.5-0.8
				c-0.6,0.1-1.1-0.3-1.2-0.8c-0.1-0.6,0.3-1.1,0.8-1.2c3.9-0.7,7.9-0.4,11.6,0.9C99.9,152.5,100.1,152.7,100.2,152.9z"/>
			<path class="st3" d="M71.7,121.1c0,0,0.1,0.1,0.1,0.2c0.2,0.5,0,1.1-0.6,1.4c-6.2,2.5-11.9,6.2-16.8,10.8l-0.2,0.2
				c-6.4,6.2-6.6,16.4-0.6,22.9c6,6.4,16.1,6.9,22.7,1.1l0.4-0.4c1.7-1.6,3.6-2.9,5.7-3.9c0.5-0.2,1.1,0,1.4,0.5
				c0.2,0.5,0,1.1-0.5,1.4c-1.7,0.8-3.3,1.9-4.8,3.2l-0.4,0.4c-7.4,6.9-19.1,6.6-26.1-0.9c-6.9-7.4-6.5-19.1,0.9-26l0.5-0.4l0,0
				c5-4.6,10.7-8.2,16.9-10.8C70.9,120.5,71.4,120.7,71.7,121.1z"/>
			<path class="st3" d="M87.5,117.2c0.1,0.1,0.1,0.3,0.1,0.4c0.1,0.6-0.4,1.1-0.9,1.1c-3.5,0.4-7,1-10.4,2.1
				c-0.6,0.2-1.1-0.1-1.3-0.7c-0.2-0.5,0.1-1.1,0.7-1.3c3.5-1.1,7.2-1.8,10.8-2.1C86.9,116.7,87.3,116.9,87.5,117.2z"/>
			<path class="st3" d="M81.7,113.6c0.1,0.1,0.1,0.2,0.1,0.4c0.1,0.6-0.3,1.1-0.8,1.2c-11,2.1-21.2,7.3-29.5,14.9l-0.2,0.2
				c-2.2,2.1-3.9,4.5-5,7.3c-0.2,0.5-0.8,0.8-1.4,0.6c-0.5-0.2-0.8-0.8-0.6-1.4c1.2-2.9,3-5.5,5.2-7.7l0,0l0.3-0.3
				c8.6-8,19.2-13.4,30.7-15.6C81.1,113.1,81.5,113.3,81.7,113.6z"/>
			<path class="st3" d="M44.9,142c0.1,0.2,0.2,0.4,0.1,0.7c-0.8,6.2,1.1,12.3,5.4,16.9c1.1,1.2,2.3,2.2,3.6,3.1
				c0.5,0.3,0.6,1,0.3,1.4c-0.3,0.5-1,0.6-1.4,0.3c-1.5-1-2.8-2.1-4-3.4c-4.7-5-6.8-11.8-5.9-18.6c0.1-0.6,0.6-1,1.2-0.9
				C44.5,141.5,44.7,141.7,44.9,142z"/>
			<path class="st3" d="M99,157c0.2,0.3,0.2,0.6,0.1,0.9c-0.2,0.5-0.8,0.8-1.3,0.6c-5.6-2-11.8-0.8-16.3,3.1l-0.4,0.4
				c-6.2,5.8-15.1,7.7-23.1,4.9c-0.5-0.2-0.8-0.8-0.6-1.3c0.2-0.5,0.8-0.8,1.3-0.6c7.1,2.5,14.9,0.9,20.6-4l0.4-0.4
				c5.1-4.7,12.3-6.2,18.8-3.9C98.7,156.7,98.9,156.8,99,157z"/>
			<path class="st3" d="M97.2,161c0.2,0.3,0.2,0.6,0.1,0.9c-0.2,0.5-0.8,0.8-1.3,0.7c-4-1.3-8.4-0.4-11.6,2.4l-0.3,0.3
				c-1.1,1-2.2,1.9-3.4,2.7c-0.5,0.3-1.1,0.2-1.4-0.3c-0.3-0.5-0.2-1.1,0.3-1.4c0.9-0.6,1.8-1.3,2.7-2.1l0.4-0.4
				c3.8-3.5,9.1-4.7,14-3.1C96.9,160.6,97.1,160.8,97.2,161z"/>
			<path class="st3" d="M51.2,123.5c0.3,0.4,0.2,1-0.2,1.3c-0.7,0.6-1.5,1.3-2.2,1.9l-0.4,0.3c-10.1,9.4-10.6,25.3-1.2,35.4
				c3.5,3.8,8,6.3,13,7.4c4.9,1,9.9,0.6,14.6-1.2c0.5-0.2,1.1,0,1.4,0.6c0.2,0.5,0,1.1-0.6,1.4c-5,2-10.5,2.5-15.8,1.3
				c-5.4-1.2-10.3-3.9-14.1-8c-10-10.7-9.6-27.5,0.7-37.8l0,0l0.6-0.5c0.8-0.8,1.7-1.6,2.6-2.3c0.4-0.4,1.1-0.3,1.5,0.1
				C51.1,123.5,51.1,123.5,51.2,123.5z"/>
			<path class="st3" d="M74.3,111c0,0.1,0.1,0.2,0.1,0.2c0.2,0.5-0.1,1.1-0.7,1.3c-6.6,2-12.8,5-18.5,9c-0.5,0.3-1.1,0.2-1.4-0.2
				c-0.3-0.5-0.2-1.1,0.2-1.4c5.8-4.1,12.2-7.3,19.1-9.3C73.6,110.4,74.1,110.6,74.3,111z"/>
			<path class="st3" d="M94.8,164.9c0.1,0.2,0.2,0.5,0.1,0.7c-0.1,0.6-0.7,0.9-1.2,0.8c-2.3-0.5-4.7,0.2-6.5,1.7l-0.2,0.2
				c-6.1,5.7-14.1,8.7-22.5,8.5c-8.4-0.3-16.2-3.8-21.9-9.9c-2.4-2.6-4.4-5.5-5.8-8.7c-0.2-0.5,0-1.1,0.5-1.4c0.5-0.2,1.1,0,1.4,0.5
				c1.3,3,3.1,5.7,5.4,8.1c5.4,5.7,12.6,9,20.5,9.3c7.7,0.3,15-2.4,20.6-7.5l0.4-0.4c2.3-2.1,5.5-3.1,8.6-2.4
				C94.4,164.5,94.7,164.6,94.8,164.9z"/>
			<path class="st3" d="M64.2,110.2c0,0,0,0.1,0.1,0.1c0.2,0.5,0,1.1-0.5,1.4c-6.5,3-12.5,7-17.8,11.9l-0.4,0.4
				c-7.8,7.3-11,18.2-8.5,28.5c0.1,0.6-0.2,1.1-0.8,1.3c-0.6,0.1-1.1-0.2-1.3-0.8c-2.7-10.8,0.5-22.2,8.4-29.9l0,0l0.7-0.6
				c5.6-5.2,11.9-9.5,18.9-12.7C63.4,109.6,63.9,109.7,64.2,110.2z"/>
		</g>
		<g>
			<path class="st3" d="M108.5,104.6c0.1,0.5,0.6,0.8,1.1,0.7c8.1-0.8,15.6-4.2,21.4-9.8c0.4-0.4,0.4-1.1,0-1.5
				c-0.4-0.4-1.1-0.4-1.5,0c-5.5,5.3-12.5,8.5-20.2,9.3c-0.6,0.1-1,0.6-0.9,1.1C108.5,104.5,108.5,104.6,108.5,104.6z"/>
			<path class="st3" d="M133,91c0.1,0.2,0.2,0.4,0.4,0.5c0.5,0.3,1.1,0.3,1.5-0.2c5.4-7.2,7.9-16,7.1-24.9c-0.8-7.9-4-15.2-9.4-21
				c-0.4-0.4-1-0.4-1.5-0.1c-0.4,0.4-0.4,1-0.1,1.5c5.1,5.5,8.2,12.3,8.9,19.8c0.8,8.4-1.6,16.8-6.7,23.5
				C132.9,90.3,132.9,90.7,133,91z"/>
			<path class="st3" d="M101.9,35.4c0.1,0.5,0.6,0.8,1.1,0.7c8.6-0.8,17.2,1.7,24,7c0.5,0.4,1.1,0.3,1.5-0.2
				c0.4-0.5,0.3-1.1-0.2-1.5c-7.3-5.7-16.3-8.3-25.5-7.5c-0.6,0.1-1,0.6-0.9,1.1C101.9,35.3,101.9,35.4,101.9,35.4z"/>
			<path class="st3" d="M94.5,37C94.5,37,94.5,37,94.5,37c0.2,0.6,0.8,0.9,1.3,0.7c2.3-0.8,4.8-1.3,7.2-1.5c0.6-0.1,1-0.6,0.9-1.1
				c-0.1-0.6-0.6-1-1.1-0.9c-2.6,0.2-5.2,0.8-7.7,1.6C94.6,35.8,94.3,36.4,94.5,37z"/>
			<path class="st3" d="M107,104.7c0.1,0.4,0.6,0.8,1,0.7c0.5,0,1-0.1,1.6-0.1c0.6-0.1,1-0.6,0.9-1.1c-0.1-0.6-0.6-1-1.1-0.9
				c-0.5,0-1,0.1-1.5,0.1c-0.6,0-1,0.5-1,1.1C106.9,104.6,107,104.6,107,104.7z"/>
			<path class="st3" d="M75.7,88.3c0.1,0.2,0.2,0.4,0.4,0.6c0.5,0.3,1.1,0.2,1.4-0.3c6.3-10.2,16.8-16.7,28.8-17.8
				c0.6-0.1,1-0.6,0.9-1.1c-0.1-0.6-0.6-1-1.1-0.9c-12.6,1.2-23.7,8.1-30.3,18.8C75.6,87.8,75.6,88.1,75.7,88.3z"/>
			<path class="st3" d="M78.4,92.2c0.1,0.3,0.2,0.5,0.5,0.6c0.5,0.3,1.1,0.1,1.4-0.4c2.2-4,5.2-7.5,8.8-10.3c0.5-0.4,0.5-1,0.2-1.5
				c-0.4-0.5-1-0.5-1.5-0.2c-3.8,3-6.9,6.7-9.3,10.9C78.4,91.6,78.4,91.9,78.4,92.2z"/>
			<path class="st3" d="M73.4,84c0.1,0.2,0.2,0.4,0.4,0.5c0.5,0.3,1.1,0.2,1.4-0.3c7.2-10.2,18.3-16.6,30.7-17.8l0.3,0
				c1.7,0,3.2,1.3,3.3,3c0.2,1.7-1,3.2-2.6,3.6l-0.5,0c-4.9,0.5-9.6,1.9-13.9,4.3c-0.5,0.3-0.7,0.9-0.4,1.4c0.3,0.5,0.9,0.7,1.4,0.4
				c3.8-2.1,7.8-3.4,12.1-3.9l0,0l1-0.1c3-0.3,5.2-2.9,4.9-5.9c-0.3-3-2.9-5.2-5.9-4.9l-0.9,0.1l0,0c-12.6,1.5-24,8.2-31.3,18.6
				C73.3,83.3,73.3,83.7,73.4,84z"/>
			<path class="st3" d="M81.6,95.5c0.1,0.3,0.3,0.5,0.5,0.6c0.5,0.3,1.1,0,1.4-0.5c4.2-8.5,12.3-14.5,21.7-16c0.6-0.1,1-0.6,0.9-1.2
				c-0.1-0.6-0.6-1-1.2-0.9c-10,1.6-18.7,8-23.2,17.2C81.5,95,81.5,95.3,81.6,95.5z"/>
			<path class="st3" d="M95.2,63.2c0.2,0.5,0.7,0.9,1.3,0.7c2.9-0.9,6-1.5,9-1.8l0.4,0c1.9-0.1,3.7,0.5,5.2,1.8
				c1.6,1.3,2.6,3.1,2.7,5.2c0.3,3.1-1.3,6-4,7.5c-0.5,0.3-0.7,0.9-0.4,1.4c0.3,0.5,0.9,0.7,1.4,0.4c3.4-1.9,5.4-5.6,5-9.5
				c-0.2-2.6-1.5-4.9-3.5-6.6c-2-1.7-4.5-2.4-7.1-2.2l-0.9,0.1l0,0c-2.9,0.3-5.8,0.9-8.5,1.7C95.3,62,95,62.6,95.2,63.2
				C95.2,63.2,95.2,63.2,95.2,63.2z"/>
			<path class="st3" d="M71.6,79c0.1,0.2,0.2,0.4,0.3,0.5c0.4,0.4,1.1,0.3,1.5-0.2c4.8-5.9,11-10.7,17.9-13.7
				c0.5-0.2,0.8-0.8,0.5-1.4c-0.2-0.5-0.8-0.8-1.4-0.5c-7.3,3.1-13.7,8.1-18.7,14.3C71.6,78.4,71.5,78.7,71.6,79z"/>
			<path class="st3" d="M85.1,98.4c0.1,0.3,0.3,0.5,0.6,0.6c0.5,0.2,1.1,0,1.4-0.5c3.6-8,11.2-13.6,19.9-14.7l0.7,0
				c7.7-0.7,13.4-7.6,12.7-15.4c-0.1-1.3-0.4-2.6-0.9-3.8c-0.2-0.5-0.8-0.8-1.3-0.6c-0.5,0.2-0.8,0.8-0.6,1.3c0.4,1,0.7,2.1,0.8,3.2
				c0.6,6.4-4,12.1-10.3,13l-0.5,0c-9.7,0.9-18.2,7-22.2,16C85,97.9,85,98.1,85.1,98.4z"/>
			<path class="st3" d="M70.6,73.5c0.1,0.2,0.1,0.3,0.3,0.5c0.4,0.4,1.1,0.4,1.5-0.1c8.5-9.2,20.2-15,32.7-16.2l0.4,0
				c3.4-0.2,6.7,1,9.1,3.4c0.4,0.4,1.1,0.4,1.5,0c0.4-0.4,0.4-1.1,0-1.5c-3-2.9-7-4.3-11.1-3.9l-0.8,0.1l0,0
				c-12.7,1.4-24.5,7.3-33.2,16.7C70.6,72.8,70.5,73.2,70.6,73.5z"/>
			<path class="st3" d="M88.8,100.7c0.1,0.3,0.3,0.5,0.6,0.7c0.5,0.2,1.1,0,1.4-0.6c1.4-3.3,3.6-6.2,6.4-8.4c0.5-0.4,0.5-1,0.2-1.5
				c-0.4-0.5-1-0.5-1.5-0.2c-3.1,2.4-5.5,5.6-7,9.3C88.7,100.2,88.7,100.4,88.8,100.7z"/>
			<path class="st3" d="M84,58.2c0,0.1,0,0.1,0.1,0.2c0.3,0.5,0.9,0.7,1.4,0.5c6-3,12.5-4.8,19.2-5.4l0.3,0
				c8.9-0.7,16.7,5.9,17.5,14.8c0.8,8.8-5.5,16.6-14.2,17.8l-0.6,0c-2.3,0.2-4.6,0.8-6.7,1.7c-0.5,0.2-0.8,0.8-0.6,1.4
				c0.2,0.5,0.8,0.8,1.4,0.6c1.8-0.7,3.6-1.2,5.5-1.5l0.6,0c10.1-1,17.6-10,16.6-20.1c-1-10.1-10-17.6-20.1-16.6l-0.7,0.1l0,0
				C97.1,52.2,90.6,54,84.5,57C84.1,57.2,83.9,57.8,84,58.2z"/>
			<path class="st3" d="M70.5,67.5c0,0.1,0.1,0.3,0.2,0.4c0.4,0.4,1,0.4,1.5,0.1c2.6-2.4,5.4-4.6,8.5-6.4c0.5-0.3,0.6-0.9,0.3-1.4
				c-0.3-0.5-0.9-0.6-1.4-0.3c-3.1,1.9-6.1,4.2-8.8,6.7C70.5,66.7,70.4,67.1,70.5,67.5z"/>
			<path class="st3" d="M71.7,60.8c0,0.1,0.1,0.2,0.2,0.3c0.4,0.5,1,0.5,1.5,0.2c8.9-6.9,19.5-11.1,30.7-12.2l0.2,0
				c3-0.3,6,0.1,8.8,1.1c0.5,0.2,1.1-0.1,1.3-0.6c0.2-0.5-0.1-1.1-0.6-1.3c-3-1-6.1-1.4-9.3-1.2l0,0l-0.4,0
				c-11.7,1.1-22.8,5.5-32,12.6C71.7,60,71.6,60.4,71.7,60.8z"/>
			<path class="st3" d="M117.3,52c0.1,0.2,0.2,0.4,0.4,0.6c5.2,3.5,8.5,9,9.1,15.2c0.2,1.6,0.1,3.2-0.1,4.8
				c-0.1,0.6,0.3,1.1,0.9,1.2c0.6,0.1,1.1-0.3,1.2-0.9c0.2-1.7,0.3-3.5,0.1-5.3c-0.6-6.8-4.3-12.9-10-16.8c-0.5-0.3-1.1-0.2-1.4,0.3
				C117.3,51.4,117.2,51.7,117.3,52z"/>
			<path class="st3" d="M92.8,102.5c0.1,0.3,0.3,0.5,0.6,0.7c0.5,0.2,1.1,0,1.4-0.6c2.2-5.5,7.2-9.4,13.1-10.1l0.5,0
				c8.5-0.8,15.7-6.2,18.9-14.1c0.2-0.5,0-1.1-0.6-1.4c-0.5-0.2-1.1,0-1.4,0.6c-2.9,7-9.2,11.8-16.6,12.7l-0.6,0
				c-6.9,0.7-12.8,5.1-15.4,11.5C92.7,102,92.7,102.3,92.8,102.5z"/>
			<path class="st3" d="M96.9,103.8c0.1,0.3,0.3,0.5,0.6,0.7c0.5,0.2,1.1,0,1.4-0.5c1.7-3.9,5.3-6.6,9.5-7.1l0.4,0
				c1.4-0.1,2.9-0.4,4.3-0.7c0.6-0.1,0.9-0.7,0.7-1.3c-0.1-0.6-0.7-0.9-1.3-0.7c-1.1,0.3-2.2,0.5-3.4,0.6l-0.6,0
				c-5.1,0.5-9.6,3.7-11.6,8.4C96.9,103.3,96.9,103.6,96.9,103.8z"/>
			<path class="st3" d="M99.4,44.5c0.1,0.5,0.6,0.8,1.1,0.7c0.9-0.1,1.9-0.3,2.9-0.4l0.5,0c13.7-1.3,26,8.8,27.3,22.5
				c0.5,5.1-0.6,10.2-3.1,14.6c-2.5,4.4-6.1,7.9-10.6,10.1c-0.5,0.3-0.7,0.9-0.5,1.4c0.3,0.5,0.9,0.7,1.4,0.5
				c4.8-2.4,8.8-6.2,11.5-10.9c2.7-4.8,3.9-10.3,3.4-15.9c-1.4-14.6-14.2-25.4-28.8-24.5l0,0l-0.8,0.1c-1.2,0.1-2.3,0.3-3.5,0.4
				c-0.6,0.1-1,0.6-0.9,1.2C99.3,44.4,99.3,44.4,99.4,44.5z"/>
			<path class="st3" d="M74.6,53.5c0,0.1,0.1,0.2,0.1,0.2c0.3,0.5,0.9,0.6,1.4,0.3c5.9-3.6,12.3-6.3,19-7.9c0.6-0.1,0.9-0.7,0.8-1.2
				c-0.1-0.6-0.7-0.9-1.2-0.8c-6.9,1.6-13.5,4.4-19.6,8.1C74.7,52.6,74.5,53.1,74.6,53.5z"/>
			<path class="st3" d="M101.4,104.6c0.1,0.2,0.2,0.5,0.5,0.6c0.5,0.3,1.1,0.1,1.4-0.4c1.2-2,3.3-3.4,5.6-3.7l0.3,0
				c8.4-0.8,15.9-4.8,21.3-11.3c5.4-6.5,7.9-14.6,7.1-23c-0.3-3.5-1.2-6.9-2.7-10.1c-0.2-0.5-0.9-0.8-1.4-0.5
				c-0.5,0.2-0.8,0.9-0.5,1.4c1.4,3,2.2,6.1,2.5,9.4c0.7,7.8-1.6,15.4-6.6,21.5c-4.9,5.9-11.7,9.6-19.3,10.5l-0.5,0
				c-3.1,0.3-5.9,2.1-7.5,4.8C101.3,104,101.3,104.3,101.4,104.6z"/>
			<path class="st3" d="M80.7,45.4c0,0,0,0.1,0,0.1c0.2,0.5,0.8,0.8,1.4,0.5c6.6-2.9,13.5-4.8,20.7-5.5l0.6-0.1
				c10.6-1,20.9,3.8,27,12.6c0.3,0.5,1,0.6,1.4,0.3c0.5-0.3,0.6-1,0.3-1.4c-6.3-9.1-17-14.3-28-13.5l0,0l-0.9,0.1
				c-7.6,0.7-15,2.7-22,5.7C80.8,44.4,80.6,44.9,80.7,45.4z"/>
		</g>
		<g>
			<path class="st3" d="M168,108.1c0.3-0.4,0.8-0.5,1.3-0.3c7.3,3.6,13.1,9.4,16.5,16.8c0.2,0.5,0,1.1-0.5,1.4
				c-0.5,0.2-1.1,0-1.4-0.5c-3.3-7-8.7-12.4-15.6-15.8c-0.5-0.3-0.7-0.9-0.5-1.4C167.9,108.3,168,108.2,168,108.1z"/>
			<path class="st3" d="M186,129.6c0.1-0.2,0.3-0.3,0.5-0.4c0.6-0.2,1.1,0.2,1.3,0.7c2.5,8.6,1.7,17.8-2.3,25.8
				c-3.5,7.1-9.1,12.8-16.3,16.3c-0.5,0.3-1.1,0-1.4-0.5c-0.3-0.5,0-1.1,0.5-1.4c6.7-3.3,12-8.6,15.3-15.3
				c3.7-7.6,4.5-16.2,2.1-24.3C185.7,130.2,185.8,129.9,186,129.6z"/>
			<path class="st3" d="M137.3,170.5c0.3-0.4,0.8-0.5,1.3-0.3c7.8,3.8,16.6,4.5,24.9,2c0.5-0.2,1.1,0.1,1.3,0.7
				c0.2,0.5-0.1,1.1-0.7,1.3c-8.8,2.7-18.2,2-26.5-2.1c-0.5-0.3-0.7-0.9-0.5-1.4C137.2,170.6,137.2,170.5,137.3,170.5z"/>
			<path class="st3" d="M130.8,166.4C130.9,166.4,130.9,166.4,130.8,166.4c0.4-0.5,1-0.5,1.5-0.2c1.9,1.5,4,2.9,6.2,4
				c0.5,0.3,0.7,0.9,0.5,1.4c-0.3,0.5-0.9,0.7-1.4,0.5c-2.4-1.2-4.6-2.6-6.6-4.2C130.6,167.5,130.5,166.9,130.8,166.4z"/>
			<path class="st3" d="M166.6,107.5c0.3-0.4,0.8-0.5,1.2-0.3c0.5,0.2,1,0.4,1.4,0.7c0.5,0.3,0.7,0.9,0.5,1.4
				c-0.3,0.5-0.9,0.7-1.4,0.5c-0.4-0.2-0.9-0.4-1.3-0.6c-0.5-0.2-0.8-0.8-0.5-1.4C166.5,107.7,166.6,107.6,166.6,107.5z"/>
			<path class="st3" d="M131.5,111.7c0.1-0.2,0.4-0.3,0.6-0.4c0.6-0.1,1.1,0.3,1.2,0.8c2.3,11.8,9.8,21.6,20.6,26.9
				c0.5,0.3,0.7,0.9,0.5,1.4c-0.3,0.5-0.9,0.7-1.4,0.5c-11.3-5.6-19.2-15.9-21.7-28.4C131.3,112.2,131.3,111.9,131.5,111.7z"/>
			<path class="st3" d="M135.5,109.1c0.2-0.2,0.4-0.4,0.7-0.4c0.6-0.1,1.1,0.3,1.2,0.9c0.6,4.5,2.2,8.8,4.5,12.7
				c0.3,0.5,0.1,1.1-0.4,1.4c-0.5,0.3-1.1,0.1-1.4-0.4c-2.5-4.2-4.1-8.7-4.8-13.5C135.2,109.6,135.3,109.3,135.5,109.1z"/>
			<path class="st3" d="M127.8,115c0.1-0.2,0.3-0.3,0.6-0.4c0.6-0.1,1.1,0.2,1.3,0.7c3.1,12,11.2,22.1,22.4,27.6l0.3,0.1
				c1.6,0.6,3.4-0.1,4.2-1.6c0.7-1.5,0.2-3.3-1.1-4.2l-0.4-0.2c-4.4-2.2-8.3-5.2-11.5-9c-0.4-0.4-0.3-1.1,0.1-1.5
				c0.4-0.4,1.1-0.3,1.5,0.1c2.8,3.3,6.1,6,9.9,8l0,0l0.9,0.4c2.7,1.3,3.8,4.6,2.5,7.2c-1.3,2.7-4.6,3.8-7.2,2.5l-0.8-0.4l0,0
				c-11.2-5.8-19.5-16.2-22.6-28.5C127.5,115.5,127.6,115.2,127.8,115z"/>
			<path class="st3" d="M139.6,107.1c0.2-0.2,0.4-0.4,0.7-0.4c0.6-0.1,1.1,0.4,1.1,0.9c0.9,9.5,6.4,18,14.6,22.7
				c0.5,0.3,0.7,0.9,0.4,1.4c-0.3,0.5-0.9,0.7-1.4,0.4c-8.8-5.1-14.7-14.2-15.6-24.3C139.4,107.5,139.5,107.3,139.6,107.1z"/>
			<path class="st3" d="M140.8,142.1c0.3-0.5,1-0.5,1.5-0.2c2.4,1.9,5.1,3.5,7.8,4.9l0.4,0.2c1.7,0.8,3.7,0.8,5.5,0.2
				c1.9-0.7,3.5-2,4.4-3.9c1.4-2.8,0.9-6-1.1-8.4c-0.4-0.4-0.3-1.1,0.1-1.5c0.4-0.4,1.1-0.3,1.5,0.1c2.5,3,3.1,7.2,1.3,10.7
				c-1.2,2.3-3.1,4.1-5.6,4.9c-2.5,0.8-5.1,0.7-7.4-0.5l-0.8-0.4l0,0c-2.6-1.3-5.1-2.9-7.4-4.7C140.5,143.3,140.4,142.6,140.8,142.1
				C140.8,142.1,140.8,142.1,140.8,142.1z"/>
			<path class="st3" d="M124.4,119c0.1-0.2,0.3-0.3,0.5-0.4c0.5-0.2,1.1,0.1,1.3,0.7c2.4,7.2,6.5,13.9,11.9,19.1
				c0.4,0.4,0.4,1.1,0,1.5c-0.4,0.4-1.1,0.4-1.5,0c-5.7-5.5-10-12.4-12.4-20C124.2,119.6,124.2,119.2,124.4,119z"/>
			<path class="st3" d="M143.9,105.7c0.2-0.2,0.5-0.4,0.8-0.4c0.6,0,1.1,0.4,1.1,1c0.5,8.8,5.6,16.7,13.4,20.8l0.6,0.3
				c7,3.4,9.8,11.9,6.4,18.9c-0.6,1.2-1.3,2.3-2.2,3.2c-0.4,0.4-1,0.5-1.5,0.1c-0.4-0.4-0.5-1-0.1-1.5c0.7-0.8,1.4-1.7,1.9-2.7
				c2.8-5.8,0.6-12.8-5-15.8l-0.5-0.2c-8.8-4.3-14.5-13.1-15.1-22.8C143.6,106.1,143.7,105.9,143.9,105.7z"/>
			<path class="st3" d="M121.6,123.7c0.1-0.1,0.3-0.3,0.4-0.3c0.5-0.2,1.1,0,1.4,0.6c4.7,11.7,13.5,21.2,24.8,26.7l0.4,0.2
				c3.1,1.4,6.6,1.4,9.7,0.1c0.5-0.2,1.1,0,1.4,0.5c0.2,0.5,0,1.1-0.5,1.4c-3.8,1.6-8.1,1.5-11.8-0.3l-0.8-0.4l0,0
				c-11.4-5.8-20.3-15.6-25.1-27.4C121.3,124.4,121.3,124,121.6,123.7z"/>
			<path class="st3" d="M148.2,104.8c0.2-0.2,0.5-0.4,0.8-0.4c0.6,0,1.1,0.4,1.1,1c0.1,3.6,1.1,7.1,3,10.1c0.3,0.5,0.1,1.1-0.4,1.4
				c-0.5,0.3-1.1,0.1-1.4-0.4c-2-3.4-3.2-7.2-3.3-11.2C148,105.3,148,105,148.2,104.8z"/>
			<path class="st3" d="M128.6,142.8c0,0,0.1-0.1,0.1-0.1c0.4-0.4,1.1-0.4,1.5,0.1c4.6,4.9,10,8.9,16,11.9l0.3,0.1
				c8,3.8,17.7,0.4,21.6-7.6c3.9-7.9,0.8-17.5-6.9-21.6l-0.5-0.2c-2.1-1-4-2.4-5.7-4c-0.4-0.4-0.4-1.1,0-1.5c0.4-0.4,1.1-0.4,1.5,0
				c1.4,1.3,2.9,2.4,4.6,3.3l0.5,0.3c9.1,4.5,12.9,15.6,8.4,24.7c-4.5,9.1-15.6,12.9-24.7,8.4l-0.6-0.3l0,0
				c-6.1-3.1-11.5-7.1-16.1-12.1C128.3,143.7,128.3,143.2,128.6,142.8z"/>
			<path class="st3" d="M119.3,129.4c0.1-0.1,0.2-0.2,0.4-0.3c0.5-0.3,1.1,0,1.4,0.5c1.6,3.2,3.5,6.2,5.6,9c0.3,0.5,0.3,1.1-0.2,1.5
				c-0.5,0.3-1.1,0.3-1.5-0.2c-2.2-2.9-4.2-6.1-5.8-9.4C119,130.1,119.1,129.7,119.3,129.4z"/>
			<path class="st3" d="M118,136c0.1-0.1,0.2-0.2,0.3-0.3c0.5-0.3,1.1-0.1,1.4,0.3c5.9,9.6,14.3,17.3,24.4,22.3l0.2,0.1
				c2.7,1.3,5.6,2.1,8.6,2.1c0.6,0,1,0.5,1,1.1c0,0.6-0.5,1-1.1,1c-3.2-0.1-6.2-0.8-9.1-2.2l0,0l-0.3-0.2
				c-10.5-5.2-19.3-13.2-25.4-23.2C117.7,136.8,117.8,136.3,118,136z"/>
			<path class="st3" d="M157.5,160.5c0.1-0.2,0.3-0.3,0.6-0.4c6.1-1.4,11.1-5.4,13.9-11c0.7-1.4,1.3-3,1.6-4.5
				c0.1-0.6,0.7-0.9,1.2-0.8c0.6,0.1,0.9,0.7,0.8,1.2c-0.4,1.7-1,3.4-1.8,5c-3,6.2-8.6,10.6-15.3,12.1c-0.6,0.1-1.1-0.2-1.2-0.8
				C157.3,161,157.4,160.7,157.5,160.5z"/>
			<path class="st3" d="M152.5,104.6c0.2-0.2,0.5-0.4,0.8-0.4c0.6,0,1,0.4,1.1,1c0.1,6,3.4,11.3,8.7,14.1l0.5,0.2
				c7.6,3.8,12.5,11.4,12.7,19.9c0,0.6-0.4,1.1-1,1.1c-0.6,0-1.1-0.4-1.1-1c-0.2-7.5-4.4-14.3-11-17.8l-0.5-0.2
				c-6.2-3.1-10.2-9.3-10.3-16.2C152.3,105,152.4,104.7,152.5,104.6z"/>
			<path class="st3" d="M156.9,104.8c0.2-0.2,0.5-0.4,0.8-0.4c0.6,0,1.1,0.4,1.1,1c0.2,4.2,2.6,8,6.3,10l0.4,0.2
				c1.3,0.6,2.5,1.4,3.7,2.2c0.5,0.3,0.6,1,0.2,1.4c-0.3,0.5-1,0.6-1.4,0.2c-0.9-0.7-1.9-1.3-2.9-1.8l-0.5-0.2
				c-4.6-2.3-7.6-6.9-7.9-12C156.7,105.2,156.7,105,156.9,104.8z"/>
			<path class="st3" d="M138.1,161.1c0.3-0.4,0.9-0.5,1.3-0.3c0.8,0.5,1.7,0.9,2.6,1.4l0.4,0.2c12.4,6.1,27.4,1,33.5-11.4
				c2.3-4.6,3.1-9.7,2.3-14.8c-0.8-5-2.9-9.5-6.3-13.2c-0.4-0.4-0.4-1.1,0.1-1.5c0.4-0.4,1.1-0.4,1.5,0.1c3.7,4,6,8.9,6.8,14.3
				c0.8,5.5,0,11-2.5,16c-6.5,13.2-22.3,18.7-35.6,12.7l0,0l-0.7-0.3c-1-0.5-2.1-1.1-3.1-1.6c-0.5-0.3-0.7-0.9-0.4-1.4
				C138,161.2,138,161.1,138.1,161.1z"/>
			<path class="st3" d="M118.2,143.9c0.1-0.1,0.1-0.1,0.2-0.2c0.5-0.3,1.1-0.3,1.5,0.2c4.2,5.5,9.2,10.2,15,14.1
				c0.5,0.3,0.6,1,0.3,1.4c-0.3,0.5-1,0.6-1.4,0.3c-5.9-4-11.1-8.9-15.5-14.6C117.9,144.8,117.9,144.3,118.2,143.9z"/>
			<path class="st3" d="M161.3,105.7c0.2-0.2,0.4-0.3,0.7-0.4c0.6-0.1,1.1,0.3,1.2,0.9c0.4,2.3,1.8,4.3,3.9,5.5l0.3,0.1
				c7.5,3.7,13.2,10.1,15.9,18.1c2.7,8,2.1,16.5-1.6,24c-1.6,3.2-3.6,6-6.1,8.5c-0.4,0.4-1.1,0.4-1.5,0c-0.4-0.4-0.4-1.1,0-1.5
				c2.3-2.3,4.2-5,5.7-7.9c3.5-7,4-15,1.5-22.4c-2.5-7.3-7.5-13.2-14.3-16.7l-0.5-0.2c-2.8-1.4-4.8-4.1-5.3-7.1
				C161.1,106.2,161.2,105.9,161.3,105.7z"/>
			<path class="st3" d="M121,153.6C121,153.6,121,153.6,121,153.6c0.5-0.5,1.1-0.5,1.6-0.1c5.1,5.1,10.9,9.3,17.4,12.5l0.6,0.3
				c9.5,4.7,20.9,3.9,29.7-2.2c0.5-0.3,1.1-0.2,1.4,0.3c0.3,0.5,0.2,1.1-0.3,1.4c-9.1,6.3-20.9,7.3-31,2.7l0,0l-0.8-0.4
				c-6.9-3.4-13.1-7.8-18.5-13.2C120.7,154.6,120.6,154,121,153.6z"/>
		</g>
	</g>
	<g>
		<path class="st3" d="M210.7,176.8v-17.4h7.8c1.6,0,2.8,0.2,3.8,0.5c1,0.4,1.7,0.9,2.2,1.6c0.5,0.7,0.8,1.5,0.8,2.3
			c0,0.7-0.2,1.4-0.7,2.1s-1.2,1.2-2.2,1.6c1.2,0.3,2.2,0.8,2.9,1.6c0.7,0.7,1,1.6,1,2.6c0,0.8-0.2,1.6-0.6,2.3
			c-0.4,0.7-0.9,1.2-1.5,1.6c-0.6,0.4-1.4,0.7-2.3,0.9c-0.9,0.2-2,0.3-3.3,0.3H210.7z M213.4,166.7h4.5c1.2,0,2.1-0.1,2.6-0.2
			c0.7-0.2,1.2-0.5,1.6-0.9c0.4-0.4,0.5-0.9,0.5-1.5c0-0.6-0.2-1.1-0.5-1.5c-0.3-0.4-0.8-0.7-1.4-0.9c-0.6-0.2-1.7-0.2-3.1-0.2h-4.1
			V166.7z M213.4,174.8h5.1c0.9,0,1.5,0,1.9-0.1c0.6-0.1,1.2-0.3,1.6-0.5c0.4-0.2,0.8-0.5,1-1c0.3-0.4,0.4-0.9,0.4-1.5
			c0-0.6-0.2-1.2-0.6-1.7c-0.4-0.5-0.9-0.8-1.6-1c-0.7-0.2-1.7-0.3-3-0.3h-4.8V174.8z"/>
		<path class="st3" d="M243.6,159.4h2.7v10.1c0,1.8-0.2,3.1-0.7,4.2c-0.5,1-1.3,1.9-2.5,2.5c-1.2,0.6-2.8,1-4.8,1
			c-1.9,0-3.5-0.3-4.7-0.8c-1.2-0.6-2.1-1.4-2.6-2.4c-0.5-1.1-0.8-2.5-0.8-4.4v-10.1h2.7v10c0,1.5,0.2,2.6,0.5,3.3
			c0.3,0.7,0.9,1.3,1.7,1.7c0.8,0.4,1.8,0.6,3,0.6c2,0,3.4-0.4,4.3-1.2c0.9-0.8,1.3-2.2,1.3-4.4V159.4z"/>
		<path class="st3" d="M251.3,176.8v-17.4h2.7v17.4H251.3z"/>
		<path class="st3" d="M258.8,176.8v-17.4h2.7v15.4h10.2v2.1H258.8z"/>
		<path class="st3" d="M275,176.8v-17.4h7.1c1.6,0,2.8,0.1,3.7,0.2c1.2,0.2,2.2,0.6,3,1.2c1.1,0.8,1.9,1.8,2.4,3
			c0.5,1.2,0.8,2.6,0.8,4.1c0,1.3-0.2,2.5-0.5,3.5c-0.4,1-0.8,1.9-1.4,2.5c-0.6,0.7-1.2,1.2-1.9,1.6c-0.7,0.4-1.5,0.7-2.5,0.9
			c-1,0.2-2.1,0.3-3.3,0.3H275z M277.7,174.8h4.4c1.4,0,2.4-0.1,3.2-0.3c0.8-0.2,1.4-0.5,1.9-0.9c0.6-0.5,1.2-1.3,1.5-2.2
			c0.4-0.9,0.5-2,0.5-3.4c0-1.8-0.4-3.2-1.1-4.2c-0.7-1-1.6-1.6-2.6-2c-0.7-0.2-1.9-0.4-3.5-0.4h-4.3V174.8z"/>
		<path class="st3" d="M296.3,176.8v-17.4h2.7v17.4H296.3z"/>
		<path class="st3" d="M303.8,176.8v-17.4h2.8l10.9,13.7v-13.7h2.6v17.4h-2.8l-10.9-13.7v13.7H303.8z"/>
		<path class="st3" d="M334.3,170v-2l8.8,0v6.5c-1.3,0.9-2.7,1.6-4.2,2c-1.4,0.5-2.9,0.7-4.4,0.7c-2,0-3.9-0.4-5.5-1.1
			c-1.7-0.7-2.9-1.8-3.8-3.2c-0.8-1.4-1.3-2.9-1.3-4.6c0-1.7,0.4-3.3,1.3-4.7c0.8-1.5,2.1-2.6,3.6-3.3c1.6-0.7,3.4-1.1,5.5-1.1
			c1.5,0,2.8,0.2,4.1,0.6c1.2,0.4,2.2,1,2.8,1.7c0.7,0.7,1.2,1.7,1.6,2.8l-2.5,0.6c-0.3-0.9-0.7-1.6-1.2-2.1c-0.5-0.5-1.1-0.9-2-1.2
			c-0.9-0.3-1.8-0.5-2.8-0.5c-1.2,0-2.3,0.2-3.2,0.5c-0.9,0.3-1.6,0.7-2.2,1.3c-0.6,0.5-1,1.1-1.3,1.7c-0.5,1.1-0.8,2.2-0.8,3.5
			c0,1.6,0.3,2.8,1,3.9c0.6,1,1.6,1.8,2.8,2.3s2.5,0.8,3.9,0.8c1.2,0,2.3-0.2,3.5-0.6c1.1-0.4,2-0.8,2.6-1.2V170H334.3z"/>
		<path class="st3" d="M351.3,176.8l7.9-17.4h2.9l8.5,17.4h-3.1l-2.4-5.3h-8.6l-2.3,5.3H351.3z M357.2,169.7h7l-2.2-4.8
			c-0.7-1.5-1.1-2.7-1.5-3.6c-0.3,1.1-0.6,2.2-1.1,3.3L357.2,169.7z"/>
		<path class="st3" d="M379.1,176.8v-17.4h4.1l4.9,12.3c0.5,1.1,0.8,2,1,2.6c0.2-0.6,0.6-1.6,1.1-2.8l4.9-12.1h3.7v17.4h-2.6v-14.6
			l-6,14.6h-2.5l-6-14.8v14.8H379.1z"/>
		<path class="st3" d="M403.3,176.8v-17.4h14.9v2.1h-12.2v5.3h11.4v2h-11.4v5.9h12.7v2.1H403.3z"/>
		<path class="st3" d="M422.5,176.8v-17.4h2.8l10.9,13.7v-13.7h2.6v17.4H436l-10.9-13.7v13.7H422.5z"/>
		<path class="st3" d="M448.6,176.8v-15.4h-6.8v-2.1h16.4v2.1h-6.8v15.4H448.6z"/>
		<path class="st3" d="M456.6,176.8l7.9-17.4h2.9l8.5,17.4h-3.1l-2.4-5.3h-8.6l-2.3,5.3H456.6z M462.6,169.7h7l-2.2-4.8
			c-0.7-1.5-1.1-2.7-1.5-3.6c-0.3,1.1-0.6,2.2-1.1,3.3L462.6,169.7z"/>
		<path class="st3" d="M478,176.8v-17.4h2.7v15.4h10.2v2.1H478z"/>
		<path class="st3" d="M504.7,176.8l-5.5-17.4h2.8l3.1,11.4c0.3,1.2,0.6,2.4,0.9,3.6c0.5-1.9,0.8-2.9,0.9-3.2l3.9-11.8h3.3l3,8.8
			c0.7,2.2,1.3,4.2,1.6,6.2c0.3-1.1,0.6-2.4,1-3.8l3.2-11.2h2.7l-5.7,17.4h-2.6l-4.4-13.3c-0.4-1.1-0.6-1.8-0.6-2
			c-0.2,0.8-0.4,1.5-0.6,2l-4.4,13.3H504.7z"/>
		<path class="st3" d="M528.4,176.8v-17.4h14.9v2.1h-12.2v5.3h11.4v2h-11.4v5.9h12.7v2.1H528.4z"/>
		<path class="st3" d="M547.5,176.8v-17.4h2.7v15.4h10.2v2.1H547.5z"/>
		<path class="st3" d="M563.6,176.8v-17.4h2.7v15.4h10.2v2.1H563.6z"/>
		<path class="st3" d="M579.6,176.8v-17.4h7.8c1.6,0,2.8,0.2,3.8,0.5c1,0.4,1.7,0.9,2.2,1.6c0.5,0.7,0.8,1.5,0.8,2.3
			c0,0.7-0.2,1.4-0.7,2.1c-0.5,0.7-1.2,1.2-2.2,1.6c1.2,0.3,2.2,0.8,2.9,1.6c0.7,0.7,1,1.6,1,2.6c0,0.8-0.2,1.6-0.6,2.3
			c-0.4,0.7-0.9,1.2-1.5,1.6c-0.6,0.4-1.4,0.7-2.3,0.9c-0.9,0.2-2,0.3-3.3,0.3H579.6z M582.4,166.7h4.5c1.2,0,2.1-0.1,2.6-0.2
			c0.7-0.2,1.2-0.5,1.6-0.9c0.4-0.4,0.5-0.9,0.5-1.5c0-0.6-0.2-1.1-0.5-1.5c-0.3-0.4-0.8-0.7-1.4-0.9c-0.6-0.2-1.7-0.2-3.1-0.2h-4.1
			V166.7z M582.4,174.8h5.1c0.9,0,1.5,0,1.9-0.1c0.6-0.1,1.2-0.3,1.6-0.5c0.4-0.2,0.8-0.5,1-1c0.3-0.4,0.4-0.9,0.4-1.5
			c0-0.6-0.2-1.2-0.6-1.7c-0.4-0.5-0.9-0.8-1.6-1c-0.7-0.2-1.7-0.3-3-0.3h-4.8V174.8z"/>
		<path class="st3" d="M599.1,176.8v-17.4H614v2.1h-12.2v5.3h11.4v2h-11.4v5.9h12.7v2.1H599.1z"/>
		<path class="st3" d="M618.7,176.8v-17.4h2.7v17.4H618.7z"/>
		<path class="st3" d="M626.2,176.8v-17.4h2.8l10.9,13.7v-13.7h2.6v17.4h-2.8l-10.9-13.7v13.7H626.2z"/>
		<path class="st3" d="M656.8,170v-2l8.8,0v6.5c-1.3,0.9-2.7,1.6-4.2,2c-1.4,0.5-2.9,0.7-4.4,0.7c-2,0-3.9-0.4-5.5-1.1
			c-1.7-0.7-2.9-1.8-3.8-3.2c-0.8-1.4-1.3-2.9-1.3-4.6c0-1.7,0.4-3.3,1.3-4.7c0.8-1.5,2.1-2.6,3.6-3.3s3.4-1.1,5.5-1.1
			c1.5,0,2.8,0.2,4.1,0.6c1.2,0.4,2.2,1,2.8,1.7c0.7,0.7,1.2,1.7,1.6,2.8l-2.5,0.6c-0.3-0.9-0.7-1.6-1.2-2.1c-0.5-0.5-1.1-0.9-2-1.2
			c-0.9-0.3-1.8-0.5-2.8-0.5c-1.2,0-2.3,0.2-3.2,0.5c-0.9,0.3-1.6,0.7-2.2,1.3c-0.6,0.5-1,1.1-1.3,1.7c-0.5,1.1-0.8,2.2-0.8,3.5
			c0,1.6,0.3,2.8,1,3.9c0.6,1,1.6,1.8,2.8,2.3c1.2,0.5,2.5,0.8,3.9,0.8c1.2,0,2.3-0.2,3.5-0.6c1.1-0.4,2-0.8,2.6-1.2V170H656.8z"/>
		<path class="st3" d="M692.3,170.7l2.7,0.6c-0.6,1.9-1.6,3.3-3.1,4.3c-1.5,1-3.3,1.5-5.5,1.5c-2.2,0-4-0.4-5.4-1.1
			c-1.4-0.8-2.5-1.9-3.2-3.3c-0.7-1.4-1.1-3-1.1-4.7c0-1.8,0.4-3.4,1.2-4.7c0.8-1.3,2-2.4,3.5-3.1c1.5-0.7,3.2-1.1,5-1.1
			c2.1,0,3.8,0.4,5.2,1.3c1.4,0.9,2.4,2.1,2.9,3.7l-2.7,0.5c-0.5-1.3-1.2-2.2-2.1-2.8c-0.9-0.6-2.1-0.9-3.4-0.9c-1.6,0-2.9,0.3-4,1
			c-1.1,0.6-1.8,1.5-2.2,2.6c-0.4,1.1-0.6,2.2-0.6,3.3c0,1.5,0.3,2.8,0.8,3.9c0.5,1.1,1.3,1.9,2.4,2.5c1.1,0.5,2.3,0.8,3.5,0.8
			c1.5,0,2.8-0.4,3.9-1.1C691.2,173.3,692,172.2,692.3,170.7z"/>
		<path class="st3" d="M712,159.4h2.7v10.1c0,1.8-0.2,3.1-0.7,4.2c-0.5,1-1.3,1.9-2.5,2.5c-1.2,0.6-2.8,1-4.8,1
			c-1.9,0-3.5-0.3-4.7-0.8c-1.2-0.6-2.1-1.4-2.6-2.4c-0.5-1.1-0.8-2.5-0.8-4.4v-10.1h2.7v10c0,1.5,0.2,2.6,0.5,3.3
			c0.3,0.7,0.9,1.3,1.7,1.7c0.8,0.4,1.8,0.6,3,0.6c2,0,3.4-0.4,4.3-1.2c0.9-0.8,1.3-2.2,1.3-4.4V159.4z"/>
		<path class="st3" d="M719.2,176.8v-17.4h2.7v15.4h10.2v2.1H719.2z"/>
		<path class="st3" d="M738.5,176.8v-15.4h-6.8v-2.1H748v2.1h-6.8v15.4H738.5z"/>
		<path class="st3" d="M764.4,159.4h2.7v10.1c0,1.8-0.2,3.1-0.7,4.2c-0.5,1-1.3,1.9-2.5,2.5c-1.2,0.6-2.8,1-4.8,1
			c-1.9,0-3.5-0.3-4.7-0.8c-1.2-0.6-2.1-1.4-2.6-2.4c-0.5-1.1-0.8-2.5-0.8-4.4v-10.1h2.7v10c0,1.5,0.2,2.6,0.5,3.3
			c0.3,0.7,0.9,1.3,1.7,1.7c0.8,0.4,1.8,0.6,3,0.6c2,0,3.4-0.4,4.3-1.2c0.9-0.8,1.3-2.2,1.3-4.4V159.4z"/>
		<path class="st3" d="M771.7,176.8v-17.4h9.2c1.8,0,3.2,0.2,4.2,0.5c1,0.3,1.7,0.9,2.3,1.7c0.6,0.8,0.9,1.7,0.9,2.6
			c0,1.2-0.5,2.3-1.4,3.1c-1,0.8-2.4,1.4-4.4,1.6c0.7,0.3,1.3,0.6,1.6,0.9c0.8,0.6,1.6,1.4,2.3,2.3l3.6,4.7h-3.4l-2.7-3.6
			c-0.8-1-1.5-1.8-2-2.4c-0.5-0.6-1-0.9-1.4-1.2c-0.4-0.2-0.8-0.4-1.2-0.5c-0.3-0.1-0.8-0.1-1.5-0.1h-3.2v7.7H771.7z M774.5,167.1
			h5.9c1.2,0,2.2-0.1,2.9-0.3c0.7-0.2,1.2-0.6,1.6-1c0.4-0.5,0.5-1,0.5-1.6c0-0.8-0.4-1.5-1.1-2c-0.7-0.5-1.8-0.8-3.4-0.8h-6.5
			V167.1z"/>
		<path class="st3" d="M792.6,176.8v-17.4h14.9v2.1h-12.2v5.3h11.4v2h-11.4v5.9H808v2.1H792.6z"/>
	</g>
	<g>
		<path class="st3" d="M207.2,51.1h26.4c17.6,0,30.3,5.5,30.3,21.7v3.8c0,8.7-4.2,15.7-10.8,18.7c7.2,3.3,12.1,10.5,12.1,19.4v3.8
			c0,15.5-12.8,22.3-31.6,22.3h-15.8c0,0-10.6-0.1-10.6-6.4V51.1z M218,60v31h16.7c13.7,0,18.5-5.6,18.5-16.3
			c0-10.9-6.3-14.8-19.5-14.8H218z M218,99.9v32.2h15.7c14.5,0,20.8-4.5,20.8-15.4c0-10.5-6-16.8-19.8-16.8H218z"/>
		<path class="st3" d="M282.3,86.5v55.3c0,0-10.3,0-10.3-6.4V75.9c3,1.5,5.5,2.1,7.8,2.1c5.4,0,9.7-2.7,16.8-2.7
			c9,0,15.1,3.5,15.1,10.4c0,3.1-1.2,5.8-3.6,9.1c0-7.1-6.2-10.4-13.6-10.4C287.8,84.3,282.3,86.5,282.3,86.5z"/>
		<path class="st3" d="M323.3,54.8c3-3,5.6-6,5.6-8.9c0-1-0.3-1.9-0.8-3c5.4,1.8,14.5,8,3.7,16.8l-10.3,8.3c0,0-10.5-1.7-5.6-6.3
			L323.3,54.8z M316.1,76.8c0.6,0,10.3,0.1,10.3,6.4v59c0,0-10.3,0-10.3-6.4V76.8z"/>
		<path class="st3" d="M334.5,95.5c0-12.7,10.4-20.3,22.4-20.3c15.5,0,20,7.1,20,7.1s-1.3-3-1.3-11.7V45.1c0.9,0,10.3-0.1,10.3,7.7
			v89c-2.8-1.3-6.5-1.7-8.7-1.7c-5.1,0-10.8,2.3-17.1,2.3c-16.3,0-25.7-7.4-25.7-20.4V95.5z M375.7,96.1c0-7.4-8.6-12.6-17.1-12.6
			c-8,0-13.9,4.2-13.9,13.9v22.7c0,9.4,3.7,14,16.9,14c9.6,0,14-3.2,14-3.2V96.1z"/>
		<path class="st3" d="M480.7,114c0,17.8-11.3,28.5-35.4,28.5c-24.2,0-35.4-10.6-35.4-28.5V78.1c0-17.8,11.2-28.5,35.4-28.5
			c24.1,0,35.4,10.6,35.4,28.5V114z M469.9,79.7c0-13.3-4-21.3-24.8-21.3c-20.5,0-24.5,8-24.5,21.3v32.6c0,13.3,4,21.3,24.5,21.3
			c20.8,0,24.8-8,24.8-21.3V79.7z"/>
		<path class="st3" d="M492.4,51.1h6.3c1.2,0,2.3,1.2,2.3,2.4v8.1c0,7.8-1.7,15.9-8.5,15.9c-1.7,0-3.8-0.4-5.8-1.7
			c5.1-1,5.3-8.9,4.6-13.1l-1.9-11.7H492.4z"/>
		<path class="st3" d="M580.1,76.3c0-5.4,0.9-11.5,0.9-11.5L552.6,123c0,0-6,0-10-6.4l-24.2-51.8c0,0,0.9,6.2,0.9,11.5v65.9
			c0,0-10.8,0-10.8-6.4V51.1h7.8c0.5,0,6.3-0.1,9.4,6.4l23.9,51.2l27.6-57.6c3.1,0,13.9,0,13.9,6.4v84.7c0,0-10.8,0-10.8-6.4V76.3z"
			/>
		<path class="st3" d="M651.5,128.9c0,9-12.1,13.6-24.6,13.6c-16.3,0-26.4-7.7-26.4-20.7V95.9c0-13,9.6-20.7,25.9-20.7
			c16.3,0,24.4,7.7,24.4,19.4c0,10.4-7.1,19-25.9,19c-4.4,0-11-0.9-14.1-3.1v9.4c0,9,5,13.6,16.9,13.6c11.2,0,20.5-4.6,20.5-13.6
			C650.4,123.2,651.5,126.2,651.5,128.9z M610.7,102.3c0.1,0.3,7.8,2.3,13.3,2.3c12.2,0,16.4-3.7,16.4-10c0-6.5-3.6-11-14.1-11
			c-11.4,0-15.7,5.3-15.7,14.2V102.3z"/>
		<path class="st3" d="M694.3,95.4c0-6.5-3-11.2-14.9-11.2c-11.9,0-20,4.6-20,13.6c-2.4-3.5-3.5-6.7-3.5-9.4
			c0-8.7,11-13.2,23.5-13.2c16.3,0,25.1,7.7,25.1,20.7v45.9c-3.1-1.3-5.8-1.7-8.5-1.7c-5.9,0-11.3,2.3-18.3,2.3
			c-11.7,0-23.7-5-23.7-18.9C654,98.8,689.8,107.7,694.3,95.4z M694.7,105.5c-2.4,8.6-30.4,3-30.4,18.2c0,5.6,4.2,10.5,15.3,10.5
			c9.4,0,15.1-3.5,15.1-3.5V105.5z"/>
		<path class="st3" d="M720.6,86.5v55.3c0,0-10.3,0-10.3-6.4V75.9c3,1.5,5.5,2.1,7.8,2.1c5.4,0,9.7-2.7,16.8-2.7
			c9,0,15.1,3.5,15.1,10.4c0,3.1-1.2,5.8-3.6,9.1c0-7.1-6.2-10.4-13.6-10.4C726.1,84.3,720.6,86.5,720.6,86.5z"/>
		<path class="st3" d="M790.8,95.4c0-6.5-3-11.2-14.9-11.2c-11.9,0-20,4.6-20,13.6c-2.4-3.5-3.5-6.7-3.5-9.4
			c0-8.7,11-13.2,23.5-13.2c16.3,0,25.1,7.7,25.1,20.7v45.9c-3.1-1.3-5.8-1.7-8.5-1.7c-5.9,0-11.3,2.3-18.3,2.3
			c-11.7,0-23.7-5-23.7-18.9C750.6,98.8,786.4,107.7,790.8,95.4z M791.2,105.5c-2.4,8.6-30.4,3-30.4,18.2c0,5.6,4.2,10.5,15.3,10.5
			c9.4,0,15.1-3.5,15.1-3.5V105.5z"/>
	</g>
</g>
</svg>
